<svg width="24" height="24" viewBox="0 0 24 24" fill="none" xmlns="http://www.w3.org/2000/svg">
<path d="M16.7002 18.9799H7.3002C6.8802 18.9799 6.4102 18.6499 6.2702 18.2499L2.1302 6.66986C1.5402 5.00986 2.2302 4.49986 3.6502 5.51986L7.5502 8.30986C8.2002 8.75986 8.9402 8.52986 9.2202 7.79986L10.9802 3.10986C11.5402 1.60986 12.4702 1.60986 13.0302 3.10986L14.7902 7.79986C15.0702 8.52986 15.8102 8.75986 16.4502 8.30986L20.1102 5.69986C21.6702 4.57986 22.4202 5.14986 21.7802 6.95986L17.7402 18.2699C17.5902 18.6499 17.1202 18.9799 16.7002 18.9799Z" stroke="#02060C" stroke-width="1.5" stroke-linecap="round" stroke-linejoin="round"/>
<path d="M6.5 22H17.5" stroke="#02060C" stroke-width="1.5" stroke-linecap="round" stroke-linejoin="round"/>
<path d="M9.5 14H14.5" stroke="#02060C" stroke-width="1.5" stroke-linecap="round" stroke-linejoin="round"/>
</svg>
