<svg width="365" height="108" viewBox="0 0 365 108" fill="none" xmlns="http://www.w3.org/2000/svg">
<path d="M351.557 4.0332H13.4434C8.24633 4.0332 4.03326 8.24627 4.03326 13.4434V88.8079C4.03326 94.005 8.24633 98.218 13.4434 98.218H351.557C356.754 98.218 360.967 94.005 360.967 88.8079V13.4434C360.967 8.24627 356.754 4.0332 351.557 4.0332Z" fill="#EAEAEA"/>
<path d="M351.557 4.88867C356.281 4.88867 360.111 8.71889 360.111 13.4434V88.809C360.111 93.5335 356.281 97.3637 351.557 97.3637H13.4434C8.71889 97.3637 4.88867 93.5335 4.88867 88.809V13.4434C4.88867 8.71889 8.71889 4.88867 13.4434 4.88867H351.557ZM351.557 3.17773H13.4434C7.78244 3.17773 3.17773 7.78244 3.17773 13.4434V88.809C3.17773 94.4699 7.78244 99.0746 13.4434 99.0746H351.557C357.217 99.0746 361.822 94.4699 361.822 88.809V13.4434C361.822 7.78244 357.217 3.17773 351.557 3.17773Z" fill="#EAEAEA"/>
<path d="M360.111 32.0743H4.875V102.337H360.111V32.0743Z" fill="white"/>
<path d="M200.401 27.367V17.5154C200.401 14.917 198.294 12.8103 195.696 12.8103H55.261C52.6626 12.8103 50.5559 14.917 50.5559 17.5154V27.367C50.5559 29.9653 48.4492 32.072 45.8508 32.072H4.875V102.336H360.111V32.072H205.106C202.508 32.072 200.401 29.9653 200.401 27.367Z" fill="white"/>
<path d="M351.16 21.2201L348.756 23.6234L346.353 21.2201" stroke="#6E6E6E" stroke-width="0.570312" stroke-linecap="round" stroke-linejoin="round"/>
<path d="M20.6818 42.2053H15.4771L18.1861 39.6868C18.3891 39.4986 18.4005 39.1815 18.2112 38.9785C18.023 38.7766 17.7059 38.7652 17.5029 38.9534L13.8608 42.341C13.6475 42.5395 13.6475 42.8771 13.8608 43.0745L17.5029 46.461C17.7059 46.6492 18.0218 46.6378 18.2112 46.4359C18.3994 46.2329 18.388 45.9158 18.1861 45.7276L15.4748 43.2079H20.6818C20.9578 43.2079 21.1825 42.9832 21.1825 42.7072C21.1825 42.4312 20.9578 42.2065 20.6818 42.2065V42.2053Z" fill="#BDBDBD"/>
<path d="M32.7245 43.2067H37.9292L35.2202 45.7252C35.0171 45.9135 35.0057 46.2305 35.1951 46.4336C35.3833 46.6355 35.7004 46.6469 35.9034 46.4587L39.5454 43.071C39.7587 42.8725 39.7587 42.5349 39.5454 42.3376L35.9034 38.9511C35.7004 38.7629 35.3844 38.7743 35.1951 38.9762C35.0069 39.1792 35.0183 39.4963 35.2202 39.6845L37.9314 42.2041H32.7245C32.4485 42.2041 32.2238 42.4288 32.2238 42.7049C32.2238 42.9809 32.4485 43.2056 32.7245 43.2056V43.2067Z" fill="#BDBDBD"/>
<path d="M58.3487 43.1304C58.0681 43.0665 57.7875 43.2536 57.743 43.5444C57.6654 44.0532 57.5183 44.5573 57.1442 44.9109C54.6348 47.2868 51.2369 45.3558 51.4947 42.4825C51.5985 41.3236 52.3707 40.2891 53.4554 39.8648C54.5926 39.4199 55.8199 39.6298 56.7199 40.3986C56.7199 40.4009 56.7199 40.4009 56.7199 40.4043L55.7275 40.8948C55.5005 41.0077 55.5222 41.3385 55.7629 41.4195L58.0202 42.1825C58.1696 42.2327 58.3304 42.1529 58.3806 42.0046L59.1437 39.7473C59.2247 39.5066 58.9749 39.2888 58.7479 39.4006L57.6734 39.9321C57.5092 39.7598 57.3358 39.599 57.1465 39.4576C56.2522 38.7926 55.1526 38.5143 54.0485 38.6763C52.9455 38.8382 51.9714 39.4199 51.3065 40.3142C50.6415 41.2084 50.3643 42.3091 50.5263 43.4121C50.6882 44.5151 51.27 45.4892 52.1642 46.1542C52.8919 46.696 53.7554 46.98 54.6462 46.98C54.8504 46.98 55.0557 46.9652 55.2621 46.9344C56.956 46.6857 58.3487 45.3968 58.7274 43.7281C58.789 43.4589 58.619 43.1897 58.3498 43.1293L58.3487 43.1304Z" fill="#BDBDBD"/>
<path d="M360.48 54.2457H4.52026" stroke="#F3F3F3" stroke-width="0.342187" stroke-miterlimit="10"/>
<path d="M194.701 24.9909C194.555 24.9909 194.409 24.935 194.297 24.8244L190.26 20.7866C190.037 20.5642 190.037 20.2026 190.26 19.9802C190.482 19.7577 190.844 19.7577 191.066 19.9802L195.104 24.018C195.326 24.2404 195.326 24.602 195.104 24.8244C194.992 24.9362 194.846 24.9909 194.7 24.9909H194.701Z" fill="#6E6E6E"/>
<path d="M190.663 24.9909C190.517 24.9909 190.371 24.935 190.26 24.8244C190.037 24.602 190.037 24.2404 190.26 24.018L194.297 19.9802C194.52 19.7577 194.881 19.7577 195.104 19.9802C195.326 20.2026 195.326 20.5642 195.104 20.7866L191.066 24.8244C190.954 24.9362 190.808 24.9909 190.662 24.9909H190.663Z" fill="#6E6E6E"/>
<path d="M213.923 22.972H208.18C207.865 22.972 207.61 22.7165 207.61 22.4017C207.61 22.0869 207.865 21.8314 208.18 21.8314H213.923C214.238 21.8314 214.493 22.0869 214.493 22.4017C214.493 22.7165 214.238 22.972 213.923 22.972Z" fill="#6E6E6E"/>
<path d="M211.051 25.8431C210.736 25.8431 210.481 25.5876 210.481 25.2728V19.5298C210.481 19.215 210.736 18.9595 211.051 18.9595C211.366 18.9595 211.621 19.215 211.621 19.5298V25.2728C211.621 25.5876 211.366 25.8431 211.051 25.8431Z" fill="#6E6E6E"/>
<path d="M277.314 42.4539C277.314 42.4539 277.306 42.4551 277.302 42.4551C277.108 42.4493 276.913 42.4539 276.709 42.4539C276.707 42.4186 276.704 42.3878 276.704 42.357C276.704 41.879 276.704 41.4011 276.704 40.9232C276.704 40.589 276.558 40.3403 276.259 40.1864C276.138 40.1236 276.007 40.1076 275.872 40.1076C275.402 40.1088 274.933 40.1076 274.463 40.1076H274.36C274.36 39.8955 274.367 39.6925 274.359 39.4906C274.344 39.1164 274.169 38.8324 273.838 38.6579C273.185 38.3123 272.422 38.7811 272.41 39.5339C272.406 39.721 272.41 39.9069 272.41 40.1031C272.374 40.1042 272.344 40.1076 272.313 40.1076C271.835 40.1076 271.357 40.1076 270.88 40.1076C270.548 40.1076 270.297 40.2525 270.154 40.5525C270.106 40.6529 270.077 40.7715 270.075 40.8833C270.066 41.3658 270.07 41.8494 270.069 42.3319C270.069 42.3421 270.072 42.3524 270.074 42.3729C270.255 42.3729 270.437 42.3649 270.617 42.3752C270.748 42.3832 270.885 42.3969 271.008 42.4391C271.478 42.5988 271.766 43.0801 271.698 43.5672C271.628 44.0656 271.227 44.4443 270.729 44.4751C270.545 44.4865 270.36 44.4808 270.176 44.4831C270.144 44.4831 270.113 44.4831 270.069 44.4831C270.069 44.5173 270.069 44.5447 270.069 44.5732C270.069 45.0192 270.075 45.4652 270.066 45.91C270.058 46.3058 270.311 46.6617 270.721 46.7358C270.727 46.737 270.734 46.7438 270.74 46.7472H272.325C272.328 46.5636 272.328 46.3799 272.331 46.1963C272.338 45.7423 272.535 45.4013 272.949 45.2051C273.621 44.8857 274.42 45.3796 274.438 46.1244C274.444 46.332 274.438 46.5396 274.439 46.7484H276.024C276.174 46.7073 276.32 46.6605 276.437 46.5522C276.591 46.4107 276.694 46.2385 276.697 46.0298C276.707 45.5256 276.703 45.0215 276.704 44.5173C276.704 44.4831 276.704 44.4489 276.704 44.4055C276.842 44.4055 277.291 44.4078 277.314 44.4078C277.854 44.4078 278.292 43.9698 278.292 43.4303C278.292 42.8908 277.854 42.4528 277.314 42.4528V42.4539Z" fill="#BDBDBD"/>
<path d="M298.123 38.553H296.35C296.026 38.553 295.764 38.8154 295.764 39.1393V43.3528C295.593 43.3231 295.433 43.2775 295.271 43.2706C294.036 43.2125 293.105 44.3645 293.511 45.6625C293.832 46.688 294.998 47.102 295.957 46.6172C296.614 46.2853 296.945 45.7321 296.946 44.985C296.949 43.2775 296.947 41.5711 296.947 39.8636V39.7244H298.124C298.448 39.7244 298.71 39.4621 298.71 39.1382C298.71 38.8142 298.448 38.5519 298.124 38.5519L298.123 38.553Z" fill="#BDBDBD"/>
<path d="M288.101 39.7255H293.99C294.317 39.7255 294.581 39.4609 294.581 39.1347C294.581 38.8084 294.317 38.5438 293.99 38.5438H288.101C287.775 38.5438 287.51 38.8084 287.51 39.1347C287.51 39.4609 287.775 39.7255 288.101 39.7255Z" fill="#BDBDBD"/>
<path d="M288.101 42.0833H293.99C294.317 42.0833 294.581 41.8187 294.581 41.4925C294.581 41.1662 294.317 40.9016 293.99 40.9016H288.101C287.775 40.9016 287.511 41.1662 287.511 41.4925C287.511 41.8187 287.775 42.0833 288.101 42.0833Z" fill="#BDBDBD"/>
<path d="M291.631 43.265H288.101C287.775 43.265 287.511 43.5296 287.511 43.8559C287.511 44.1821 287.775 44.4467 288.101 44.4467H291.631C291.957 44.4467 292.221 44.1821 292.221 43.8559C292.221 43.5296 291.957 43.265 291.631 43.265Z" fill="#BDBDBD"/>
<path d="M307.225 38.553V46.8191H315.491V38.553H307.225ZM312.596 45.8028H308.438V39.7655H312.596V45.8028Z" fill="#BDBDBD"/>
<path d="M330.255 47.459C330.431 47.4476 330.587 47.4419 330.743 47.4248C332.098 47.2765 333.175 46.6377 334.026 45.5849C334.187 45.3853 334.189 45.2017 334.094 44.9918C334.073 44.9462 334.049 44.9006 334.023 44.8572C333.834 44.5378 333.551 44.3166 333.234 44.1398C332.361 43.6527 331.414 43.4143 330.422 43.3641C329.722 43.3288 329.042 43.4748 328.377 43.6835C327.82 43.858 327.288 44.0816 326.844 44.4728C326.601 44.6873 326.409 44.9382 326.381 45.277C326.376 45.3306 326.391 45.3979 326.422 45.4401C327.377 46.7392 328.661 47.4111 330.255 47.4601V47.459ZM330.266 42.1186C331.364 42.1254 332.212 41.2882 332.224 40.1829C332.237 39.0845 331.385 38.2256 330.278 38.2222C329.172 38.2188 328.32 39.0663 328.32 40.1704C328.32 41.2688 329.162 42.1117 330.266 42.1186ZM336.778 42.7836C336.778 46.3822 333.861 49.2988 330.262 49.2988C326.664 49.2988 323.747 46.3822 323.747 42.7836C323.747 39.1849 326.664 36.2683 330.262 36.2683C333.861 36.2683 336.778 39.1849 336.778 42.7836Z" fill="#BDBDBD"/>
<path d="M349.014 40.8456C349.544 40.7597 349.903 40.2611 349.817 39.7319C349.731 39.2028 349.232 38.8434 348.703 38.9293C348.174 39.0152 347.815 39.5138 347.901 40.043C347.987 40.5721 348.485 40.9315 349.014 40.8456Z" fill="#BDBDBD"/>
<path d="M349.546 43.4703C349.925 43.0912 349.925 42.4766 349.546 42.0976C349.167 41.7185 348.552 41.7185 348.173 42.0976C347.794 42.4766 347.794 43.0912 348.173 43.4703C348.552 43.8494 349.167 43.8494 349.546 43.4703Z" fill="#BDBDBD"/>
<path d="M349.756 46.0349C349.961 45.5396 349.726 44.9718 349.231 44.7666C348.735 44.5615 348.168 44.7967 347.963 45.2919C347.757 45.7872 347.993 46.355 348.488 46.5602C348.983 46.7653 349.551 46.5301 349.756 46.0349Z" fill="#BDBDBD"/>
<path d="M254.74 34.7148H75.4672C71.0537 34.7148 67.476 38.2926 67.476 42.7061C67.476 47.1195 71.0537 50.6973 75.4672 50.6973H254.74C259.154 50.6973 262.732 47.1195 262.732 42.7061C262.732 38.2926 259.154 34.7148 254.74 34.7148Z" fill="#F3F3F3"/>
<path d="M84.4952 45.2884V39.567H85.1978V41.6201C85.5252 41.2403 85.9392 41.0498 86.4388 41.0498C86.7457 41.0498 87.0126 41.1103 87.2384 41.2312C87.4643 41.3521 87.6262 41.5198 87.7243 41.7331C87.8224 41.9464 87.8703 42.2555 87.8703 42.6615V45.2884H87.1677V42.6615C87.1677 42.3102 87.0913 42.0547 86.9396 41.895C86.7867 41.7353 86.5723 41.6555 86.294 41.6555C86.0864 41.6555 85.8902 41.7091 85.7066 41.8175C85.5229 41.9258 85.3929 42.0718 85.3142 42.2566C85.2366 42.4414 85.1967 42.6957 85.1967 43.022V45.2895H84.4941L84.4952 45.2884Z" fill="#6E6E6E"/>
<path d="M90.3535 44.66L90.455 45.2805C90.2576 45.3215 90.0808 45.3432 89.9246 45.3432C89.6691 45.3432 89.4717 45.3033 89.3314 45.2223C89.1912 45.1413 89.0919 45.0352 89.0349 44.9041C88.9779 44.7729 88.9493 44.4957 88.9493 44.0748V41.6898H88.4338V41.1434H88.9493V40.1169L89.6474 39.6948V41.1423H90.3535V41.6886H89.6474V44.1125C89.6474 44.3132 89.66 44.4421 89.6839 44.4991C89.709 44.5562 89.7489 44.6018 89.8048 44.636C89.8607 44.6702 89.9405 44.6862 90.0443 44.6862C90.1219 44.6862 90.2257 44.6771 90.3523 44.6588L90.3535 44.66Z" fill="#6E6E6E"/>
<path d="M92.7122 44.66L92.8137 45.2805C92.6164 45.3215 92.4396 45.3432 92.2833 45.3432C92.0278 45.3432 91.8305 45.3033 91.6902 45.2223C91.5499 45.1413 91.4507 45.0352 91.3937 44.9041C91.3366 44.7729 91.3081 44.4957 91.3081 44.0748V41.6898H90.7925V41.1434H91.3081V40.1169L92.0062 39.6948V41.1423H92.7122V41.6886H92.0062V44.1125C92.0062 44.3132 92.0187 44.4421 92.0427 44.4991C92.0678 44.5562 92.1077 44.6018 92.1636 44.636C92.2195 44.6702 92.2993 44.6862 92.4031 44.6862C92.4807 44.6862 92.5845 44.6771 92.7111 44.6588L92.7122 44.66Z" fill="#6E6E6E"/>
<path d="M93.3898 46.8774V41.1446H94.0297V41.683C94.1803 41.472 94.3514 41.3145 94.5407 41.2085C94.7312 41.1035 94.9605 41.0499 95.2319 41.0499C95.5855 41.0499 95.898 41.1412 96.1684 41.3237C96.4387 41.5062 96.6429 41.7628 96.7809 42.0947C96.9189 42.4267 96.9873 42.7905 96.9873 43.1852C96.9873 43.6095 96.9109 43.9916 96.7592 44.3304C96.6075 44.6703 96.3862 44.9303 96.0954 45.1105C95.8057 45.2919 95.5 45.382 95.1806 45.382C94.9468 45.382 94.7357 45.333 94.5498 45.2337C94.3639 45.1345 94.2111 45.0102 94.0913 44.8596V46.8774H93.3887H93.3898ZM94.0263 43.2399C94.0263 43.7737 94.1346 44.1673 94.3502 44.4228C94.5658 44.6783 94.8281 44.8049 95.135 44.8049C95.4418 44.8049 95.7144 44.6725 95.9368 44.4091C96.1593 44.1456 96.271 43.7361 96.271 43.1818C96.271 42.6274 96.1627 42.2578 95.9448 41.9955C95.727 41.7332 95.468 41.6008 95.1658 41.6008C94.8635 41.6008 94.6023 41.7411 94.3719 42.0206C94.1415 42.3 94.0263 42.7073 94.0263 43.2399Z" fill="#6E6E6E"/>
<path d="M97.5063 44.052L98.2009 43.9425C98.2397 44.2208 98.3481 44.4341 98.5271 44.5824C98.7051 44.7306 98.9549 44.8048 99.2743 44.8048C99.5936 44.8048 99.8366 44.7386 99.9929 44.6075C100.149 44.4763 100.227 44.3223 100.227 44.1455C100.227 43.987 100.158 43.8615 100.02 43.7714C99.9244 43.7086 99.6849 43.6299 99.3016 43.533C98.7861 43.403 98.4291 43.29 98.2306 43.1954C98.0321 43.1007 97.8804 42.9695 97.7778 42.8007C97.6751 42.633 97.6238 42.4471 97.6238 42.2441C97.6238 42.0593 97.666 41.8882 97.7504 41.7308C97.8348 41.5734 97.95 41.4422 98.096 41.3384C98.2055 41.2574 98.3538 41.189 98.5431 41.1331C98.7325 41.0772 98.9344 41.0487 99.1499 41.0487C99.475 41.0487 99.7602 41.0955 100.007 41.189C100.252 41.2825 100.434 41.4091 100.551 41.57C100.668 41.7297 100.748 41.9441 100.792 42.2121L100.106 42.3057C100.075 42.0924 99.9837 41.9258 99.8343 41.8061C99.6849 41.6863 99.4727 41.627 99.2001 41.627C98.8773 41.627 98.6469 41.6806 98.5089 41.7867C98.3709 41.8939 98.3024 42.0182 98.3024 42.1608C98.3024 42.2521 98.331 42.3342 98.388 42.4072C98.445 42.4825 98.5351 42.5452 98.6572 42.5943C98.7279 42.6205 98.9344 42.6798 99.2777 42.7733C99.775 42.9056 100.122 43.0151 100.318 43.0995C100.514 43.184 100.668 43.3071 100.78 43.468C100.892 43.6288 100.948 43.8295 100.948 44.0691C100.948 44.3086 100.879 44.5242 100.742 44.7306C100.605 44.9371 100.408 45.0979 100.151 45.2108C99.8936 45.3238 99.6028 45.3808 99.2777 45.3808C98.7393 45.3808 98.3287 45.269 98.0469 45.0455C97.7641 44.8219 97.585 44.49 97.5063 44.0508V44.052Z" fill="#6E6E6E"/>
<path d="M101.761 41.9442V41.1447H102.56V41.9442H101.761ZM101.761 45.2885V44.489H102.56V45.2885H101.761Z" fill="#6E6E6E"/>
<path d="M77.6069 39.566H77.8738C77.9195 39.574 77.9651 39.582 78.0107 39.59C78.6757 39.6961 79.2266 40.2698 79.2814 40.9359C79.3042 41.2177 79.2916 41.5017 79.2951 41.7846C79.2951 41.8142 79.2951 41.8439 79.2951 41.8792C79.3532 41.8792 79.4046 41.8792 79.457 41.8792C79.8232 41.8792 80.0718 42.1245 80.0718 42.486C80.0718 43.3655 80.0718 44.2437 80.0718 45.1232C80.0718 45.4859 79.8232 45.7323 79.4582 45.7323C79.0943 45.7323 78.7293 45.7323 78.3655 45.7323C77.5784 45.7323 76.7914 45.7323 76.0044 45.7323C75.6747 45.7323 75.4112 45.4847 75.4101 45.1654C75.4078 44.2586 75.4078 43.3506 75.4101 42.4438C75.4101 42.1678 75.6177 41.9328 75.8914 41.8906C75.9861 41.8758 76.0842 41.8792 76.1857 41.8735C76.1857 41.8519 76.1857 41.8302 76.1857 41.8085C76.1857 41.5656 76.1834 41.3226 76.1857 41.0796C76.1937 40.4352 76.6237 39.8501 77.2408 39.6504C77.3594 39.6117 77.4838 39.5934 77.6058 39.566H77.6069ZM76.7081 41.8758H78.7761V41.8142C78.7761 41.5872 78.7761 41.3602 78.7761 41.1344C78.7761 41.066 78.7715 40.9975 78.7613 40.9314C78.678 40.3953 78.1316 40.004 77.5944 40.093C77.0674 40.1797 76.7104 40.5937 76.707 41.1219C76.7058 41.3545 76.707 41.5872 76.707 41.8199C76.707 41.837 76.7081 41.8553 76.7093 41.8769L76.7081 41.8758Z" fill="#606060"/>
<path d="M254.583 41.3385L252.185 40.9906L251.113 38.8177C251.037 38.6614 250.878 38.5634 250.704 38.5634C250.529 38.5634 250.372 38.6614 250.294 38.8177L249.222 40.9906L246.824 41.3385C246.652 41.3636 246.51 41.4834 246.456 41.6487C246.402 41.8141 246.447 41.9955 246.571 42.1164L248.306 43.8079L247.897 46.1964C247.867 46.3675 247.938 46.5409 248.078 46.6424C248.218 46.7451 248.405 46.7576 248.558 46.6766L250.702 45.5485L252.847 46.6766C252.914 46.712 252.986 46.7291 253.059 46.7291C253.154 46.7291 253.247 46.6994 253.327 46.6424C253.467 46.5409 253.538 46.3675 253.508 46.1964L253.099 43.8079L254.834 42.1164C254.958 41.9955 255.003 41.8141 254.949 41.6487C254.895 41.4834 254.753 41.3636 254.581 41.3385H254.583ZM252.291 43.322C252.184 43.427 252.135 43.5775 252.16 43.7258L252.454 45.439L250.916 44.6303C250.85 44.595 250.777 44.5779 250.704 44.5779C250.631 44.5779 250.558 44.595 250.491 44.6303L248.953 45.439L249.247 43.7258C249.272 43.5775 249.223 43.427 249.116 43.322L247.871 42.1084L249.591 41.8586C249.74 41.837 249.869 41.7434 249.935 41.6088L250.705 40.0496L251.475 41.6088C251.541 41.7434 251.67 41.837 251.818 41.8586L253.538 42.1084L252.294 43.322H252.291Z" fill="#424242"/>
<path d="M238.168 41.2233H237.989C237.737 41.2233 237.533 41.4274 237.533 41.6795C237.533 41.9316 237.737 42.1358 237.989 42.1358H238.168C238.368 42.1358 238.53 42.2977 238.53 42.4973V45.9489C238.53 46.1485 238.368 46.3105 238.168 46.3105H234.616C234.417 46.3105 234.255 46.1485 234.255 45.9489V42.4973C234.255 42.2977 234.417 42.1358 234.616 42.1358H234.782C235.034 42.1358 235.238 41.9316 235.238 41.6795C235.238 41.4274 235.034 41.2233 234.782 41.2233H234.616C233.914 41.2233 233.342 41.7947 233.342 42.4973V45.9489C233.342 46.6515 233.914 47.223 234.616 47.223H238.168C238.871 47.223 239.442 46.6515 239.442 45.9489V42.4973C239.442 41.7947 238.871 41.2233 238.168 41.2233Z" fill="#424242"/>
<path d="M235.223 40.5969L235.936 39.884V44.134C235.936 44.3861 236.14 44.5902 236.392 44.5902C236.644 44.5902 236.849 44.3861 236.849 44.134V39.884L237.561 40.5969C237.65 40.6859 237.767 40.7304 237.884 40.7304C238.002 40.7304 238.118 40.6859 238.207 40.5969C238.385 40.419 238.385 40.1293 238.207 39.9513L236.715 38.4594C236.537 38.2814 236.249 38.2814 236.069 38.4594L234.578 39.9513C234.4 40.1293 234.4 40.4178 234.578 40.5969C234.755 40.7749 235.045 40.7749 235.223 40.5969Z" fill="#424242"/>
<path d="M15.557 23.5003C17.3794 23.5003 18.8568 22.0229 18.8568 20.2005C18.8568 18.378 17.3794 16.9006 15.557 16.9006C13.7345 16.9006 12.2571 18.378 12.2571 20.2005C12.2571 22.0229 13.7345 23.5003 15.557 23.5003Z" fill="#FF6D61"/>
<path d="M15.557 23.5003C17.3794 23.5003 18.8568 22.0229 18.8568 20.2005C18.8568 18.378 17.3794 16.9006 15.557 16.9006C13.7345 16.9006 12.2571 18.378 12.2571 20.2005C12.2571 22.0229 13.7345 23.5003 15.557 23.5003Z" stroke="#FF4C3D" stroke-width="0.342187" stroke-miterlimit="10"/>
<path d="M14.129 21.6285L16.984 18.7723" stroke="#9E0000" stroke-width="0.342187" stroke-linecap="round" stroke-linejoin="round"/>
<path d="M14.129 18.7723L16.984 21.6285" stroke="#9E0000" stroke-width="0.342187" stroke-linecap="round" stroke-linejoin="round"/>
<path d="M27.14 23.5003C28.9625 23.5003 30.4399 22.0229 30.4399 20.2005C30.4399 18.378 28.9625 16.9006 27.14 16.9006C25.3176 16.9006 23.8402 18.378 23.8402 20.2005C23.8402 22.0229 25.3176 23.5003 27.14 23.5003Z" fill="#FFC232"/>
<path d="M25.566 20.2003H28.7141" stroke="#B65A00" stroke-width="0.342187" stroke-linecap="round" stroke-linejoin="round"/>
<path d="M27.14 23.5003C28.9625 23.5003 30.4399 22.0229 30.4399 20.2005C30.4399 18.378 28.9625 16.9006 27.14 16.9006C25.3176 16.9006 23.8402 18.378 23.8402 20.2005C23.8402 22.0229 25.3176 23.5003 27.14 23.5003Z" stroke="#FDA62B" stroke-width="0.342187" stroke-miterlimit="10"/>
<path d="M38.723 23.5003C40.5455 23.5003 42.0229 22.0229 42.0229 20.2005C42.0229 18.378 40.5455 16.9006 38.723 16.9006C36.9006 16.9006 35.4232 18.378 35.4232 20.2005C35.4232 22.0229 36.9006 23.5003 38.723 23.5003Z" fill="#00CC3D"/>
<path d="M38.723 23.5003C40.5455 23.5003 42.0229 22.0229 42.0229 20.2005C42.0229 18.378 40.5455 16.9006 38.723 16.9006C36.9006 16.9006 35.4232 18.378 35.4232 20.2005C35.4232 22.0229 36.9006 23.5003 38.723 23.5003Z" stroke="#00AA13" stroke-width="0.342187" stroke-miterlimit="10"/>
<path d="M40.0497 20.5642L38.3524 18.8669H40.0497V20.5642Z" fill="#006200" stroke="#006200" stroke-width="0.342187" stroke-linecap="round" stroke-linejoin="round"/>
<path d="M37.3977 19.8365L39.095 21.5338H37.3977V19.8365Z" fill="#006200" stroke="#006200" stroke-width="0.342187" stroke-linecap="round" stroke-linejoin="round"/>
<path d="M195.696 12.8103C198.294 12.8103 200.401 14.917 200.401 17.5153V27.3669C200.401 29.9653 202.508 32.072 205.106 32.072H360.111V93.7695C360.111 98.5008 356.276 102.336 351.545 102.336H13.4411C8.70979 102.336 4.87501 98.5008 4.87501 93.7695V32.072H45.8497C48.448 32.072 50.5548 29.9653 50.5548 27.3669V17.5153C50.5548 14.917 52.6615 12.8103 55.2598 12.8103H195.695M195.696 11.2134H55.261C51.7855 11.2134 48.959 14.041 48.959 17.5153V27.3669C48.959 29.0813 47.5652 30.4751 45.8508 30.4751H3.27814V93.7695C3.27814 99.3734 7.83721 103.932 13.4411 103.932H351.545C357.149 103.932 361.708 99.3734 361.708 93.7695V30.4751H205.106C203.392 30.4751 201.998 29.0813 201.998 27.3669V17.5153C201.998 14.0398 199.17 11.2134 195.696 11.2134Z" fill="#EAEAEA"/>
<path d="M62.1252 23.1797C61.9553 23.1067 61.6564 23.0132 61.2276 22.8991C60.931 22.8181 60.7531 22.7668 60.6926 22.744C60.5877 22.7018 60.5101 22.647 60.4599 22.582C60.4109 22.5193 60.3858 22.4486 60.3858 22.3699C60.3858 22.2467 60.4451 22.1383 60.5637 22.0471C60.6824 21.9547 60.8808 21.9091 61.1591 21.9091C61.3952 21.9091 61.5766 21.9604 61.7066 22.0642C61.8355 22.1668 61.9131 22.3106 61.9405 22.4953L62.5324 22.4144C62.4948 22.1828 62.4252 21.998 62.3237 21.8611C62.2222 21.7231 62.0659 21.6136 61.8538 21.5326C61.6416 21.4517 61.3952 21.4117 61.1147 21.4117C60.9287 21.4117 60.7542 21.4357 60.5911 21.4836C60.428 21.5315 60.3002 21.5908 60.2056 21.6604C60.0801 21.7505 59.9809 21.8634 59.9079 21.9992C59.8349 22.1349 59.7984 22.282 59.7984 22.4417C59.7984 22.6162 59.8429 22.7771 59.9318 22.9219C60.0208 23.0668 60.1508 23.1797 60.3219 23.2618C60.4942 23.344 60.8021 23.4409 61.2458 23.5527C61.5755 23.636 61.7819 23.7044 61.8652 23.758C61.9838 23.8367 62.0431 23.9439 62.0431 24.0808C62.0431 24.2336 61.9758 24.366 61.8412 24.48C61.7066 24.5929 61.5002 24.65 61.2219 24.65C60.9436 24.65 60.7314 24.5861 60.5774 24.4584C60.4234 24.3306 60.3299 24.147 60.2968 23.9063L59.698 24.001C59.7653 24.3808 59.9204 24.6659 60.1645 24.8599C60.4075 25.0526 60.7622 25.1496 61.2264 25.1496C61.507 25.1496 61.758 25.1005 61.9804 25.0036C62.2028 24.9055 62.3728 24.7675 62.4902 24.5895C62.6077 24.4116 62.667 24.2211 62.667 24.0192C62.667 23.8173 62.6191 23.6394 62.5222 23.5002C62.4252 23.3611 62.2929 23.255 62.123 23.182L62.1252 23.1797Z" fill="#6E6E6E"/>
<path d="M64.8183 21.4117C64.3244 21.4117 63.9229 21.5783 63.6126 21.9102C63.3024 22.2421 63.1484 22.7086 63.1484 23.3109C63.1484 23.9131 63.3012 24.3443 63.608 24.6659C63.9137 24.9876 64.3289 25.1496 64.8513 25.1496C65.2665 25.1496 65.6076 25.0481 65.8745 24.8462C66.1414 24.6443 66.3239 24.3603 66.4231 23.9941L65.7969 23.9166C65.7045 24.1721 65.5802 24.3591 65.4228 24.4755C65.2654 24.5918 65.076 24.65 64.8536 24.65C64.5548 24.65 64.3061 24.5462 64.1065 24.3374C63.9069 24.1287 63.7962 23.8276 63.7734 23.4352H66.4391C66.4414 23.3634 66.4425 23.3097 66.4425 23.2732C66.4425 22.6835 66.2908 22.225 65.9885 21.8999C65.6851 21.5749 65.295 21.4117 64.8171 21.4117H64.8183ZM63.8088 22.9356C63.8293 22.6242 63.9343 22.3744 64.1236 22.1885C64.313 22.0026 64.5468 21.9091 64.8251 21.9091C65.1331 21.9091 65.3829 22.0254 65.5756 22.2592C65.7011 22.4098 65.7775 22.6356 65.8049 22.9356H63.8088Z" fill="#6E6E6E"/>
<path d="M70.0423 23.5687V22.7611C70.0423 22.492 70.032 22.306 70.0115 22.2022C69.9762 22.0357 69.9123 21.8988 69.8233 21.7893C69.7332 21.681 69.5929 21.5897 69.4024 21.5179C69.2119 21.446 68.9633 21.4106 68.6587 21.4106C68.3542 21.4106 68.0804 21.4528 67.8478 21.5373C67.6139 21.6217 67.436 21.7414 67.3128 21.8977C67.1896 22.054 67.1006 22.2581 67.047 22.5125L67.639 22.5935C67.704 22.3403 67.8044 22.1635 67.9401 22.0631C68.0759 21.9627 68.2869 21.9137 68.5709 21.9137C68.8766 21.9137 69.1059 21.9821 69.261 22.119C69.375 22.2205 69.4332 22.3939 69.4332 22.6402C69.4332 22.6631 69.4332 22.7155 69.4298 22.7988C69.1983 22.8798 68.839 22.9493 68.3496 23.0075C68.109 23.0372 67.9299 23.0668 67.8113 23.0988C67.6493 23.1433 67.5044 23.2094 67.3755 23.2972C67.2466 23.3851 67.1417 23.5014 67.063 23.6451C66.9832 23.79 66.9432 23.9497 66.9432 24.1253C66.9432 24.4242 67.0482 24.6694 67.2592 24.861C67.4702 25.0527 67.7725 25.1485 68.1648 25.1485C68.4032 25.1485 68.6257 25.1097 68.8332 25.031C69.0408 24.9523 69.2564 24.8177 69.4811 24.6272C69.4994 24.796 69.5393 24.942 69.602 25.0686H70.2351C70.1587 24.9318 70.1073 24.7892 70.0822 24.6398C70.056 24.4903 70.0435 24.1345 70.0435 23.571L70.0423 23.5687ZM69.4298 23.4946C69.4298 23.7615 69.3967 23.9634 69.3317 24.1002C69.2462 24.277 69.1127 24.4173 68.9313 24.5188C68.75 24.6215 68.5424 24.6717 68.3086 24.6717C68.0747 24.6717 67.8934 24.6181 67.7713 24.5097C67.6493 24.4014 67.5877 24.2679 67.5877 24.1059C67.5877 24.001 67.6162 23.9041 67.6721 23.8185C67.728 23.7318 67.8078 23.6668 67.9116 23.6212C68.0143 23.5767 68.1911 23.5356 68.4397 23.5003C68.88 23.4375 69.2097 23.3611 69.4298 23.271V23.4934V23.4946Z" fill="#6E6E6E"/>
<path d="M71.8559 21.5327C71.7384 21.6137 71.6095 21.7802 71.4704 22.0346V21.4928H70.9252V25.0675H71.5308V23.1957C71.5308 22.9402 71.5651 22.7041 71.6324 22.4885C71.6768 22.3471 71.7521 22.2365 71.8582 22.1566C71.9631 22.0768 72.0829 22.0368 72.2152 22.0368C72.3635 22.0368 72.5118 22.0802 72.6601 22.168L72.8688 21.6057C72.6578 21.4757 72.4502 21.4106 72.246 21.4106C72.1046 21.4106 71.9745 21.4506 71.8571 21.5316L71.8559 21.5327Z" fill="#6E6E6E"/>
<path d="M75.2117 24.431C75.052 24.577 74.8535 24.65 74.6163 24.65C74.3197 24.65 74.0802 24.5416 73.8954 24.3238C73.7118 24.1059 73.6194 23.7569 73.6194 23.2767C73.6194 22.7965 73.7152 22.4566 73.9057 22.2387C74.0961 22.0197 74.3448 21.9102 74.6494 21.9102C74.8512 21.9102 75.0235 21.9706 75.1661 22.0916C75.3086 22.2125 75.4079 22.3938 75.4638 22.6334L76.0523 22.5421C75.9827 22.1805 75.8242 21.9022 75.5778 21.706C75.3314 21.5098 75.0132 21.4117 74.6254 21.4117C74.3174 21.4117 74.0334 21.4836 73.7722 21.6285C73.511 21.7733 73.316 21.99 73.1882 22.2798C73.0605 22.5695 72.9966 22.9071 72.9966 23.2926C72.9966 23.8892 73.1449 24.3477 73.4426 24.6682C73.7403 24.9876 74.1338 25.1484 74.622 25.1484C75.0121 25.1484 75.3417 25.0321 75.6098 24.8005C75.8778 24.5679 76.0443 24.2473 76.1094 23.8367L75.5139 23.7591C75.4717 24.0626 75.3702 24.2861 75.2105 24.4321L75.2117 24.431Z" fill="#6E6E6E"/>
<path d="M79.4433 22.0003C79.3589 21.8166 79.2198 21.6718 79.0247 21.568C78.8297 21.4642 78.5993 21.4117 78.3346 21.4117C77.9035 21.4117 77.5465 21.5759 77.2647 21.9033V20.1331H76.6591V25.0674H77.2647V23.1112C77.2647 22.8306 77.2989 22.6105 77.3662 22.4519C77.4335 22.2923 77.5465 22.1668 77.705 22.0733C77.8636 21.9797 78.0324 21.9341 78.2114 21.9341C78.4521 21.9341 78.6369 22.0037 78.7681 22.1406C78.8992 22.2786 78.9654 22.4987 78.9654 22.8021V25.0674H79.5711V22.8021C79.5711 22.4519 79.5289 22.185 79.4445 22.0014L79.4433 22.0003Z" fill="#6E6E6E"/>
<path d="M108.096 38.8382L106.039 46.4778H105.366L107.423 38.8382H108.096ZM111.223 38.8382L109.167 46.4778H108.494L110.55 38.8382H111.223ZM113.179 45.5182L111.721 40.7325H112.493L113.528 44.3966H113.578L114.599 40.7325H115.385L116.394 44.3841H116.444L117.478 40.7325H118.251L116.793 45.5182H116.07L115.023 41.8417H114.948L113.902 45.5182H113.179ZM120.307 45.5182L118.849 40.7325H119.622L120.656 44.3966H120.706L121.728 40.7325H122.513L123.523 44.3841H123.573L124.607 40.7325H125.38L123.922 45.5182H123.199L122.152 41.8417H122.077L121.03 45.5182H120.307ZM127.436 45.5182L125.978 40.7325H126.751L127.785 44.3966H127.835L128.857 40.7325H129.642L130.651 44.3841H130.701L131.736 40.7325H132.508L131.05 45.5182H130.327L129.28 41.8417H129.206L128.159 45.5182H127.436ZM133.365 45.568C133.211 45.568 133.079 45.513 132.969 45.4029C132.859 45.2928 132.804 45.1609 132.804 45.0072C132.804 44.8535 132.859 44.7216 132.969 44.6115C133.079 44.5014 133.211 44.4464 133.365 44.4464C133.519 44.4464 133.651 44.5014 133.761 44.6115C133.871 44.7216 133.926 44.8535 133.926 45.0072C133.926 45.109 133.9 45.2025 133.848 45.2876C133.798 45.3728 133.731 45.4413 133.645 45.4933C133.562 45.5431 133.469 45.568 133.365 45.568ZM137.052 45.6179C136.654 45.6179 136.302 45.5171 135.996 45.3157C135.691 45.1121 135.452 44.8255 135.28 44.4557C135.107 44.0839 135.021 43.6446 135.021 43.1378C135.021 42.6352 135.107 42.199 135.28 41.8293C135.452 41.4595 135.692 41.1739 135.999 40.9724C136.307 40.771 136.662 40.6702 137.065 40.6702C137.376 40.6702 137.623 40.7222 137.803 40.826C137.986 40.9278 138.125 41.0441 138.221 41.175C138.318 41.3037 138.394 41.4097 138.448 41.4928H138.511V39.1373H139.246V45.5182H138.535V44.7829H138.448C138.394 44.8701 138.317 44.9802 138.218 45.1132C138.118 45.244 137.976 45.3614 137.791 45.4652C137.606 45.567 137.36 45.6179 137.052 45.6179ZM137.152 44.9574C137.447 44.9574 137.696 44.8805 137.9 44.7268C138.103 44.571 138.258 44.356 138.364 44.0819C138.47 43.8056 138.523 43.4868 138.523 43.1254C138.523 42.7681 138.471 42.4555 138.367 42.1876C138.263 41.9175 138.11 41.7077 137.906 41.5582C137.703 41.4066 137.451 41.3307 137.152 41.3307C136.841 41.3307 136.581 41.4107 136.373 41.5707C136.168 41.7285 136.013 41.9435 135.909 42.2156C135.807 42.4856 135.756 42.7889 135.756 43.1254C135.756 43.466 135.808 43.7755 135.912 44.0538C136.018 44.3301 136.174 44.5503 136.379 44.7143C136.587 44.8764 136.845 44.9574 137.152 44.9574ZM140.695 45.5182V40.7325H141.43V45.5182H140.695ZM141.069 39.9349C140.925 39.9349 140.802 39.8861 140.698 39.7885C140.596 39.6909 140.545 39.5735 140.545 39.4364C140.545 39.2993 140.596 39.182 140.698 39.0844C140.802 38.9867 140.925 38.9379 141.069 38.9379C141.212 38.9379 141.334 38.9867 141.436 39.0844C141.54 39.182 141.592 39.2993 141.592 39.4364C141.592 39.5735 141.54 39.6909 141.436 39.7885C141.334 39.8861 141.212 39.9349 141.069 39.9349ZM146.167 41.8043L145.506 41.9913C145.464 41.8812 145.403 41.7742 145.322 41.6704C145.243 41.5644 145.135 41.4772 144.998 41.4086C144.861 41.3401 144.686 41.3058 144.472 41.3058C144.179 41.3058 143.935 41.3733 143.739 41.5083C143.546 41.6413 143.45 41.8106 143.45 42.0162C143.45 42.199 143.516 42.3433 143.649 42.4493C143.782 42.5552 143.99 42.6435 144.272 42.7141L144.983 42.8886C145.41 42.9924 145.729 43.1513 145.939 43.3653C146.149 43.5771 146.254 43.8503 146.254 44.1847C146.254 44.4589 146.175 44.704 146.017 44.92C145.861 45.136 145.643 45.3063 145.363 45.431C145.082 45.5556 144.756 45.6179 144.384 45.6179C143.896 45.6179 143.492 45.512 143.172 45.3001C142.852 45.0882 142.65 44.7787 142.565 44.3716L143.263 44.1972C143.329 44.4547 143.455 44.6479 143.64 44.7767C143.827 44.9054 144.071 44.9698 144.372 44.9698C144.715 44.9698 144.987 44.8971 145.188 44.7517C145.392 44.6043 145.494 44.4277 145.494 44.2221C145.494 44.0559 145.435 43.9167 145.319 43.8046C145.203 43.6903 145.024 43.6052 144.783 43.5491L143.986 43.3622C143.547 43.2583 143.225 43.0973 143.02 42.8792C142.816 42.6591 142.714 42.3838 142.714 42.0536C142.714 41.7836 142.79 41.5447 142.942 41.337C143.096 41.1293 143.304 40.9662 143.568 40.8478C143.834 40.7294 144.135 40.6702 144.472 40.6702C144.945 40.6702 145.317 40.7741 145.587 40.9818C145.859 41.1895 146.052 41.4637 146.167 41.8043ZM147.46 45.5182V39.1373H148.196V41.4928H148.258C148.312 41.4097 148.387 41.3037 148.482 41.175C148.58 41.0441 148.719 40.9278 148.9 40.826C149.083 40.7222 149.33 40.6702 149.641 40.6702C150.044 40.6702 150.399 40.771 150.707 40.9724C151.014 41.1739 151.254 41.4595 151.427 41.8293C151.599 42.199 151.685 42.6352 151.685 43.1378C151.685 43.6446 151.599 44.0839 151.427 44.4557C151.254 44.8255 151.015 45.1121 150.71 45.3157C150.405 45.5171 150.053 45.6179 149.654 45.6179C149.346 45.6179 149.1 45.567 148.915 45.4652C148.73 45.3614 148.588 45.244 148.488 45.1132C148.389 44.9802 148.312 44.8701 148.258 44.7829H148.171V45.5182H147.46ZM148.183 43.1254C148.183 43.4868 148.236 43.8056 148.342 44.0819C148.448 44.356 148.603 44.571 148.806 44.7268C149.01 44.8805 149.259 44.9574 149.554 44.9574C149.861 44.9574 150.118 44.8764 150.324 44.7143C150.531 44.5503 150.687 44.3301 150.791 44.0538C150.897 43.7755 150.95 43.466 150.95 43.1254C150.95 42.7889 150.898 42.4856 150.794 42.2156C150.692 41.9435 150.538 41.7285 150.33 41.5707C150.124 41.4107 149.866 41.3307 149.554 41.3307C149.255 41.3307 149.004 41.4066 148.8 41.5582C148.596 41.7077 148.443 41.9175 148.339 42.1876C148.235 42.4555 148.183 42.7681 148.183 43.1254ZM153.545 39.1373V45.5182H152.81V39.1373H153.545ZM156.3 45.6304C155.997 45.6304 155.722 45.5732 155.475 45.459C155.227 45.3427 155.031 45.1755 154.886 44.9574C154.74 44.7372 154.668 44.4713 154.668 44.1598C154.668 43.8856 154.722 43.6633 154.83 43.493C154.938 43.3206 155.082 43.1856 155.263 43.088C155.443 42.9904 155.643 42.9177 155.861 42.8699C156.081 42.82 156.302 42.7806 156.525 42.7515C156.815 42.7141 157.051 42.6861 157.232 42.6674C157.415 42.6466 157.547 42.6123 157.631 42.5645C157.716 42.5168 157.758 42.4337 157.758 42.3153V42.2904C157.758 41.983 157.674 41.7441 157.506 41.5738C157.34 41.4034 157.087 41.3183 156.749 41.3183C156.398 41.3183 156.123 41.3951 155.923 41.5488C155.724 41.7025 155.584 41.8666 155.503 42.0411L154.805 41.7919C154.929 41.5011 155.095 41.2747 155.303 41.1127C155.513 40.9486 155.741 40.8343 155.989 40.7699C156.238 40.7035 156.483 40.6702 156.724 40.6702C156.878 40.6702 157.054 40.6889 157.254 40.7263C157.455 40.7616 157.649 40.8354 157.836 40.9475C158.025 41.0597 158.182 41.229 158.307 41.4554C158.431 41.6818 158.494 41.985 158.494 42.3651V45.5182H157.758V44.8701H157.721C157.671 44.974 157.588 45.0851 157.472 45.2035C157.355 45.3219 157.201 45.4226 157.007 45.5057C156.814 45.5888 156.579 45.6304 156.3 45.6304ZM156.412 44.9698C156.703 44.9698 156.948 44.9127 157.148 44.7985C157.349 44.6842 157.501 44.5368 157.603 44.356C157.706 44.1753 157.758 43.9853 157.758 43.7859V43.1129C157.727 43.1503 157.659 43.1846 157.553 43.2157C157.449 43.2448 157.328 43.2708 157.191 43.2936C157.056 43.3144 156.924 43.3331 156.796 43.3497C156.669 43.3642 156.566 43.3767 156.487 43.3871C156.296 43.412 156.117 43.4525 155.951 43.5086C155.787 43.5626 155.654 43.6446 155.552 43.7547C155.453 43.8627 155.403 44.0102 155.403 44.1972C155.403 44.4526 155.497 44.6458 155.686 44.7767C155.877 44.9054 156.119 44.9698 156.412 44.9698ZM160.138 47.3128C160.013 47.3128 159.902 47.3024 159.805 47.2816C159.707 47.263 159.639 47.2443 159.602 47.2256L159.789 46.5775C159.968 46.6232 160.125 46.6398 160.263 46.6274C160.4 46.6149 160.521 46.5536 160.627 46.4435C160.735 46.3355 160.834 46.16 160.923 45.917L161.06 45.5431L159.29 40.7325H160.088L161.409 44.5461H161.459L162.78 40.7325H163.578L161.546 46.2161C161.455 46.4633 161.342 46.6679 161.207 46.8299C161.072 46.994 160.915 47.1155 160.736 47.1944C160.56 47.2733 160.36 47.3128 160.138 47.3128ZM164.784 45.568C164.63 45.568 164.499 45.513 164.388 45.4029C164.278 45.2928 164.223 45.1609 164.223 45.0072C164.223 44.8535 164.278 44.7216 164.388 44.6115C164.499 44.5014 164.63 44.4464 164.784 44.4464C164.938 44.4464 165.07 44.5014 165.18 44.6115C165.29 44.7216 165.345 44.8535 165.345 45.0072C165.345 45.109 165.319 45.2025 165.267 45.2876C165.217 45.3728 165.15 45.4413 165.065 45.4933C164.981 45.5431 164.888 45.568 164.784 45.568ZM168.609 45.6179C168.16 45.6179 167.774 45.512 167.45 45.3001C167.126 45.0882 166.876 44.7964 166.702 44.4246C166.527 44.0528 166.44 43.628 166.44 43.1503C166.44 42.6642 166.529 42.2353 166.708 41.8635C166.889 41.4896 167.14 41.1978 167.462 40.988C167.786 40.7762 168.164 40.6702 168.596 40.6702C168.933 40.6702 169.236 40.7325 169.506 40.8572C169.776 40.9818 169.997 41.1563 170.17 41.3806C170.342 41.6049 170.449 41.8666 170.49 42.1657H169.755C169.699 41.9476 169.574 41.7545 169.381 41.5862C169.19 41.4159 168.933 41.3307 168.609 41.3307C168.322 41.3307 168.071 41.4055 167.855 41.5551C167.641 41.7025 167.473 41.9113 167.353 42.1813C167.235 42.4493 167.175 42.7639 167.175 43.1254C167.175 43.4951 167.234 43.817 167.35 44.0912C167.468 44.3654 167.634 44.5783 167.848 44.7299C168.064 44.8816 168.318 44.9574 168.609 44.9574C168.8 44.9574 168.973 44.9241 169.129 44.8577C169.285 44.7912 169.417 44.6957 169.525 44.571C169.633 44.4464 169.709 44.2969 169.755 44.1224H170.49C170.449 44.4049 170.346 44.6593 170.182 44.8857C170.02 45.11 169.805 45.2887 169.537 45.4216C169.271 45.5525 168.962 45.6179 168.609 45.6179ZM173.51 45.6179C173.077 45.6179 172.698 45.5151 172.372 45.3094C172.048 45.1038 171.795 44.8161 171.612 44.4464C171.431 44.0767 171.341 43.6446 171.341 43.1503C171.341 42.6518 171.431 42.2166 171.612 41.8448C171.795 41.473 172.048 41.1843 172.372 40.9787C172.698 40.773 173.077 40.6702 173.51 40.6702C173.942 40.6702 174.32 40.773 174.644 40.9787C174.97 41.1843 175.223 41.473 175.404 41.8448C175.587 42.2166 175.678 42.6518 175.678 43.1503C175.678 43.6446 175.587 44.0767 175.404 44.4464C175.223 44.8161 174.97 45.1038 174.644 45.3094C174.32 45.5151 173.942 45.6179 173.51 45.6179ZM173.51 44.9574C173.838 44.9574 174.108 44.8732 174.32 44.705C174.531 44.5368 174.688 44.3155 174.79 44.0414C174.892 43.7672 174.943 43.4702 174.943 43.1503C174.943 42.8304 174.892 42.5324 174.79 42.2561C174.688 41.9798 174.531 41.7566 174.32 41.5862C174.108 41.4159 173.838 41.3307 173.51 41.3307C173.181 41.3307 172.911 41.4159 172.699 41.5862C172.488 41.7566 172.331 41.9798 172.229 42.2561C172.127 42.5324 172.076 42.8304 172.076 43.1503C172.076 43.4702 172.127 43.7672 172.229 44.0414C172.331 44.3155 172.488 44.5368 172.699 44.705C172.911 44.8732 173.181 44.9574 173.51 44.9574ZM176.8 45.5182V40.7325H177.511V41.4803H177.573C177.673 41.2248 177.834 41.0265 178.056 40.8852C178.278 40.7419 178.545 40.6702 178.857 40.6702C179.172 40.6702 179.435 40.7419 179.645 40.8852C179.857 41.0265 180.022 41.2248 180.14 41.4803H180.19C180.313 41.2331 180.497 41.0368 180.742 40.8914C180.987 40.744 181.281 40.6702 181.623 40.6702C182.051 40.6702 182.401 40.8042 182.673 41.0721C182.946 41.338 183.082 41.7524 183.082 42.3153V45.5182H182.346V42.3153C182.346 41.9622 182.25 41.7098 182.057 41.5582C181.863 41.4066 181.636 41.3307 181.374 41.3307C181.038 41.3307 180.777 41.4325 180.592 41.6361C180.407 41.8376 180.315 42.093 180.315 42.4025V45.5182H179.567V42.2405C179.567 41.9684 179.479 41.7493 179.302 41.5831C179.126 41.4149 178.898 41.3307 178.62 41.3307C178.429 41.3307 178.25 41.3816 178.084 41.4834C177.92 41.5852 177.787 41.7264 177.685 41.9071C177.586 42.0858 177.536 42.2924 177.536 42.5272V45.5182H176.8ZM186.682 38.8382L184.625 46.4778H183.952L186.009 38.8382H186.682ZM187.653 45.5182V39.1373H188.388V41.4928H188.451C188.505 41.4097 188.579 41.3037 188.675 41.175C188.773 41.0441 188.912 40.9278 189.092 40.826C189.275 40.7222 189.522 40.6702 189.834 40.6702C190.237 40.6702 190.592 40.771 190.9 40.9724C191.207 41.1739 191.447 41.4595 191.619 41.8293C191.792 42.199 191.878 42.6352 191.878 43.1378C191.878 43.6446 191.792 44.0839 191.619 44.4557C191.447 44.8255 191.208 45.1121 190.903 45.3157C190.597 45.5171 190.245 45.6179 189.846 45.6179C189.539 45.6179 189.293 45.567 189.108 45.4652C188.923 45.3614 188.781 45.244 188.681 45.1132C188.581 44.9802 188.505 44.8701 188.451 44.7829H188.363V45.5182H187.653ZM188.376 43.1254C188.376 43.4868 188.429 43.8056 188.535 44.0819C188.641 44.356 188.795 44.571 188.999 44.7268C189.203 44.8805 189.452 44.9574 189.747 44.9574C190.054 44.9574 190.311 44.8764 190.516 44.7143C190.724 44.5503 190.88 44.3301 190.984 44.0538C191.09 43.7755 191.143 43.466 191.143 43.1254C191.143 42.7889 191.091 42.4856 190.987 42.2156C190.885 41.9435 190.73 41.7285 190.523 41.5707C190.317 41.4107 190.058 41.3307 189.747 41.3307C189.448 41.3307 189.196 41.4066 188.993 41.5582C188.789 41.7077 188.635 41.9175 188.532 42.1876C188.428 42.4555 188.376 42.7681 188.376 43.1254ZM196.019 43.5616V40.7325H196.754V45.5182H196.019V44.7081H195.969C195.857 44.9511 195.682 45.1578 195.445 45.3281C195.208 45.4964 194.909 45.5805 194.548 45.5805C194.249 45.5805 193.983 45.5151 193.75 45.3842C193.518 45.2513 193.335 45.0519 193.202 44.786C193.069 44.5181 193.003 44.1805 193.003 43.7734V40.7325H193.738V43.7236C193.738 44.0725 193.836 44.3509 194.031 44.5586C194.228 44.7663 194.479 44.8701 194.785 44.8701C194.968 44.8701 195.153 44.8234 195.342 44.7299C195.534 44.6365 195.693 44.4931 195.822 44.3C195.953 44.1068 196.019 43.8607 196.019 43.5616ZM201.49 41.8043L200.83 41.9913C200.788 41.8812 200.727 41.7742 200.646 41.6704C200.567 41.5644 200.459 41.4772 200.322 41.4086C200.185 41.3401 200.009 41.3058 199.796 41.3058C199.503 41.3058 199.259 41.3733 199.063 41.5083C198.87 41.6413 198.774 41.8106 198.774 42.0162C198.774 42.199 198.84 42.3433 198.973 42.4493C199.106 42.5552 199.314 42.6435 199.596 42.7141L200.306 42.8886C200.734 42.9924 201.053 43.1513 201.263 43.3653C201.473 43.5771 201.578 43.8503 201.578 44.1847C201.578 44.4589 201.499 44.704 201.341 44.92C201.185 45.136 200.967 45.3063 200.687 45.431C200.406 45.5556 200.08 45.6179 199.708 45.6179C199.22 45.6179 198.816 45.512 198.496 45.3001C198.176 45.0882 197.974 44.7787 197.889 44.3716L198.587 44.1972C198.653 44.4547 198.779 44.6479 198.964 44.7767C199.151 44.9054 199.395 44.9698 199.696 44.9698C200.039 44.9698 200.311 44.8971 200.512 44.7517C200.716 44.6043 200.817 44.4277 200.817 44.2221C200.817 44.0559 200.759 43.9167 200.643 43.8046C200.527 43.6903 200.348 43.6052 200.107 43.5491L199.309 43.3622C198.871 43.2583 198.549 43.0973 198.344 42.8792C198.14 42.6591 198.038 42.3838 198.038 42.0536C198.038 41.7836 198.114 41.5447 198.266 41.337C198.419 41.1293 198.628 40.9662 198.892 40.8478C199.158 40.7294 199.459 40.6702 199.796 40.6702C200.269 40.6702 200.641 40.7741 200.911 40.9818C201.183 41.1895 201.376 41.4637 201.49 41.8043ZM202.685 45.5182V40.7325H203.42V45.5182H202.685ZM203.058 39.9349C202.915 39.9349 202.791 39.8861 202.688 39.7885C202.586 39.6909 202.535 39.5735 202.535 39.4364C202.535 39.2993 202.586 39.182 202.688 39.0844C202.791 38.9867 202.915 38.9379 203.058 38.9379C203.202 38.9379 203.324 38.9867 203.426 39.0844C203.53 39.182 203.582 39.2993 203.582 39.4364C203.582 39.5735 203.53 39.6909 203.426 39.7885C203.324 39.8861 203.202 39.9349 203.058 39.9349ZM205.502 42.6393V45.5182H204.767V40.7325H205.477V41.4803H205.539C205.651 41.2373 205.822 41.042 206.05 40.8946C206.279 40.745 206.574 40.6702 206.935 40.6702C207.259 40.6702 207.543 40.7367 207.786 40.8696C208.029 41.0005 208.218 41.1999 208.353 41.4678C208.488 41.7337 208.555 42.0702 208.555 42.4773V45.5182H207.82V42.5272C207.82 42.1512 207.722 41.8583 207.527 41.6485C207.332 41.4367 207.064 41.3307 206.723 41.3307C206.488 41.3307 206.279 41.3816 206.094 41.4834C205.911 41.5852 205.767 41.7337 205.661 41.929C205.555 42.1242 205.502 42.361 205.502 42.6393ZM211.905 45.6179C211.444 45.6179 211.046 45.5161 210.712 45.3126C210.38 45.1069 210.123 44.8203 209.942 44.4526C209.764 44.0829 209.674 43.6529 209.674 43.1628C209.674 42.6726 209.764 42.2405 209.942 41.8666C210.123 41.4907 210.374 41.1978 210.696 40.988C211.02 40.7762 211.398 40.6702 211.831 40.6702C212.08 40.6702 212.326 40.7118 212.569 40.7949C212.812 40.8779 213.033 41.0129 213.233 41.1999C213.432 41.3848 213.591 41.6298 213.709 41.9352C213.828 42.2405 213.887 42.6165 213.887 43.0631V43.3746H210.198V42.739H213.139C213.139 42.469 213.085 42.2281 212.977 42.0162C212.871 41.8043 212.72 41.6371 212.522 41.5146C212.327 41.392 212.096 41.3307 211.831 41.3307C211.538 41.3307 211.284 41.4034 211.07 41.5488C210.858 41.6922 210.695 41.8791 210.581 42.1097C210.467 42.3402 210.41 42.5874 210.41 42.8512V43.2749C210.41 43.6363 210.472 43.9427 210.597 44.194C210.723 44.4433 210.899 44.6333 211.123 44.7642C211.348 44.893 211.608 44.9574 211.905 44.9574C212.098 44.9574 212.273 44.9304 212.429 44.8764C212.587 44.8203 212.723 44.7372 212.837 44.6271C212.951 44.5149 213.039 44.3758 213.102 44.2096L213.812 44.409C213.737 44.65 213.612 44.8618 213.435 45.0446C213.259 45.2253 213.04 45.3666 212.781 45.4683C212.521 45.568 212.229 45.6179 211.905 45.6179ZM218.395 41.8043L217.735 41.9913C217.693 41.8812 217.632 41.7742 217.551 41.6704C217.472 41.5644 217.364 41.4772 217.227 41.4086C217.09 41.3401 216.914 41.3058 216.7 41.3058C216.407 41.3058 216.163 41.3733 215.968 41.5083C215.775 41.6413 215.678 41.8106 215.678 42.0162C215.678 42.199 215.745 42.3433 215.878 42.4493C216.011 42.5552 216.218 42.6435 216.501 42.7141L217.211 42.8886C217.639 42.9924 217.958 43.1513 218.168 43.3653C218.378 43.5771 218.482 43.8503 218.482 44.1847C218.482 44.4589 218.404 44.704 218.246 44.92C218.09 45.136 217.872 45.3063 217.591 45.431C217.311 45.5556 216.985 45.6179 216.613 45.6179C216.125 45.6179 215.721 45.512 215.401 45.3001C215.081 45.0882 214.879 44.7787 214.794 44.3716L215.491 44.1972C215.558 44.4547 215.684 44.6479 215.868 44.7767C216.055 44.9054 216.299 44.9698 216.601 44.9698C216.943 44.9698 217.215 44.8971 217.417 44.7517C217.62 44.6043 217.722 44.4277 217.722 44.2221C217.722 44.0559 217.664 43.9167 217.548 43.8046C217.431 43.6903 217.253 43.6052 217.012 43.5491L216.214 43.3622C215.776 43.2583 215.454 43.0973 215.248 42.8792C215.045 42.6591 214.943 42.3838 214.943 42.0536C214.943 41.7836 215.019 41.5447 215.171 41.337C215.324 41.1293 215.533 40.9662 215.797 40.8478C216.063 40.7294 216.364 40.6702 216.7 40.6702C217.174 40.6702 217.546 40.7741 217.816 40.9818C218.088 41.1895 218.281 41.4637 218.395 41.8043ZM222.979 41.8043L222.319 41.9913C222.277 41.8812 222.216 41.7742 222.135 41.6704C222.056 41.5644 221.948 41.4772 221.811 41.4086C221.674 41.3401 221.498 41.3058 221.284 41.3058C220.991 41.3058 220.747 41.3733 220.552 41.5083C220.359 41.6413 220.262 41.8106 220.262 42.0162C220.262 42.199 220.329 42.3433 220.462 42.4493C220.595 42.5552 220.802 42.6435 221.085 42.7141L221.795 42.8886C222.223 42.9924 222.542 43.1513 222.752 43.3653C222.961 43.5771 223.066 43.8503 223.066 44.1847C223.066 44.4589 222.987 44.704 222.83 44.92C222.674 45.136 222.456 45.3063 222.175 45.431C221.895 45.5556 221.569 45.6179 221.197 45.6179C220.709 45.6179 220.305 45.512 219.985 45.3001C219.665 45.0882 219.463 44.7787 219.377 44.3716L220.075 44.1972C220.142 44.4547 220.267 44.6479 220.452 44.7767C220.639 44.9054 220.883 44.9698 221.184 44.9698C221.527 44.9698 221.799 44.8971 222.001 44.7517C222.204 44.6043 222.306 44.4277 222.306 44.2221C222.306 44.0559 222.248 43.9167 222.132 43.8046C222.015 43.6903 221.837 43.6052 221.596 43.5491L220.798 43.3622C220.36 43.2583 220.038 43.0973 219.832 42.8792C219.629 42.6591 219.527 42.3838 219.527 42.0536C219.527 41.7836 219.603 41.5447 219.754 41.337C219.908 41.1293 220.117 40.9662 220.381 40.8478C220.647 40.7294 220.948 40.6702 221.284 40.6702C221.758 40.6702 222.13 40.7741 222.4 40.9818C222.672 41.1895 222.865 41.4637 222.979 41.8043Z" fill="#6E6E6E"/>
<path d="M157.505 75.3302L151.788 74.4998L149.23 69.3191C149.047 68.9472 148.669 68.7123 148.255 68.7123C147.841 68.7123 147.462 68.9472 147.28 69.3191L144.723 74.4998L139.005 75.3302C138.595 75.3895 138.254 75.6769 138.126 76.0705C137.999 76.464 138.105 76.8963 138.401 77.186L142.539 81.2192L141.563 86.9144C141.493 87.3227 141.661 87.7345 141.995 87.9786C142.331 88.2215 142.774 88.2535 143.142 88.0618L148.256 85.3734L153.371 88.0618C153.529 88.1451 153.704 88.1873 153.877 88.1873C154.103 88.1873 154.327 88.1177 154.517 87.9797C154.852 87.7368 155.02 87.3239 154.949 86.9155L153.973 81.2204L158.111 77.1871C158.408 76.8986 158.515 76.4663 158.386 76.0716C158.258 75.6781 157.917 75.3906 157.508 75.3313L157.505 75.3302ZM152.043 80.0604C151.786 80.3102 151.67 80.6706 151.73 81.0231L152.432 85.1088L148.763 83.18C148.604 83.0967 148.431 83.0545 148.256 83.0545C148.082 83.0545 147.908 83.0967 147.75 83.18L144.08 85.1088L144.782 81.0231C144.842 80.6706 144.725 80.3102 144.469 80.0604L141.5 77.1666L145.603 76.57C145.958 76.5187 146.263 76.2963 146.422 75.9746L148.256 72.2573L150.09 75.9746C150.249 76.2963 150.556 76.5187 150.909 76.57L155.012 77.1666L152.043 80.0604Z" fill="#FDB913"/>
<path d="M170.017 82.8964V72.9659H173.489C174.181 72.9659 174.751 73.0855 175.201 73.3247C175.65 73.5607 175.985 73.8791 176.204 74.2799C176.424 74.6775 176.534 75.1188 176.534 75.6037C176.534 76.0304 176.458 76.3827 176.306 76.6607C176.158 76.9387 175.96 77.1585 175.715 77.3202C175.472 77.4818 175.209 77.6014 174.924 77.679V77.776C175.228 77.7953 175.534 77.902 175.841 78.096C176.148 78.2899 176.405 78.5679 176.612 78.93C176.819 79.292 176.922 79.7349 176.922 80.2586C176.922 80.7564 176.809 81.2041 176.583 81.6017C176.356 81.9993 175.999 82.3145 175.511 82.5472C175.023 82.78 174.388 82.8964 173.605 82.8964H170.017ZM171.22 81.8296H173.605C174.391 81.8296 174.949 81.6777 175.278 81.3738C175.611 81.0667 175.778 80.695 175.778 80.2586C175.778 79.9224 175.692 79.6121 175.521 79.3276C175.349 79.0399 175.105 78.8104 174.789 78.6391C174.472 78.4645 174.097 78.3772 173.664 78.3772H171.22V81.8296ZM171.22 77.3299H173.45C173.812 77.3299 174.139 77.2587 174.43 77.1165C174.724 76.9743 174.957 76.7739 175.128 76.5152C175.303 76.2566 175.39 75.9528 175.39 75.6037C175.39 75.1673 175.238 74.7971 174.934 74.4933C174.63 74.1862 174.149 74.0326 173.489 74.0326H171.22V77.3299ZM181.769 83.0515C181.096 83.0515 180.506 82.8915 179.999 82.5715C179.494 82.2515 179.1 81.8037 178.816 81.2284C178.534 80.653 178.394 79.9806 178.394 79.2112C178.394 78.4354 178.534 77.7582 178.816 77.1795C179.1 76.6009 179.494 76.1516 179.999 75.8316C180.506 75.5115 181.096 75.3515 181.769 75.3515C182.441 75.3515 183.029 75.5115 183.534 75.8316C184.041 76.1516 184.435 76.6009 184.717 77.1795C185.001 77.7582 185.143 78.4354 185.143 79.2112C185.143 79.9806 185.001 80.653 184.717 81.2284C184.435 81.8037 184.041 82.2515 183.534 82.5715C183.029 82.8915 182.441 83.0515 181.769 83.0515ZM181.769 82.0236C182.279 82.0236 182.7 81.8926 183.029 81.6308C183.359 81.369 183.603 81.0247 183.761 80.598C183.92 80.1713 183.999 79.709 183.999 79.2112C183.999 78.7134 183.92 78.2495 183.761 77.8196C183.603 77.3897 183.359 77.0422 183.029 76.7771C182.7 76.512 182.279 76.3795 181.769 76.3795C181.258 76.3795 180.838 76.512 180.508 76.7771C180.178 77.0422 179.934 77.3897 179.776 77.8196C179.617 78.2495 179.538 78.7134 179.538 79.2112C179.538 79.709 179.617 80.1713 179.776 80.598C179.934 81.0247 180.178 81.369 180.508 81.6308C180.838 81.8926 181.258 82.0236 181.769 82.0236ZM189.916 83.0515C189.243 83.0515 188.654 82.8915 188.146 82.5715C187.642 82.2515 187.247 81.8037 186.963 81.2284C186.682 80.653 186.541 79.9806 186.541 79.2112C186.541 78.4354 186.682 77.7582 186.963 77.1795C187.247 76.6009 187.642 76.1516 188.146 75.8316C188.654 75.5115 189.243 75.3515 189.916 75.3515C190.588 75.3515 191.177 75.5115 191.681 75.8316C192.188 76.1516 192.583 76.6009 192.864 77.1795C193.148 77.7582 193.291 78.4354 193.291 79.2112C193.291 79.9806 193.148 80.653 192.864 81.2284C192.583 81.8037 192.188 82.2515 191.681 82.5715C191.177 82.8915 190.588 83.0515 189.916 83.0515ZM189.916 82.0236C190.427 82.0236 190.847 81.8926 191.177 81.6308C191.506 81.369 191.75 81.0247 191.909 80.598C192.067 80.1713 192.146 79.709 192.146 79.2112C192.146 78.7134 192.067 78.2495 191.909 77.8196C191.75 77.3897 191.506 77.0422 191.177 76.7771C190.847 76.512 190.427 76.3795 189.916 76.3795C189.405 76.3795 188.985 76.512 188.655 76.7771C188.325 77.0422 188.081 77.3897 187.923 77.8196C187.765 78.2495 187.685 78.7134 187.685 79.2112C187.685 79.709 187.765 80.1713 187.923 80.598C188.081 81.0247 188.325 81.369 188.655 81.6308C188.985 81.8926 189.405 82.0236 189.916 82.0236ZM196.104 80.181L196.085 78.7651H196.318L199.576 75.4485H200.992L197.52 78.9591H197.423L196.104 80.181ZM195.037 82.8964V72.9659H196.182V82.8964H195.037ZM199.77 82.8964L196.861 79.2112L197.675 78.416L201.225 82.8964H199.77ZM202.465 82.8964V75.4485H203.57V76.6122H203.667C203.822 76.2146 204.073 75.9059 204.419 75.6861C204.765 75.463 205.18 75.3515 205.665 75.3515C206.156 75.3515 206.565 75.463 206.892 75.6861C207.221 75.9059 207.478 76.2146 207.663 76.6122H207.74C207.931 76.2275 208.217 75.9221 208.599 75.6958C208.98 75.4663 209.437 75.3515 209.971 75.3515C210.637 75.3515 211.181 75.56 211.605 75.977C212.028 76.3908 212.24 77.0357 212.24 77.9117V82.8964H211.096V77.9117C211.096 77.3622 210.945 76.9694 210.645 76.7334C210.344 76.4975 209.99 76.3795 209.583 76.3795C209.059 76.3795 208.653 76.5379 208.366 76.8547C208.078 77.1682 207.934 77.5658 207.934 78.0475V82.8964H206.771V77.7953C206.771 77.3719 206.633 77.0308 206.358 76.7722C206.084 76.5104 205.73 76.3795 205.296 76.3795C204.999 76.3795 204.721 76.4587 204.462 76.6171C204.207 76.7755 204 76.9953 203.842 77.2765C203.687 77.5545 203.609 77.8762 203.609 78.2414V82.8964H202.465ZM216.524 83.0709C216.052 83.0709 215.624 82.982 215.239 82.8042C214.854 82.6232 214.549 82.363 214.323 82.0236C214.096 81.6809 213.983 81.2671 213.983 80.7823C213.983 80.3556 214.067 80.0097 214.235 79.7446C214.403 79.4763 214.628 79.2662 214.909 79.1142C215.191 78.9623 215.501 78.8492 215.84 78.7748C216.183 78.6972 216.527 78.6358 216.873 78.5906C217.326 78.5324 217.693 78.4887 217.974 78.4596C218.258 78.4273 218.465 78.374 218.594 78.2996C218.727 78.2253 218.793 78.096 218.793 77.9117V77.8729C218.793 77.3945 218.662 77.0228 218.401 76.7577C218.142 76.4926 217.749 76.3601 217.222 76.3601C216.676 76.3601 216.248 76.4797 215.937 76.7189C215.627 76.9581 215.409 77.2135 215.283 77.485L214.197 77.0971C214.391 76.6446 214.649 76.2922 214.972 76.0401C215.299 75.7847 215.654 75.6069 216.039 75.5067C216.427 75.4032 216.808 75.3515 217.183 75.3515C217.423 75.3515 217.697 75.3806 218.008 75.4388C218.321 75.4938 218.624 75.6085 218.915 75.7831C219.209 75.9576 219.453 76.2211 219.647 76.5734C219.841 76.9258 219.938 77.3977 219.938 77.9893V82.8964H218.793V81.8878H218.735C218.658 82.0494 218.528 82.2224 218.347 82.4066C218.166 82.5909 217.925 82.7477 217.625 82.877C217.324 83.0063 216.957 83.0709 216.524 83.0709ZM216.699 82.043C217.151 82.043 217.533 81.9541 217.843 81.7763C218.156 81.5985 218.392 81.369 218.551 81.0877C218.712 80.8065 218.793 80.5107 218.793 80.2004V79.153C218.745 79.2112 218.638 79.2646 218.473 79.313C218.312 79.3583 218.124 79.3987 217.911 79.4343C217.701 79.4666 217.495 79.4957 217.295 79.5215C217.098 79.5442 216.938 79.5636 216.815 79.5797C216.518 79.6185 216.24 79.6816 215.981 79.7688C215.726 79.8529 215.519 79.9806 215.36 80.1519C215.205 80.32 215.128 80.5495 215.128 80.8404C215.128 81.238 215.275 81.5387 215.569 81.7423C215.866 81.9428 216.243 82.043 216.699 82.043ZM222.026 82.8964V75.4485H223.132V76.5734H223.209C223.345 76.2049 223.591 75.9059 223.946 75.6764C224.302 75.4469 224.703 75.3321 225.149 75.3321C225.233 75.3321 225.338 75.3337 225.464 75.337C225.59 75.3402 225.686 75.3451 225.75 75.3515V76.5152C225.711 76.5055 225.623 76.491 225.484 76.4716C225.348 76.449 225.204 76.4377 225.052 76.4377C224.69 76.4377 224.367 76.5136 224.082 76.6656C223.801 76.8143 223.578 77.0211 223.413 77.2862C223.251 77.5481 223.171 77.8471 223.171 78.1833V82.8964H222.026ZM228.173 80.181L228.154 78.7651H228.387L231.645 75.4485H233.061L229.589 78.9591H229.492L228.173 80.181ZM227.107 82.8964V72.9659H228.251V82.8964H227.107ZM231.839 82.8964L228.93 79.2112L229.744 78.416L233.294 82.8964H231.839Z" fill="#6E6E6E"/>
</svg>
