<svg width="43" height="42" viewBox="0 0 43 42" fill="none" xmlns="http://www.w3.org/2000/svg">
<rect x="0.5" width="42" height="42" rx="10" fill="#4F92FF"/>
<path d="M30.224 26.5387C30.224 26.8538 30.154 27.1775 30.0052 27.4925C29.8565 27.8075 29.664 28.105 29.4102 28.385C28.9815 28.8575 28.509 29.1988 27.9752 29.4175C27.4502 29.6363 26.8815 29.75 26.269 29.75C25.3765 29.75 24.4227 29.54 23.4165 29.1112C22.4102 28.6825 21.404 28.105 20.4065 27.3788C19.4002 26.6438 18.4465 25.83 17.5365 24.9288C16.6352 24.0188 15.8215 23.065 15.0952 22.0675C14.3777 21.07 13.8002 20.0725 13.3802 19.0838C12.9602 18.0863 12.7502 17.1325 12.7502 16.2225C12.7502 15.6275 12.8552 15.0588 13.0652 14.5338C13.2752 14 13.6077 13.51 14.0715 13.0725C14.6315 12.5213 15.244 12.25 15.8915 12.25C16.1365 12.25 16.3815 12.3025 16.6002 12.4075C16.8277 12.5125 17.029 12.67 17.1865 12.8975L19.2165 15.7588C19.374 15.9775 19.4877 16.1788 19.5665 16.3713C19.6452 16.555 19.689 16.7387 19.689 16.905C19.689 17.115 19.6277 17.325 19.5052 17.5262C19.3915 17.7275 19.2252 17.9375 19.0152 18.1475L18.3502 18.8387C18.254 18.935 18.2102 19.0488 18.2102 19.1888C18.2102 19.2588 18.219 19.32 18.2365 19.39C18.2627 19.46 18.289 19.5125 18.3065 19.565C18.464 19.8537 18.7352 20.23 19.1202 20.685C19.514 21.14 19.934 21.6038 20.389 22.0675C20.8615 22.5312 21.3165 22.96 21.7802 23.3537C22.2352 23.7387 22.6115 24.0012 22.909 24.1587C22.9527 24.1762 23.0052 24.2025 23.0665 24.2287C23.1365 24.255 23.2065 24.2638 23.2852 24.2638C23.434 24.2638 23.5477 24.2113 23.644 24.115L24.309 23.4588C24.5277 23.24 24.7377 23.0737 24.939 22.9688C25.1402 22.8462 25.3415 22.785 25.5602 22.785C25.7265 22.785 25.9015 22.82 26.094 22.8988C26.2865 22.9775 26.4877 23.0913 26.7065 23.24L29.6027 25.2962C29.8302 25.4537 29.9877 25.6375 30.084 25.8562C30.1715 26.075 30.224 26.2937 30.224 26.5387Z" fill="white"/>
<path d="M27.1875 18.375C27.1875 17.85 26.7763 17.045 26.1638 16.3888C25.6038 15.785 24.86 15.3125 24.125 15.3125" fill="white"/>
<path d="M30.25 18.375C30.25 14.9888 27.5113 12.25 24.125 12.25L30.25 18.375Z" fill="white"/>
</svg>
