<svg width="28" height="28" viewBox="0 0 28 28" fill="none" xmlns="http://www.w3.org/2000/svg">
<path d="M25.6318 21.385C25.6318 21.805 25.5385 22.2366 25.3402 22.6566C25.1418 23.0766 24.8852 23.4733 24.5468 23.8466C23.9752 24.4766 23.3452 24.9316 22.6335 25.2233C21.9335 25.515 21.1752 25.6666 20.3585 25.6666C19.1685 25.6666 17.8968 25.3866 16.5552 24.815C15.2135 24.2433 13.8718 23.4733 12.5418 22.505C11.2002 21.525 9.9285 20.44 8.71516 19.2383C7.5135 18.025 6.4285 16.7533 5.46016 15.4233C4.5035 14.0933 3.7335 12.7633 3.1735 11.445C2.6135 10.115 2.3335 8.84331 2.3335 7.62998C2.3335 6.83665 2.4735 6.07831 2.7535 5.37831C3.0335 4.66665 3.47683 4.01331 4.09516 3.42998C4.84183 2.69498 5.6585 2.33331 6.52183 2.33331C6.8485 2.33331 7.17516 2.40331 7.46683 2.54331C7.77016 2.68331 8.0385 2.89331 8.2485 3.19665L10.9552 7.01165C11.1652 7.30331 11.3168 7.57165 11.4218 7.82831C11.5268 8.07331 11.5852 8.31831 11.5852 8.53998C11.5852 8.81998 11.5035 9.09998 11.3402 9.36831C11.1885 9.63665 10.9668 9.91665 10.6868 10.1966L9.80016 11.1183C9.67183 11.2466 9.6135 11.3983 9.6135 11.585C9.6135 11.6783 9.62516 11.76 9.6485 11.8533C9.6835 11.9466 9.7185 12.0166 9.74183 12.0866C9.95183 12.4716 10.3135 12.9733 10.8268 13.58C11.3518 14.1866 11.9118 14.805 12.5185 15.4233C13.1485 16.0416 13.7552 16.6133 14.3735 17.1383C14.9802 17.6516 15.4818 18.0016 15.8785 18.2116C15.9368 18.235 16.0068 18.27 16.0885 18.305C16.1818 18.34 16.2752 18.3516 16.3802 18.3516C16.5785 18.3516 16.7302 18.2816 16.8585 18.1533L17.7452 17.2783C18.0368 16.9866 18.3168 16.765 18.5852 16.625C18.8535 16.4616 19.1218 16.38 19.4135 16.38C19.6352 16.38 19.8685 16.4266 20.1252 16.5316C20.3818 16.6366 20.6502 16.7883 20.9418 16.9866L24.8035 19.7283C25.1068 19.9383 25.3168 20.1833 25.4452 20.475C25.5618 20.7666 25.6318 21.0583 25.6318 21.385Z" stroke="#262626" stroke-width="1.5" stroke-miterlimit="10"/>
</svg>
