<svg width="39" height="38" viewBox="0 0 39 38" fill="none" xmlns="http://www.w3.org/2000/svg">
<path opacity="0.4" d="M25.801 14.0285C25.1835 14.0285 24.6926 13.5376 24.6926 12.9201V10.8935C24.6926 9.34179 24.0277 7.85346 22.8877 6.80846C21.716 5.74763 20.2118 5.25679 18.6285 5.39929C15.9685 5.65263 13.641 8.36013 13.641 11.1785V12.6035C13.641 13.221 13.1501 13.7118 12.5326 13.7118C11.9151 13.7118 11.4243 13.221 11.4243 12.6035V11.1785C11.4243 7.22013 14.6227 3.56263 18.4068 3.19846C20.6077 2.99263 22.7293 3.68929 24.3602 5.17763C25.9752 6.63429 26.8935 8.72429 26.8935 10.8935V12.9201C26.8935 13.5376 26.4026 14.0285 25.801 14.0285Z" fill="white"/>
<path d="M31.7701 14.187C30.4401 12.7145 28.2551 12.002 25.0568 12.002H13.2768C10.0784 12.002 7.89342 12.7145 6.56342 14.187C5.02759 15.897 5.07509 18.177 5.24925 19.7603L6.35759 28.5795C6.69009 31.667 7.94092 34.8336 14.7493 34.8336H23.5843C30.3926 34.8336 31.6434 31.667 31.9759 28.5953L33.0843 19.7445C33.2584 18.177 33.2901 15.897 31.7701 14.187ZM13.4984 20.8211H13.4826C12.6118 20.8211 11.8993 20.1086 11.8993 19.2378C11.8993 18.367 12.6118 17.6545 13.4826 17.6545C14.3693 17.6545 15.0818 18.367 15.0818 19.2378C15.0818 20.1086 14.3693 20.8211 13.4984 20.8211ZM24.5818 20.8211H24.5659C23.6951 20.8211 22.9826 20.1086 22.9826 19.2378C22.9826 18.367 23.6951 17.6545 24.5659 17.6545C25.4526 17.6545 26.1651 18.367 26.1651 19.2378C26.1651 20.1086 25.4526 20.8211 24.5818 20.8211Z" fill="white"/>
</svg>
