<svg width="19" height="18" viewBox="0 0 19 18" fill="none" xmlns="http://www.w3.org/2000/svg">
<g clip-path="url(#clip0_3392_47342)">
<path d="M14.3166 11.1233C13.2998 11.1233 12.3848 11.5669 11.7548 12.2707L7.95008 10.0741C8.06153 9.736 8.12185 9.37491 8.12185 9C8.12185 8.62509 8.06153 8.264 7.95012 7.92594L11.7548 5.72931C12.3848 6.4331 13.2999 6.8767 14.3166 6.8767C16.2125 6.8767 17.7549 5.33426 17.7549 3.43835C17.7549 1.54245 16.2125 0 14.3166 0C12.4207 0 10.8782 1.54245 10.8782 3.43835C10.8782 3.81326 10.9385 4.17435 11.05 4.51245L7.2453 6.70908C6.61527 6.00529 5.70022 5.56168 4.6835 5.56168C2.78756 5.56168 1.24512 7.10413 1.24512 9.00004C1.24512 10.8959 2.78756 12.4384 4.6835 12.4384C5.70022 12.4384 6.61527 11.9948 7.2453 11.291L11.05 13.4876C10.9385 13.8257 10.8782 14.1868 10.8782 14.5617C10.8782 16.4576 12.4207 18 14.3166 18C16.2125 18 17.7549 16.4576 17.7549 14.5617C17.7549 12.6658 16.2125 11.1233 14.3166 11.1233ZM14.3166 1.40625C15.4371 1.40625 16.3487 2.31785 16.3487 3.43835C16.3487 4.55885 15.4371 5.47045 14.3166 5.47045C13.1961 5.47045 12.2845 4.55885 12.2845 3.43835C12.2845 2.31785 13.1961 1.40625 14.3166 1.40625ZM4.6835 11.0321C3.563 11.0321 2.65137 10.1205 2.65137 9C2.65137 7.8795 3.563 6.9679 4.6835 6.9679C5.80397 6.9679 6.71557 7.8795 6.71557 9C6.71557 10.1205 5.80397 11.0321 4.6835 11.0321ZM14.3166 16.5938C13.1961 16.5938 12.2845 15.6821 12.2845 14.5616C12.2845 13.4411 13.1961 12.5295 14.3166 12.5295C15.4371 12.5295 16.3487 13.4411 16.3487 14.5616C16.3487 15.6821 15.4371 16.5938 14.3166 16.5938Z" fill="#3A3A3A"/>
</g>
<defs>
<clipPath id="clip0_3392_47342">
<rect width="18" height="18" fill="white" transform="translate(0.5)"/>
</clipPath>
</defs>
</svg>
