<svg width="29" height="28" viewBox="0 0 29 28" fill="none" xmlns="http://www.w3.org/2000/svg">
<path d="M15.3088 6.67173L15.7877 6.0274L14.936 4.996C13.9261 2.09008 11.177 0 7.95205 0C3.86323 0 0.5 3.36225 0.5 7.45205C0.5 10.677 2.58997 13.426 5.49584 14.4359L6.41781 15.3973L7.17074 14.8087C7.42756 14.8354 7.68822 14.8493 7.95205 14.8493C12.0309 14.8493 15.3493 11.5309 15.3493 7.45205C15.3493 7.18855 15.3355 6.92822 15.3088 6.67173ZM23.554 13.5718L22.6918 12.4384L21.8716 13.1908C21.6188 13.1644 21.3623 13.1507 21.1027 13.1507C17.0139 13.1507 13.6507 16.5129 13.6507 20.6027C13.6507 20.8832 13.6671 21.1599 13.6978 21.4323L13.3219 22.3014L14.0926 23.1125C15.1303 25.9598 17.8809 28 21.1027 28C25.1816 28 28.5 24.6816 28.5 20.6027C28.5 17.3588 26.4317 14.5929 23.554 13.5718Z" fill="url(#paint0_linear_5317_15072)"/>
<path d="M11.2402 6.62996C11.2402 4.81713 9.76531 3.34229 7.95249 3.34229C6.13967 3.34229 4.66482 4.81713 4.66482 6.62996C4.66482 8.44278 6.13967 9.91763 7.95249 9.91763C9.76531 9.91763 11.2402 8.44278 11.2402 6.62996ZM7.95249 13.2053C9.51764 13.2053 10.9385 12.5768 11.9768 11.5593C10.9314 10.5363 9.50504 9.91763 7.95249 9.91763C6.39112 9.91763 4.93567 10.5412 3.88477 11.5545C4.93342 12.5748 6.36992 13.2053 7.95249 13.2053ZM21.872 13.1906C22.4555 13.2516 23.0189 13.3816 23.5545 13.5716C23.2979 8.92864 19.5644 5.20404 14.9365 4.99587C15.122 5.52957 15.249 6.09067 15.3093 6.6716C18.7307 7.03511 21.4639 9.75796 21.872 13.1906ZM7.17118 14.8085C6.59057 14.7482 6.02975 14.6212 5.49633 14.4358C5.70312 19.1172 9.4435 22.8898 14.093 23.1124C13.8983 22.578 13.7641 22.0152 13.6982 21.4321C10.2629 21.0442 7.5315 18.2768 7.17118 14.8085ZM24.3908 19.7806C24.3908 17.9678 22.916 16.493 21.1032 16.493C19.2904 16.493 17.8155 17.9678 17.8155 19.7806C17.8155 21.5935 19.2904 23.0683 21.1032 23.0683C22.916 23.0683 24.3908 21.5935 24.3908 19.7806ZM21.1032 23.0683C19.5418 23.0683 18.0864 23.6919 17.0354 24.7051C18.0841 25.7255 19.5206 26.356 21.1032 26.356C22.6683 26.356 24.0892 25.7275 25.1275 24.71C24.0821 23.687 22.6557 23.0683 21.1032 23.0683Z" fill="url(#paint1_linear_5317_15072)"/>
<defs>
<linearGradient id="paint0_linear_5317_15072" x1="14.5" y1="28" x2="14.5" y2="0" gradientUnits="userSpaceOnUse">
<stop stop-color="#A93AFF"/>
<stop offset="1" stop-color="#FF81FF"/>
</linearGradient>
<linearGradient id="paint1_linear_5317_15072" x1="14.5061" y1="26.356" x2="14.5061" y2="3.34229" gradientUnits="userSpaceOnUse">
<stop stop-color="#FFBEF9"/>
<stop offset="1" stop-color="#FFF1FF"/>
</linearGradient>
</defs>
</svg>
