<svg width="45" height="44" viewBox="0 0 45 44" fill="none" xmlns="http://www.w3.org/2000/svg">
<path d="M41.7324 11.9169L38.7066 10.2855C38.6271 10.2426 38.54 10.2159 38.4502 10.2067C38.3604 10.1975 38.2696 10.2061 38.1831 10.232C38.0966 10.2579 38.0161 10.3006 37.9461 10.3576C37.8761 10.4146 37.818 10.4849 37.7751 10.5644L27.6605 29.3238C27.5739 29.4843 27.5547 29.6726 27.607 29.8473C27.6593 30.022 27.7789 30.1687 27.9393 30.2552L30.9651 31.8867C31.0446 31.9295 31.1317 31.9563 31.2215 31.9655C31.3114 31.9747 31.4021 31.966 31.4886 31.9401C31.5751 31.9142 31.6557 31.8715 31.7257 31.8145C31.7957 31.7575 31.8537 31.6872 31.8966 31.6077L42.011 12.8479C42.0974 12.6875 42.1166 12.4993 42.0644 12.3247C42.0122 12.1501 41.8927 12.0034 41.7324 11.9169Z" fill="url(#paint0_linear_5234_14272)"/>
<path d="M17.3862 31.7585L7.82005 28.1388C7.20354 27.9055 6.68836 27.4634 6.36421 26.8895C6.04006 26.3155 5.92746 25.646 6.04603 24.9976C6.16459 24.3492 6.50681 23.7629 7.0131 23.3408C7.51938 22.9187 8.15767 22.6875 8.81684 22.6875H14.2948C14.4772 22.6875 14.652 22.6151 14.781 22.4861C14.9099 22.3572 14.9823 22.1823 14.9823 22V19.25C14.9823 19.0677 14.9099 18.8928 14.781 18.7639C14.652 18.6349 14.4772 18.5625 14.2948 18.5625H8.81684C7.19235 18.5625 5.61931 19.1322 4.37157 20.1725C3.12384 21.2127 2.28045 22.6576 1.98824 24.2556C1.69603 25.8536 1.97351 27.5035 2.77237 28.918C3.57123 30.3324 4.84086 31.422 6.36023 31.9968L15.9265 35.6165C16.0969 35.6811 16.2861 35.6753 16.4523 35.6004C16.6185 35.5255 16.7481 35.3876 16.8127 35.2172L17.786 32.6452C17.818 32.5608 17.833 32.4708 17.8303 32.3805C17.8275 32.2902 17.807 32.2014 17.7699 32.119C17.7327 32.0366 17.6797 31.9624 17.6139 31.9005C17.5481 31.8387 17.4707 31.7904 17.3862 31.7585Z" fill="#F7A352"/>
<path d="M41.4065 19.2339C41.4023 19.0544 41.328 18.8836 41.1995 18.7581C41.071 18.6327 40.8985 18.5625 40.719 18.5625H11.1565C10.9769 18.5625 10.8044 18.6327 10.6759 18.7581C10.5474 18.8836 10.4732 19.0544 10.469 19.2339C10.4663 19.3491 10.4108 22.0946 11.0773 25.615C11.6978 28.8919 13.0913 33.4674 16.2064 36.6561C18.7388 39.2483 22.0129 40.5625 25.9377 40.5625C29.8626 40.5625 33.1366 39.2483 35.6688 36.6561C38.784 33.4678 40.1775 28.8919 40.7979 25.615C41.4645 22.0945 41.409 19.3491 41.4065 19.2339Z" fill="url(#paint1_linear_5234_14272)"/>
<path d="M43.0648 38.5621C43.0105 38.4412 42.9224 38.3385 42.8111 38.2665C42.6998 38.1945 42.5701 38.1562 42.4375 38.1563H8.74998C8.61745 38.1563 8.48774 38.1946 8.37647 38.2666C8.2652 38.3386 8.17712 38.4412 8.12283 38.5621C8.06854 38.683 8.05035 38.817 8.07046 38.9481C8.09057 39.0791 8.14811 39.2015 8.23616 39.3005C8.31935 39.3942 9.12347 40.2389 11.6797 41.0462C14.997 42.0938 19.6785 42.625 25.5937 42.625C31.509 42.625 36.1904 42.0938 39.5078 41.0462C42.064 40.2389 42.868 39.3942 42.9513 39.3005C43.0394 39.2015 43.097 39.0791 43.1171 38.9481C43.1373 38.8171 43.1191 38.6831 43.0648 38.5621Z" fill="#FCEFCA"/>
<path d="M21.125 17.1875C20.9427 17.1875 20.7678 17.1151 20.6389 16.9861C20.5099 16.8572 20.4375 16.6823 20.4375 16.5C20.4381 15.9532 20.6556 15.429 21.0423 15.0423C21.429 14.6556 21.9532 14.4381 22.5 14.4375H28C28.3647 14.4375 28.7144 14.2926 28.9723 14.0348C29.2301 13.7769 29.375 13.4272 29.375 13.0625C29.375 12.6978 29.2301 12.3481 28.9723 12.0902C28.7144 11.8324 28.3647 11.6875 28 11.6875H24.2188C23.5806 11.6875 22.9685 11.434 22.5173 10.9827C22.066 10.5315 21.8125 9.91943 21.8125 9.28125C21.8125 8.64307 22.066 8.03103 22.5173 7.57977C22.9685 7.12852 23.5806 6.875 24.2188 6.875H27.3125C27.4948 6.87475 27.6695 6.80224 27.7984 6.67336C27.9272 6.54448 27.9998 6.36976 28 6.1875V6.14642C28.0003 6.06184 27.9838 5.97804 27.9513 5.89994C27.9188 5.82183 27.8711 5.75099 27.8109 5.69155C27.7485 5.63008 27.6746 5.58152 27.5933 5.54865C27.5121 5.51578 27.4252 5.49925 27.3376 5.5H27.2624C26.9077 5.49995 26.5565 5.43003 26.2288 5.29422C25.9012 5.15841 25.6035 4.95937 25.3527 4.70848C25.102 4.45759 24.9032 4.15976 24.7676 3.832C24.632 3.50425 24.5623 3.15299 24.5625 2.7983V2.0625C24.5625 1.88016 24.6349 1.7053 24.7639 1.57636C24.8928 1.44743 25.0677 1.375 25.25 1.375C25.4323 1.375 25.6072 1.44743 25.7361 1.57636C25.8651 1.7053 25.9375 1.88016 25.9375 2.0625V2.79873C25.9374 2.97282 25.9716 3.14522 26.0381 3.30609C26.1047 3.46696 26.2022 3.61316 26.3253 3.73631C26.4483 3.85947 26.5944 3.95719 26.7552 4.02388C26.916 4.09057 27.0884 4.12493 27.2625 4.125H27.3376C27.6049 4.12376 27.8698 4.17524 28.1171 4.27649C28.3645 4.37773 28.5895 4.52676 28.7792 4.71505C28.9687 4.90199 29.1191 5.12487 29.2214 5.37064C29.3237 5.61641 29.3759 5.88012 29.375 6.14634V6.1875C29.3743 6.7343 29.1568 7.25851 28.7702 7.64515C28.3835 8.0318 27.8593 8.24932 27.3125 8.25H24.2188C23.9452 8.25 23.6829 8.35865 23.4895 8.55205C23.2961 8.74544 23.1875 9.00775 23.1875 9.28125C23.1875 9.55475 23.2961 9.81706 23.4895 10.0105C23.6829 10.2039 23.9452 10.3125 24.2188 10.3125H28C28.7293 10.3125 29.4288 10.6022 29.9445 11.118C30.4603 11.6337 30.75 12.3332 30.75 13.0625C30.75 13.7918 30.4603 14.4913 29.9445 15.007C29.4288 15.5228 28.7293 15.8125 28 15.8125H22.5C22.3177 15.8127 22.143 15.8852 22.0141 16.0141C21.8852 16.143 21.8127 16.3177 21.8125 16.5C21.8125 16.6823 21.7401 16.8572 21.6111 16.9861C21.4822 17.1151 21.3073 17.1875 21.125 17.1875Z" fill="#FCEFCA"/>
<defs>
<linearGradient id="paint0_linear_5234_14272" x1="26.7824" y1="29.1394" x2="42.8891" y2="13.0327" gradientUnits="userSpaceOnUse">
<stop stop-color="#876455"/>
<stop offset="1" stop-color="#B26A3D"/>
</linearGradient>
<linearGradient id="paint1_linear_5234_14272" x1="15.2147" y1="35.6656" x2="36.6607" y2="14.2195" gradientUnits="userSpaceOnUse">
<stop stop-color="#E66F47"/>
<stop offset="1" stop-color="#F7A352"/>
</linearGradient>
</defs>
</svg>
