<svg width="57" height="52" viewBox="0 0 57 52" fill="none" xmlns="http://www.w3.org/2000/svg">
<path d="M56.2883 43.4019L32.9529 3.40485C30.9594 -0.00359815 26.0338 -0.00359815 24.0472 3.41166L0.711615 43.4019C-1.29534 46.8307 1.18109 51.1509 5.16104 51.1509H51.839C55.8189 51.1509 58.2954 46.8376 56.2883 43.4019ZM28.4966 15.5692C30.5921 15.5692 32.6195 17.3041 32.3269 19.3315L30.1498 34.3125C30.0342 35.1289 29.3266 35.7413 28.4966 35.7413C27.6666 35.7413 26.9591 35.1289 26.8434 34.3125L24.6663 19.3315C24.3737 17.2293 26.4011 15.5692 28.4966 15.5692ZM28.4966 46.0076C26.3876 46.0076 24.6255 44.2523 24.6255 42.1432C24.6255 40.0274 26.3876 38.2721 28.4966 38.2721C30.6056 38.2721 32.3677 40.0274 32.3677 42.1432C32.3677 44.2523 30.6056 46.0076 28.4966 46.0076Z" fill="url(#paint0_linear_3158_5657)"/>
<defs>
<linearGradient id="paint0_linear_3158_5657" x1="51.3" y1="51.1509" x2="-9.57075" y2="33.0699" gradientUnits="userSpaceOnUse">
<stop stop-color="#F62D2D"/>
<stop offset="1" stop-color="#FF6161"/>
</linearGradient>
</defs>
</svg>
