<svg width="331" height="97" viewBox="0 0 331 97" fill="none" xmlns="http://www.w3.org/2000/svg">
<path d="M53.9141 76H50.6914L45.5156 68.8223C44.2461 69.9616 42.8952 71.0358 41.4629 72.0449C40.0632 73.0215 38.582 73.8841 37.0195 74.6328C35.457 75.349 33.8457 75.9186 32.1855 76.3418C30.5579 76.765 28.8978 76.9766 27.2051 76.9766C23.5267 76.9766 20.0599 76.293 16.8047 74.9258C13.582 73.526 10.75 71.6055 8.30859 69.1641C5.89974 66.6901 3.99544 63.7767 2.5957 60.4238C1.19596 57.0384 0.496094 53.36 0.496094 49.3887C0.496094 45.4499 1.19596 41.7878 2.5957 38.4023C3.99544 35.0169 5.89974 32.0872 8.30859 29.6133C10.75 27.1393 13.582 25.2025 16.8047 23.8027C20.0599 22.403 23.5267 21.7031 27.2051 21.7031C28.377 21.7031 29.5814 21.8008 30.8184 21.9961C32.0879 22.1914 33.3086 22.5169 34.4805 22.9727C35.6849 23.3958 36.8079 23.9655 37.8496 24.6816C38.8913 25.3978 39.7702 26.2767 40.4863 27.3184V2.9043H53.9141V76ZM40.4863 49.3887C40.4863 47.5658 40.1283 45.8079 39.4121 44.1152C38.7285 42.39 37.7845 40.8763 36.5801 39.5742C35.3757 38.2396 33.9596 37.1816 32.332 36.4004C30.737 35.5866 29.028 35.1797 27.2051 35.1797C25.3822 35.1797 23.6569 35.5052 22.0293 36.1562C20.4342 36.8073 19.0345 37.7513 17.8301 38.9883C16.6582 40.1927 15.7305 41.6738 15.0469 43.4316C14.3633 45.1895 14.0215 47.1751 14.0215 49.3887C14.0215 51.3092 14.3633 53.1322 15.0469 54.8574C15.7305 56.5827 16.6582 58.0964 17.8301 59.3984C19.0345 60.7005 20.4342 61.7259 22.0293 62.4746C23.6569 63.2233 25.3822 63.5977 27.2051 63.5977C29.028 63.5977 30.737 63.207 32.332 62.4258C33.9596 61.612 35.3757 60.554 36.5801 59.252C37.7845 57.9173 38.7285 56.4036 39.4121 54.7109C40.1283 52.9857 40.4863 51.2116 40.4863 49.3887ZM79.8418 9.49609C79.8418 10.7331 79.5977 11.8887 79.1094 12.9629C78.6536 14.0371 78.0189 14.9811 77.2051 15.7949C76.3913 16.5762 75.431 17.2109 74.3242 17.6992C73.25 18.1549 72.0944 18.3828 70.8574 18.3828C69.6204 18.3828 68.4486 18.1549 67.3418 17.6992C66.2676 17.2109 65.3236 16.5762 64.5098 15.7949C63.7285 14.9811 63.0938 14.0371 62.6055 12.9629C62.1497 11.8887 61.9219 10.7331 61.9219 9.49609C61.9219 8.29167 62.1497 7.15234 62.6055 6.07812C63.0938 4.97135 63.7285 4.02734 64.5098 3.24609C65.3236 2.43229 66.2676 1.79753 67.3418 1.3418C68.4486 0.853516 69.6204 0.609375 70.8574 0.609375C72.0944 0.609375 73.25 0.853516 74.3242 1.3418C75.431 1.79753 76.3913 2.43229 77.2051 3.24609C78.0189 4.02734 78.6536 4.97135 79.1094 6.07812C79.5977 7.15234 79.8418 8.29167 79.8418 9.49609ZM77.5469 76H64.1191V23.7051H77.5469V76ZM116.463 76H85.9941V62.7188H116.463C117.374 62.7188 118.156 62.3932 118.807 61.7422C119.458 61.0911 119.783 60.3099 119.783 59.3984C119.783 58.4544 119.458 57.8359 118.807 57.543C118.156 57.25 117.374 57.1035 116.463 57.1035H102.596C100.285 57.1035 98.1198 56.6641 96.1016 55.7852C94.0833 54.9062 92.3255 53.7181 90.8281 52.2207C89.3307 50.6908 88.1426 48.9167 87.2637 46.8984C86.4173 44.8802 85.9941 42.7155 85.9941 40.4043C85.9941 38.0931 86.4173 35.9284 87.2637 33.9102C88.1426 31.8919 89.3307 30.1341 90.8281 28.6367C92.3255 27.1393 94.0833 25.9674 96.1016 25.1211C98.1198 24.2422 100.285 23.8027 102.596 23.8027H129.598V37.084H102.596C101.684 37.084 100.903 37.4095 100.252 38.0605C99.6009 38.7116 99.2754 39.4928 99.2754 40.4043C99.2754 41.3483 99.6009 42.1621 100.252 42.8457C100.903 43.4967 101.684 43.8223 102.596 43.8223H116.463C118.742 43.8223 120.89 44.2129 122.908 44.9941C124.926 45.7428 126.684 46.8008 128.182 48.168C129.679 49.5352 130.867 51.179 131.746 53.0996C132.625 55.0202 133.064 57.1198 133.064 59.3984C133.064 61.7096 132.625 63.8743 131.746 65.8926C130.867 67.8783 129.679 69.6361 128.182 71.166C126.684 72.6634 124.926 73.8516 122.908 74.7305C120.89 75.5768 118.742 76 116.463 76ZM192.537 49.3887C192.537 53.4902 191.837 57.2337 190.438 60.6191C189.038 64.0046 187.133 66.918 184.725 69.3594C182.316 71.7682 179.484 73.64 176.229 74.9746C173.006 76.3092 169.539 76.9766 165.828 76.9766C162.15 76.9766 158.683 76.293 155.428 74.9258C152.205 73.5586 149.373 71.6543 146.932 69.2129C144.523 66.7715 142.618 63.8743 141.219 60.5215C139.819 57.1361 139.119 53.4251 139.119 49.3887V2.9043H152.498V27.3184C153.214 26.4069 154.077 25.5931 155.086 24.877C156.128 24.1608 157.234 23.5749 158.406 23.1191C159.611 22.6634 160.848 22.3216 162.117 22.0938C163.387 21.8333 164.624 21.7031 165.828 21.7031C169.539 21.7031 173.006 22.403 176.229 23.8027C179.484 25.1699 182.316 27.0905 184.725 29.5645C187.133 32.0384 189.038 34.9681 190.438 38.3535C191.837 41.7064 192.537 45.3848 192.537 49.3887ZM179.109 49.3887C179.109 47.3704 178.751 45.4987 178.035 43.7734C177.352 42.0156 176.408 40.502 175.203 39.2324C173.999 37.9629 172.583 36.9701 170.955 36.2539C169.36 35.5378 167.651 35.1797 165.828 35.1797C164.005 35.1797 162.28 35.5866 160.652 36.4004C159.057 37.1816 157.658 38.2396 156.453 39.5742C155.249 40.8763 154.305 42.39 153.621 44.1152C152.938 45.8079 152.596 47.5658 152.596 49.3887C152.596 51.4069 152.938 53.2786 153.621 55.0039C154.305 56.7292 155.249 58.2266 156.453 59.4961C157.658 60.7656 159.057 61.7747 160.652 62.5234C162.28 63.2396 164.005 63.5977 165.828 63.5977C167.651 63.5977 169.36 63.2396 170.955 62.5234C172.583 61.7747 173.999 60.7656 175.203 59.4961C176.408 58.2266 177.352 56.7292 178.035 55.0039C178.751 53.2786 179.109 51.4069 179.109 49.3887ZM213.387 76H199.959V2.9043H213.387V76ZM274.227 76H271.004L265.828 68.8223C264.559 69.9616 263.208 71.0358 261.775 72.0449C260.376 73.0215 258.895 73.8841 257.332 74.6328C255.77 75.349 254.158 75.9186 252.498 76.3418C250.87 76.765 249.21 76.9766 247.518 76.9766C243.839 76.9766 240.372 76.3581 237.117 75.1211C233.895 73.8841 231.062 72.0938 228.621 69.75C226.212 67.3737 224.308 64.4766 222.908 61.0586C221.508 57.6406 220.809 53.7507 220.809 49.3887C220.809 45.3197 221.508 41.5924 222.908 38.207C224.308 34.7891 226.212 31.8594 228.621 29.418C231.062 26.9766 233.895 25.0885 237.117 23.7539C240.372 22.3867 243.839 21.7031 247.518 21.7031C249.21 21.7031 250.887 21.9147 252.547 22.3379C254.207 22.7611 255.818 23.347 257.381 24.0957C258.943 24.8444 260.424 25.7233 261.824 26.7324C263.257 27.7415 264.591 28.832 265.828 30.0039L271.004 23.8027H274.227V76ZM260.799 49.3887C260.799 47.5658 260.441 45.8079 259.725 44.1152C259.041 42.39 258.097 40.8763 256.893 39.5742C255.688 38.2396 254.272 37.1816 252.645 36.4004C251.049 35.5866 249.34 35.1797 247.518 35.1797C245.695 35.1797 243.969 35.4889 242.342 36.1074C240.747 36.7259 239.347 37.6374 238.143 38.8418C236.971 40.0462 236.043 41.5436 235.359 43.334C234.676 45.0918 234.334 47.11 234.334 49.3887C234.334 51.6673 234.676 53.7018 235.359 55.4922C236.043 57.25 236.971 58.7311 238.143 59.9355C239.347 61.14 240.747 62.0514 242.342 62.6699C243.969 63.2884 245.695 63.5977 247.518 63.5977C249.34 63.5977 251.049 63.207 252.645 62.4258C254.272 61.612 255.688 60.554 256.893 59.252C258.097 57.9173 259.041 56.4036 259.725 54.7109C260.441 52.9857 260.799 51.2116 260.799 49.3887ZM297.029 95.9219V82.4941L304.451 82.5918C305.753 82.5918 307.007 82.3802 308.211 81.957C309.415 81.5339 310.522 80.9479 311.531 80.1992C312.573 79.4505 313.484 78.5553 314.266 77.5137C315.047 76.5046 315.682 75.3978 316.17 74.1934C314.705 74.8118 313.208 75.4303 311.678 76.0488C310.18 76.6673 308.667 76.9766 307.137 76.9766C303.914 76.9766 300.887 76.4069 298.055 75.2676C295.223 74.1283 292.732 72.5169 290.584 70.4336C288.468 68.3177 286.792 65.7624 285.555 62.7676C284.35 59.7402 283.748 56.3548 283.748 52.6113V23.7051H297.029V52.6113C297.029 54.4668 297.29 56.0944 297.811 57.4941C298.364 58.8613 299.096 60.0169 300.008 60.9609C300.919 61.8724 301.977 62.556 303.182 63.0117C304.419 63.4674 305.737 63.6953 307.137 63.6953C308.504 63.6953 309.79 63.3861 310.994 62.7676C312.231 62.1165 313.305 61.2702 314.217 60.2285C315.128 59.1868 315.844 58.015 316.365 56.7129C316.886 55.3783 317.146 54.0111 317.146 52.6113V23.7051H330.574V69.4082C330.542 73.0866 329.826 76.5371 328.426 79.7598C327.026 82.9824 325.105 85.7982 322.664 88.207C320.255 90.6159 317.439 92.5202 314.217 93.9199C310.994 95.3197 307.544 96.0195 303.865 96.0195L297.029 95.9219Z" fill="url(#paint0_linear_4648_15567)"/>
<defs>
<linearGradient id="paint0_linear_4648_15567" x1="167" y1="-10" x2="167" y2="90" gradientUnits="userSpaceOnUse">
<stop stop-color="#354D65" stop-opacity="0.27"/>
<stop offset="1" stop-color="#112244" stop-opacity="0.03"/>
</linearGradient>
</defs>
</svg>
