<svg width="100" height="100" viewBox="0 0 100 100" fill="none" xmlns="http://www.w3.org/2000/svg">
<g clip-path="url(#clip0_3313_30076)">
<path d="M50 0.00195312C22.3887 0.00195312 0 22.3862 0 49.9998C0 77.6133 22.3865 99.9976 50 99.9976C77.6157 99.9976 100 77.6133 100 49.9998C100 22.3862 77.6157 0.00195312 50 0.00195312ZM50 14.9519C59.1364 14.9519 66.54 22.3577 66.54 31.4897C66.54 40.6239 59.1364 48.0275 50 48.0275C40.868 48.0275 33.4644 40.6239 33.4644 31.4897C33.4644 22.3577 40.868 14.9519 50 14.9519ZM49.989 86.9254C40.8767 86.9254 32.531 83.6069 26.0937 78.1141C24.5256 76.7765 23.6208 74.8153 23.6208 72.7574C23.6208 63.4958 31.1166 56.0834 40.3804 56.0834H59.624C68.89 56.0834 76.3573 63.4958 76.3573 72.7574C76.3573 74.8175 75.4568 76.7743 73.8865 78.1119C67.4515 83.6069 59.1035 86.9254 49.989 86.9254Z" fill="#D0D4DC" fill-opacity="0.862745"/>
</g>
<defs>
<clipPath id="clip0_3313_30076">
<rect width="100" height="100" fill="white"/>
</clipPath>
</defs>
</svg>
