<svg width="20" height="20" viewBox="0 0 20 20" fill="none" xmlns="http://www.w3.org/2000/svg">
<path d="M15.8335 5.8335C15.6125 5.8335 15.4005 5.92129 15.2442 6.07757C15.088 6.23385 15.0002 6.44582 15.0002 6.66683V15.9927C14.9763 16.4141 14.7868 16.809 14.4731 17.0913C14.1593 17.3737 13.7467 17.5206 13.3252 17.5002H6.67516C6.25358 17.5206 5.84098 17.3737 5.52725 17.0913C5.21352 16.809 5.02407 16.4141 5.00016 15.9927V6.66683C5.00016 6.44582 4.91237 6.23385 4.75608 6.07757C4.5998 5.92129 4.38784 5.8335 4.16683 5.8335C3.94582 5.8335 3.73385 5.92129 3.57757 6.07757C3.42129 6.23385 3.3335 6.44582 3.3335 6.66683V15.9927C3.35728 16.8562 3.72231 17.6751 4.34865 18.27C4.97498 18.865 5.81156 19.1874 6.67516 19.1668H13.3252C14.1888 19.1874 15.0253 18.865 15.6517 18.27C16.278 17.6751 16.643 16.8562 16.6668 15.9927V6.66683C16.6668 6.44582 16.579 6.23385 16.4228 6.07757C16.2665 5.92129 16.0545 5.8335 15.8335 5.8335Z" fill="#FF1C1C"/>
<path d="M16.6667 3.3335H13.3333V1.66683C13.3333 1.44582 13.2455 1.23385 13.0893 1.07757C12.933 0.921293 12.721 0.833496 12.5 0.833496H7.5C7.27899 0.833496 7.06702 0.921293 6.91074 1.07757C6.75446 1.23385 6.66667 1.44582 6.66667 1.66683V3.3335H3.33333C3.11232 3.3335 2.90036 3.42129 2.74408 3.57757C2.5878 3.73385 2.5 3.94582 2.5 4.16683C2.5 4.38784 2.5878 4.5998 2.74408 4.75608C2.90036 4.91237 3.11232 5.00016 3.33333 5.00016H16.6667C16.8877 5.00016 17.0996 4.91237 17.2559 4.75608C17.4122 4.5998 17.5 4.38784 17.5 4.16683C17.5 3.94582 17.4122 3.73385 17.2559 3.57757C17.0996 3.42129 16.8877 3.3335 16.6667 3.3335ZM8.33333 3.3335V2.50016H11.6667V3.3335H8.33333Z" fill="#FF1C1C"/>
<path d="M9.16667 14.1667V8.33333C9.16667 8.11232 9.07887 7.90036 8.92259 7.74408C8.76631 7.5878 8.55435 7.5 8.33333 7.5C8.11232 7.5 7.90036 7.5878 7.74408 7.74408C7.5878 7.90036 7.5 8.11232 7.5 8.33333V14.1667C7.5 14.3877 7.5878 14.5996 7.74408 14.7559C7.90036 14.9122 8.11232 15 8.33333 15C8.55435 15 8.76631 14.9122 8.92259 14.7559C9.07887 14.5996 9.16667 14.3877 9.16667 14.1667Z" fill="#FF1C1C"/>
<path d="M12.5002 14.1667V8.33333C12.5002 8.11232 12.4124 7.90036 12.2561 7.74408C12.0998 7.5878 11.8878 7.5 11.6668 7.5C11.4458 7.5 11.2339 7.5878 11.0776 7.74408C10.9213 7.90036 10.8335 8.11232 10.8335 8.33333V14.1667C10.8335 14.3877 10.9213 14.5996 11.0776 14.7559C11.2339 14.9122 11.4458 15 11.6668 15C11.8878 15 12.0998 14.9122 12.2561 14.7559C12.4124 14.5996 12.5002 14.3877 12.5002 14.1667Z" fill="#FF1C1C"/>
</svg>
