<svg width="124" height="45" viewBox="0 0 124 45" fill="none" xmlns="http://www.w3.org/2000/svg">
<g clip-path="url(#clip0_3340_33777)">
<path d="M19.5508 35.5775H18.4108L16.5673 33.0294C16.1064 33.4381 15.6455 33.7987 15.1361 34.1593C14.6267 34.5198 14.0931 34.8083 13.5352 35.0727C12.9773 35.3371 12.3951 35.5294 11.813 35.6977C11.2308 35.8419 10.6244 35.9141 10.018 35.9141C8.70811 35.9141 7.47102 35.6737 6.3067 35.1689C5.14238 34.6881 4.14786 33.991 3.27462 33.1256C2.40138 32.2602 1.7222 31.2266 1.23707 30.0246C0.727675 28.8227 0.485107 27.5246 0.485107 26.1304C0.485107 24.7362 0.727675 23.4381 1.23707 22.2362C1.74645 21.0343 2.42564 20.0006 3.27462 19.1352C4.14786 18.2698 5.14238 17.5727 6.3067 17.0679C7.47102 16.5631 8.70811 16.3227 10.018 16.3227C10.4303 16.3227 10.867 16.3468 11.3278 16.4189C11.7645 16.491 12.2011 16.6112 12.6377 16.7554C13.0501 16.8996 13.4624 17.116 13.8263 17.3804C14.1901 17.6448 14.5055 17.9333 14.7723 18.3179V9.66406H19.5751V35.5775H19.5508ZM14.748 26.1545C14.748 25.5054 14.6267 24.8804 14.3842 24.2794C14.1416 23.6785 13.802 23.1496 13.3654 22.6689C12.9288 22.2121 12.4436 21.8275 11.8615 21.5391C11.2793 21.2506 10.6729 21.1064 10.018 21.1064C9.36304 21.1064 8.75663 21.2266 8.17447 21.4429C7.59231 21.6833 7.10717 21.9958 6.67055 22.4285C6.23393 22.8612 5.9186 23.39 5.67603 24.015C5.43347 24.64 5.31218 25.3371 5.31218 26.1304C5.31218 26.8035 5.43347 27.4525 5.67603 28.0775C5.9186 28.6785 6.25819 29.2314 6.67055 29.6881C7.08292 30.1448 7.59231 30.5054 8.17447 30.7698C8.75663 31.0343 9.36304 31.1785 10.018 31.1785C10.6729 31.1785 11.2793 31.0343 11.8615 30.7458C12.4436 30.4573 12.9288 30.0968 13.3654 29.616C13.802 29.1593 14.1416 28.6064 14.3842 28.0054C14.6267 27.4285 14.748 26.8035 14.748 26.1545Z" fill="#34495E"/>
<path d="M28.7926 12.0436C28.7926 12.4763 28.7198 12.8849 28.5501 13.2695C28.3803 13.6541 28.1619 13.9907 27.8709 14.2551C27.5798 14.5436 27.2402 14.7599 26.8521 14.9282C26.464 15.0965 26.0516 15.1686 25.615 15.1686C25.1784 15.1686 24.766 15.0965 24.3779 14.9282C23.9898 14.7599 23.6502 14.5436 23.3591 14.2551C23.0681 13.9666 22.8497 13.6301 22.6799 13.2695C22.5101 12.8849 22.4374 12.4763 22.4374 12.0436C22.4374 11.6109 22.5101 11.2022 22.6799 10.8176C22.8497 10.433 23.0681 10.0965 23.3591 9.80799C23.6502 9.51953 23.9898 9.30319 24.3779 9.13492C24.766 8.96665 25.1784 8.89453 25.615 8.89453C26.0516 8.89453 26.464 8.96665 26.8521 9.13492C27.2402 9.30319 27.5798 9.51953 27.8709 9.80799C28.1619 10.0965 28.3803 10.433 28.5501 10.8176C28.7198 11.2022 28.7926 11.6109 28.7926 12.0436ZM27.9679 35.5772H23.1651V17.0676H27.9679V35.5772Z" fill="#34495E"/>
<path d="M41.8671 35.5774H30.9758V30.8658H41.8671C42.1824 30.8658 42.4735 30.7456 42.716 30.5293C42.9586 30.2889 43.0556 30.0245 43.0556 29.6879C43.0556 29.3514 42.9344 29.1351 42.716 29.0389C42.4735 28.9428 42.2067 28.8947 41.8671 28.8947H36.9187C36.094 28.8947 35.3178 28.7505 34.5901 28.438C33.8624 28.1255 33.2317 27.6927 32.6981 27.1639C32.1644 26.6351 31.752 26.0101 31.4367 25.2889C31.1214 24.5678 30.9758 23.7985 30.9758 22.9812C30.9758 22.1639 31.1214 21.3947 31.4367 20.6735C31.752 19.9524 32.1644 19.3274 32.6981 18.7985C33.2317 18.2697 33.8624 17.861 34.5901 17.5485C35.3178 17.236 36.094 17.0918 36.9187 17.0918H46.5729V21.8033H36.9187C36.6034 21.8033 36.3123 21.9235 36.0697 22.1399C35.8272 22.3803 35.7301 22.6447 35.7301 22.9812C35.7301 23.3178 35.8514 23.6062 36.0697 23.8466C36.3123 24.087 36.5791 24.2072 36.9187 24.2072H41.8671C42.6918 24.2072 43.4437 24.3514 44.1714 24.6158C44.8991 24.8803 45.5298 25.2649 46.0635 25.7456C46.5971 26.2264 47.0337 26.8033 47.3248 27.5004C47.6401 28.1735 47.7857 28.9187 47.7857 29.736C47.7857 30.5533 47.6401 31.3226 47.3248 32.0197C47.0095 32.7168 46.5971 33.3418 46.0635 33.8947C45.5298 34.4235 44.8991 34.8562 44.1714 35.1447C43.4437 35.4331 42.6675 35.5774 41.8671 35.5774Z" fill="#34495E"/>
<path d="M76.457 35.5773H71.6542V9.71191H76.457V35.5773Z" fill="#34495E"/>
<path d="M98.1666 35.5774H97.0266L95.1831 33.0294C94.7222 33.438 94.2613 33.7986 93.7519 34.1592C93.2425 34.5198 92.7089 34.8082 92.151 35.0726C91.5931 35.3371 91.0109 35.5294 90.4288 35.6976C89.8466 35.8419 89.2402 35.914 88.6338 35.914C87.3239 35.914 86.0868 35.6976 84.9225 35.2649C83.7582 34.8323 82.7637 34.1832 81.8904 33.3659C81.0172 32.5246 80.338 31.5149 79.8286 30.289C79.3192 29.0871 79.0767 27.6928 79.0767 26.1544C79.0767 24.7121 79.3192 23.39 79.8286 22.188C80.338 20.9861 81.0172 19.9524 81.8904 19.0871C82.7637 18.2217 83.7582 17.5486 84.9225 17.0678C86.0868 16.5871 87.3239 16.3467 88.6338 16.3467C89.2402 16.3467 89.8466 16.4188 90.4288 16.563C91.0109 16.7073 91.5931 16.9236 92.151 17.188C92.7089 17.4524 93.2425 17.7649 93.7519 18.1255C94.2613 18.4861 94.7222 18.8707 95.1831 19.2794L97.0266 17.0919H98.1666V35.5774ZM93.3638 26.1544C93.3638 25.5053 93.2425 24.8803 93 24.2794C92.7574 23.6784 92.4178 23.1496 91.9812 22.6688C91.5446 22.2121 91.0594 21.8274 90.4773 21.539C89.8951 21.2505 89.2887 21.1063 88.6338 21.1063C87.9788 21.1063 87.3724 21.2265 86.7903 21.4428C86.2081 21.6592 85.723 21.9957 85.2864 22.4044C84.8497 22.8371 84.5344 23.3659 84.2918 23.9909C84.0493 24.6159 83.928 25.3371 83.928 26.1544C83.928 26.9717 84.0493 27.6688 84.2918 28.3178C84.5344 28.9428 84.874 29.4717 85.2864 29.9044C85.6987 30.3371 86.2081 30.6496 86.7903 30.8659C87.3724 31.0823 87.9788 31.2025 88.6338 31.2025C89.2887 31.2025 89.8951 31.0582 90.4773 30.7697C91.0594 30.4813 91.5446 30.1207 91.9812 29.64C92.4178 29.1832 92.7574 28.6303 93 28.0294C93.2425 27.4284 93.3638 26.8034 93.3638 26.1544Z" fill="#34495E"/>
<path d="M106.293 42.6443V37.8847L108.937 37.9087C109.398 37.9087 109.858 37.8366 110.271 37.6924C110.707 37.5482 111.096 37.3318 111.459 37.0674C111.823 36.803 112.139 36.4905 112.43 36.1299C112.696 35.7693 112.939 35.3607 113.109 34.952C112.575 35.1683 112.042 35.3847 111.508 35.601C110.974 35.8174 110.416 35.9376 109.883 35.9376C108.743 35.9376 107.651 35.7453 106.632 35.3366C105.614 34.928 104.74 34.351 103.964 33.6058C103.212 32.8607 102.606 31.9472 102.169 30.8895C101.732 29.8318 101.514 28.6299 101.514 27.3078V17.0674H106.268V27.3078C106.268 27.9568 106.365 28.5337 106.56 29.0385C106.754 29.5193 107.02 29.928 107.336 30.2645C107.651 30.601 108.039 30.8414 108.476 31.0097C108.912 31.178 109.373 31.2501 109.883 31.2501C110.368 31.2501 110.829 31.1299 111.265 30.9135C111.702 30.6972 112.09 30.3847 112.405 30.0241C112.721 29.6635 112.988 29.2308 113.182 28.7741C113.376 28.3174 113.473 27.8366 113.473 27.3318V17.0914H118.275V33.2693C118.275 34.5674 118.009 35.7933 117.499 36.9232C116.99 38.053 116.311 39.0626 115.462 39.9039C114.588 40.7453 113.594 41.4424 112.43 41.9231C111.29 42.428 110.052 42.6683 108.743 42.6683L106.293 42.6443Z" fill="#34495E"/>
<path d="M69.0102 26.1542C69.0102 27.5965 68.7676 28.9427 68.2582 30.1206C67.7488 31.3225 67.0696 32.3561 66.2206 33.1975C65.3717 34.0629 64.3529 34.7119 63.1886 35.1927C62.0242 35.6735 60.7871 35.8898 59.453 35.8898C58.1432 35.8898 56.9061 35.6494 55.7418 35.1687C54.5774 34.6879 53.5829 34.0148 52.7097 33.1494C51.8364 32.284 51.1573 31.2504 50.6721 30.0725C50.1627 28.8706 49.9202 27.5725 49.9202 26.1302V9.71191H54.6987V18.3658C54.9656 18.0533 55.2566 17.7648 55.6205 17.5004C55.9843 17.236 56.3724 17.0436 56.8091 16.8754C57.2214 16.7071 57.6823 16.5869 58.1189 16.5148C58.5798 16.4186 59.0164 16.3946 59.453 16.3946C60.7871 16.3946 62.0242 16.635 63.1886 17.1398C64.3529 17.6206 65.3474 18.3177 66.2206 19.1831C67.0696 20.0485 67.7731 21.0821 68.2582 22.284C68.7676 23.4379 69.0102 24.736 69.0102 26.1542ZM64.2316 26.1542C64.2316 25.4331 64.1103 24.784 63.8677 24.159C63.6252 23.534 63.2856 23.0052 62.849 22.5485C62.4123 22.0917 61.9272 21.7552 61.345 21.4908C60.7629 21.2263 60.1565 21.1062 59.5015 21.1062C58.8466 21.1062 58.2402 21.2504 57.658 21.5388C57.0759 21.8273 56.5907 22.1879 56.1541 22.6687C55.7175 23.1254 55.3779 23.6783 55.1353 24.2792C54.8928 24.8802 54.7715 25.5052 54.7715 26.1542C54.7715 26.8754 54.8928 27.5244 55.1353 28.1494C55.3779 28.7504 55.7175 29.2792 56.1541 29.736C56.5907 30.1927 57.0759 30.5292 57.658 30.7936C58.2402 31.0581 58.8466 31.1783 59.5015 31.1783C60.1565 31.1783 60.7629 31.0581 61.345 30.7936C61.9272 30.5292 62.4123 30.1686 62.849 29.736C63.2856 29.2792 63.6252 28.7504 63.8677 28.1494C64.1103 27.5485 64.2316 26.8754 64.2316 26.1542Z" fill="#34495E"/>
<path d="M68.9373 37.8613H50.0171V42.7171H68.9373V37.8613Z" fill="#F62D2D"/>
</g>
<defs>
<clipPath id="clip0_3340_33777">
<rect width="124" height="45" fill="white"/>
</clipPath>
</defs>
</svg>
