<svg width="168" height="48" viewBox="0 0 168 48" fill="none" xmlns="http://www.w3.org/2000/svg">
<rect x="0.875" width="48" height="48" rx="9.6" fill="url(#paint0_linear_3848_11125)"/>
<path d="M33.875 23.641C33.875 25.0161 33.6514 26.2907 33.1707 27.4087C32.6899 28.5491 32.0526 29.5329 31.2477 30.3379C30.4427 31.1652 29.4924 31.7801 28.3856 32.2385C27.2899 32.6969 26.1272 32.8981 24.8638 32.8981C23.634 32.8981 22.4601 32.6745 21.3644 32.2161C20.2688 31.7578 19.3297 31.1205 18.5023 30.2932C17.675 29.4658 17.0377 28.482 16.5793 27.364C16.0986 26.2236 15.875 24.9826 15.875 23.6186V8H20.3806V16.2286C20.6266 15.9267 20.9061 15.6584 21.2526 15.4012C21.5992 15.1441 21.957 14.9652 22.3707 14.8087C22.762 14.6522 23.198 14.5292 23.6005 14.4621C24.0365 14.3727 24.4502 14.3503 24.8526 14.3503C26.1048 14.3503 27.2787 14.5739 28.3744 15.0547C29.47 15.513 30.4092 16.1727 31.2365 17C32.0415 17.8273 32.7011 18.8112 33.1595 19.9516C33.6514 21.0584 33.875 22.2882 33.875 23.641ZM29.3694 23.641C29.3694 22.959 29.2576 22.3329 29.0228 21.7404C28.788 21.1478 28.475 20.6447 28.0613 20.2087C27.6477 19.7727 27.1893 19.4596 26.6415 19.2025C26.0936 18.9565 25.5234 18.8335 24.9085 18.8335C24.2936 18.8335 23.7234 18.9677 23.1756 19.2472C22.6278 19.5267 22.1694 19.8621 21.7557 20.3205C21.3421 20.7565 21.029 21.282 20.7943 21.8522C20.5707 22.4224 20.4477 23.0149 20.4477 23.641C20.4477 24.323 20.5595 24.9491 20.7943 25.5416C21.0179 26.1118 21.3421 26.6149 21.7557 27.0509C22.1694 27.487 22.6278 27.8 23.1756 28.0571C23.7234 28.3031 24.2936 28.4261 24.9085 28.4261C25.5234 28.4261 26.0936 28.3143 26.6415 28.0571C27.1893 27.8112 27.6477 27.4646 28.0613 27.0509C28.475 26.6149 28.788 26.1118 29.0228 25.5416C29.2576 24.9714 29.3694 24.323 29.3694 23.641Z" fill="#F2F2F2"/>
<path d="M33.7073 34.6875H15.875V39.3049H33.7073V34.6875Z" fill="#F62D2D"/>
<g clip-path="url(#clip0_3848_11125)">
<path d="M74.0976 35.624H73.0933L71.4694 33.3591C71.0634 33.7223 70.6574 34.0428 70.2087 34.3634C69.76 34.6839 69.2899 34.9403 68.7985 35.1753C68.307 35.4104 67.7942 35.5813 67.2814 35.7309C66.7685 35.8591 66.2344 35.9232 65.7002 35.9232C64.5463 35.9232 63.4566 35.7095 62.4309 35.2608C61.4053 34.8334 60.5292 34.2138 59.76 33.4446C58.9908 32.6753 58.3925 31.7565 57.9651 30.6881C57.5164 29.6198 57.3027 28.4659 57.3027 27.2266C57.3027 25.9873 57.5164 24.8334 57.9651 23.7651C58.4138 22.6967 59.0121 21.7779 59.76 21.0087C60.5292 20.2394 61.4053 19.6198 62.4309 19.171C63.4566 18.7223 64.5463 18.5086 65.7002 18.5086C66.0634 18.5086 66.448 18.53 66.854 18.5941C67.2386 18.6582 67.6232 18.7651 68.0079 18.8933C68.3711 19.0215 68.7344 19.2138 69.0549 19.4488C69.3754 19.6839 69.6532 19.9403 69.8882 20.2822V12.5898H74.119V35.624H74.0976ZM69.8668 27.248C69.8668 26.671 69.76 26.1155 69.5463 25.5813C69.3326 25.0471 69.0335 24.577 68.6489 24.1497C68.2643 23.7437 67.8369 23.4018 67.3241 23.1454C66.8113 22.889 66.2771 22.7608 65.7002 22.7608C65.1232 22.7608 64.5891 22.8676 64.0762 23.0599C63.5634 23.2736 63.1361 23.5514 62.7515 23.936C62.3668 24.3206 62.0891 24.7907 61.8754 25.3463C61.6617 25.9018 61.5549 26.5215 61.5549 27.2266C61.5549 27.8249 61.6617 28.4018 61.8754 28.9574C62.0891 29.4916 62.3882 29.983 62.7515 30.389C63.1147 30.795 63.5634 31.1155 64.0762 31.3505C64.5891 31.5856 65.1232 31.7138 65.7002 31.7138C66.2771 31.7138 66.8113 31.5856 67.3241 31.3292C67.8369 31.0728 68.2643 30.7522 68.6489 30.3249C69.0335 29.9189 69.3326 29.4274 69.5463 28.8933C69.76 28.3804 69.8668 27.8249 69.8668 27.248Z" fill="url(#paint1_linear_3848_11125)"/>
<path d="M82.2389 14.7054C82.2389 15.09 82.1748 15.4533 82.0252 15.7951C81.8757 16.137 81.6834 16.4362 81.427 16.6712C81.1705 16.9276 80.8714 17.1199 80.5295 17.2695C80.1876 17.4191 79.8244 17.4832 79.4398 17.4832C79.0552 17.4832 78.6919 17.4191 78.35 17.2695C78.0081 17.1199 77.709 16.9276 77.4526 16.6712C77.1962 16.4148 77.0039 16.1156 76.8543 15.7951C76.7047 15.4533 76.6406 15.09 76.6406 14.7054C76.6406 14.3208 76.7047 13.9575 76.8543 13.6157C77.0039 13.2738 77.1962 12.9746 77.4526 12.7182C77.709 12.4618 78.0081 12.2695 78.35 12.1199C78.6919 11.9704 79.0552 11.9062 79.4398 11.9062C79.8244 11.9062 80.1876 11.9704 80.5295 12.1199C80.8714 12.2695 81.1705 12.4618 81.427 12.7182C81.6834 12.9746 81.8757 13.2738 82.0252 13.6157C82.1748 13.9575 82.2389 14.3208 82.2389 14.7054ZM81.5124 35.6242H77.2817V19.1712H81.5124V35.6242Z" fill="url(#paint2_linear_3848_11125)"/>
<path d="M93.7561 35.625H84.1621V31.4369H93.7561C94.0339 31.4369 94.2903 31.3301 94.504 31.1378C94.7177 30.9241 94.8031 30.6891 94.8031 30.3899C94.8031 30.0908 94.6963 29.8985 94.504 29.813C94.2903 29.7276 94.0553 29.6848 93.7561 29.6848H89.3972C88.6707 29.6848 87.9869 29.5566 87.3459 29.2788C86.7048 29.0011 86.1493 28.6164 85.6792 28.1463C85.2091 27.6763 84.8459 27.1207 84.5681 26.4797C84.2903 25.8387 84.1621 25.1549 84.1621 24.4284C84.1621 23.7019 84.2903 23.0181 84.5681 22.3771C84.8459 21.7361 85.2091 21.1805 85.6792 20.7104C86.1493 20.2404 86.7048 19.8771 87.3459 19.5993C87.9869 19.3216 88.6707 19.1934 89.3972 19.1934H97.9014V23.3814H89.3972C89.1194 23.3814 88.863 23.4882 88.6493 23.6805C88.4356 23.8942 88.3501 24.1293 88.3501 24.4284C88.3501 24.7275 88.457 24.984 88.6493 25.1976C88.863 25.4113 89.098 25.5181 89.3972 25.5181H93.7561C94.4826 25.5181 95.145 25.6463 95.786 25.8814C96.4271 26.1164 96.9826 26.4583 97.4527 26.8857C97.9228 27.313 98.3074 27.8258 98.5638 28.4455C98.8416 29.0438 98.9698 29.7062 98.9698 30.4327C98.9698 31.1592 98.8416 31.8429 98.5638 32.4626C98.286 33.0822 97.9228 33.6378 97.4527 34.1293C96.9826 34.5993 96.4271 34.984 95.786 35.2404C95.145 35.4968 94.4613 35.625 93.7561 35.625Z" fill="url(#paint3_linear_3848_11125)"/>
<path d="M124.225 35.6243H119.994V12.6328H124.225V35.6243Z" fill="url(#paint4_linear_3848_11125)"/>
<path d="M143.349 35.6233H142.345L140.721 33.3584C140.315 33.7216 139.909 34.0421 139.461 34.3626C139.012 34.6831 138.542 34.9396 138.05 35.1746C137.559 35.4096 137.046 35.5806 136.533 35.7301C136.02 35.8583 135.486 35.9225 134.952 35.9225C133.798 35.9225 132.708 35.7301 131.683 35.3455C130.657 34.9609 129.781 34.384 129.012 33.6575C128.243 32.9096 127.644 32.0122 127.196 30.9225C126.747 29.8541 126.533 28.6148 126.533 27.2472C126.533 25.9652 126.747 24.79 127.196 23.7216C127.644 22.6532 128.243 21.7344 129.012 20.9652C129.781 20.196 130.657 19.5977 131.683 19.1703C132.708 18.743 133.798 18.5293 134.952 18.5293C135.486 18.5293 136.02 18.5934 136.533 18.7216C137.046 18.8498 137.559 19.0421 138.05 19.2772C138.542 19.5122 139.012 19.79 139.461 20.1105C139.909 20.431 140.315 20.7729 140.721 21.1361L142.345 19.1917H143.349V35.6233ZM139.119 27.2472C139.119 26.6703 139.012 26.1148 138.798 25.5806C138.584 25.0464 138.285 24.5763 137.901 24.149C137.516 23.743 137.089 23.4011 136.576 23.1447C136.063 22.8883 135.529 22.7601 134.952 22.7601C134.375 22.7601 133.841 22.8669 133.328 23.0592C132.815 23.2515 132.388 23.5507 132.003 23.9139C131.619 24.2985 131.341 24.7686 131.127 25.3242C130.914 25.8797 130.807 26.5208 130.807 27.2472C130.807 27.9737 130.914 28.5934 131.127 29.1703C131.341 29.7259 131.64 30.196 132.003 30.5806C132.367 30.9652 132.815 31.243 133.328 31.4353C133.841 31.6276 134.375 31.7344 134.952 31.7344C135.529 31.7344 136.063 31.6062 136.576 31.3498C137.089 31.0934 137.516 30.7729 137.901 30.3455C138.285 29.9396 138.584 29.4481 138.798 28.9139C139.012 28.3797 139.119 27.8242 139.119 27.2472Z" fill="url(#paint5_linear_3848_11125)"/>
<path d="M150.508 41.9069V37.6761L152.837 37.6975C153.243 37.6975 153.649 37.6334 154.012 37.5052C154.397 37.377 154.739 37.1847 155.06 36.9496C155.38 36.7146 155.658 36.4368 155.914 36.1163C156.149 35.7958 156.363 35.4326 156.512 35.0693C156.042 35.2616 155.572 35.4539 155.102 35.6462C154.632 35.8385 154.141 35.9454 153.671 35.9454C152.666 35.9454 151.705 35.7744 150.807 35.4112C149.91 35.0479 149.141 34.5351 148.457 33.8727C147.795 33.2103 147.26 32.3984 146.876 31.4582C146.491 30.518 146.299 29.4497 146.299 28.2744V19.1719H150.487V28.2744C150.487 28.8514 150.572 29.3642 150.743 29.8129C150.914 30.2403 151.149 30.6035 151.427 30.9026C151.705 31.2018 152.047 31.4155 152.431 31.565C152.816 31.7146 153.222 31.7787 153.671 31.7787C154.098 31.7787 154.504 31.6719 154.889 31.4796C155.273 31.2873 155.615 31.0095 155.893 30.689C156.171 30.3685 156.406 29.9838 156.577 29.5779C156.748 29.1719 156.833 28.7445 156.833 28.2958V19.1932H161.064V33.5736C161.064 34.7274 160.829 35.8172 160.38 36.8214C159.931 37.8257 159.333 38.7232 158.585 39.471C157.816 40.2189 156.94 40.8385 155.914 41.2659C154.91 41.7146 153.82 41.9283 152.666 41.9283L150.508 41.9069Z" fill="url(#paint6_linear_3848_11125)"/>
<path d="M117.666 27.2482C117.666 28.5303 117.452 29.7268 117.003 30.7738C116.555 31.8422 115.956 32.761 115.209 33.5089C114.461 34.2781 113.563 34.855 112.538 35.2824C111.512 35.7097 110.422 35.9021 109.247 35.9021C108.093 35.9021 107.003 35.6884 105.978 35.261C104.952 34.8337 104.076 34.2354 103.307 33.4661C102.538 32.6969 101.939 31.7781 101.512 30.7311C101.063 29.6627 100.85 28.5089 100.85 27.2268V12.6328H105.059V20.3251C105.294 20.0473 105.55 19.7909 105.871 19.5559C106.191 19.3208 106.533 19.1499 106.918 19.0003C107.281 18.8508 107.687 18.7439 108.072 18.6798C108.478 18.5943 108.862 18.573 109.247 18.573C110.422 18.573 111.512 18.7867 112.538 19.2354C113.563 19.6627 114.439 20.2824 115.209 21.0516C115.956 21.8209 116.576 22.7396 117.003 23.808C117.452 24.8337 117.666 25.9875 117.666 27.2482ZM113.456 27.2482C113.456 26.6072 113.35 26.0302 113.136 25.4747C112.922 24.9191 112.623 24.4491 112.238 24.0431C111.854 23.6371 111.427 23.3379 110.914 23.1029C110.401 22.8679 109.867 22.761 109.29 22.761C108.713 22.761 108.179 22.8892 107.666 23.1456C107.153 23.402 106.726 23.7226 106.341 24.1499C105.956 24.5559 105.657 25.0473 105.444 25.5815C105.23 26.1157 105.123 26.6713 105.123 27.2482C105.123 27.8892 105.23 28.4661 105.444 29.0217C105.657 29.5559 105.956 30.026 106.341 30.432C106.726 30.8379 107.153 31.1371 107.666 31.3721C108.179 31.6072 108.713 31.714 109.29 31.714C109.867 31.714 110.401 31.6072 110.914 31.3721C111.427 31.1371 111.854 30.8166 112.238 30.432C112.623 30.026 112.922 29.5559 113.136 29.0217C113.35 28.4875 113.456 27.8892 113.456 27.2482Z" fill="url(#paint7_linear_3848_11125)"/>
</g>
<defs>
<linearGradient id="paint0_linear_3848_11125" x1="24.875" y1="0" x2="24.875" y2="48" gradientUnits="userSpaceOnUse">
<stop stop-color="#354D65"/>
<stop offset="1" stop-color="#203153"/>
</linearGradient>
<linearGradient id="paint1_linear_3848_11125" x1="65.7109" y1="12.5898" x2="65.7109" y2="35.9232" gradientUnits="userSpaceOnUse">
<stop stop-color="#354D65"/>
<stop offset="1" stop-color="#112244"/>
</linearGradient>
<linearGradient id="paint2_linear_3848_11125" x1="79.4398" y1="11.9062" x2="79.4398" y2="35.6242" gradientUnits="userSpaceOnUse">
<stop stop-color="#354D65"/>
<stop offset="1" stop-color="#112244"/>
</linearGradient>
<linearGradient id="paint3_linear_3848_11125" x1="91.566" y1="19.1934" x2="91.566" y2="35.625" gradientUnits="userSpaceOnUse">
<stop stop-color="#354D65"/>
<stop offset="1" stop-color="#112244"/>
</linearGradient>
<linearGradient id="paint4_linear_3848_11125" x1="122.11" y1="12.6328" x2="122.11" y2="35.6243" gradientUnits="userSpaceOnUse">
<stop stop-color="#354D65"/>
<stop offset="1" stop-color="#112244"/>
</linearGradient>
<linearGradient id="paint5_linear_3848_11125" x1="134.941" y1="18.5293" x2="134.941" y2="35.9225" gradientUnits="userSpaceOnUse">
<stop stop-color="#354D65"/>
<stop offset="1" stop-color="#112244"/>
</linearGradient>
<linearGradient id="paint6_linear_3848_11125" x1="153.681" y1="19.1719" x2="153.681" y2="41.9283" gradientUnits="userSpaceOnUse">
<stop stop-color="#354D65"/>
<stop offset="1" stop-color="#112244"/>
</linearGradient>
<linearGradient id="paint7_linear_3848_11125" x1="109.258" y1="12.6328" x2="109.258" y2="35.9021" gradientUnits="userSpaceOnUse">
<stop stop-color="#354D65"/>
<stop offset="1" stop-color="#112244"/>
</linearGradient>
<clipPath id="clip0_3848_11125">
<rect width="109.231" height="40" fill="white" transform="translate(56.875 4)"/>
</clipPath>
</defs>
</svg>
