<svg width="28" height="28" viewBox="0 0 28 28" fill="none" xmlns="http://www.w3.org/2000/svg">
<g clip-path="url(#clip0_5370_14744)">
<path d="M14 27.9997C21.732 27.9997 28 21.7318 28 13.9999C28 6.26795 21.732 0 14 0C6.26801 0 0 6.26795 0 13.9999C0 21.7318 6.26801 27.9997 14 27.9997Z" fill="#34495E"/>
<path d="M19.8492 13.6813C19.8492 14.4497 19.7232 15.1617 19.4522 15.7867C19.1811 16.4238 18.8219 16.9735 18.368 17.4233C17.9141 17.8857 17.3785 18.2292 16.7544 18.4853C16.1367 18.7415 15.4809 18.8539 14.7689 18.8539C14.0569 18.8539 13.4137 18.729 12.796 18.4728C12.1783 18.2167 11.6489 17.8607 11.1824 17.3984C10.7159 16.9361 10.3567 16.3863 10.0982 15.7617C9.82717 15.1245 9.70117 14.4311 9.70117 13.6688V4.94141H12.2413V9.5393C12.3799 9.37058 12.5376 9.22073 12.733 9.07698C12.9285 8.93324 13.1301 8.83334 13.3633 8.74593C13.5839 8.65852 13.8298 8.58969 14.0566 8.55223C14.3024 8.50228 14.5357 8.4898 14.7625 8.4898C15.4683 8.4898 16.1303 8.61467 16.7479 8.88329C17.3656 9.13942 17.8951 9.50794 18.3616 9.97026C18.8155 10.4326 19.1873 10.9823 19.4457 11.6194C19.7168 12.2316 19.8428 12.9251 19.8428 13.6749L19.8492 13.6813ZM17.3091 13.6813C17.3091 13.3003 17.2461 12.9503 17.1136 12.6193C16.9876 12.2882 16.8048 12.0071 16.5715 11.7635C16.3383 11.5198 16.0799 11.345 15.771 11.2012C15.4622 11.0639 15.1407 10.9951 14.7941 10.9951C14.4475 10.9951 14.126 11.07 13.8172 11.2262C13.5083 11.3825 13.2499 11.5698 13.0167 11.8259C12.7834 12.0695 12.607 12.3631 12.4746 12.6817C12.3486 13.0003 12.2791 13.3313 12.2791 13.6813C12.2791 14.0312 12.3421 14.4122 12.4746 14.7433C12.6006 15.0618 12.7834 15.3429 13.0167 15.5866C13.2499 15.8302 13.5083 16.005 13.8172 16.1488C14.126 16.2861 14.4475 16.355 14.7941 16.355C15.1407 16.355 15.4622 16.2925 15.771 16.1488C16.0799 16.0114 16.3383 15.8177 16.5715 15.5866C16.8048 15.3429 16.9812 15.0618 17.1136 14.7433C17.2396 14.4247 17.3091 14.0686 17.3091 13.6813Z" fill="#F2F2F2"/>
<path d="M19.8118 19.9033H9.75781V22.4835H19.8118V19.9033Z" fill="#F62D2D"/>
</g>
<defs>
<clipPath id="clip0_5370_14744">
<rect width="28" height="28" fill="white"/>
</clipPath>
</defs>
</svg>
