<svg width="126" height="45" viewBox="0 0 126 45" fill="none" xmlns="http://www.w3.org/2000/svg">
<g clip-path="url(#clip0_3430_22875)">
<path d="M19.5511 35.5775H18.411L16.5675 33.0294C16.1066 33.4381 15.6458 33.7987 15.1364 34.1593C14.627 34.5198 14.0933 34.8083 13.5354 35.0727C12.9775 35.3371 12.3954 35.5294 11.8132 35.6977C11.231 35.8419 10.6246 35.9141 10.0182 35.9141C8.70836 35.9141 7.47127 35.6737 6.30695 35.1689C5.14263 34.6881 4.14811 33.991 3.27487 33.1256C2.40163 32.2602 1.72244 31.2266 1.23731 30.0246C0.72792 28.8227 0.485352 27.5246 0.485352 26.1304C0.485352 24.7362 0.72792 23.4381 1.23731 22.2362C1.7467 21.0343 2.42588 20.0006 3.27487 19.1352C4.14811 18.2698 5.14263 17.5727 6.30695 17.0679C7.47127 16.5631 8.70836 16.3227 10.0182 16.3227C10.4306 16.3227 10.8672 16.3468 11.3281 16.4189C11.7647 16.491 12.2013 16.6112 12.6379 16.7554C13.0503 16.8996 13.4627 17.116 13.8265 17.3804C14.1904 17.6448 14.5057 17.9333 14.7725 18.3179V9.66406H19.5753V35.5775H19.5511ZM14.7483 26.1545C14.7483 25.5054 14.627 24.8804 14.3844 24.2794C14.1418 23.6785 13.8023 23.1496 13.3656 22.6689C12.929 22.2121 12.4439 21.8275 11.8617 21.5391C11.2796 21.2506 10.6731 21.1064 10.0182 21.1064C9.36329 21.1064 8.75687 21.2266 8.17471 21.4429C7.59255 21.6833 7.10742 21.9958 6.6708 22.4285C6.23418 22.8612 5.91884 23.39 5.67628 24.015C5.43371 24.64 5.31243 25.3371 5.31243 26.1304C5.31243 26.8035 5.43371 27.4525 5.67628 28.0775C5.91884 28.6785 6.25843 29.2314 6.6708 29.6881C7.08316 30.1448 7.59255 30.5054 8.17471 30.7698C8.75687 31.0343 9.36329 31.1785 10.0182 31.1785C10.6731 31.1785 11.2796 31.0343 11.8617 30.7458C12.4439 30.4573 12.929 30.0968 13.3656 29.616C13.8023 29.1593 14.1418 28.6064 14.3844 28.0054C14.627 27.4285 14.7483 26.8035 14.7483 26.1545Z" fill="#34495E"/>
<path d="M28.7927 12.0436C28.7927 12.4763 28.72 12.8849 28.5502 13.2695C28.3804 13.6541 28.1621 13.9907 27.871 14.2551C27.5799 14.5436 27.2403 14.7599 26.8522 14.9282C26.4641 15.0965 26.0517 15.1686 25.6151 15.1686C25.1785 15.1686 24.7661 15.0965 24.378 14.9282C23.9899 14.7599 23.6503 14.5436 23.3593 14.2551C23.0682 13.9666 22.8499 13.6301 22.6801 13.2695C22.5103 12.8849 22.4375 12.4763 22.4375 12.0436C22.4375 11.6109 22.5103 11.2022 22.6801 10.8176C22.8499 10.433 23.0682 10.0965 23.3593 9.80799C23.6503 9.51953 23.9899 9.30319 24.378 9.13492C24.7661 8.96665 25.1785 8.89453 25.6151 8.89453C26.0517 8.89453 26.4641 8.96665 26.8522 9.13492C27.2403 9.30319 27.5799 9.51953 27.871 9.80799C28.1621 10.0965 28.3804 10.433 28.5502 10.8176C28.72 11.2022 28.7927 11.6109 28.7927 12.0436ZM27.968 35.5772H23.1652V17.0676H27.968V35.5772Z" fill="#34495E"/>
<path d="M41.8668 35.5754H30.9756V30.8639H41.8668C42.1822 30.8639 42.4732 30.7437 42.7158 30.5273C42.9584 30.287 43.0554 30.0225 43.0554 29.686C43.0554 29.3495 42.9341 29.1331 42.7158 29.037C42.4732 28.9408 42.2064 28.8927 41.8668 28.8927H36.9185C36.0937 28.8927 35.3175 28.7485 34.5898 28.436C33.8621 28.1235 33.2315 27.6908 32.6978 27.162C32.1642 26.6331 31.7518 26.0081 31.4365 25.287C31.1211 24.5658 30.9756 23.7966 30.9756 22.9793C30.9756 22.162 31.1211 21.3927 31.4365 20.6716C31.7518 19.9504 32.1642 19.3254 32.6978 18.7966C33.2315 18.2677 33.8621 17.8591 34.5898 17.5466C35.3175 17.2341 36.0937 17.0898 36.9185 17.0898H46.5726V21.8014H36.9185C36.6031 21.8014 36.312 21.9216 36.0695 22.1379C35.8269 22.3783 35.7299 22.6427 35.7299 22.9793C35.7299 23.3158 35.8512 23.6043 36.0695 23.8446C36.312 24.085 36.5789 24.2052 36.9185 24.2052H41.8668C42.6915 24.2052 43.4435 24.3495 44.1712 24.6139C44.8989 24.8783 45.5296 25.2629 46.0632 25.7437C46.5969 26.2245 47.0335 26.8014 47.3246 27.4985C47.6399 28.1716 47.7854 28.9168 47.7854 29.7341C47.7854 30.5514 47.6399 31.3206 47.3246 32.0177C47.0092 32.7148 46.5969 33.3398 46.0632 33.8927C45.5296 34.4216 44.8989 34.8543 44.1712 35.1427C43.4435 35.4312 42.6673 35.5754 41.8668 35.5754Z" fill="#34495E"/>
<path d="M76.4571 35.5763H71.6543V9.71094H76.4571V35.5763Z" fill="#34495E"/>
<path d="M98.1671 35.5784H97.0271L95.1836 33.0303C94.7227 33.439 94.2618 33.7996 93.7524 34.1602C93.243 34.5207 92.7094 34.8092 92.1515 35.0736C91.5936 35.338 91.0114 35.5303 90.4293 35.6986C89.8471 35.8428 89.2407 35.915 88.6343 35.915C87.3244 35.915 86.0873 35.6986 84.923 35.2659C83.7587 34.8332 82.7642 34.1842 81.8909 33.3669C81.0177 32.5255 80.3385 31.5159 79.8291 30.29C79.3197 29.088 79.0771 27.6938 79.0771 26.1554C79.0771 24.713 79.3197 23.3909 79.8291 22.189C80.3385 20.9871 81.0177 19.9534 81.8909 19.088C82.7642 18.2227 83.7587 17.5496 84.923 17.0688C86.0873 16.588 87.3244 16.3477 88.6343 16.3477C89.2407 16.3477 89.8471 16.4198 90.4293 16.564C91.0114 16.7082 91.5936 16.9246 92.1515 17.189C92.7094 17.4534 93.243 17.7659 93.7524 18.1265C94.2618 18.4871 94.7227 18.8717 95.1836 19.2803L97.0271 17.0928H98.1671V35.5784ZM93.3643 26.1554C93.3643 25.5063 93.243 24.8813 93.0005 24.2803C92.7579 23.6794 92.4183 23.1505 91.9817 22.6698C91.5451 22.213 91.0599 21.8284 90.4778 21.54C89.8956 21.2515 89.2892 21.1073 88.6343 21.1073C87.9793 21.1073 87.3729 21.2275 86.7908 21.4438C86.2086 21.6602 85.7235 21.9967 85.2868 22.4053C84.8502 22.838 84.5349 23.3669 84.2923 23.9919C84.0498 24.6169 83.9285 25.338 83.9285 26.1554C83.9285 26.9727 84.0498 27.6698 84.2923 28.3188C84.5349 28.9438 84.8745 29.4727 85.2868 29.9053C85.6992 30.338 86.2086 30.6505 86.7908 30.8669C87.3729 31.0832 87.9793 31.2034 88.6343 31.2034C89.2892 31.2034 89.8956 31.0592 90.4778 30.7707C91.0599 30.4823 91.5451 30.1217 91.9817 29.6409C92.4183 29.1842 92.7579 28.6313 93.0005 28.0303C93.243 27.4294 93.3643 26.8044 93.3643 26.1554Z" fill="#34495E"/>
<path d="M106.293 42.6433V37.8837L108.937 37.9077C109.398 37.9077 109.859 37.8356 110.271 37.6914C110.708 37.5472 111.096 37.3308 111.46 37.0664C111.824 36.802 112.139 36.4895 112.43 36.1289C112.697 35.7683 112.94 35.3597 113.109 34.951C112.576 35.1674 112.042 35.3837 111.508 35.6001C110.975 35.8164 110.417 35.9366 109.883 35.9366C108.743 35.9366 107.652 35.7443 106.633 35.3356C105.614 34.927 104.741 34.3501 103.965 33.6049C103.213 32.8597 102.606 31.9462 102.17 30.8885C101.733 29.8308 101.515 28.6289 101.515 27.3068V17.0664H106.269V27.3068C106.269 27.9558 106.366 28.5328 106.56 29.0376C106.754 29.5183 107.021 29.927 107.336 30.2635C107.652 30.6001 108.04 30.8404 108.476 31.0087C108.913 31.177 109.374 31.2491 109.883 31.2491C110.368 31.2491 110.829 31.1289 111.266 30.9126C111.702 30.6962 112.091 30.3837 112.406 30.0231C112.721 29.6626 112.988 29.2299 113.182 28.7731C113.376 28.3164 113.473 27.8356 113.473 27.3308V17.0904H118.276V33.2683C118.276 34.5664 118.009 35.7924 117.5 36.9222C116.99 38.052 116.311 39.0616 115.462 39.9029C114.589 40.7443 113.594 41.4414 112.43 41.9222C111.29 42.427 110.053 42.6674 108.743 42.6674L106.293 42.6433Z" fill="#34495E"/>
<path d="M69.0109 26.1533C69.0109 27.5956 68.7683 28.9417 68.2589 30.1196C67.7495 31.3215 67.0704 32.3552 66.2214 33.1965C65.3724 34.0619 64.3536 34.7109 63.1893 35.1917C62.025 35.6725 60.7879 35.8888 59.4538 35.8888C58.1439 35.8888 56.9068 35.6484 55.7425 35.1677C54.5782 34.6869 53.5837 34.0138 52.7104 33.1484C51.8372 32.2831 51.158 31.2494 50.6729 30.0715C50.1635 28.8696 49.9209 27.5715 49.9209 26.1292V9.71094H54.6995V18.3648C54.9663 18.0523 55.2574 17.7638 55.6212 17.4994C55.9851 17.235 56.3732 17.0427 56.8098 16.8744C57.2221 16.7061 57.683 16.5859 58.1196 16.5138C58.5805 16.4177 59.0171 16.3936 59.4538 16.3936C60.7879 16.3936 62.025 16.634 63.1893 17.1388C64.3536 17.6196 65.3481 18.3167 66.2214 19.1821C67.0704 20.0475 67.7738 21.0811 68.2589 22.2831C68.7683 23.4369 69.0109 24.735 69.0109 26.1533ZM64.2323 26.1533C64.2323 25.4321 64.111 24.783 63.8685 24.158C63.6259 23.533 63.2863 23.0042 62.8497 22.5475C62.4131 22.0908 61.9279 21.7542 61.3458 21.4898C60.7636 21.2254 60.1572 21.1052 59.5023 21.1052C58.8473 21.1052 58.2409 21.2494 57.6588 21.5379C57.0766 21.8263 56.5915 22.1869 56.1549 22.6677C55.7182 23.1244 55.3786 23.6773 55.1361 24.2782C54.8935 24.8792 54.7722 25.5042 54.7722 26.1533C54.7722 26.8744 54.8935 27.5234 55.1361 28.1484C55.3786 28.7494 55.7182 29.2782 56.1549 29.735C56.5915 30.1917 57.0766 30.5282 57.6588 30.7927C58.2409 31.0571 58.8473 31.1773 59.5023 31.1773C60.1572 31.1773 60.7636 31.0571 61.3458 30.7927C61.9279 30.5282 62.4131 30.1677 62.8497 29.735C63.2863 29.2782 63.6259 28.7494 63.8685 28.1484C64.111 27.5475 64.2323 26.8744 64.2323 26.1533Z" fill="#34495E"/>
<path d="M68.9378 37.8594H50.0176V42.7151H68.9378V37.8594Z" fill="#F62D2D"/>
</g>
<defs>
<clipPath id="clip0_3430_22875">
<rect width="124" height="45" fill="white"/>
</clipPath>
</defs>
</svg>
