<svg width="28" height="28" viewBox="0 0 28 28" fill="none" xmlns="http://www.w3.org/2000/svg">
<path d="M13.125 17.5C13.9303 17.5 14.5828 18.1527 14.583 18.958C14.583 19.7634 13.9304 20.417 13.125 20.417C12.3196 20.417 11.667 19.7634 11.667 18.958C11.6672 18.1527 12.3197 17.5 13.125 17.5ZM13.125 11.667C13.9304 11.667 14.583 12.3196 14.583 13.125C14.583 13.9304 13.9304 14.583 13.125 14.583C12.3196 14.583 11.667 13.9304 11.667 13.125C11.667 12.3196 12.3196 11.667 13.125 11.667ZM13.125 5.83301C13.9304 5.83301 14.583 6.48658 14.583 7.29199C14.5828 8.09726 13.9303 8.75 13.125 8.75C12.3197 8.75 11.6672 8.09726 11.667 7.29199C11.667 6.48658 12.3196 5.83301 13.125 5.83301Z" fill="#28303F"/>
</svg>
