<svg width="194" height="102" viewBox="0 0 194 102" fill="none" xmlns="http://www.w3.org/2000/svg">
<path d="M165.382 14.6777C165.382 15.0934 157.567 27.6475 145.845 39.5365C134.039 51.3424 118.325 62.5663 99.3694 58.9912C79.8315 55.25 63.2867 56.9128 51.6471 64.1459C39.9244 71.3791 33.0238 84.0995 30.5296 101.559C30.6127 100.811 30.779 100.062 30.8622 99.3972C28.1185 90.0856 25.2087 80.6907 22.0493 71.2959C21.7168 71.2959 21.3011 71.2959 20.9685 71.2128C14.1511 70.2151 7.25046 69.3006 0.349854 68.386C1.34753 63.3976 4.00801 48.4325 14.9825 37.7906C25.7075 27.0656 44.8297 20.8301 72.7646 31.2226C96.1269 39.8691 114.667 37.9569 130.297 32.9685C145.845 27.9801 158.399 19.9987 165.382 14.6777Z" fill="url(#paint0_linear_446_1060)"/>
<path d="M165.382 14.6777C159.812 22.2435 149.669 34.3819 138.029 44.1924C126.224 54.0029 112.838 61.4854 97.7898 58.6587C85.3188 56.2476 74.2613 56.0814 65.0327 58.243C45.6612 62.5663 34.6036 76.7832 30.9454 99.3972C30.8623 100.145 30.696 100.811 30.6129 101.559C27.703 91.4989 24.4605 81.439 21.0518 71.1297C20.8855 70.5477 20.6361 69.9657 20.4698 69.3006C13.8186 68.8849 7.08429 68.5523 0.433105 68.3029C1.51392 60.9866 7.66627 33.0516 34.6867 27.0656C44.8298 24.7376 57.7164 25.4859 72.931 31.1394C96.2933 39.7859 114.833 37.8737 130.464 32.8853C145.845 27.9801 158.399 19.9987 165.382 14.6777Z" fill="url(#paint1_linear_446_1060)"/>
<path opacity="0.1" d="M65.0327 58.2438C45.6612 62.5671 34.6036 76.784 30.9454 99.3981C30.8623 100.146 30.696 100.811 30.6129 101.56C27.703 91.4998 24.4605 81.4399 21.0518 71.1305C20.8855 70.5485 20.6361 69.9666 20.4698 69.3014C13.8186 68.8857 7.08429 68.5532 0.433105 68.3038C1.51392 60.9875 7.66627 33.0525 34.6867 27.0664C42.0861 31.2234 50.4001 35.0478 58.7972 36.7938C72.6816 39.8699 69.2729 50.3456 65.0327 58.2438Z" fill="white"/>
<path d="M133.456 42.779C133.456 42.6958 133.456 42.6959 133.456 42.6127C134.038 40.3679 135.369 37.9569 137.946 36.1278C137.946 36.1278 138.029 36.1278 138.029 36.0447C138.029 36.0447 138.112 36.0447 138.112 35.9615C140.108 34.5482 142.768 33.3842 146.177 32.7191C150.168 31.9708 153.327 30.4743 155.738 28.7284C155.738 28.7284 155.738 28.7284 155.821 28.7284C155.904 28.6452 156.07 28.5621 156.154 28.4789C157.65 27.3981 158.98 26.151 160.061 24.8208C162.306 22.2435 163.886 19.4167 164.883 17.2551C165.05 16.2574 165.133 15.426 165.216 14.6777C164.301 16.9225 162.472 20.6638 159.562 24.0725C158.482 25.3196 157.151 26.5667 155.655 27.7307C155.572 27.8138 155.405 27.897 155.322 27.9801C155.322 27.9801 155.322 27.9801 155.239 27.9801C152.745 29.726 149.669 31.1394 145.678 31.9708C142.269 32.6359 139.609 33.7999 137.613 35.2133C137.613 35.2133 137.53 35.2133 137.53 35.2964C137.53 35.2964 137.447 35.2964 137.447 35.3795C134.953 37.2918 133.54 39.6197 132.958 41.8645C132.958 41.9476 132.958 41.9476 132.958 42.0307C132.542 43.9429 132.542 45.772 132.791 47.3517C133.124 49.1807 133.623 50.5941 133.872 51.2592C133.955 51.2592 133.955 51.1761 134.038 51.1761C133.789 50.4278 133.456 49.347 133.207 48.0999C133.041 46.5203 133.041 44.6912 133.456 42.779Z" fill="white"/>
<path d="M95.711 16.0065C95.7941 15.9234 95.8772 15.9234 95.8772 15.8402C99.0366 13.5954 103.194 12.0989 108.348 12.4315C108.431 12.4315 108.431 12.4315 108.514 12.4315C108.598 12.4315 108.598 12.4315 108.681 12.4315C112.671 12.764 117.244 14.1774 122.233 16.921C128.135 20.2466 133.456 21.7431 138.362 22.1588H138.445C138.694 22.1588 138.944 22.1588 139.193 22.242C142.269 22.4083 145.179 22.242 147.923 21.8263C153.493 20.9118 158.482 19.1658 162.057 17.503C163.22 16.4222 164.301 15.4245 165.216 14.5931C161.724 16.5053 155.488 19.1658 148.172 20.3298C145.429 20.7455 142.519 20.9117 139.442 20.7455C139.193 20.7455 138.944 20.7455 138.694 20.6623H138.611C133.706 20.2466 128.302 18.7501 122.482 15.4245C117.494 12.5978 112.921 11.2675 108.93 10.935C108.847 10.935 108.847 10.935 108.764 10.935C108.681 10.935 108.681 10.935 108.598 10.935C103.443 10.6024 99.2028 12.0158 96.1267 14.3437C96.0435 14.4268 95.9604 14.4268 95.9604 14.51C93.383 16.4222 91.554 18.7501 90.1406 20.9949C88.6441 23.5722 87.8127 25.9001 87.397 27.0641C87.4801 27.0641 87.5633 27.1472 87.7295 27.1472C88.2284 25.9001 88.8935 24.2373 89.9743 22.4914C91.3045 20.3298 93.2168 17.9187 95.711 16.0065Z" fill="white"/>
<path d="M165.299 13.0137C165.632 14.427 165.881 15.9236 166.131 17.337C167.461 16.173 168.791 15.009 170.205 13.9282C168.625 13.5957 166.962 13.2631 165.299 13.0137Z" fill="url(#paint2_linear_446_1060)"/>
<path d="M183.258 23.9049C178.602 19.166 172.616 14.427 165.216 10.3531C173.53 6.5287 183.008 4.03452 193.234 3.20312C193.401 3.20312 193.567 3.20312 193.65 3.20312C189.41 9.68803 185.918 16.6718 183.258 23.9049Z" fill="url(#paint3_linear_446_1060)"/>
<path d="M165.216 10.3535C164.052 13.3465 163.138 16.4227 162.389 19.4989C164.717 17.2541 167.378 15.1756 170.205 13.3466C168.625 12.3489 166.962 11.2681 165.216 10.3535Z" fill="url(#paint4_linear_446_1060)"/>
<path d="M162.389 19.4987C160.727 15.0922 158.898 10.6858 156.985 6.27943C168.708 3.03698 181.096 1.95617 193.65 3.12013C183.258 3.95152 173.613 6.4457 165.133 10.3533C164.052 13.3463 163.138 16.4225 162.389 19.4987Z" fill="url(#paint5_linear_446_1060)"/>
<path d="M141.106 2.87124C146.759 3.70263 152.08 4.8666 156.985 6.27997C168.708 3.03752 181.096 1.95671 193.65 3.12067C177.105 -0.870039 159.147 -1.11947 141.106 2.87124Z" fill="url(#paint6_linear_446_1060)"/>
<path d="M167.378 11.6016C166.879 13.5138 166.463 15.426 166.131 17.3382C167.627 16.0911 169.124 14.844 170.787 13.6801C169.706 13.0149 168.542 12.2667 167.378 11.6016Z" fill="url(#paint7_linear_446_1060)"/>
<defs>
<linearGradient id="paint0_linear_446_1060" x1="2.16799" y1="49.2209" x2="160.832" y2="63.9288" gradientUnits="userSpaceOnUse">
<stop stop-color="#3FA9F5"/>
<stop offset="0.1821" stop-color="#37AAEE"/>
<stop offset="0.3827" stop-color="#29ABE2"/>
<stop offset="0.3861" stop-color="#2AABE2"/>
<stop offset="0.5933" stop-color="#61BFEF"/>
<stop offset="0.772" stop-color="#89CEF7"/>
<stop offset="0.9134" stop-color="#A1D7FD"/>
<stop offset="1" stop-color="#AADAFF"/>
</linearGradient>
<linearGradient id="paint1_linear_446_1060" x1="2.16777" y1="49.2209" x2="160.832" y2="63.9288" gradientUnits="userSpaceOnUse">
<stop stop-color="#AADAFF"/>
<stop offset="0.0865543" stop-color="#A1D7FD"/>
<stop offset="0.228" stop-color="#89CEF7"/>
<stop offset="0.4067" stop-color="#61BFEF"/>
<stop offset="0.6139" stop-color="#2AABE2"/>
<stop offset="0.6173" stop-color="#29ABE2"/>
<stop offset="0.8179" stop-color="#37AAEE"/>
<stop offset="1" stop-color="#3FA9F5"/>
</linearGradient>
<linearGradient id="paint2_linear_446_1060" x1="162.959" y1="17.0551" x2="167.129" y2="14.1629" gradientUnits="userSpaceOnUse">
<stop stop-color="#DA2128"/>
<stop offset="0.5225" stop-color="#ED6C30"/>
<stop offset="1" stop-color="#F05123"/>
</linearGradient>
<linearGradient id="paint3_linear_446_1060" x1="165.082" y1="12.4397" x2="196.363" y2="13.8833" gradientUnits="userSpaceOnUse">
<stop stop-color="#F7931E"/>
<stop offset="1" stop-color="#FBC43B"/>
</linearGradient>
<linearGradient id="paint4_linear_446_1060" x1="161.236" y1="15.587" x2="171.73" y2="12.8668" gradientUnits="userSpaceOnUse">
<stop stop-color="#F7931E"/>
<stop offset="1" stop-color="#FBC43B"/>
</linearGradient>
<linearGradient id="paint5_linear_446_1060" x1="177.425" y1="14.2908" x2="175.043" y2="3.36298" gradientUnits="userSpaceOnUse">
<stop stop-color="#DA2128"/>
<stop offset="1" stop-color="#ED6C30"/>
</linearGradient>
<linearGradient id="paint6_linear_446_1060" x1="141.099" y1="3.42619" x2="193.674" y2="2.68481" gradientUnits="userSpaceOnUse">
<stop stop-color="#F7931E"/>
<stop offset="1" stop-color="#FBC43B"/>
</linearGradient>
<linearGradient id="paint7_linear_446_1060" x1="167.283" y1="14.1663" x2="173.541" y2="10.7908" gradientUnits="userSpaceOnUse">
<stop stop-color="#F7931E"/>
<stop offset="1" stop-color="#FBC43B"/>
</linearGradient>
</defs>
</svg>
