<svg width="150" height="150" viewBox="0 0 150 150" fill="none" xmlns="http://www.w3.org/2000/svg">
<rect width="150" height="150" rx="12" fill="url(#paint0_linear_4606_11210)"/>
<rect x="12" y="12" width="126.302" height="97.8496" rx="6" fill="white"/>
<path d="M19.8164 25.3843C19.4777 25.3843 19.1718 25.325 18.8987 25.2065C18.6278 25.0858 18.4045 24.9144 18.2288 24.6921C18.0552 24.4677 17.9451 24.201 17.8985 23.892L18.8003 23.7586C18.8638 24.0211 18.995 24.2233 19.194 24.3651C19.393 24.5069 19.6195 24.5778 19.8735 24.5778C20.0153 24.5778 20.1529 24.5556 20.2863 24.5111C20.4197 24.4667 20.5287 24.4011 20.6133 24.3143C20.7001 24.2275 20.7435 24.1206 20.7435 23.9936C20.7435 23.947 20.7361 23.9026 20.7213 23.8602C20.7086 23.8158 20.6864 23.7745 20.6546 23.7364C20.6229 23.6983 20.5774 23.6623 20.5181 23.6284C20.4609 23.5946 20.3879 23.5639 20.299 23.5364L19.1115 23.1871C19.0226 23.1617 18.9188 23.1257 18.8003 23.0791C18.6839 23.0326 18.5706 22.9659 18.4606 22.8791C18.3505 22.7923 18.2584 22.678 18.1843 22.5362C18.1123 22.3922 18.0764 22.2112 18.0764 21.9932C18.0764 21.6863 18.1536 21.4312 18.3081 21.228C18.4627 21.0248 18.6691 20.8734 18.9273 20.7739C19.1856 20.6744 19.4713 20.6258 19.7846 20.6279C20.1 20.6321 20.3816 20.6861 20.6292 20.7898C20.8769 20.8935 21.0843 21.0449 21.2516 21.2439C21.4188 21.4407 21.5394 21.682 21.6135 21.9678L20.68 22.1266C20.6462 21.9784 20.5837 21.8535 20.4927 21.7519C20.4017 21.6503 20.2926 21.573 20.1656 21.5201C20.0407 21.4672 19.9095 21.4386 19.7719 21.4344C19.6364 21.4301 19.5084 21.4492 19.3877 21.4915C19.2692 21.5317 19.1718 21.591 19.0956 21.6693C19.0215 21.7477 18.9845 21.8408 18.9845 21.9488C18.9845 22.0482 19.0152 22.1297 19.0765 22.1932C19.1379 22.2546 19.2152 22.3044 19.3083 22.3425C19.4015 22.3806 19.4967 22.4123 19.5941 22.4377L20.3879 22.6536C20.5064 22.6854 20.6377 22.7277 20.7816 22.7807C20.9256 22.8315 21.0632 22.9034 21.1944 22.9966C21.3278 23.0876 21.4368 23.2082 21.5215 23.3585C21.6082 23.5088 21.6516 23.6993 21.6516 23.9301C21.6516 24.1756 21.5998 24.3905 21.496 24.5746C21.3944 24.7567 21.2569 24.908 21.0833 25.0287C20.9097 25.1472 20.7128 25.2361 20.4927 25.2954C20.2747 25.3547 20.0492 25.3843 19.8164 25.3843ZM24.6865 25.2891V23.6697C24.6865 23.5914 24.6822 23.4919 24.6738 23.3712C24.6653 23.2485 24.6389 23.1257 24.5944 23.0029C24.5499 22.8801 24.4769 22.7775 24.3753 22.6949C24.2758 22.6124 24.134 22.5711 23.9498 22.5711C23.8757 22.5711 23.7964 22.5827 23.7117 22.606C23.627 22.6293 23.5476 22.6748 23.4736 22.7426C23.3995 22.8082 23.3381 22.9055 23.2894 23.0347C23.2428 23.1638 23.2195 23.3353 23.2195 23.5491L22.7242 23.3141C22.7242 23.0431 22.7792 22.7891 22.8893 22.552C22.9994 22.315 23.1645 22.1234 23.3846 21.9773C23.6069 21.8313 23.8863 21.7582 24.2229 21.7582C24.4917 21.7582 24.7108 21.8038 24.8802 21.8948C25.0495 21.9858 25.1808 22.1012 25.2739 22.2409C25.3691 22.3806 25.4369 22.5266 25.4771 22.679C25.5173 22.8293 25.5417 22.9669 25.5501 23.0918C25.5586 23.2167 25.5628 23.3077 25.5628 23.3649V25.2891H24.6865ZM22.3432 25.2891V20.7168H23.1116V23.0664H23.2195V25.2891H22.3432ZM27.3393 25.3843C27.0938 25.3843 26.8853 25.3377 26.7138 25.2446C26.5445 25.1494 26.4153 25.0234 26.3264 24.8668C26.2396 24.708 26.1962 24.5334 26.1962 24.3429C26.1962 24.1841 26.2206 24.0391 26.2693 23.9079C26.318 23.7766 26.3963 23.6612 26.5042 23.5618C26.6143 23.4601 26.7614 23.3755 26.9456 23.3077C27.0726 23.2612 27.2239 23.2199 27.3996 23.1839C27.5753 23.1479 27.7743 23.1141 27.9966 23.0823C28.2188 23.0484 28.4633 23.0114 28.73 22.9712L28.4189 23.1426C28.4189 22.9394 28.3702 22.7902 28.2728 22.6949C28.1754 22.5997 28.0125 22.552 27.7838 22.552C27.6568 22.552 27.5245 22.5827 27.3869 22.6441C27.2493 22.7055 27.153 22.8145 27.098 22.9712L26.3169 22.7235C26.4037 22.4398 26.5667 22.2091 26.8059 22.0313C27.0451 21.8535 27.3711 21.7646 27.7838 21.7646C28.0865 21.7646 28.3554 21.8112 28.5903 21.9043C28.8253 21.9974 29.0031 22.1583 29.1238 22.3869C29.1915 22.5139 29.2317 22.6409 29.2444 22.768C29.2571 22.895 29.2635 23.0368 29.2635 23.1934V25.2891H28.5078V24.5842L28.6157 24.7302C28.4485 24.961 28.2675 25.1282 28.0728 25.2319C27.8802 25.3335 27.6357 25.3843 27.3393 25.3843ZM27.5235 24.7048C27.6822 24.7048 27.8156 24.6773 27.9235 24.6223C28.0336 24.5651 28.1204 24.5006 28.1839 24.4286C28.2495 24.3566 28.294 24.2963 28.3173 24.2476C28.3617 24.1545 28.3871 24.0465 28.3935 23.9237C28.4019 23.7988 28.4062 23.6951 28.4062 23.6126L28.6602 23.6761C28.4041 23.7184 28.1966 23.7544 28.0379 23.784C27.8791 23.8115 27.751 23.8369 27.6537 23.8602C27.5563 23.8835 27.4706 23.9089 27.3965 23.9364C27.3118 23.9703 27.243 24.0073 27.1901 24.0476C27.1393 24.0857 27.1012 24.128 27.0758 24.1746C27.0525 24.2211 27.0408 24.273 27.0408 24.3302C27.0408 24.4085 27.0599 24.4762 27.098 24.5334C27.1382 24.5884 27.1943 24.6307 27.2663 24.6604C27.3383 24.69 27.424 24.7048 27.5235 24.7048ZM30.0891 25.2891V21.8598H30.8511V22.6981L30.7686 22.5901C30.813 22.4716 30.8723 22.3636 30.9464 22.2663C31.0205 22.1689 31.1115 22.0885 31.2195 22.025C31.302 21.9742 31.392 21.935 31.4893 21.9075C31.5867 21.8778 31.6873 21.8598 31.791 21.8535C31.8947 21.845 31.9984 21.8471 32.1022 21.8598V22.6663C32.0069 22.6367 31.8958 22.6272 31.7688 22.6378C31.6439 22.6462 31.5306 22.6748 31.429 22.7235C31.3274 22.7701 31.2417 22.8325 31.1718 22.9108C31.102 22.987 31.0491 23.0781 31.0131 23.1839C30.9771 23.2876 30.9591 23.4051 30.9591 23.5364V25.2891H30.0891ZM34.2381 25.3843C33.8867 25.3843 33.5766 25.3092 33.3077 25.1589C33.041 25.0065 32.8315 24.798 32.6791 24.5334C32.5288 24.2666 32.4536 23.9618 32.4536 23.6189C32.4536 23.2442 32.5277 22.9182 32.6759 22.6409C32.8241 22.3636 33.0283 22.1488 33.2887 21.9964C33.5491 21.8419 33.8486 21.7646 34.1873 21.7646C34.5471 21.7646 34.853 21.8493 35.1049 22.0186C35.3568 22.188 35.5431 22.4261 35.6637 22.733C35.7844 23.04 35.8267 23.4009 35.7908 23.8158H34.9366V23.4982C34.9366 23.149 34.8805 22.8981 34.7683 22.7457C34.6583 22.5912 34.4773 22.5139 34.2254 22.5139C33.9311 22.5139 33.7142 22.6039 33.5745 22.7838C33.4369 22.9616 33.3681 23.2252 33.3681 23.5745C33.3681 23.8941 33.4369 24.1418 33.5745 24.3175C33.7142 24.491 33.9184 24.5778 34.1873 24.5778C34.3566 24.5778 34.5016 24.5408 34.6223 24.4667C34.7429 24.3926 34.835 24.2857 34.8985 24.146L35.7622 24.3937C35.633 24.7069 35.4288 24.9504 35.1494 25.124C34.8721 25.2975 34.5683 25.3843 34.2381 25.3843ZM33.1014 23.8158V23.1744H35.3748V23.8158H33.1014Z" fill="#262626"/>
<path d="M19.513 42.0749C19.2213 42.0749 18.9579 42.025 18.7227 41.9253C18.4894 41.8237 18.2965 41.6798 18.1441 41.4935C17.9936 41.3053 17.8957 41.0824 17.8506 40.8246L18.4658 40.7314C18.5279 40.9798 18.6578 41.1736 18.8553 41.3129C19.0529 41.4502 19.2834 41.5189 19.5468 41.5189C19.7105 41.5189 19.8611 41.4935 19.9984 41.4427C20.1358 41.39 20.2458 41.3157 20.3286 41.2197C20.4133 41.1219 20.4556 41.0052 20.4556 40.8697C20.4556 40.7964 20.4425 40.7314 20.4161 40.675C20.3917 40.6185 20.3569 40.5696 20.3117 40.5282C20.2684 40.485 20.2148 40.4483 20.1508 40.4182C20.0887 40.3862 20.0201 40.3589 19.9448 40.3363L18.9033 40.0287C18.8017 39.9986 18.6982 39.96 18.5929 39.9129C18.4875 39.864 18.3906 39.801 18.3022 39.7238C18.2156 39.6448 18.145 39.5479 18.0905 39.4331C18.0359 39.3165 18.0086 39.1754 18.0086 39.0098C18.0086 38.7595 18.0726 38.5478 18.2005 38.3747C18.3304 38.1998 18.5054 38.068 18.7255 37.9796C18.9457 37.8893 19.1921 37.8441 19.465 37.8441C19.7397 37.8479 19.9852 37.8968 20.2016 37.9909C20.4199 38.085 20.6005 38.2204 20.7435 38.3973C20.8884 38.5723 20.9881 38.7849 21.0427 39.0352L20.4105 39.1424C20.3823 38.99 20.322 38.8593 20.2298 38.7501C20.1377 38.6391 20.0248 38.5544 19.8912 38.4961C19.7576 38.4359 19.6127 38.4048 19.4565 38.403C19.306 38.3992 19.1677 38.4218 19.0416 38.4707C18.9174 38.5196 18.8177 38.5883 18.7424 38.6767C18.6691 38.7652 18.6324 38.8668 18.6324 38.9816C18.6324 39.0945 18.6653 39.1857 18.7312 39.2553C18.797 39.3249 18.8779 39.3805 18.9739 39.4219C19.0717 39.4614 19.1686 39.4943 19.2646 39.5206L20.0153 39.7323C20.1094 39.7587 20.2157 39.7944 20.3343 39.8396C20.4547 39.8828 20.5704 39.944 20.6814 40.023C20.7943 40.102 20.8875 40.2074 20.9609 40.3391C21.0342 40.469 21.0709 40.6327 21.0709 40.8302C21.0709 41.0353 21.0295 41.216 20.9467 41.3721C20.8639 41.5264 20.7501 41.6563 20.6052 41.7616C20.4622 41.8651 20.2966 41.9432 20.1085 41.9959C19.9203 42.0486 19.7218 42.0749 19.513 42.0749ZM23.8118 41.9902V40.4915C23.8118 40.373 23.8014 40.2516 23.7807 40.1275C23.7619 40.0014 23.7243 39.8847 23.6678 39.7775C23.6133 39.6702 23.5352 39.5837 23.4336 39.5178C23.3339 39.452 23.2031 39.419 23.0413 39.419C22.9359 39.419 22.8362 39.4369 22.7421 39.4727C22.648 39.5065 22.5652 39.562 22.4937 39.6392C22.4241 39.7163 22.3686 39.8179 22.3272 39.944C22.2877 40.0701 22.2679 40.2234 22.2679 40.404L21.901 40.2657C21.901 39.9892 21.9528 39.7455 22.0563 39.5347C22.1597 39.3221 22.3084 39.1565 22.5022 39.038C22.696 38.9195 22.9303 38.8602 23.205 38.8602C23.4157 38.8602 23.5926 38.8941 23.7356 38.9618C23.8786 39.0295 23.9943 39.1189 24.0827 39.2299C24.1731 39.3391 24.2417 39.4585 24.2888 39.5884C24.3358 39.7182 24.3678 39.8452 24.3847 39.9694C24.4017 40.0936 24.4101 40.2027 24.4101 40.2968V41.9902H23.8118ZM21.6696 41.9902V37.926H22.1974V40.119H22.2679V41.9902H21.6696ZM26.0061 42.0749C25.7803 42.0749 25.5912 42.0335 25.4388 41.9507C25.2864 41.866 25.1707 41.755 25.0917 41.6177C25.0145 41.4784 24.9759 41.326 24.9759 41.1604C24.9759 41.0062 25.0032 40.8707 25.0578 40.754C25.1124 40.6374 25.1933 40.5386 25.3005 40.4577C25.4078 40.3749 25.5395 40.3081 25.6956 40.2573C25.8311 40.2178 25.9845 40.183 26.1557 40.1529C26.3269 40.1227 26.5066 40.0945 26.6948 40.0682C26.8848 40.0418 27.073 40.0155 27.2593 39.9892L27.0448 40.1077C27.0485 39.8687 26.9977 39.6919 26.8923 39.5771C26.7889 39.4604 26.6101 39.4021 26.3561 39.4021C26.1962 39.4021 26.0494 39.4397 25.9158 39.515C25.7822 39.5884 25.6891 39.7107 25.6364 39.8819L25.086 39.7126C25.1613 39.451 25.3043 39.2431 25.515 39.0888C25.7276 38.9345 26.0099 38.8574 26.3617 38.8574C26.6346 38.8574 26.8716 38.9044 27.073 38.9985C27.2762 39.0907 27.4248 39.2375 27.5189 39.4388C27.5678 39.5385 27.5979 39.6439 27.6092 39.7549C27.6205 39.8659 27.6262 39.9854 27.6262 40.1133V41.9902H27.104V41.2931L27.2056 41.3834C27.0796 41.6167 26.9187 41.7908 26.723 41.9056C26.5292 42.0185 26.2902 42.0749 26.0061 42.0749ZM26.1105 41.5923C26.278 41.5923 26.4219 41.5631 26.5424 41.5048C26.6628 41.4446 26.7597 41.3684 26.8331 41.2762C26.9065 41.184 26.9544 41.088 26.977 40.9883C27.009 40.898 27.0269 40.7964 27.0306 40.6835C27.0363 40.5706 27.0391 40.4803 27.0391 40.4125L27.231 40.4831C27.0448 40.5113 26.8754 40.5367 26.723 40.5593C26.5706 40.5819 26.4323 40.6044 26.3081 40.627C26.1858 40.6477 26.0767 40.6731 25.9807 40.7032C25.8998 40.7314 25.8274 40.7653 25.7634 40.8048C25.7013 40.8443 25.6514 40.8923 25.6138 40.9488C25.578 41.0052 25.5602 41.0739 25.5602 41.1548C25.5602 41.2338 25.5799 41.3072 25.6194 41.375C25.659 41.4408 25.7192 41.4935 25.8001 41.533C25.881 41.5725 25.9845 41.5923 26.1105 41.5923ZM28.3591 41.9902V38.942H28.884V39.6815L28.8107 39.5855C28.8483 39.4877 28.8972 39.3983 28.9574 39.3174C29.0176 39.2346 29.0872 39.1669 29.1663 39.1142C29.2434 39.0578 29.329 39.0145 29.4231 38.9844C29.5191 38.9524 29.6169 38.9336 29.7166 38.9279C29.8164 38.9204 29.9123 38.9251 30.0045 38.942V39.4952C29.9048 39.4689 29.7938 39.4614 29.6715 39.4727C29.5511 39.4839 29.44 39.5225 29.3384 39.5884C29.2425 39.6505 29.1663 39.7257 29.1098 39.8142C29.0553 39.9026 29.0157 40.0014 28.9913 40.1105C28.9668 40.2178 28.9546 40.3316 28.9546 40.452V41.9902H28.3591ZM31.8388 42.0749C31.5359 42.0749 31.2696 42.0091 31.0401 41.8773C30.8124 41.7437 30.6346 41.5584 30.5066 41.3213C30.3806 41.0824 30.3175 40.8058 30.3175 40.4915C30.3175 40.1585 30.3796 39.8697 30.5038 39.6251C30.6299 39.3805 30.8049 39.1914 31.0288 39.0578C31.2527 38.9242 31.5133 38.8574 31.8106 38.8574C32.1211 38.8574 32.3854 38.9298 32.6037 39.0747C32.822 39.2177 32.9847 39.4219 33.092 39.6872C33.2011 39.9525 33.2444 40.2676 33.2218 40.6327H32.6319V40.4182C32.6282 40.0644 32.5604 39.8029 32.4287 39.6335C32.2989 39.4642 32.1004 39.3795 31.8332 39.3795C31.5378 39.3795 31.3157 39.4727 31.1671 39.6589C31.0184 39.8452 30.9441 40.1143 30.9441 40.4661C30.9441 40.8011 31.0184 41.0607 31.1671 41.2451C31.3157 41.4276 31.5302 41.5189 31.8106 41.5189C31.995 41.5189 32.154 41.4775 32.2876 41.3947C32.4231 41.31 32.5284 41.1896 32.6037 41.0334L33.1823 41.2169C33.0637 41.4897 32.8841 41.7014 32.6432 41.8519C32.4024 42.0006 32.1342 42.0749 31.8388 42.0749ZM30.7522 40.6327V40.1726H32.9283V40.6327H30.7522ZM35.0415 41.9902V37.8413H35.6314V41.9902H35.0415ZM36.5354 38.4425V37.8695H37.1253V38.4425H36.5354ZM36.5354 41.9902V38.942H37.1253V41.9902H36.5354ZM40.1122 41.9902V40.4915C40.1122 40.373 40.1019 40.2516 40.0812 40.1275C40.0624 40.0014 40.0248 39.8847 39.9683 39.7775C39.9137 39.6702 39.8357 39.5837 39.734 39.5178C39.6343 39.452 39.5035 39.419 39.3417 39.419C39.2364 39.419 39.1366 39.4369 39.0426 39.4727C38.9485 39.5065 38.8657 39.562 38.7942 39.6392C38.7246 39.7163 38.6691 39.8179 38.6277 39.944C38.5882 40.0701 38.5684 40.2234 38.5684 40.404L38.2015 40.2657C38.2015 39.9892 38.2532 39.7455 38.3567 39.5347C38.4602 39.3221 38.6088 39.1565 38.8027 39.038C38.9965 38.9195 39.2307 38.8602 39.5054 38.8602C39.7162 38.8602 39.893 38.8941 40.036 38.9618C40.179 39.0295 40.2948 39.1189 40.3832 39.2299C40.4735 39.3391 40.5422 39.4585 40.5892 39.5884C40.6363 39.7182 40.6683 39.8452 40.6852 39.9694C40.7021 40.0936 40.7106 40.2027 40.7106 40.2968V41.9902H40.1122ZM37.97 41.9902V38.942H38.4978V39.8226H38.5684V41.9902H37.97ZM41.4429 41.9902L41.4457 37.926H42.0441V40.4097L43.2408 38.942H43.9915L42.7271 40.4661L44.1214 41.9902H43.3198L42.0441 40.5226V41.9902H41.4429ZM46.3602 41.9902L45.2538 38.942H45.8493L46.6593 41.2508L47.4694 38.942H48.0649L46.9585 41.9902H46.3602ZM48.6299 38.4425V37.8695H49.2197V38.4425H48.6299ZM48.6299 41.9902V38.942H49.2197V41.9902H48.6299ZM50.9281 42.0749C50.7023 42.0749 50.5132 42.0335 50.3608 41.9507C50.2084 41.866 50.0927 41.755 50.0137 41.6177C49.9365 41.4784 49.8979 41.326 49.8979 41.1604C49.8979 41.0062 49.9252 40.8707 49.9798 40.754C50.0344 40.6374 50.1153 40.5386 50.2225 40.4577C50.3298 40.3749 50.4615 40.3081 50.6177 40.2573C50.7531 40.2178 50.9065 40.183 51.0777 40.1529C51.2489 40.1227 51.4286 40.0945 51.6168 40.0682C51.8068 40.0418 51.995 40.0155 52.1813 39.9892L51.9668 40.1077C51.9705 39.8687 51.9197 39.6919 51.8144 39.5771C51.7109 39.4604 51.5321 39.4021 51.2781 39.4021C51.1182 39.4021 50.9714 39.4397 50.8378 39.515C50.7042 39.5884 50.6111 39.7107 50.5584 39.8819L50.008 39.7126C50.0833 39.451 50.2263 39.2431 50.437 39.0888C50.6496 38.9345 50.9319 38.8574 51.2837 38.8574C51.5566 38.8574 51.7937 38.9044 51.995 38.9985C52.1982 39.0907 52.3469 39.2375 52.4409 39.4388C52.4899 39.5385 52.52 39.6439 52.5312 39.7549C52.5425 39.8659 52.5482 39.9854 52.5482 40.1133V41.9902H52.026V41.2931L52.1276 41.3834C52.0016 41.6167 51.8407 41.7908 51.645 41.9056C51.4512 42.0185 51.2122 42.0749 50.9281 42.0749ZM51.0326 41.5923C51.2 41.5923 51.344 41.5631 51.4644 41.5048C51.5848 41.4446 51.6817 41.3684 51.7551 41.2762C51.8285 41.184 51.8765 41.088 51.899 40.9883C51.931 40.898 51.9489 40.7964 51.9527 40.6835C51.9583 40.5706 51.9611 40.4803 51.9611 40.4125L52.153 40.4831C51.9668 40.5113 51.7974 40.5367 51.645 40.5593C51.4926 40.5819 51.3543 40.6044 51.2301 40.627C51.1078 40.6477 50.9987 40.6731 50.9027 40.7032C50.8218 40.7314 50.7494 40.7653 50.6854 40.8048C50.6233 40.8443 50.5734 40.8923 50.5358 40.9488C50.5001 41.0052 50.4822 41.0739 50.4822 41.1548C50.4822 41.2338 50.5019 41.3072 50.5415 41.375C50.581 41.4408 50.6412 41.4935 50.7221 41.533C50.803 41.5725 50.9065 41.5923 51.0326 41.5923Z" fill="#34495E"/>
<rect x="17.6445" y="48.2246" width="16.2288" height="16.2288" rx="2.8224" fill="#25D366"/>
<g clip-path="url(#clip0_4606_11210)">
<path d="M27.081 56.7891C27.1339 56.7891 27.3279 56.8773 27.6631 57.0537C27.9982 57.2301 28.1746 57.336 28.1923 57.3712C28.1923 57.3889 28.1923 57.4153 28.1923 57.4506C28.1923 57.5917 28.157 57.7417 28.0864 57.9004C28.0335 58.0592 27.8924 58.1915 27.6631 58.2973C27.4338 58.4032 27.2397 58.4561 27.081 58.4561C26.8516 58.4561 26.4724 58.3326 25.9432 58.0857C25.5551 57.9093 25.2199 57.6799 24.9377 57.3977C24.6555 57.1155 24.3644 56.745 24.0645 56.2864C23.7823 55.8807 23.6412 55.5014 23.6412 55.1486V55.0957C23.6588 54.7429 23.8087 54.4342 24.091 54.1696C24.1792 54.0814 24.285 54.0373 24.4085 54.0373C24.4261 54.0373 24.4614 54.0373 24.5143 54.0373C24.5673 54.0373 24.6025 54.0461 24.6202 54.0637C24.6907 54.0637 24.7437 54.0726 24.7789 54.0902C24.8142 54.1078 24.8407 54.1608 24.8583 54.249C24.8936 54.3372 24.9642 54.5136 25.07 54.7782C25.1758 55.0428 25.2199 55.1927 25.2023 55.228C25.2023 55.3162 25.1317 55.4308 24.9906 55.572C24.8495 55.7131 24.7878 55.8013 24.8054 55.8366C24.8054 55.8718 24.8142 55.8983 24.8319 55.9159C24.9553 56.2158 25.1582 56.4892 25.4404 56.7362C25.6521 56.9479 25.9432 57.1419 26.3136 57.3183C26.3665 57.3536 26.4106 57.3712 26.4459 57.3712C26.5165 57.3712 26.6223 57.2742 26.7634 57.0802C26.9046 56.8861 27.0104 56.7891 27.081 56.7891ZM25.8903 59.9379C26.3842 59.9379 26.8605 59.8408 27.3191 59.6468C27.7777 59.4528 28.1746 59.1882 28.5098 58.853C28.845 58.5178 29.1096 58.1209 29.3036 57.6623C29.4976 57.2037 29.5947 56.7274 29.5947 56.2335C29.5947 55.7395 29.4976 55.2544 29.3036 54.7782C29.1096 54.3019 28.845 53.905 28.5098 53.5875C28.1746 53.2699 27.7777 53.0142 27.3191 52.8201C26.8605 52.6261 26.3842 52.5202 25.8903 52.5026C25.3963 52.485 24.9112 52.5908 24.435 52.8201C23.9587 53.0494 23.5618 53.3052 23.2443 53.5875C22.9267 53.8697 22.671 54.2666 22.4769 54.7782C22.2829 55.2897 22.177 55.7748 22.1594 56.2335C22.1594 57.0273 22.3975 57.7505 22.8738 58.4032L22.424 59.7791L23.8528 59.3028C24.4702 59.7262 25.1494 59.9379 25.8903 59.9379ZM25.8903 51.7617C26.49 51.7617 27.0633 51.8852 27.6102 52.1322C28.157 52.3791 28.6333 52.6966 29.039 53.0847C29.4447 53.4728 29.7534 53.9403 29.9651 54.4871C30.1768 55.0339 30.3003 55.6161 30.3355 56.2335C30.3708 56.8509 30.2473 57.4242 29.9651 57.9534C29.6829 58.4826 29.3742 58.95 29.039 59.3557C28.7038 59.7615 28.2276 60.079 27.6102 60.3083C26.9928 60.5376 26.4195 60.6611 25.8903 60.6787C25.1141 60.6787 24.3909 60.4935 23.7205 60.1231L21.2598 60.9169L22.0536 58.509C21.6302 57.8211 21.4185 57.0625 21.4185 56.2335C21.4185 55.6161 21.542 55.0339 21.789 54.4871C22.0359 53.9403 22.3534 53.4728 22.7415 53.0847C23.1296 52.6966 23.5971 52.3791 24.1439 52.1322C24.6907 51.8852 25.2729 51.7617 25.8903 51.7617Z" fill="white"/>
</g>
<rect x="37.4014" y="48.2246" width="16.2288" height="16.2288" rx="2.8224" fill="#4267B2"/>
<path d="M45.9653 55.4663H47.2883V56.7893H45.9653V59.8587H44.6423V56.7893H43.3193V55.4663H44.6423V54.9107C44.6423 54.3815 44.8011 53.72 45.1186 53.3495C45.4626 53.0055 45.8595 52.8203 46.3622 52.8203H47.2883V54.1433H46.3622C46.1241 54.1433 45.9653 54.3021 45.9653 54.5402V55.4663Z" fill="white"/>
<g clip-path="url(#clip1_4606_11210)">
<path d="M58.173 49.3294C56.8977 50.6541 57.1587 52.0613 57.1587 56.3362C57.1587 59.8862 56.5393 63.4451 59.781 64.2829C60.7933 64.5432 69.7624 64.5432 70.7733 64.2815C72.123 63.9333 73.2211 62.8385 73.3712 60.9296C73.3922 60.6632 73.3922 52.0139 73.3706 51.7421C73.211 49.7088 71.9593 48.5369 70.3101 48.2996C69.9321 48.2448 69.8564 48.2285 67.917 48.2252C61.038 48.2285 59.5301 47.9222 58.173 49.3294Z" fill="url(#paint1_linear_4606_11210)"/>
<path d="M65.2719 50.3476C62.8166 50.3476 60.485 50.1292 59.5945 52.4147C59.2266 53.3587 59.28 54.5847 59.28 56.3401C59.28 57.8804 59.2307 59.3282 59.5945 60.2647C60.483 62.5516 62.8335 62.3326 65.2705 62.3326C67.6217 62.3326 70.0458 62.5773 70.9472 60.2647C71.3157 59.3113 71.2616 58.1036 71.2616 56.3401C71.2616 53.9991 71.3908 52.4878 70.2555 51.3531C69.1059 50.2035 67.5513 50.3476 65.2692 50.3476H65.2719ZM64.735 51.4275C69.8565 51.4194 70.5084 50.85 70.1486 58.7595C70.0208 61.5569 67.8908 61.25 65.2725 61.25C60.4986 61.25 60.3613 61.1134 60.3613 56.3374C60.3613 51.5059 60.74 51.4302 64.735 51.4261V51.4275ZM68.4703 52.4222C68.0734 52.4222 67.7515 52.744 67.7515 53.141C67.7515 53.5379 68.0734 53.8598 68.4703 53.8598C68.8672 53.8598 69.1891 53.5379 69.1891 53.141C69.1891 52.744 68.8672 52.4222 68.4703 52.4222ZM65.2719 53.2627C63.5726 53.2627 62.1951 54.6408 62.1951 56.3401C62.1951 58.0394 63.5726 59.4168 65.2719 59.4168C66.9711 59.4168 68.3479 58.0394 68.3479 56.3401C68.3479 54.6408 66.9711 53.2627 65.2719 53.2627ZM65.2719 54.3426C67.9124 54.3426 67.9158 58.3376 65.2719 58.3376C62.632 58.3376 62.6279 54.3426 65.2719 54.3426Z" fill="white"/>
</g>
<rect x="76.915" y="48.2246" width="16.2288" height="16.2288" rx="2.8224" fill="#0077B5"/>
<path d="M83.2566 59.4338H81.9336V55.015H83.2566V59.4338ZM88.1252 59.4338H86.8022V57.0789C86.8022 56.4438 86.5641 56.1528 86.1407 56.1528C85.7968 56.1528 85.5851 56.3115 85.4792 56.6555V59.4338H84.1562C84.1562 59.4338 84.1562 55.4648 84.1562 55.015H85.1882L85.2676 55.8882H85.294C85.5586 55.4648 86.0084 55.1473 86.5906 55.1473C87.0404 55.1473 87.4108 55.2796 87.7019 55.5971C87.9665 55.9146 88.1252 56.338 88.1252 56.9466V59.4338ZM83.2831 53.9037C83.2831 54.2741 82.992 54.5652 82.5951 54.5652C82.1982 54.5652 81.9336 54.2741 81.9336 53.9037C81.9336 53.5332 82.2247 53.2422 82.5951 53.2422C82.9655 53.2422 83.2831 53.5597 83.2831 53.9037Z" fill="white"/>
<rect x="96.6719" y="48.2246" width="16.2288" height="16.2288" rx="2.8224" fill="#039BE5"/>
<path d="M100.307 55.6164L109.067 52.2386C109.474 52.0917 109.829 52.3378 109.697 52.9526L109.698 52.9519L108.206 59.9792C108.096 60.4774 107.8 60.5986 107.385 60.3639L105.114 58.6898L104.018 59.7453C103.897 59.8664 103.795 59.9686 103.56 59.9686L103.722 57.657L107.931 53.8537C108.115 53.6924 107.891 53.6015 107.649 53.762L102.446 57.0376L100.204 56.338C99.7168 56.1835 99.7062 55.8511 100.307 55.6164Z" fill="white"/>
<rect x="116.429" y="48.2246" width="16.2288" height="16.2288" rx="2.8224" fill="black"/>
<g clip-path="url(#clip2_4606_11210)">
<path d="M125.382 55.967L128.158 52.7402H127.5L125.09 55.542L123.165 52.7402H120.944L123.855 56.977L120.944 60.3607H121.602L124.148 57.402L126.181 60.3607H128.401L125.382 55.967ZM121.839 53.2354H122.85L127.5 59.888H126.49L121.839 53.2354Z" fill="white"/>
</g>
<path d="M19.3634 79.0046C19.0586 79.0046 18.7942 78.9359 18.5703 78.7986C18.3464 78.6612 18.1733 78.4721 18.051 78.2313C17.9305 77.9885 17.8703 77.7091 17.8703 77.393C17.8703 77.075 17.9324 76.7956 18.0566 76.5548C18.1808 76.312 18.3548 76.1239 18.5787 75.9903C18.8027 75.8548 19.0642 75.7871 19.3634 75.7871C19.6682 75.7871 19.9326 75.8557 20.1565 75.9931C20.3804 76.1304 20.5535 76.3196 20.6758 76.5604C20.7981 76.8012 20.8592 77.0788 20.8592 77.393C20.8592 77.711 20.7972 77.9914 20.673 78.2341C20.5507 78.4749 20.3776 78.664 20.1536 78.8014C19.9297 78.9369 19.6663 79.0046 19.3634 79.0046ZM19.3634 78.4486C19.655 78.4486 19.8723 78.3507 20.0153 78.1551C20.1602 77.9575 20.2327 77.7035 20.2327 77.393C20.2327 77.075 20.1593 76.821 20.0125 76.631C19.8676 76.439 19.6513 76.3431 19.3634 76.3431C19.1658 76.3431 19.003 76.3882 18.8751 76.4785C18.7471 76.567 18.6521 76.6902 18.59 76.8483C18.5279 77.0045 18.4969 77.186 18.4969 77.393C18.4969 77.7129 18.5703 77.9688 18.717 78.1607C18.8638 78.3526 19.0793 78.4486 19.3634 78.4486ZM21.4795 78.9199V75.8717H22.0044V76.6112L21.9311 76.5152C21.9687 76.4174 22.0176 76.328 22.0778 76.2471C22.138 76.1643 22.2076 76.0966 22.2867 76.0439C22.3638 75.9874 22.4494 75.9442 22.5435 75.9141C22.6395 75.8821 22.7373 75.8633 22.837 75.8576C22.9368 75.8501 23.0327 75.8548 23.1249 75.8717V76.4249C23.0252 76.3986 22.9142 76.3911 22.7919 76.4023C22.6715 76.4136 22.5604 76.4522 22.4588 76.5181C22.3629 76.5802 22.2867 76.6554 22.2302 76.7439C22.1757 76.8323 22.1361 76.9311 22.1117 77.0402C22.0872 77.1475 22.075 77.2613 22.075 77.3817V78.9199H21.4795ZM26.0964 79.0046C25.7841 79.0046 25.5188 78.935 25.3005 78.7957C25.0822 78.6565 24.9148 78.4655 24.7981 78.2228C24.6833 77.9801 24.625 77.7044 24.6231 77.3958C24.625 77.0816 24.6852 76.8041 24.8038 76.5632C24.9223 76.3205 25.0917 76.1304 25.3118 75.9931C25.5319 75.8557 25.7963 75.7871 26.1049 75.7871C26.4379 75.7871 26.7221 75.8698 26.9573 76.0354C27.1943 76.201 27.3505 76.4277 27.4258 76.7156L26.8387 76.885C26.7804 76.7137 26.6844 76.5811 26.5508 76.487C26.4191 76.3911 26.2677 76.3431 26.0964 76.3431C25.9026 76.3431 25.7436 76.3892 25.6194 76.4814C25.4953 76.5717 25.4031 76.6959 25.3428 76.8539C25.2826 77.012 25.2516 77.1926 25.2497 77.3958C25.2516 77.7101 25.3231 77.9641 25.4642 78.1579C25.6072 78.3517 25.818 78.4486 26.0964 78.4486C26.2865 78.4486 26.4398 78.4053 26.5565 78.3188C26.675 78.2303 26.7653 78.1042 26.8274 77.9405L27.4258 78.0817C27.3261 78.379 27.1614 78.6076 26.9319 78.7675C26.7023 78.9256 26.4238 79.0046 26.0964 79.0046ZM29.2418 79.0046C28.937 79.0046 28.6726 78.9359 28.4487 78.7986C28.2248 78.6612 28.0517 78.4721 27.9294 78.2313C27.8089 77.9885 27.7487 77.7091 27.7487 77.393C27.7487 77.075 27.8108 76.7956 27.935 76.5548C28.0592 76.312 28.2332 76.1239 28.4571 75.9903C28.6811 75.8548 28.9426 75.7871 29.2418 75.7871C29.5466 75.7871 29.811 75.8557 30.0349 75.9931C30.2588 76.1304 30.4319 76.3196 30.5542 76.5604C30.6765 76.8012 30.7376 77.0788 30.7376 77.393C30.7376 77.711 30.6756 77.9914 30.5514 78.2341C30.4291 78.4749 30.256 78.664 30.032 78.8014C29.8081 78.9369 29.5447 79.0046 29.2418 79.0046ZM29.2418 78.4486C29.5334 78.4486 29.7507 78.3507 29.8937 78.1551C30.0386 77.9575 30.1111 77.7035 30.1111 77.393C30.1111 77.075 30.0377 76.821 29.8909 76.631C29.746 76.439 29.5297 76.3431 29.2418 76.3431C29.0442 76.3431 28.8814 76.3882 28.7535 76.4785C28.6255 76.567 28.5305 76.6902 28.4684 76.8483C28.4063 77.0045 28.3753 77.186 28.3753 77.393C28.3753 77.7129 28.4487 77.9688 28.5954 78.1607C28.7422 78.3526 28.9577 78.4486 29.2418 78.4486ZM32.7888 79.0046C32.4972 79.0046 32.2526 78.934 32.055 78.7929C31.8574 78.6499 31.7078 78.457 31.6062 78.2143C31.5046 77.9716 31.4538 77.6978 31.4538 77.393C31.4538 77.0882 31.5037 76.8144 31.6034 76.5717C31.705 76.329 31.8537 76.138 32.0494 75.9987C32.2469 75.8576 32.4896 75.7871 32.7775 75.7871C33.0635 75.7871 33.31 75.8576 33.517 75.9987C33.7259 76.138 33.8867 76.329 33.9996 76.5717C34.1125 76.8125 34.169 77.0863 34.169 77.393C34.169 77.6978 34.1125 77.9725 33.9996 78.2171C33.8886 78.4599 33.7296 78.6518 33.5226 78.7929C33.3176 78.934 33.0729 79.0046 32.7888 79.0046ZM31.355 80.2747V75.8717H31.88V78.0647H31.9477V80.2747H31.355ZM32.707 78.4712C32.8951 78.4712 33.0504 78.4232 33.1727 78.3272C33.2969 78.2313 33.3891 78.1024 33.4493 77.9405C33.5114 77.7768 33.5424 77.5943 33.5424 77.393C33.5424 77.1936 33.5114 77.0129 33.4493 76.8511C33.3891 76.6893 33.2959 76.5604 33.1698 76.4644C33.0438 76.3685 32.8829 76.3205 32.6872 76.3205C32.5028 76.3205 32.3504 76.3656 32.23 76.456C32.1114 76.5463 32.023 76.6724 31.9647 76.8342C31.9082 76.996 31.88 77.1823 31.88 77.393C31.88 77.6037 31.9082 77.79 31.9647 77.9518C32.0211 78.1137 32.1105 78.2407 32.2328 78.3329C32.3551 78.4251 32.5132 78.4712 32.707 78.4712ZM35.094 80.2747L35.6839 78.6687L35.6923 79.1429L34.363 75.8717H34.9783L35.9717 78.3978H35.7911L36.7394 75.8717H37.3378L35.6556 80.2747H35.094ZM38.9664 78.9199V74.771H39.5563V78.9199H38.9664ZM40.4603 75.3722V74.7992H41.0502V75.3722H40.4603ZM40.4603 78.9199V75.8717H41.0502V78.9199H40.4603ZM44.0371 78.9199V77.4212C44.0371 77.3027 44.0268 77.1813 44.0061 77.0571C43.9873 76.9311 43.9497 76.8144 43.8932 76.7072C43.8386 76.5999 43.7606 76.5134 43.6589 76.4475C43.5592 76.3816 43.4284 76.3487 43.2666 76.3487C43.1613 76.3487 43.0615 76.3666 42.9675 76.4023C42.8734 76.4362 42.7906 76.4917 42.7191 76.5689C42.6495 76.646 42.594 76.7476 42.5526 76.8737C42.5131 76.9997 42.4933 77.1531 42.4933 77.3337L42.1264 77.1954C42.1264 76.9188 42.1781 76.6752 42.2816 76.4644C42.3851 76.2518 42.5337 76.0862 42.7276 75.9677C42.9214 75.8492 43.1556 75.7899 43.4303 75.7899C43.6411 75.7899 43.8179 75.8237 43.9609 75.8915C44.1039 75.9592 44.2197 76.0486 44.3081 76.1596C44.3984 76.2687 44.4671 76.3882 44.5141 76.5181C44.5612 76.6479 44.5932 76.7749 44.6101 76.8991C44.627 77.0233 44.6355 77.1324 44.6355 77.2265V78.9199H44.0371ZM41.8949 78.9199V75.8717H42.4227V76.7523H42.4933V78.9199H41.8949ZM45.3678 78.9199L45.3706 74.8557H45.969V77.3394L47.1657 75.8717H47.9164L46.652 77.3958L48.0463 78.9199H47.2447L45.969 77.4523V78.9199H45.3678Z" fill="#34495E"/>
<g clip-path="url(#clip3_4606_11210)">
<rect x="17.6445" y="85.1543" width="115.013" height="17.64" rx="2.8224" fill="#F62D2D" fill-opacity="0.1"/>
<g clip-path="url(#clip4_4606_11210)">
<path fill-rule="evenodd" clip-rule="evenodd" d="M22.1886 93.2726C22.1886 93.2726 21.9173 93.5445 21.6131 93.8489C21.3313 94.1298 21.1738 94.5108 21.1738 94.9081C21.1738 95.3052 21.3313 95.6863 21.6131 95.9671C21.6236 95.9783 21.6342 95.9894 21.6461 96.0005C21.9266 96.2814 22.3076 96.4392 22.7045 96.4392C23.1028 96.4392 23.4838 96.2814 23.7643 96.0005C24.0685 95.6962 24.3411 95.4242 24.3411 95.4242C24.4694 95.2952 24.4694 95.0855 24.3411 94.9565C24.2114 94.8274 24.0024 94.8274 23.8727 94.9565C23.8727 94.9565 23.6002 95.2284 23.2959 95.5328C23.1398 95.6896 22.9268 95.7777 22.7045 95.7777C22.4836 95.7777 22.2706 95.6896 22.1132 95.5328L22.0801 95.4995C21.924 95.3426 21.8353 95.1298 21.8353 94.9081C21.8353 94.6862 21.924 94.4735 22.0801 94.3166C22.3844 94.0123 22.6569 93.7403 22.6569 93.7403C22.7852 93.6113 22.7852 93.4017 22.6569 93.2726C22.5273 93.1435 22.3182 93.1435 22.1886 93.2726ZM24.1572 92.9884L22.6569 94.4887C22.5273 94.6178 22.5273 94.8274 22.6569 94.9565C22.7852 95.0855 22.9956 95.0855 23.1239 94.9565L24.6242 93.4561C24.7539 93.327 24.7539 93.1174 24.6242 92.9884C24.4959 92.8593 24.2855 92.8593 24.1572 92.9884ZM25.0886 94.6756C25.0886 94.6756 25.3624 94.4019 25.6681 94.0962C25.9499 93.8153 26.1073 93.4343 26.1073 93.037C26.1073 92.6398 25.9499 92.2588 25.6681 91.9779C25.6575 91.9668 25.6469 91.9557 25.635 91.9446C25.3545 91.6636 24.9735 91.5059 24.5766 91.5059C24.1784 91.5059 23.7973 91.6636 23.5169 91.9446C23.2126 92.2487 22.9414 92.5206 22.9414 92.5206C22.8117 92.6497 22.8117 92.8593 22.9414 92.9884C23.0697 93.1174 23.28 93.1174 23.4084 92.9884C23.4084 92.9884 23.6809 92.7165 23.9852 92.4122C24.1413 92.2555 24.3543 92.1674 24.5766 92.1674C24.7975 92.1674 25.0105 92.2555 25.168 92.4122L25.201 92.4456C25.3571 92.6025 25.4458 92.8152 25.4458 93.037C25.4458 93.2588 25.3571 93.4716 25.201 93.6285C24.8954 93.9342 24.6216 94.2078 24.6216 94.2078C24.4919 94.3369 24.4919 94.5465 24.6216 94.6756C24.7499 94.8046 24.9602 94.8046 25.0886 94.6756Z" fill="#F62D2D" fill-opacity="0.8"/>
</g>
<path d="M31.1172 92.6123C31.2922 92.6123 31.4502 92.6504 31.5913 92.7266C31.7325 92.8 31.8425 92.9114 31.9216 93.061C32.0034 93.2106 32.0443 93.3927 32.0443 93.6072V94.9746H31.6633V93.6622C31.6633 93.4308 31.6055 93.2544 31.4897 93.133C31.374 93.0088 31.216 92.9467 31.0156 92.9467C30.8124 92.9467 30.6501 93.0102 30.5287 93.1372C30.4102 93.2642 30.3509 93.4491 30.3509 93.6918V94.9746H29.9656V91.8417H30.3509V92.9848C30.4271 92.8663 30.5315 92.7745 30.6642 92.7096C30.7997 92.6447 30.9507 92.6123 31.1172 92.6123ZM33.1436 92.9721V94.3396C33.1436 94.4525 33.1676 94.5329 33.2156 94.5809C33.2635 94.626 33.3468 94.6486 33.4653 94.6486H33.749V94.9746H33.4018C33.1873 94.9746 33.0265 94.9252 32.9192 94.8264C32.8119 94.7276 32.7583 94.5654 32.7583 94.3396V92.9721H32.4577V92.6546H32.7583V92.0704H33.1436V92.6546H33.749V92.9721H33.1436ZM34.6857 92.9721V94.3396C34.6857 94.4525 34.7097 94.5329 34.7577 94.5809C34.8057 94.626 34.8889 94.6486 35.0075 94.6486H35.2911V94.9746H34.944C34.7294 94.9746 34.5686 94.9252 34.4613 94.8264C34.3541 94.7276 34.3004 94.5654 34.3004 94.3396V92.9721H33.9999V92.6546H34.3004V92.0704H34.6857V92.6546H35.2911V92.9721H34.6857ZM36.1432 93.0822C36.2194 92.9495 36.3323 92.8395 36.4818 92.752C36.6343 92.6617 36.8107 92.6165 37.011 92.6165C37.2171 92.6165 37.4034 92.6659 37.5699 92.7647C37.7392 92.8635 37.8719 93.0032 37.9678 93.1838C38.0638 93.3616 38.1118 93.5691 38.1118 93.8061C38.1118 94.0404 38.0638 94.2493 37.9678 94.4327C37.8719 94.6162 37.7392 94.7587 37.5699 94.8603C37.4034 94.9619 37.2171 95.0127 37.011 95.0127C36.8135 95.0127 36.6385 94.969 36.4861 94.8815C36.3365 94.7912 36.2222 94.6797 36.1432 94.547V96.0753H35.7579V92.6546H36.1432V93.0822ZM37.7181 93.8061C37.7181 93.6311 37.6828 93.4787 37.6122 93.3489C37.5417 93.2191 37.4457 93.1203 37.3243 93.0526C37.2058 92.9848 37.0745 92.9509 36.9306 92.9509C36.7895 92.9509 36.6582 92.9862 36.5369 93.0568C36.4183 93.1245 36.3224 93.2247 36.249 93.3574C36.1784 93.4872 36.1432 93.6382 36.1432 93.8104C36.1432 93.9854 36.1784 94.1392 36.249 94.2718C36.3224 94.4017 36.4183 94.5019 36.5369 94.5724C36.6582 94.6402 36.7895 94.674 36.9306 94.674C37.0745 94.674 37.2058 94.6402 37.3243 94.5724C37.4457 94.5019 37.5417 94.4017 37.6122 94.2718C37.6828 94.1392 37.7181 93.9839 37.7181 93.8061ZM39.4402 95.0127C39.2624 95.0127 39.1029 94.9831 38.9618 94.9238C38.8207 94.8617 38.7092 94.777 38.6273 94.6698C38.5455 94.5597 38.5003 94.4341 38.4919 94.293H38.8898C38.9011 94.4087 38.9547 94.5033 39.0507 94.5767C39.1495 94.65 39.2779 94.6867 39.436 94.6867C39.5827 94.6867 39.6985 94.6543 39.7831 94.5894C39.8678 94.5244 39.9101 94.4426 39.9101 94.3438C39.9101 94.2422 39.865 94.1674 39.7747 94.1194C39.6843 94.0686 39.5446 94.0192 39.3555 93.9712C39.1834 93.9261 39.0422 93.8809 38.9322 93.8358C38.8249 93.7878 38.7318 93.7186 38.6528 93.6283C38.5765 93.5352 38.5384 93.4138 38.5384 93.2642C38.5384 93.1457 38.5737 93.037 38.6443 92.9382C38.7148 92.8395 38.815 92.7618 38.9449 92.7054C39.0747 92.6461 39.2229 92.6165 39.3894 92.6165C39.6462 92.6165 39.8537 92.6814 40.0117 92.8112C40.1698 92.9411 40.2545 93.1189 40.2658 93.3447H39.8805C39.872 93.2233 39.8226 93.1259 39.7323 93.0526C39.6448 92.9792 39.5263 92.9425 39.3767 92.9425C39.2384 92.9425 39.1283 92.9721 39.0465 93.0314C38.9646 93.0907 38.9237 93.1683 38.9237 93.2642C38.9237 93.3404 38.9477 93.4039 38.9957 93.4547C39.0465 93.5027 39.1086 93.5422 39.182 93.5733C39.2582 93.6015 39.3626 93.634 39.4952 93.6707C39.6618 93.7158 39.7972 93.761 39.9017 93.8061C40.0061 93.8485 40.095 93.9134 40.1684 94.0009C40.2446 94.0884 40.2841 94.2027 40.2869 94.3438C40.2869 94.4708 40.2516 94.5851 40.1811 94.6867C40.1105 94.7883 40.0103 94.8688 39.8805 94.928C39.7535 94.9845 39.6067 95.0127 39.4402 95.0127ZM40.9535 95C40.8802 95 40.8181 94.9746 40.7673 94.9238C40.7165 94.873 40.6911 94.8109 40.6911 94.7375C40.6911 94.6641 40.7165 94.6021 40.7673 94.5512C40.8181 94.5004 40.8802 94.475 40.9535 94.475C41.0241 94.475 41.0834 94.5004 41.1314 94.5512C41.1822 94.6021 41.2076 94.6641 41.2076 94.7375C41.2076 94.8109 41.1822 94.873 41.1314 94.9238C41.0834 94.9746 41.0241 95 40.9535 95ZM40.9535 93.188C40.8802 93.188 40.8181 93.1626 40.7673 93.1118C40.7165 93.061 40.6911 92.9989 40.6911 92.9255C40.6911 92.8522 40.7165 92.7901 40.7673 92.7393C40.8181 92.6885 40.8802 92.6631 40.9535 92.6631C41.0241 92.6631 41.0834 92.6885 41.1314 92.7393C41.1822 92.7901 41.2076 92.8522 41.2076 92.9255C41.2076 92.9989 41.1822 93.061 41.1314 93.1118C41.0834 93.1626 41.0241 93.188 40.9535 93.188ZM43.1715 90.9866L42.0115 95.6943H41.6305L42.7862 90.9866H43.1715ZM45.1849 90.9866L44.0249 95.6943H43.6439L44.7997 90.9866H45.1849ZM45.615 93.8061C45.615 93.5691 45.663 93.3616 45.7589 93.1838C45.8549 93.0032 45.9862 92.8635 46.1527 92.7647C46.322 92.6659 46.5111 92.6165 46.72 92.6165C46.9006 92.6165 47.0685 92.6588 47.2238 92.7435C47.379 92.8254 47.4975 92.934 47.5794 93.0695V91.8417H47.9689V94.9746H47.5794V94.5385C47.5032 94.6768 47.3903 94.7912 47.2407 94.8815C47.0911 94.969 46.9161 95.0127 46.7157 95.0127C46.5097 95.0127 46.322 94.9619 46.1527 94.8603C45.9862 94.7587 45.8549 94.6162 45.7589 94.4327C45.663 94.2493 45.615 94.0404 45.615 93.8061ZM47.5794 93.8104C47.5794 93.6354 47.5441 93.483 47.4736 93.3531C47.403 93.2233 47.307 93.1245 47.1857 93.0568C47.0671 92.9862 46.9359 92.9509 46.7919 92.9509C46.648 92.9509 46.5168 92.9848 46.3982 93.0526C46.2797 93.1203 46.1851 93.2191 46.1146 93.3489C46.044 93.4787 46.0087 93.6311 46.0087 93.8061C46.0087 93.9839 46.044 94.1392 46.1146 94.2718C46.1851 94.4017 46.2797 94.5019 46.3982 94.5724C46.5168 94.6402 46.648 94.674 46.7919 94.674C46.9359 94.674 47.0671 94.6402 47.1857 94.5724C47.307 94.5019 47.403 94.4017 47.4736 94.2718C47.5441 94.1392 47.5794 93.9854 47.5794 93.8104ZM48.8189 92.2778C48.7455 92.2778 48.6834 92.2524 48.6326 92.2016C48.5818 92.1508 48.5564 92.0887 48.5564 92.0153C48.5564 91.9419 48.5818 91.8798 48.6326 91.829C48.6834 91.7782 48.7455 91.7528 48.8189 91.7528C48.8895 91.7528 48.9487 91.7782 48.9967 91.829C49.0475 91.8798 49.0729 91.9419 49.0729 92.0153C49.0729 92.0887 49.0475 92.1508 48.9967 92.2016C48.9487 92.2524 48.8895 92.2778 48.8189 92.2778ZM49.0052 92.6546V94.9746H48.6199V92.6546H49.0052ZM50.4831 95.0127C50.3053 95.0127 50.1458 94.9831 50.0047 94.9238C49.8636 94.8617 49.7521 94.777 49.6703 94.6698C49.5884 94.5597 49.5433 94.4341 49.5348 94.293H49.9327C49.944 94.4087 49.9977 94.5033 50.0936 94.5767C50.1924 94.65 50.3208 94.6867 50.4789 94.6867C50.6256 94.6867 50.7414 94.6543 50.826 94.5894C50.9107 94.5244 50.953 94.4426 50.953 94.3438C50.953 94.2422 50.9079 94.1674 50.8176 94.1194C50.7273 94.0686 50.5875 94.0192 50.3984 93.9712C50.2263 93.9261 50.0852 93.8809 49.9751 93.8358C49.8678 93.7878 49.7747 93.7186 49.6957 93.6283C49.6195 93.5352 49.5814 93.4138 49.5814 93.2642C49.5814 93.1457 49.6166 93.037 49.6872 92.9382C49.7578 92.8395 49.858 92.7618 49.9878 92.7054C50.1176 92.6461 50.2658 92.6165 50.4323 92.6165C50.6892 92.6165 50.8966 92.6814 51.0547 92.8112C51.2127 92.9411 51.2974 93.1189 51.3087 93.3447H50.9234C50.9149 93.2233 50.8656 93.1259 50.7752 93.0526C50.6877 92.9792 50.5692 92.9425 50.4196 92.9425C50.2813 92.9425 50.1712 92.9721 50.0894 93.0314C50.0075 93.0907 49.9666 93.1683 49.9666 93.2642C49.9666 93.3404 49.9906 93.4039 50.0386 93.4547C50.0894 93.5027 50.1515 93.5422 50.2249 93.5733C50.3011 93.6015 50.4055 93.634 50.5382 93.6707C50.7047 93.7158 50.8402 93.761 50.9446 93.8061C51.049 93.8485 51.1379 93.9134 51.2113 94.0009C51.2875 94.0884 51.327 94.2027 51.3298 94.3438C51.3298 94.4708 51.2946 94.5851 51.224 94.6867C51.1534 94.7883 51.0532 94.8688 50.9234 94.928C50.7964 94.9845 50.6496 95.0127 50.4831 95.0127ZM52.2589 93.0864C52.338 92.9481 52.4537 92.8352 52.6061 92.7477C52.7585 92.6602 52.9321 92.6165 53.1268 92.6165C53.3357 92.6165 53.5234 92.6659 53.6899 92.7647C53.8564 92.8635 53.9877 93.0032 54.0836 93.1838C54.1796 93.3616 54.2276 93.5691 54.2276 93.8061C54.2276 94.0404 54.1796 94.2493 54.0836 94.4327C53.9877 94.6162 53.855 94.7587 53.6857 94.8603C53.5191 94.9619 53.3329 95.0127 53.1268 95.0127C52.9264 95.0127 52.75 94.969 52.5976 94.8815C52.448 94.794 52.3352 94.6825 52.2589 94.547V94.9746H51.8737V91.8417H52.2589V93.0864ZM53.8338 93.8061C53.8338 93.6311 53.7986 93.4787 53.728 93.3489C53.6574 93.2191 53.5615 93.1203 53.4401 93.0526C53.3216 92.9848 53.1903 92.9509 53.0464 92.9509C52.9053 92.9509 52.774 92.9862 52.6527 93.0568C52.5341 93.1245 52.4382 93.2247 52.3648 93.3574C52.2942 93.4872 52.2589 93.6382 52.2589 93.8104C52.2589 93.9854 52.2942 94.1392 52.3648 94.2718C52.4382 94.4017 52.5341 94.5019 52.6527 94.5724C52.774 94.6402 52.9053 94.674 53.0464 94.674C53.1903 94.674 53.3216 94.6402 53.4401 94.5724C53.5615 94.5019 53.6574 94.4017 53.728 94.2718C53.7986 94.1392 53.8338 93.9839 53.8338 93.8061ZM55.1199 91.8417V94.9746H54.7347V91.8417H55.1199ZM55.6326 93.8061C55.6326 93.5691 55.6806 93.3616 55.7765 93.1838C55.8725 93.0032 56.0037 92.8635 56.1703 92.7647C56.3396 92.6659 56.5273 92.6165 56.7333 92.6165C56.9365 92.6165 57.1129 92.6602 57.2625 92.7477C57.4121 92.8352 57.5236 92.9453 57.597 93.078V92.6546H57.9865V94.9746H57.597V94.5428C57.5208 94.6783 57.4065 94.7912 57.2541 94.8815C57.1045 94.969 56.9295 95.0127 56.7291 95.0127C56.5231 95.0127 56.3368 94.9619 56.1703 94.8603C56.0037 94.7587 55.8725 94.6162 55.7765 94.4327C55.6806 94.2493 55.6326 94.0404 55.6326 93.8061ZM57.597 93.8104C57.597 93.6354 57.5617 93.483 57.4911 93.3531C57.4206 93.2233 57.3246 93.1245 57.2033 93.0568C57.0847 92.9862 56.9535 92.9509 56.8095 92.9509C56.6656 92.9509 56.5344 92.9848 56.4158 93.0526C56.2973 93.1203 56.2027 93.2191 56.1322 93.3489C56.0616 93.4787 56.0263 93.6311 56.0263 93.8061C56.0263 93.9839 56.0616 94.1392 56.1322 94.2718C56.2027 94.4017 56.2973 94.5019 56.4158 94.5724C56.5344 94.6402 56.6656 94.674 56.8095 94.674C56.9535 94.674 57.0847 94.6402 57.2033 94.5724C57.3246 94.5019 57.4206 94.4017 57.4911 94.2718C57.5617 94.1392 57.597 93.9854 57.597 93.8104ZM60.6358 92.6546L59.2387 96.0669H58.8407L59.298 94.9492L58.3623 92.6546H58.7899L59.5181 94.5343L60.2378 92.6546H60.6358ZM61.1458 95C61.0725 95 61.0104 94.9746 60.9596 94.9238C60.9088 94.873 60.8834 94.8109 60.8834 94.7375C60.8834 94.6641 60.9088 94.6021 60.9596 94.5512C61.0104 94.5004 61.0725 94.475 61.1458 94.475C61.2164 94.475 61.2757 94.5004 61.3236 94.5512C61.3745 94.6021 61.3999 94.6641 61.3999 94.7375C61.3999 94.8109 61.3745 94.873 61.3236 94.9238C61.2757 94.9746 61.2164 95 61.1458 95ZM61.768 93.8104C61.768 93.5705 61.816 93.3616 61.912 93.1838C62.0079 93.0032 62.1406 92.8635 62.3099 92.7647C62.4821 92.6659 62.6782 92.6165 62.8984 92.6165C63.1834 92.6165 63.4177 92.6856 63.6012 92.8239C63.7874 92.9622 63.9102 93.1542 63.9695 93.3997H63.5546C63.5151 93.2586 63.4375 93.1471 63.3217 93.0653C63.2088 92.9834 63.0677 92.9425 62.8984 92.9425C62.6782 92.9425 62.5004 93.0187 62.3649 93.1711C62.2295 93.3207 62.1617 93.5338 62.1617 93.8104C62.1617 94.0898 62.2295 94.3057 62.3649 94.4581C62.5004 94.6105 62.6782 94.6867 62.8984 94.6867C63.0677 94.6867 63.2088 94.6472 63.3217 94.5682C63.4346 94.4892 63.5123 94.3763 63.5546 94.2295H63.9695C63.9074 94.4666 63.7832 94.6571 63.5969 94.801C63.4106 94.9422 63.1778 95.0127 62.8984 95.0127C62.6782 95.0127 62.4821 94.9633 62.3099 94.8645C62.1406 94.7658 62.0079 94.626 61.912 94.4454C61.816 94.2648 61.768 94.0531 61.768 93.8104ZM65.4954 95.0127C65.278 95.0127 65.0805 94.9633 64.9027 94.8645C64.7277 94.7658 64.5894 94.626 64.4878 94.4454C64.389 94.262 64.3396 94.0503 64.3396 93.8104C64.3396 93.5733 64.3904 93.3644 64.492 93.1838C64.5964 93.0003 64.7376 92.8606 64.9154 92.7647C65.0932 92.6659 65.2922 92.6165 65.5123 92.6165C65.7324 92.6165 65.9314 92.6659 66.1092 92.7647C66.287 92.8606 66.4268 92.9989 66.5284 93.1796C66.6328 93.3602 66.685 93.5705 66.685 93.8104C66.685 94.0503 66.6314 94.262 66.5241 94.4454C66.4197 94.626 66.2772 94.7658 66.0965 94.8645C65.9159 94.9633 65.7155 95.0127 65.4954 95.0127ZM65.4954 94.674C65.6337 94.674 65.7635 94.6416 65.8849 94.5767C66.0062 94.5117 66.1036 94.4144 66.177 94.2845C66.2532 94.1547 66.2913 93.9966 66.2913 93.8104C66.2913 93.6241 66.2546 93.466 66.1812 93.3362C66.1078 93.2064 66.0119 93.1104 65.8933 93.0483C65.7748 92.9834 65.6464 92.9509 65.5081 92.9509C65.3669 92.9509 65.2371 92.9834 65.1186 93.0483C65.0029 93.1104 64.9097 93.2064 64.8392 93.3362C64.7686 93.466 64.7333 93.6241 64.7333 93.8104C64.7333 93.9995 64.7672 94.1589 64.8349 94.2888C64.9055 94.4186 64.9986 94.516 65.1143 94.5809C65.2301 94.643 65.3571 94.674 65.4954 94.674ZM69.9815 92.6123C70.1621 92.6123 70.323 92.6504 70.4641 92.7266C70.6052 92.8 70.7167 92.9114 70.7986 93.061C70.8804 93.2106 70.9214 93.3927 70.9214 93.6072V94.9746H70.5403V93.6622C70.5403 93.4308 70.4825 93.2544 70.3667 93.133C70.2539 93.0088 70.1 92.9467 69.9053 92.9467C69.7049 92.9467 69.5454 93.0116 69.4269 93.1415C69.3083 93.2685 69.2491 93.4533 69.2491 93.6961V94.9746H68.8681V93.6622C68.8681 93.4308 68.8102 93.2544 68.6945 93.133C68.5816 93.0088 68.4278 92.9467 68.233 92.9467C68.0326 92.9467 67.8732 93.0116 67.7546 93.1415C67.6361 93.2685 67.5768 93.4533 67.5768 93.6961V94.9746H67.1915V92.6546H67.5768V92.9891C67.653 92.8677 67.7546 92.7745 67.8816 92.7096C68.0115 92.6447 68.154 92.6123 68.3092 92.6123C68.504 92.6123 68.6761 92.656 68.8257 92.7435C68.9753 92.831 69.0868 92.9594 69.1602 93.1288C69.2251 92.9651 69.3323 92.8381 69.4819 92.7477C69.6315 92.6574 69.798 92.6123 69.9815 92.6123ZM72.9927 90.9866L71.8327 95.6943H71.4517L72.6075 90.9866H72.9927ZM74.7183 92.6123C74.8933 92.6123 75.0513 92.6504 75.1925 92.7266C75.3336 92.8 75.4437 92.9114 75.5227 93.061C75.6045 93.2106 75.6455 93.3927 75.6455 93.6072V94.9746H75.2644V93.6622C75.2644 93.4308 75.2066 93.2544 75.0909 93.133C74.9751 93.0088 74.8171 92.9467 74.6167 92.9467C74.4135 92.9467 74.2512 93.0102 74.1298 93.1372C74.0113 93.2642 73.952 93.4491 73.952 93.6918V94.9746H73.5668V91.8417H73.952V92.9848C74.0282 92.8663 74.1326 92.7745 74.2653 92.7096C74.4008 92.6447 74.5518 92.6123 74.7183 92.6123ZM76.1308 93.8061C76.1308 93.5691 76.1788 93.3616 76.2748 93.1838C76.3707 93.0032 76.502 92.8635 76.6685 92.7647C76.8378 92.6659 77.0255 92.6165 77.2316 92.6165C77.4348 92.6165 77.6112 92.6602 77.7608 92.7477C77.9104 92.8352 78.0218 92.9453 78.0952 93.078V92.6546H78.4847V94.9746H78.0952V94.5428C78.019 94.6783 77.9047 94.7912 77.7523 94.8815C77.6027 94.969 77.4277 95.0127 77.2273 95.0127C77.0213 95.0127 76.835 94.9619 76.6685 94.8603C76.502 94.7587 76.3707 94.6162 76.2748 94.4327C76.1788 94.2493 76.1308 94.0404 76.1308 93.8061ZM78.0952 93.8104C78.0952 93.6354 78.0599 93.483 77.9894 93.3531C77.9188 93.2233 77.8229 93.1245 77.7015 93.0568C77.583 92.9862 77.4517 92.9509 77.3078 92.9509C77.1638 92.9509 77.0326 92.9848 76.914 93.0526C76.7955 93.1203 76.701 93.2191 76.6304 93.3489C76.5598 93.4787 76.5246 93.6311 76.5246 93.8061C76.5246 93.9839 76.5598 94.1392 76.6304 94.2718C76.701 94.4017 76.7955 94.5019 76.914 94.5724C77.0326 94.6402 77.1638 94.674 77.3078 94.674C77.4517 94.674 77.583 94.6402 77.7015 94.5724C77.8229 94.5019 77.9188 94.4017 77.9894 94.2718C78.0599 94.1392 78.0952 93.9854 78.0952 93.8104ZM79.521 93.0822C79.5972 92.9495 79.7101 92.8395 79.8597 92.752C80.0121 92.6617 80.1885 92.6165 80.3889 92.6165C80.5949 92.6165 80.7812 92.6659 80.9477 92.7647C81.1171 92.8635 81.2497 93.0032 81.3457 93.1838C81.4417 93.3616 81.4896 93.5691 81.4896 93.8061C81.4896 94.0404 81.4417 94.2493 81.3457 94.4327C81.2497 94.6162 81.1171 94.7587 80.9477 94.8603C80.7812 94.9619 80.5949 95.0127 80.3889 95.0127C80.1913 95.0127 80.0163 94.969 79.8639 94.8815C79.7144 94.7912 79.6 94.6797 79.521 94.547V96.0753H79.1358V92.6546H79.521V93.0822ZM81.0959 93.8061C81.0959 93.6311 81.0606 93.4787 80.9901 93.3489C80.9195 93.2191 80.8236 93.1203 80.7022 93.0526C80.5837 92.9848 80.4524 92.9509 80.3085 92.9509C80.1673 92.9509 80.0361 92.9862 79.9147 93.0568C79.7962 93.1245 79.7002 93.2247 79.6269 93.3574C79.5563 93.4872 79.521 93.6382 79.521 93.8104C79.521 93.9854 79.5563 94.1392 79.6269 94.2718C79.7002 94.4017 79.7962 94.5019 79.9147 94.5724C80.0361 94.6402 80.1673 94.674 80.3085 94.674C80.4524 94.674 80.5837 94.6402 80.7022 94.5724C80.8236 94.5019 80.9195 94.4017 80.9901 94.2718C81.0606 94.1392 81.0959 93.9839 81.0959 93.8061ZM82.382 93.0822C82.4582 92.9495 82.5711 92.8395 82.7207 92.752C82.8731 92.6617 83.0495 92.6165 83.2499 92.6165C83.4559 92.6165 83.6422 92.6659 83.8087 92.7647C83.9781 92.8635 84.1107 93.0032 84.2067 93.1838C84.3026 93.3616 84.3506 93.5691 84.3506 93.8061C84.3506 94.0404 84.3026 94.2493 84.2067 94.4327C84.1107 94.6162 83.9781 94.7587 83.8087 94.8603C83.6422 94.9619 83.4559 95.0127 83.2499 95.0127C83.0523 95.0127 82.8773 94.969 82.7249 94.8815C82.5753 94.7912 82.461 94.6797 82.382 94.547V96.0753H81.9967V92.6546H82.382V93.0822ZM83.9569 93.8061C83.9569 93.6311 83.9216 93.4787 83.8511 93.3489C83.7805 93.2191 83.6845 93.1203 83.5632 93.0526C83.4446 92.9848 83.3134 92.9509 83.1695 92.9509C83.0283 92.9509 82.8971 92.9862 82.7757 93.0568C82.6572 93.1245 82.5612 93.2247 82.4878 93.3574C82.4173 93.4872 82.382 93.6382 82.382 93.8104C82.382 93.9854 82.4173 94.1392 82.4878 94.2718C82.5612 94.4017 82.6572 94.5019 82.7757 94.5724C82.8971 94.6402 83.0283 94.674 83.1695 94.674C83.3134 94.674 83.4446 94.6402 83.5632 94.5724C83.6845 94.5019 83.7805 94.4017 83.8511 94.2718C83.9216 94.1392 83.9569 93.9839 83.9569 93.8061ZM86.856 92.6546L85.4589 96.0669H85.0609L85.5182 94.9492L84.5825 92.6546H85.0101L85.7383 94.5343L86.458 92.6546H86.856ZM87.0993 93.8104C87.0993 93.5705 87.1473 93.3616 87.2433 93.1838C87.3392 93.0032 87.4719 92.8635 87.6412 92.7647C87.8134 92.6659 88.0096 92.6165 88.2297 92.6165C88.5148 92.6165 88.749 92.6856 88.9325 92.8239C89.1188 92.9622 89.2415 93.1542 89.3008 93.3997H88.8859C88.8464 93.2586 88.7688 93.1471 88.6531 93.0653C88.5402 92.9834 88.399 92.9425 88.2297 92.9425C88.0096 92.9425 87.8317 93.0187 87.6963 93.1711C87.5608 93.3207 87.4931 93.5338 87.4931 93.8104C87.4931 94.0898 87.5608 94.3057 87.6963 94.4581C87.8317 94.6105 88.0096 94.6867 88.2297 94.6867C88.399 94.6867 88.5402 94.6472 88.6531 94.5682C88.766 94.4892 88.8436 94.3763 88.8859 94.2295H89.3008C89.2387 94.4666 89.1145 94.6571 88.9282 94.801C88.742 94.9422 88.5091 95.0127 88.2297 95.0127C88.0096 95.0127 87.8134 94.9633 87.6412 94.8645C87.4719 94.7658 87.3392 94.626 87.2433 94.4454C87.1473 94.2648 87.0993 94.0531 87.0993 93.8104ZM90.2001 93.0314C90.2678 92.8987 90.3638 92.7957 90.488 92.7223C90.615 92.649 90.7688 92.6123 90.9495 92.6123V93.0102H90.8479C90.416 93.0102 90.2001 93.2445 90.2001 93.713V94.9746H89.8149V92.6546H90.2001V93.0314ZM93.4517 92.6546V94.9746H93.0665V94.6317C92.9931 94.7502 92.8901 94.8434 92.7574 94.9111C92.6276 94.976 92.4836 95.0085 92.3256 95.0085C92.1449 95.0085 91.9827 94.9718 91.8387 94.8984C91.6948 94.8222 91.5805 94.7093 91.4958 94.5597C91.4139 94.4101 91.373 94.2281 91.373 94.0136V92.6546H91.754V93.9628C91.754 94.1914 91.8119 94.3678 91.9276 94.492C92.0433 94.6133 92.2014 94.674 92.4018 94.674C92.6078 94.674 92.7701 94.6105 92.8886 94.4835C93.0072 94.3565 93.0665 94.1716 93.0665 93.9289V92.6546H93.4517ZM96.8921 92.6123C97.0728 92.6123 97.2336 92.6504 97.3748 92.7266C97.5159 92.8 97.6274 92.9114 97.7092 93.061C97.7911 93.2106 97.832 93.3927 97.832 93.6072V94.9746H97.451V93.6622C97.451 93.4308 97.3931 93.2544 97.2774 93.133C97.1645 93.0088 97.0107 92.9467 96.8159 92.9467C96.6155 92.9467 96.4561 93.0116 96.3375 93.1415C96.219 93.2685 96.1597 93.4533 96.1597 93.6961V94.9746H95.7787V93.6622C95.7787 93.4308 95.7208 93.2544 95.6051 93.133C95.4922 93.0088 95.3384 92.9467 95.1437 92.9467C94.9433 92.9467 94.7838 93.0116 94.6653 93.1415C94.5467 93.2685 94.4875 93.4533 94.4875 93.6961V94.9746H94.1022V92.6546H94.4875V92.9891C94.5637 92.8677 94.6653 92.7745 94.7923 92.7096C94.9221 92.6447 95.0646 92.6123 95.2199 92.6123C95.4146 92.6123 95.5868 92.656 95.7364 92.7435C95.886 92.831 95.9974 92.9594 96.0708 93.1288C96.1357 92.9651 96.243 92.8381 96.3926 92.7477C96.5422 92.6574 96.7087 92.6123 96.8921 92.6123ZM98.5867 95C98.5134 95 98.4513 94.9746 98.4005 94.9238C98.3497 94.873 98.3243 94.8109 98.3243 94.7375C98.3243 94.6641 98.3497 94.6021 98.4005 94.5512C98.4513 94.5004 98.5134 94.475 98.5867 94.475C98.6573 94.475 98.7166 94.5004 98.7646 94.5512C98.8154 94.6021 98.8408 94.6641 98.8408 94.7375C98.8408 94.8109 98.8154 94.873 98.7646 94.9238C98.7166 94.9746 98.6573 95 98.5867 95ZM99.4756 95C99.4022 95 99.3401 94.9746 99.2893 94.9238C99.2385 94.873 99.2131 94.8109 99.2131 94.7375C99.2131 94.6641 99.2385 94.6021 99.2893 94.5512C99.3401 94.5004 99.4022 94.475 99.4756 94.475C99.5462 94.475 99.6055 94.5004 99.6534 94.5512C99.7042 94.6021 99.7296 94.6641 99.7296 94.7375C99.7296 94.8109 99.7042 94.873 99.6534 94.9238C99.6055 94.9746 99.5462 95 99.4756 95Z" fill="#F62D2D"/>
<path d="M101.723 85.1543H128.423C130.419 85.1543 131.417 85.1543 132.037 85.7743C132.657 86.3943 132.657 87.3922 132.657 89.3879V98.5607C132.657 100.556 132.657 101.554 132.037 102.174C131.417 102.794 130.419 102.794 128.423 102.794H101.723V85.1543Z" fill="url(#paint2_linear_4606_11210)"/>
<path d="M107.342 96.0593C106.936 96.0593 106.59 95.9708 106.304 95.794C106.018 95.6152 105.799 95.3669 105.646 95.0489C105.496 94.7309 105.42 94.3621 105.42 93.9425C105.42 93.5229 105.496 93.1541 105.646 92.8361C105.799 92.5181 106.018 92.2707 106.304 92.0938C106.59 91.9151 106.936 91.8257 107.342 91.8257C107.811 91.8257 108.199 91.9442 108.505 92.1813C108.814 92.4184 109.028 92.7373 109.149 93.1381L108.55 93.299C108.471 93.0149 108.33 92.7919 108.127 92.6301C107.926 92.4682 107.664 92.3873 107.342 92.3873C107.054 92.3873 106.815 92.4523 106.623 92.5821C106.431 92.7119 106.286 92.8935 106.188 93.1268C106.092 93.3601 106.044 93.632 106.044 93.9425C106.042 94.2529 106.089 94.5248 106.185 94.7582C106.283 94.9915 106.428 95.173 106.62 95.3029C106.814 95.4327 107.054 95.4976 107.342 95.4976C107.664 95.4976 107.926 95.4167 108.127 95.2549C108.33 95.0912 108.471 94.8682 108.55 94.586L109.149 94.7469C109.028 95.1476 108.814 95.4666 108.505 95.7037C108.199 95.9407 107.811 96.0593 107.342 96.0593ZM111.093 96.0593C110.788 96.0593 110.524 95.9906 110.3 95.8532C110.076 95.7159 109.903 95.5268 109.781 95.2859C109.66 95.0432 109.6 94.7638 109.6 94.4477C109.6 94.1297 109.662 93.8503 109.786 93.6094C109.911 93.3667 110.085 93.1786 110.309 93.045C110.532 92.9095 110.794 92.8417 111.093 92.8417C111.398 92.8417 111.662 92.9104 111.886 93.0478C112.11 93.1851 112.283 93.3742 112.406 93.6151C112.528 93.8559 112.589 94.1335 112.589 94.4477C112.589 94.7657 112.527 95.046 112.403 95.2888C112.28 95.5296 112.107 95.7187 111.883 95.8561C111.66 95.9915 111.396 96.0593 111.093 96.0593ZM111.093 95.5033C111.385 95.5033 111.602 95.4054 111.745 95.2097C111.89 95.0122 111.962 94.7582 111.962 94.4477C111.962 94.1297 111.889 93.8757 111.742 93.6856C111.597 93.4937 111.381 93.3978 111.093 93.3978C110.896 93.3978 110.733 93.4429 110.605 93.5332C110.477 93.6217 110.382 93.7449 110.32 93.903C110.258 94.0591 110.227 94.2407 110.227 94.4477C110.227 94.7676 110.3 95.0235 110.447 95.2154C110.594 95.4073 110.809 95.5033 111.093 95.5033ZM114.64 96.0593C114.349 96.0593 114.104 95.9887 113.906 95.8476C113.709 95.7046 113.559 95.5117 113.458 95.269C113.356 95.0263 113.305 94.7525 113.305 94.4477C113.305 94.1429 113.355 93.8691 113.455 93.6264C113.556 93.3836 113.705 93.1927 113.901 93.0534C114.098 92.9123 114.341 92.8417 114.629 92.8417C114.915 92.8417 115.161 92.9123 115.368 93.0534C115.577 93.1927 115.738 93.3836 115.851 93.6264C115.964 93.8672 116.02 94.141 116.02 94.4477C116.02 94.7525 115.964 95.0272 115.851 95.2718C115.74 95.5146 115.581 95.7065 115.374 95.8476C115.169 95.9887 114.924 96.0593 114.64 96.0593ZM113.206 97.3294V92.9264H113.731V95.1194H113.799V97.3294H113.206ZM114.558 95.5258C114.747 95.5258 114.902 95.4779 115.024 95.3819C115.148 95.2859 115.24 95.1571 115.301 94.9952C115.363 94.8315 115.394 94.649 115.394 94.4477C115.394 94.2482 115.363 94.0676 115.301 93.9058C115.24 93.744 115.147 93.6151 115.021 93.5191C114.895 93.4232 114.734 93.3752 114.539 93.3752C114.354 93.3752 114.202 93.4203 114.081 93.5107C113.963 93.601 113.874 93.727 113.816 93.8889C113.76 94.0507 113.731 94.237 113.731 94.4477C113.731 94.6584 113.76 94.8447 113.816 95.0065C113.873 95.1683 113.962 95.2954 114.084 95.3876C114.207 95.4797 114.365 95.5258 114.558 95.5258ZM116.945 97.3294L117.535 95.7234L117.544 96.1976L116.214 92.9264H116.83L117.823 95.4525H117.643L118.591 92.9264H119.189L117.507 97.3294H116.945Z" fill="white"/>
<path d="M126.778 94.2414V95.4762C126.778 96.5052 126.367 96.9168 125.338 96.9168H124.103C123.074 96.9168 122.662 96.5052 122.662 95.4762V94.2414C122.662 93.2124 123.074 92.8008 124.103 92.8008H125.338C126.367 92.8008 126.778 93.2124 126.778 94.2414Z" stroke="white" stroke-width="0.5292" stroke-linecap="round" stroke-linejoin="round"/>
<path d="M128.542 92.4758V93.7106C128.542 94.7396 128.13 95.1512 127.101 95.1512H126.778V94.2398C126.778 93.2108 126.366 92.7992 125.337 92.7992H124.426V92.4758C124.426 91.4468 124.837 91.0352 125.866 91.0352H127.101C128.13 91.0352 128.542 91.4468 128.542 92.4758Z" stroke="white" stroke-width="0.5292" stroke-linecap="round" stroke-linejoin="round"/>
</g>
<defs>
<linearGradient id="paint0_linear_4606_11210" x1="75" y1="-2.6226e-06" x2="75" y2="140" gradientUnits="userSpaceOnUse">
<stop stop-color="#A0C6FF" stop-opacity="0.8"/>
<stop offset="1" stop-color="white"/>
</linearGradient>
<linearGradient id="paint1_linear_4606_11210" x1="58.2041" y1="63.4174" x2="73.287" y2="50.3633" gradientUnits="userSpaceOnUse">
<stop stop-color="#FFDD55"/>
<stop offset="0.5" stop-color="#FF543E"/>
<stop offset="1" stop-color="#C837AB"/>
</linearGradient>
<linearGradient id="paint2_linear_4606_11210" x1="129.564" y1="102.794" x2="99.8852" y2="89.1515" gradientUnits="userSpaceOnUse">
<stop stop-color="#F62D2D"/>
<stop offset="1" stop-color="#FF6161"/>
</linearGradient>
<clipPath id="clip0_4606_11210">
<rect width="10.584" height="10.584" fill="white" transform="translate(20.4668 51.0469)"/>
</clipPath>
<clipPath id="clip1_4606_11210">
<rect width="16.2288" height="16.2288" fill="white" transform="translate(57.1582 48.2246)"/>
</clipPath>
<clipPath id="clip2_4606_11210">
<rect width="10.584" height="10.584" fill="white" transform="translate(119.251 51.0469)"/>
</clipPath>
<clipPath id="clip3_4606_11210">
<rect x="17.6445" y="85.1543" width="115.013" height="17.64" rx="2.8224" fill="white"/>
</clipPath>
<clipPath id="clip4_4606_11210">
<rect width="6.3504" height="6.3504" fill="white" transform="translate(20.4668 90.7988)"/>
</clipPath>
</defs>
</svg>
