<?xml version="1.0" encoding="utf-8"?>
<!-- Generator: Adobe Illustrator 28.2.0, SVG Export Plug-In . SVG Version: 6.00 Build 0)  -->
<svg version="1.1" xmlns="http://www.w3.org/2000/svg" xmlns:xlink="http://www.w3.org/1999/xlink" x="0px" y="0px"
	 viewBox="0 0 350 350" style="enable-background:new 0 0 350 350;" xml:space="preserve">
<style type="text/css">
	.st0{fill:#34495E;}
	.st1{fill:#F2F2F2;}
	.st2{fill:#F62D2D;}
	.st3{fill:#FFCE00;}
	.st4{clip-path:url(#SVGID_00000134930413985089069860000011705026818966621314_);fill:#FFA300;}
	.st5{fill:#7584F2;}
	.st6{fill:#606AEA;}
	.st7{fill:#FFFFFF;}
	.st8{fill:#4855B7;}
	.st9{fill:#344293;}
	.st10{fill:#4B60C6;}
	.st11{fill:#27488F;}
	.st12{fill:#12254C;}
	.st13{fill:url(#SVGID_00000002379224735951263710000002793870452734565560_);}
	.st14{fill:url(#SVGID_00000129195953074172887750000005754155800594230171_);}
</style>
<g id="Layer_1">
</g>
<g id="Layer_2">
	<g>
		<g>
			<g>
				<g>
					<g>
						<g>
							<circle class="st3" cx="175" cy="181.1" r="161.8"/>
						</g>
					</g>
				</g>
			</g>
		</g>
	</g>
	<g id="Layer_4">
		<g>
			<defs>
				<circle id="SVGID_1_" cx="175" cy="181.1" r="161.8"/>
			</defs>
			<clipPath id="SVGID_00000152957154597981800520000011434052597447408768_">
				<use xlink:href="#SVGID_1_"  style="overflow:visible;"/>
			</clipPath>
			<path style="clip-path:url(#SVGID_00000152957154597981800520000011434052597447408768_);fill:#FFA300;" d="M336.8,181.7
				c0-11.2-1.1-22.2-3.2-32.7v0c-3.2-12.2-4.5-25.5-8.9-37.3L299.5,53L75.6,181.1l99,99.3l-92.9,7.9l48.1,48.1
				c14.3,4.2,29.5,6.4,45.2,6.4C263.7,342.9,336.4,270.5,336.8,181.7z"/>
		</g>
	</g>
	<g>
		<path class="st5" d="M81.7,154.3h186.7v134H81.7V154.3z"/>
	</g>
	<g>
		<path class="st6" d="M175,154.3h93.3v134H175V154.3z"/>
	</g>
	<g>
		<path class="st7" d="M218.5,270.7c-20.8,0-37.7-16.9-37.7-37.7c0-20.8,16.9-37.7,37.7-37.7c7.6,0,14.9,2.2,21.1,6.5l-10,14.9
			c-3.3-2.2-7.1-3.4-11.1-3.4c-10.9,0-19.8,8.9-19.8,19.8s8.9,19.8,19.8,19.8c7.7,0,14.4-4.4,17.7-10.9h-13.4V224h33.4v9
			C256.2,253.7,239.3,270.7,218.5,270.7L218.5,270.7z"/>
	</g>
	<g>
		<path class="st8" d="M175,154.3l-26.9,4.9l-26.9-4.9l5.5-77.5h52.6L175,154.3z"/>
	</g>
	<g>
		<path class="st9" d="M148.1,188.6c-14.9,0-26.9-12.1-26.9-26.9v-7.4H175v7.4C175,176.6,162.9,188.6,148.1,188.6L148.1,188.6z"/>
	</g>
	<g>
		<path class="st5" d="M121.2,154.3l-26.1,4.1l-27.7-4.1l21.2-77.5H130L121.2,154.3z"/>
	</g>
	<g>
		<path class="st10" d="M94.2,188.6c-14.9,0-26.9-12.1-26.9-26.9v-7.4h53.8v7.4C121.2,176.6,109.1,188.6,94.2,188.6z"/>
	</g>
	<g>
		<path class="st6" d="M175,154.3l26.9,4.1l26.9-4.1l-5.3-77.5H175L175,154.3z"/>
	</g>
	<g>
		<path class="st8" d="M201.9,188.6c14.9,0,26.9-12.1,26.9-26.9v-7.4H175v7.4C175,176.6,187.1,188.6,201.9,188.6z"/>
	</g>
	<g>
		<path class="st11" d="M228.8,154.3l28.9,4.1l25-4.1l-21.2-77.5H220L228.8,154.3z"/>
	</g>
	<g>
		<path class="st12" d="M255.8,188.6c14.9,0,26.9-12.1,26.9-26.9v-7.4h-53.8v7.4C228.8,176.6,240.9,188.6,255.8,188.6z"/>
	</g>
</g>
<g id="Layer_5">
</g>
<g id="Layer_3">
	<g>
		<g>
			<circle class="st7" cx="275.8" cy="68.6" r="62"/>
			
				<linearGradient id="SVGID_00000111872192207873246140000015946974780294589092_" gradientUnits="userSpaceOnUse" x1="218.5043" y1="68.56" x2="333.1377" y2="68.56">
				<stop  offset="0" style="stop-color:#FFE61C"/>
				<stop  offset="1" style="stop-color:#FFA929"/>
			</linearGradient>
			<path style="fill:url(#SVGID_00000111872192207873246140000015946974780294589092_);" d="M275.8,125.9
				c31.6,0,57.3-25.7,57.3-57.3s-25.7-57.3-57.3-57.3S218.5,37,218.5,68.6S244.2,125.9,275.8,125.9z M275.8,22.3
				c25.5,0,46.2,20.7,46.2,46.2s-20.7,46.2-46.2,46.2S229.6,94,229.6,68.6S250.3,22.3,275.8,22.3z"/>
		</g>
		
			<linearGradient id="SVGID_00000067205272451228921840000002557403677027622566_" gradientUnits="userSpaceOnUse" x1="13.8822" y1="349.2513" x2="13.8822" y2="346.4149" gradientTransform="matrix(21.3333 0 0 -21.3333 -20.3333 7489)">
			<stop  offset="0" style="stop-color:#FFE61C"/>
			<stop  offset="1" style="stop-color:#FFA929"/>
		</linearGradient>
		<path style="fill:url(#SVGID_00000067205272451228921840000002557403677027622566_);" d="M275.8,90.5L261,98.3
			c-3.2,1.7-6.9-1-6.3-4.6l2.8-16.5l-12-11.7c-2.6-2.5-1.2-6.9,2.4-7.4l16.6-2.4l7.4-15c1.6-3.2,6.2-3.2,7.8,0l7.4,15l16.6,2.4
			c3.6,0.5,5,4.9,2.4,7.4l-12,11.7l2.8,16.5c0.6,3.6-3.1,6.3-6.3,4.6L275.8,90.5z"/>
	</g>
</g>
</svg>
