<svg width="24" height="24" viewBox="0 0 24 24" fill="none" xmlns="http://www.w3.org/2000/svg">
<path d="M11.7454 14.5885C11.7432 14.5885 11.7409 14.5885 11.7387 14.5885C11.3247 14.5848 10.9917 14.2462 10.9954 13.8318L10.9988 13.4568C10.9988 13.4354 10.9999 13.4137 11.0022 13.3923C11.106 12.3014 11.8302 11.6328 12.4125 11.0954C12.6098 10.9132 12.7965 10.741 12.9555 10.5614C13.1494 10.3428 13.4307 9.89504 13.1348 9.35466C12.7939 8.73066 11.9614 8.55404 11.3145 8.70216C10.6388 8.85666 10.3898 9.43378 10.3013 9.76379C10.194 10.1639 9.78265 10.4013 9.38253 10.2944C8.9824 10.1872 8.74503 9.77579 8.8519 9.37566C9.15078 8.25929 9.92628 7.48116 10.9793 7.24004C12.3964 6.91641 13.8237 7.48904 14.4503 8.63466C14.9719 9.58866 14.829 10.708 14.0772 11.5563C13.8683 11.7918 13.6452 11.998 13.4292 12.1972C12.891 12.694 12.5547 13.0263 12.4977 13.5059L12.4947 13.8445C12.4917 14.2574 12.1564 14.5885 11.7454 14.5885Z" fill="#02060C" fill-opacity="0.8"/>
<path d="M11.745 16.8384C11.55 16.8384 11.355 16.7597 11.2163 16.6209C11.0738 16.4822 10.995 16.2872 10.995 16.0884C10.995 15.8934 11.0738 15.6984 11.2163 15.5597C11.4938 15.2822 11.9963 15.2822 12.2738 15.5597C12.4163 15.6984 12.495 15.8934 12.495 16.0884C12.495 16.2872 12.4163 16.4784 12.2775 16.6209C12.135 16.7597 11.9438 16.8384 11.745 16.8384Z" fill="#02060C" fill-opacity="0.8"/>
<path d="M11.9711 21.749C11.118 21.749 10.2724 21.638 9.45751 21.4187C5.94601 20.474 3.19652 17.5652 2.45289 14.0075C1.69502 10.3832 3.09377 6.57317 6.01689 4.30105C7.70664 2.98742 9.83776 2.26367 12.018 2.26367C13.5274 2.26367 15.0263 2.61467 16.353 3.27805C19.6294 4.91717 21.7463 8.34167 21.7463 12.0028C21.7463 14.99 20.3366 17.8693 17.9756 19.7045C16.2799 21.023 14.1473 21.749 11.9711 21.749ZM12.0184 3.76367C10.17 3.76367 8.36551 4.37492 6.93789 5.4853C4.46402 7.4083 3.27976 10.6329 3.92139 13.7004C4.55064 16.7098 6.87676 19.1709 9.84752 19.97C10.5353 20.1549 11.25 20.249 11.9711 20.249C13.8154 20.249 15.621 19.6352 17.0554 18.5203C19.0538 16.967 20.2466 14.5307 20.2466 12.0028C20.2466 8.90492 18.4553 6.00692 15.6825 4.6198C14.5628 4.05992 13.296 3.76367 12.0184 3.76367Z" fill="#02060C" fill-opacity="0.8"/>
</svg>
