<svg width="101" height="101" viewBox="0 0 101 101" fill="none" xmlns="http://www.w3.org/2000/svg">
<rect x="0.5" y="0.5" width="100" height="100" rx="14" fill="#F2F4F7"/>
<g clip-path="url(#clip0_3340_37778)">
<path d="M76.4091 45.3271H24.5909C22.3327 45.3271 20.5 46.8913 20.5 48.8186V51.1461C20.5 53.0733 22.3327 54.6375 24.5909 54.6375H76.4091C78.6673 54.6375 80.5 53.0733 80.5 51.1461V48.8186C80.5 46.8913 78.6673 45.3271 76.4091 45.3271Z" fill="#4CAF50"/>
<path d="M45.3276 24.5909V76.4091C45.3276 78.6673 46.8917 80.5 48.819 80.5H51.1465C53.0738 80.5 54.6379 78.6673 54.6379 76.4091V24.5909C54.6379 22.3327 53.0738 20.5 51.1465 20.5H48.819C46.8917 20.5 45.3276 22.3327 45.3276 24.5909Z" fill="#4CAF50"/>
</g>
<defs>
<clipPath id="clip0_3340_37778">
<rect width="60" height="60" fill="white" transform="translate(20.5 20.5)"/>
</clipPath>
</defs>
</svg>
