<svg width="29" height="21" viewBox="0 0 29 21" fill="none" xmlns="http://www.w3.org/2000/svg">
<path d="M25.4566 0.000976562H3.54343C1.86259 0.000976562 0.5 1.46998 0.5 3.28209V17.7193C0.5 19.5314 1.86259 21.0004 3.54343 21.0004H25.4566C27.1374 21.0004 28.5 19.5314 28.5 17.7193V3.28209C28.5 1.46998 27.1374 0.000976562 25.4566 0.000976562Z" fill="#566FF8"/>
<path d="M18.7609 17.7189H16.3261C16.2454 17.7202 16.1652 17.7042 16.0903 17.6718C16.0154 17.6394 15.9472 17.5913 15.8896 17.5302C15.8321 17.4692 15.7864 17.3964 15.7552 17.3161C15.7241 17.2358 15.708 17.1496 15.708 17.0626C15.708 16.9756 15.7241 16.8894 15.7552 16.8091C15.7864 16.7288 15.8321 16.656 15.8896 16.5949C15.9472 16.5339 16.0154 16.4857 16.0903 16.4534C16.1652 16.421 16.2454 16.405 16.3261 16.4063H18.7609C18.9207 16.409 19.0732 16.4793 19.1854 16.6021C19.2975 16.7248 19.3604 16.8903 19.3604 17.0626C19.3604 17.2349 19.2975 17.4003 19.1854 17.5231C19.0732 17.6459 18.9207 17.7162 18.7609 17.7189Z" fill="white"/>
<path d="M24.2393 17.7188H21.8046C21.6447 17.7162 21.4923 17.6458 21.3801 17.5231C21.2679 17.4003 21.2051 17.2349 21.2051 17.0625C21.2051 16.8902 21.2679 16.7248 21.3801 16.602C21.4923 16.4792 21.6447 16.4089 21.8046 16.4062H24.2393C24.3992 16.4089 24.5516 16.4792 24.6638 16.602C24.7759 16.7248 24.8388 16.8902 24.8388 17.0625C24.8388 17.2349 24.7759 17.4003 24.6638 17.5231C24.5516 17.6458 24.3992 17.7162 24.2393 17.7188Z" fill="white"/>
<path d="M28.4999 3.28173V17.7183C28.4999 18.5886 28.1792 19.4234 27.6083 20.0388C27.0375 20.6542 26.2632 21 25.4559 21H20.9096C11.5964 19.1357 4.52956 10.4615 4.39551 0H25.4565C26.2637 0.00016343 27.0378 0.345988 27.6085 0.961414C28.1793 1.57684 28.4999 2.41147 28.4999 3.28173Z" fill="#6C95F8"/>
<path d="M28.5003 3.2816V10.2179C28.2994 10.231 28.0926 10.2376 27.8917 10.2376C24.9792 10.2455 22.1392 9.25928 19.7785 7.42033C17.4178 5.58139 15.6576 2.98406 14.75 0.000488281H25.4569C26.264 0.000651675 27.038 0.346392 27.6088 0.961685C28.1795 1.57698 28.5002 2.41145 28.5003 3.2816Z" fill="#8FB6F8"/>
<path d="M9.63016 14.4379C9.62967 14.6118 9.56539 14.7784 9.45135 14.9014C9.33732 15.0244 9.18279 15.0937 9.0215 15.0943H4.76061C4.60078 15.0916 4.44832 15.0213 4.33616 14.8985C4.224 14.7758 4.16113 14.6103 4.16113 14.438C4.16113 14.2657 4.224 14.1003 4.33616 13.9775C4.44832 13.8547 4.60078 13.7844 4.76061 13.7817H9.0215C9.12885 13.782 9.23407 13.814 9.32576 13.8742L9.33176 13.8808C9.44159 13.9487 9.5289 14.052 9.58143 14.1762C9.57542 14.1826 9.58143 14.1826 9.58143 14.1826C9.61331 14.2634 9.62988 14.3502 9.63016 14.4379Z" fill="#C6E5FF"/>
<path d="M12.6736 17.0624C12.6759 17.098 12.6718 17.1337 12.6614 17.1675C12.6405 17.3216 12.5686 17.4622 12.4589 17.5636C12.3493 17.6649 12.2093 17.72 12.0649 17.7188H4.76061C4.60078 17.7162 4.44832 17.6458 4.33616 17.5231C4.224 17.4003 4.16113 17.2349 4.16113 17.0625C4.16113 16.8902 4.224 16.7248 4.33616 16.602C4.44832 16.4792 4.60078 16.4089 4.76061 16.4062H12.0649C12.2262 16.4068 12.3807 16.4761 12.4948 16.599C12.6088 16.722 12.6731 16.8886 12.6736 17.0624Z" fill="#C6E5FF"/>
<path d="M11.4567 5.25056V9.18848C11.4557 9.53627 11.3272 9.86953 11.099 10.1155C10.8709 10.3614 10.5618 10.5 10.2392 10.501H5.36966C5.04707 10.5 4.73797 10.3614 4.50988 10.1155C4.28179 9.86952 4.15325 9.53626 4.15234 9.18848V5.25056C4.15247 5.01054 4.21388 4.7752 4.32984 4.57032C4.44579 4.36544 4.61182 4.19892 4.80973 4.08901C4.98156 3.98852 5.17419 3.93657 5.36966 3.93802H10.2392C10.5618 3.93899 10.871 4.07759 11.0991 4.32353C11.3272 4.56947 11.4558 4.90275 11.4567 5.25056Z" fill="#C6E5FF"/>
<path d="M9.5817 14.1752C9.49666 14.0768 9.41135 13.9783 9.33203 13.8799C9.44186 13.9478 9.52917 14.0511 9.5817 14.1752Z" fill="#FEEC88"/>
<path d="M11.4565 5.25038V9.1883C11.4556 9.53609 11.327 9.86935 11.0989 10.1153C10.8708 10.3612 10.5616 10.4998 10.239 10.5008H7.08586C6.01037 8.51021 5.24162 6.34463 4.80957 4.08852C4.98139 3.98803 5.17402 3.93608 5.3695 3.93753H10.239C10.5617 3.93851 10.8709 4.07715 11.099 4.32315C11.3272 4.56915 11.4557 4.90252 11.4565 5.25038Z" fill="#EAF7FF"/>
<path d="M12.6738 17.0624C12.6762 17.098 12.672 17.1337 12.6617 17.1675C12.3514 16.9247 12.0471 16.6753 11.7549 16.4062H12.0651C12.2264 16.4068 12.3809 16.4761 12.495 16.599C12.609 16.722 12.6733 16.8886 12.6738 17.0624Z" fill="#EAF7FF"/>
</svg>
