<svg width="40" height="40" viewBox="0 0 40 40" fill="none" xmlns="http://www.w3.org/2000/svg">
<g clip-path="url(#clip0_3340_39872)">
<path opacity="0.15" d="M26.6236 8.20667C25.7124 8.20578 24.8387 7.84343 24.1944 7.19912C23.55 6.5548 23.1877 5.68118 23.1869 4.77V0H7.83021C6.64071 0 5.49995 0.472523 4.65884 1.31362C3.81774 2.15472 3.34521 3.2955 3.34521 4.485V31.5217C3.34698 32.71 3.82029 33.849 4.66119 34.6887C5.5021 35.5283 6.64186 36 7.83021 36H26.2652C27.4539 36 28.5939 35.5282 29.4349 34.6882C30.2757 33.8482 30.7489 32.7087 30.7502 31.52V8.20667H26.6236Z" fill="#86909A"/>
<path d="M30.7503 8.20667H26.6237C25.7125 8.20578 24.8388 7.84343 24.1945 7.19912C23.5502 6.5548 23.1878 5.68118 23.187 4.77V0L30.7503 8.20667Z" fill="#86909A"/>
<path d="M34.002 28.4336H13.162C11.6837 28.4336 10.4854 29.6319 10.4854 31.1103V37.3236C10.4854 38.8019 11.6837 40.0003 13.162 40.0003H34.002C35.4804 40.0003 36.6787 38.8019 36.6787 37.3236V31.1103C36.6787 29.6319 35.4804 28.4336 34.002 28.4336Z" fill="#86909A"/>
<path d="M16.0089 37.4998C15.7709 37.4998 15.6519 37.3808 15.6519 37.1428V32.0938C15.6519 31.8558 15.7709 31.7368 16.0089 31.7368C16.1647 31.7368 16.295 31.8133 16.3999 31.9663L18.4059 34.9838L18.2529 35.0093L20.2758 31.9663C20.3721 31.8133 20.5166 31.7368 20.7093 31.7368C20.902 31.7368 20.9983 31.8558 20.9983 32.0938V37.1428C20.9983 37.3808 20.8793 37.4998 20.6413 37.4998C20.4033 37.4998 20.2843 37.3808 20.2843 37.1428V32.8078L20.5053 32.8843L18.7204 35.5108C18.6155 35.6638 18.471 35.7403 18.2869 35.7403C18.1594 35.7403 18.0432 35.6638 17.9384 35.5108L16.1534 32.8843L16.3659 32.9438V37.1428C16.3659 37.3808 16.2469 37.4998 16.0089 37.4998Z" fill="white"/>
<path d="M23.1226 37.4998C22.8846 37.4998 22.7656 37.3808 22.7656 37.1428V32.0938C22.7656 31.8558 22.8846 31.7368 23.1226 31.7368H25.1116C25.6301 31.7368 26.0268 31.8757 26.3016 32.1533C26.5793 32.4282 26.7181 32.8248 26.7181 33.3433V33.5983C26.7181 34.1168 26.5793 34.5148 26.3016 34.7925C26.0268 35.0673 25.6301 35.2048 25.1116 35.2048H23.4796V37.1428C23.4796 37.3808 23.3606 37.4998 23.1226 37.4998ZM23.4796 34.4908H25.1116C25.4346 34.4908 25.6641 34.4228 25.8001 34.2868C25.9361 34.1508 26.0041 33.9213 26.0041 33.5983V33.3433C26.0041 33.0232 25.9361 32.795 25.8001 32.659C25.6641 32.5202 25.4346 32.4508 25.1116 32.4508H23.4796V34.4908Z" fill="white"/>
<path d="M29.0215 37.4998C28.5257 37.4998 28.1419 37.3963 27.8699 37.1895C27.6007 36.9798 27.4377 36.6583 27.381 36.2248C27.3697 36.1058 27.3952 36.0137 27.4575 35.9485C27.5199 35.8833 27.6105 35.8508 27.7295 35.8508C27.9477 35.8508 28.0695 35.9698 28.095 36.2078C28.1347 36.4288 28.224 36.5803 28.3629 36.6625C28.5017 36.7446 28.7212 36.7858 29.0215 36.7858H29.9905C30.356 36.7858 30.604 36.7206 30.7344 36.5903C30.8675 36.4571 30.934 36.2107 30.934 35.8508C30.934 35.4938 30.8675 35.2487 30.7344 35.1155C30.604 34.9823 30.356 34.9158 29.9905 34.9158H29.336C29.098 34.9158 28.979 34.7968 28.979 34.5588C28.979 34.3208 29.098 34.2018 29.336 34.2018H30.3135C30.492 34.2018 30.6167 34.1225 30.6875 33.9638C30.7612 33.8023 30.798 33.5841 30.798 33.3093C30.798 32.9721 30.7372 32.7455 30.6154 32.6293C30.4964 32.5103 30.271 32.4508 29.9395 32.4508H29.115C28.8487 32.4508 28.6519 32.4862 28.5244 32.557C28.3969 32.6278 28.316 32.7596 28.282 32.9523C28.248 33.1846 28.1234 33.3008 27.908 33.3008C27.789 33.3008 27.6984 33.2696 27.636 33.2073C27.5737 33.1421 27.551 33.0486 27.568 32.9268C27.6247 32.5273 27.7805 32.2298 28.0355 32.0343C28.2934 31.836 28.6532 31.7368 29.115 31.7368H29.9395C30.4722 31.7368 30.8675 31.8657 31.1254 32.1235C31.3832 32.3813 31.512 32.7766 31.512 33.3093C31.512 33.8335 31.3647 34.2046 31.07 34.4228C31.2655 34.5503 31.41 34.7317 31.5035 34.9668C31.5999 35.202 31.648 35.4967 31.648 35.8508C31.648 36.4118 31.5135 36.8268 31.2444 37.096C30.9752 37.3651 30.5572 37.4998 29.9905 37.4998H29.0215Z" fill="white"/>
<path d="M23.3832 21.9867H21.5582V14.6101C21.5582 14.363 21.46 14.126 21.2853 13.9513C21.1105 13.7766 20.8737 13.6784 20.6265 13.6784H15.9598C15.8375 13.6784 15.7163 13.7025 15.6033 13.7493C15.4903 13.7962 15.3875 13.8648 15.301 13.9513C15.2145 14.0378 15.1459 14.1405 15.0991 14.2536C15.0523 14.3666 15.0282 14.4877 15.0282 14.6101V21.9867H13.1948V13.9868C13.1948 13.706 13.2502 13.428 13.3576 13.1687C13.4651 12.9094 13.6226 12.6737 13.8212 12.4753C14.0198 12.2769 14.2556 12.1195 14.515 12.0123C14.7744 11.905 15.0524 11.8499 15.3332 11.8501H21.2498C21.8165 11.8501 22.36 12.0752 22.7607 12.4759C23.1613 12.8766 23.3865 13.4201 23.3865 13.9868L23.3832 21.9867Z" fill="#86909A"/>
<path d="M21.22 24.1499C22.4148 24.1499 23.3833 23.1814 23.3833 21.9866C23.3833 20.7917 22.4148 19.8232 21.22 19.8232C20.0251 19.8232 19.0566 20.7917 19.0566 21.9866C19.0566 23.1814 20.0251 24.1499 21.22 24.1499Z" fill="#86909A"/>
<path d="M12.8748 24.1499C14.0695 24.1499 15.0381 23.1814 15.0381 21.9866C15.0381 20.7917 14.0695 19.8232 12.8748 19.8232C11.68 19.8232 10.7114 20.7917 10.7114 21.9866C10.7114 23.1814 11.68 24.1499 12.8748 24.1499Z" fill="#86909A"/>
</g>
<defs>
<clipPath id="clip0_3340_39872">
<rect width="40" height="40" fill="white"/>
</clipPath>
</defs>
</svg>
