<svg width="54" height="54" viewBox="0 0 54 54" fill="none" xmlns="http://www.w3.org/2000/svg">
<path d="M53.9378 25.2988V42.4671C54.1001 43.9169 53.9437 45.3859 53.4804 46.7642C53.0171 48.1425 52.2589 49.3945 51.2624 50.4265C50.2659 51.4585 49.0571 52.2438 47.7262 52.7236C46.3954 53.2034 44.977 53.3654 43.5771 53.1973H10.4229C9.02304 53.3654 7.60464 53.2034 6.27378 52.7236C4.94292 52.2438 3.73405 51.4585 2.7376 50.4265C1.74114 49.3945 0.982904 48.1425 0.519597 46.7642C0.0562903 45.3859 -0.100089 43.9169 0.062157 42.4671V13.8533C-0.100089 12.4036 0.0562903 10.9346 0.519597 9.55625C0.982904 8.17793 1.74114 6.92595 2.7376 5.89396C3.73405 4.86197 4.94292 4.07669 6.27378 3.59686C7.60464 3.11703 9.02304 2.95507 10.4229 3.1231H29.7629C30.3124 3.1231 30.8395 3.3492 31.2281 3.75166C31.6167 4.15412 31.835 4.69998 31.835 5.26914C31.835 5.83831 31.6167 6.38416 31.2281 6.78662C30.8395 7.18908 30.3124 7.41518 29.7629 7.41518H10.4229C6.06584 7.41518 4.20644 9.34089 4.20644 13.8533V40.3211L11.2241 33.0532C11.7457 32.5171 12.4508 32.2163 13.1857 32.2163C13.9206 32.2163 14.6257 32.5171 15.1473 33.0532L17.7444 35.7429C18.0027 36.005 18.3498 36.1519 18.7114 36.1519C19.073 36.1519 19.4202 36.005 19.6784 35.7429L33.3269 21.6077C33.8486 21.0716 34.5537 20.7707 35.2886 20.7707C36.0234 20.7707 36.7285 21.0716 37.2502 21.6077L49.7936 34.5983V25.2988C49.7936 24.7297 50.0119 24.1838 50.4005 23.7814C50.7891 23.3789 51.3161 23.1528 51.8657 23.1528C52.4153 23.1528 52.9423 23.3789 53.3309 23.7814C53.7195 24.1838 53.9378 24.7297 53.9378 25.2988ZM15.9292 15.9993C15.0119 16.002 14.1332 16.3816 13.4859 17.0548C12.8386 17.7279 12.4758 18.6396 12.4771 19.5896C12.4783 20.5397 12.8436 21.4503 13.4927 22.1216C14.1418 22.7929 15.0216 23.17 15.9389 23.17C16.8562 23.17 17.736 22.7929 18.3851 22.1216C19.0342 21.4503 19.3995 20.5397 19.4008 19.5896C19.402 18.6396 19.0392 17.7279 18.3919 17.0548C17.7447 16.3816 16.8659 16.002 15.9486 15.9993H15.9292ZM40.8143 10.2766H44.2678V13.8533C44.2678 14.4225 44.4862 14.9683 44.8748 15.3708C45.2634 15.7732 45.7904 15.9993 46.34 15.9993C46.8896 15.9993 47.4166 15.7732 47.8052 15.3708C48.1938 14.9683 48.4121 14.4225 48.4121 13.8533V10.2766H51.8657C52.4153 10.2766 52.9423 10.0505 53.3309 9.64801C53.7195 9.24555 53.9378 8.69969 53.9378 8.13053C53.9378 7.56136 53.7195 7.01551 53.3309 6.61305C52.9423 6.21059 52.4153 5.98449 51.8657 5.98449H48.4121V2.40776C48.4121 1.83859 48.1938 1.29274 47.8052 0.890279C47.4166 0.487818 46.8896 0.261719 46.34 0.261719C45.7904 0.261719 45.2634 0.487818 44.8748 0.890279C44.4862 1.29274 44.2678 1.83859 44.2678 2.40776V5.98449H40.8143C40.2647 5.98449 39.7377 6.21059 39.3491 6.61305C38.9604 7.01551 38.7421 7.56136 38.7421 8.13053C38.7421 8.69969 38.9604 9.24555 39.3491 9.64801C39.7377 10.0505 40.2647 10.2766 40.8143 10.2766Z" fill="#5C7169"/>
</svg>
