<svg width="34" height="34" viewBox="0 0 34 34" fill="none" xmlns="http://www.w3.org/2000/svg">
<path fill-rule="evenodd" clip-rule="evenodd" d="M8.7124 0H20.0797L29.7139 10.042V29.5737C29.7139 32.0205 27.7344 34 25.2961 34H8.7124C6.26564 34 4.28613 32.0205 4.28613 29.5737V4.42627C4.28609 1.9795 6.26559 0 8.7124 0Z" fill="#86909A"/>
<path opacity="0.302" fill-rule="evenodd" clip-rule="evenodd" d="M20.0713 0V9.96552H29.714L20.0713 0Z" fill="white"/>
<path d="M9.20508 25.3681V19.1577H11.8473C12.5014 19.1577 13.0197 19.3361 13.4105 19.7014C13.8013 20.0583 13.9967 20.5425 13.9967 21.1457C13.9967 21.7489 13.8013 22.2332 13.4105 22.59C13.0197 22.9553 12.5014 23.1337 11.8473 23.1337H10.7938V25.3681H9.20508ZM10.7938 21.7829H11.6689C11.9067 21.7829 12.0936 21.7319 12.2211 21.613C12.3485 21.5026 12.4165 21.3496 12.4165 21.1458C12.4165 20.9419 12.3486 20.7889 12.2211 20.6785C12.0937 20.5595 11.9068 20.5086 11.6689 20.5086H10.7938V21.7829ZM14.6509 25.3681V19.1577H16.8512C17.2845 19.1577 17.6923 19.2172 18.0746 19.3446C18.4569 19.472 18.8053 19.6505 19.1111 19.8969C19.417 20.1347 19.6633 20.4576 19.8417 20.8654C20.0116 21.2732 20.1051 21.7404 20.1051 22.2672C20.1051 22.7854 20.0117 23.2527 19.8417 23.6605C19.6633 24.0683 19.417 24.3911 19.1111 24.629C18.8052 24.8753 18.4569 25.0537 18.0746 25.1812C17.6923 25.3086 17.2845 25.3681 16.8512 25.3681H14.6509ZM16.2056 24.0173H16.6643C16.9107 24.0173 17.1401 23.9918 17.3525 23.9323C17.5564 23.8729 17.7518 23.7794 17.9387 23.652C18.1171 23.5246 18.2615 23.3461 18.3635 23.1083C18.4654 22.8704 18.5164 22.59 18.5164 22.2672C18.5164 21.9358 18.4654 21.6555 18.3635 21.4176C18.2615 21.1797 18.1171 21.0013 17.9387 20.8739C17.7518 20.7465 17.5564 20.653 17.3525 20.5935C17.1401 20.5341 16.9107 20.5086 16.6643 20.5086H16.2056V24.0173ZM20.9037 25.3681V19.1577H25.3215V20.5086H22.4924V21.5025H24.7523V22.8449H22.4924V25.3681H20.9037Z" fill="white"/>
</svg>
