<svg width="46" height="46" viewBox="0 0 46 46" fill="none" xmlns="http://www.w3.org/2000/svg">
<g clip-path="url(#clip0_55_1552)">
<path d="M2.87506 3.12925C-0.739777 6.884 5.6386e-05 10.8726 5.6386e-05 22.9898C5.6386e-05 33.0523 -1.75561 43.1397 7.43289 45.5144C10.3021 46.2523 35.7248 46.2523 38.5902 45.5106C42.4159 44.5235 45.5286 41.4204 45.9541 36.0097C46.0135 35.2545 46.0135 10.7384 45.9521 9.96792C45.4998 4.2045 41.9521 0.882919 37.2773 0.210169C36.2059 0.0549195 35.9912 0.00891948 30.4942 -0.000663847C10.996 0.00891948 6.72181 -0.859331 2.87506 3.12925Z" fill="url(#paint0_linear_55_1552)"/>
<path d="M22.9961 6.01639C16.0367 6.01639 9.42805 5.39731 6.9038 11.8756C5.86114 14.5513 6.01255 18.0262 6.01255 23.0019C6.01255 27.3681 5.87264 31.4716 6.9038 34.1262C9.4223 40.6084 16.0846 39.9874 22.9923 39.9874C29.6566 39.9874 36.5278 40.6812 39.0827 34.1262C40.1273 31.4237 39.974 28.0006 39.974 23.0019C39.974 16.3664 40.3401 12.0826 37.122 8.86647C33.8636 5.60814 29.4572 6.01639 22.9885 6.01639H22.9961ZM21.4743 9.07731C35.9911 9.05431 37.8388 7.44048 36.8191 29.8597C36.4569 37.789 30.4194 36.9188 22.9981 36.9188C9.46639 36.9188 9.0773 36.5316 9.0773 22.9942C9.0773 9.29964 10.1506 9.08498 21.4743 9.07348V9.07731ZM32.062 11.8967C30.9369 11.8967 30.0246 12.8091 30.0246 13.9341C30.0246 15.0592 30.9369 15.9716 32.062 15.9716C33.1871 15.9716 34.0994 15.0592 34.0994 13.9341C34.0994 12.8091 33.1871 11.8967 32.062 11.8967ZM22.9961 14.2791C18.1796 14.2791 14.2753 18.1853 14.2753 23.0019C14.2753 27.8185 18.1796 31.7227 22.9961 31.7227C27.8127 31.7227 31.7151 27.8185 31.7151 23.0019C31.7151 18.1853 27.8127 14.2791 22.9961 14.2791ZM22.9961 17.3401C30.4807 17.3401 30.4903 28.6637 22.9961 28.6637C15.5135 28.6637 15.502 17.3401 22.9961 17.3401Z" fill="white"/>
</g>
<defs>
<linearGradient id="paint0_linear_55_1552" x1="2.96326" y1="43.0613" x2="45.7154" y2="6.05979" gradientUnits="userSpaceOnUse">
<stop stop-color="#FFDD55"/>
<stop offset="0.5" stop-color="#FF543E"/>
<stop offset="1" stop-color="#C837AB"/>
</linearGradient>
<clipPath id="clip0_55_1552">
<rect width="46" height="46" fill="white"/>
</clipPath>
</defs>
</svg>
