<svg width="29" height="28" viewBox="0 0 29 28" fill="none" xmlns="http://www.w3.org/2000/svg">
<path d="M11.6652 21.9563C11.4435 21.9563 11.2218 21.8746 11.0468 21.6996L3.96518 14.618C3.62684 14.2796 3.62684 13.7196 3.96518 13.3813L11.0468 6.29965C11.3852 5.96132 11.9452 5.96132 12.2835 6.29965C12.6218 6.63798 12.6218 7.19798 12.2835 7.53631L5.82018 13.9996L12.2835 20.463C12.6218 20.8013 12.6218 21.3613 12.2835 21.6996C12.1202 21.8746 11.8868 21.9563 11.6652 21.9563Z" fill="#171717"/>
<path d="M24.4167 14.875H4.78174C4.3034 14.875 3.90674 14.4783 3.90674 14C3.90674 13.5217 4.3034 13.125 4.78174 13.125H24.4167C24.8951 13.125 25.2917 13.5217 25.2917 14C25.2917 14.4783 24.8951 14.875 24.4167 14.875Z" fill="#171717"/>
</svg>
