<svg width="28" height="28" viewBox="0 0 28 28" fill="none" xmlns="http://www.w3.org/2000/svg">
<path d="M11.1647 21.9567C10.943 21.9567 10.7214 21.875 10.5464 21.7L3.46469 14.6183C3.12635 14.28 3.12635 13.72 3.46469 13.3817L10.5464 6.30001C10.8847 5.96168 11.4447 5.96168 11.783 6.30001C12.1214 6.63835 12.1214 7.19835 11.783 7.53668L5.31969 14L11.783 20.4633C12.1214 20.8017 12.1214 21.3617 11.783 21.7C11.6197 21.875 11.3864 21.9567 11.1647 21.9567Z" fill="white"/>
<path d="M23.9162 14.875H4.28125C3.80292 14.875 3.40625 14.4783 3.40625 14C3.40625 13.5217 3.80292 13.125 4.28125 13.125H23.9162C24.3946 13.125 24.7912 13.5217 24.7912 14C24.7912 14.4783 24.3946 14.875 23.9162 14.875Z" fill="white"/>
</svg>
