<svg width="46" height="46" viewBox="0 0 46 46" fill="none" xmlns="http://www.w3.org/2000/svg">
<rect width="46" height="46" rx="8" fill="#0077B5"/>
<path d="M17.64 32.3597H13.64V18.9996H17.64V32.3597ZM32.36 32.3597H28.36V25.2397C28.36 23.3196 27.64 22.4396 26.36 22.4396C25.32 22.4396 24.68 22.9197 24.36 23.9597V32.3597H20.36C20.36 32.3597 20.36 20.3597 20.36 18.9996H23.48L23.72 21.6396H23.8C24.6 20.3596 25.96 19.3996 27.72 19.3996C29.08 19.3996 30.2 19.7997 31.08 20.7597C31.88 21.7197 32.36 22.9997 32.36 24.8397V32.3597ZM17.72 15.6396C17.72 16.7596 16.84 17.6396 15.64 17.6396C14.44 17.6396 13.64 16.7596 13.64 15.6396C13.64 14.5196 14.52 13.6396 15.64 13.6396C16.76 13.6396 17.72 14.5996 17.72 15.6396Z" fill="white"/>
</svg>
