<?xml version="1.0" encoding="utf-8"?>
<!-- Generator: Adobe Illustrator 28.2.0, SVG Export Plug-In . SVG Version: 6.00 Build 0)  -->
<svg version="1.1" xmlns="http://www.w3.org/2000/svg" xmlns:xlink="http://www.w3.org/1999/xlink" x="0px" y="0px"
	 viewBox="0 0 24 24" style="enable-background:new 0 0 24 24;" xml:space="preserve">
<style type="text/css">
	.st0{fill:#FFFFFF;}
	.st1{opacity:0.25;fill:#FFFFFF;stroke:#34495E;stroke-width:0.25;stroke-miterlimit:10;}
	.st2{fill-rule:evenodd;clip-rule:evenodd;fill:#34495E;}
	.st3{fill-rule:evenodd;clip-rule:evenodd;fill:#F62D2D;}
</style>
<g id="Layer_2">
</g>
<g id="Layer_1">
	<g>
		<circle class="st0" cx="12" cy="12" r="11.4"/>
		<g>
			<g id="Layer_2_00000178181874873158579110000005402883977912183698_">
				<circle class="st1" cx="12" cy="12" r="11.4"/>
				<path class="st2" d="M11.1,7.1c1.6-1.6,4.2-1.6,5.8,0s1.6,4.2,0,5.8l-0.7,0.7c-0.4,0.4-1,0.4-1.3,0c-0.4-0.4-0.4-1,0-1.3
					l0.7-0.7c0.9-0.9,0.9-2.3,0-3.2c-0.9-0.9-2.3-0.9-3.2,0l-0.7,0.7c-0.4,0.4-1,0.4-1.3,0c-0.4-0.4-0.4-1,0-1.3L11.1,7.1z
					 M13.6,10.4c0.4,0.4,0.4,1,0,1.3l-1.9,1.8c-0.4,0.4-1,0.4-1.3,0c-0.4-0.4-0.4-1,0-1.3l1.9-1.9C12.6,10.1,13.2,10.1,13.6,10.4z
					 M9,10.5c0.4,0.4,0.4,1,0,1.3l-0.6,0.6c-0.9,0.9-0.9,2.3,0,3.2c0.9,0.9,2.3,0.9,3.2,0l0.6-0.6c0.4-0.4,1-0.4,1.3,0
					c0.4,0.4,0.4,1,0,1.3l-0.6,0.6c-1.6,1.6-4.2,1.6-5.8,0s-1.6-4.2,0-5.8l0.6-0.6C8.1,10.1,8.7,10.1,9,10.5z"/>
			</g>
			<g id="Layer_3">
				<path class="st3" d="M13.6,10.4c0.4,0.4,0.4,1,0,1.3l-1.9,1.8c-0.4,0.4-1,0.4-1.3,0c-0.4-0.4-0.4-1,0-1.3l1.9-1.9
					C12.6,10.1,13.2,10.1,13.6,10.4z"/>
			</g>
		</g>
	</g>
</g>
</svg>
