<svg width="46" height="46" viewBox="0 0 46 46" fill="none" xmlns="http://www.w3.org/2000/svg">
<rect width="46" height="46" rx="8" fill="white"/>
<g clip-path="url(#clip0_1071_1394)">
<path d="M9.61363 34.6282H14.5455V22.6509L11.316 17.0117L7.5 17.3668V32.5146C7.5 33.6823 8.44586 34.6282 9.61363 34.6282Z" fill="#0085F7"/>
<path d="M31.4545 34.6282H36.3864C37.5541 34.6282 38.5 33.6823 38.5 32.5146V17.3668L34.6895 17.0117L31.4546 22.6509V34.6282H31.4545Z" fill="#00A94B"/>
<path d="M31.4545 13.4924L28.5576 19.0205L31.4545 22.6515L38.5 17.3674V14.5492C38.5 11.9371 35.518 10.4452 33.4273 12.0128L31.4545 13.4924Z" fill="#FFBC00"/>
<path fill-rule="evenodd" clip-rule="evenodd" d="M14.5455 22.6513L11.785 16.82L14.5455 13.4922L23 19.8331L31.4545 13.4922V22.6513L23 28.9922L14.5455 22.6513Z" fill="#FF4131"/>
<path d="M7.5 14.5492V17.3674L14.5455 22.6515V13.4924L12.5727 12.0128C10.482 10.4452 7.5 11.9371 7.5 14.5492Z" fill="#E51C19"/>
</g>
<defs>
<clipPath id="clip0_1071_1394">
<rect width="31" height="31" fill="white" transform="translate(7.5 7.5)"/>
</clipPath>
</defs>
</svg>
