<svg width="90" height="33" viewBox="0 0 90 33" fill="none" xmlns="http://www.w3.org/2000/svg">
<g clip-path="url(#clip0_607_8191)">
<path d="M14.1901 26.0891H13.3627L12.0246 24.2206C11.6901 24.5202 11.3556 24.7847 10.9859 25.0491C10.6162 25.3135 10.2289 25.525 9.82394 25.719C9.41901 25.9129 8.99648 26.0539 8.57394 26.1773C8.15141 26.283 7.71127 26.3359 7.27113 26.3359C6.32042 26.3359 5.42253 26.1597 4.57746 25.7895C3.73239 25.4369 3.01056 24.9257 2.37676 24.2911C1.74296 23.6565 1.25 22.8984 0.897888 22.017C0.528169 21.1356 0.352112 20.1837 0.352112 19.1613C0.352112 18.1388 0.528169 17.1869 0.897888 16.3055C1.26761 15.4241 1.76056 14.6661 2.37676 14.0315C3.01056 13.3968 3.73239 12.8856 4.57746 12.5154C5.42253 12.1452 6.32042 11.969 7.27113 11.969C7.57042 11.969 7.88732 11.9866 8.22183 12.0395C8.53873 12.0923 8.85563 12.1805 9.17254 12.2863C9.47183 12.392 9.77113 12.5507 10.0352 12.7446C10.2993 12.9385 10.5282 13.15 10.7218 13.4321V7.08594H14.2077V26.0891H14.1901ZM10.7042 19.1789C10.7042 18.7029 10.6162 18.2446 10.4401 17.8039C10.2641 17.3632 10.0176 16.9754 9.7007 16.6228C9.3838 16.2879 9.03169 16.0058 8.60916 15.7943C8.18662 15.5827 7.74648 15.477 7.27113 15.477C6.79577 15.477 6.35563 15.5651 5.9331 15.7238C5.51056 15.9 5.15845 16.1292 4.84155 16.4465C4.52465 16.7638 4.29578 17.1516 4.11972 17.61C3.94366 18.0683 3.85563 18.5795 3.85563 19.1613C3.85563 19.6548 3.94366 20.1308 4.11972 20.5891C4.29578 21.0299 4.54225 21.4353 4.84155 21.7702C5.14084 22.1052 5.51056 22.3696 5.9331 22.5635C6.35563 22.7574 6.79577 22.8632 7.27113 22.8632C7.74648 22.8632 8.18662 22.7574 8.60916 22.5459C9.03169 22.3343 9.3838 22.0699 9.7007 21.7173C10.0176 21.3824 10.2641 20.977 10.4401 20.5363C10.6162 20.1132 10.7042 19.6549 10.7042 19.1789Z" fill="#34495E"/>
<path d="M20.8979 8.83078C20.8979 9.14809 20.8451 9.44776 20.7218 9.72981C20.5986 10.0119 20.4401 10.2587 20.2289 10.4526C20.0176 10.6641 19.7711 10.8228 19.4894 10.9462C19.2078 11.0696 18.9085 11.1224 18.5916 11.1224C18.2747 11.1224 17.9754 11.0696 17.6937 10.9462C17.412 10.8228 17.1655 10.6641 16.9542 10.4526C16.743 10.241 16.5845 9.99424 16.4613 9.72981C16.338 9.44776 16.2852 9.14809 16.2852 8.83078C16.2852 8.51347 16.338 8.21379 16.4613 7.93174C16.5845 7.64969 16.743 7.40289 16.9542 7.19135C17.1655 6.97982 17.412 6.82116 17.6937 6.69777C17.9754 6.57437 18.2747 6.52148 18.5916 6.52148C18.9085 6.52148 19.2078 6.57437 19.4894 6.69777C19.7711 6.82116 20.0176 6.97982 20.2289 7.19135C20.4401 7.40289 20.5986 7.64969 20.7218 7.93174C20.8451 8.21379 20.8979 8.51347 20.8979 8.83078ZM20.2993 26.0888H16.8134V12.5151H20.2993V26.0888Z" fill="#34495E"/>
<path d="M30.3874 26.0893H22.4824V22.6342H30.3874C30.6162 22.6342 30.8275 22.546 31.0035 22.3874C31.1796 22.2111 31.25 22.0172 31.25 21.7704C31.25 21.5236 31.162 21.3649 31.0035 21.2944C30.8275 21.2239 30.6338 21.1886 30.3874 21.1886H26.7958C26.1972 21.1886 25.6338 21.0829 25.1057 20.8537C24.5775 20.6246 24.1197 20.3072 23.7324 19.9194C23.3451 19.5316 23.0458 19.0733 22.8169 18.5444C22.5881 18.0156 22.4824 17.4515 22.4824 16.8521C22.4824 16.2528 22.5881 15.6886 22.8169 15.1598C23.0458 14.631 23.3451 14.1726 23.7324 13.7848C24.1197 13.397 24.5775 13.0973 25.1057 12.8681C25.6338 12.639 26.1972 12.5332 26.7958 12.5332H33.8028V15.9883H26.7958C26.5669 15.9883 26.3557 16.0765 26.1796 16.2351C26.0035 16.4114 25.9331 16.6053 25.9331 16.8521C25.9331 17.0989 26.0212 17.3104 26.1796 17.4867C26.3557 17.663 26.5493 17.7511 26.7958 17.7511H30.3874C30.9859 17.7511 31.5317 17.8569 32.0599 18.0508C32.5881 18.2447 33.0458 18.5268 33.4331 18.8794C33.8205 19.2319 34.1374 19.655 34.3486 20.1662C34.5775 20.6598 34.6831 21.2063 34.6831 21.8056C34.6831 22.405 34.5775 22.9691 34.3486 23.4803C34.1197 23.9915 33.8205 24.4499 33.4331 24.8553C33.0458 25.2431 32.5881 25.5604 32.0599 25.772C31.5317 25.9835 30.9683 26.0893 30.3874 26.0893Z" fill="#34495E"/>
<path d="M55.493 26.089H52.0071V7.12109H55.493V26.089Z" fill="#34495E"/>
<path d="M71.25 26.0889H70.4226L69.0845 24.2203C68.75 24.52 68.4155 24.7844 68.0458 25.0488C67.6761 25.3133 67.2888 25.5248 66.8838 25.7187C66.4789 25.9126 66.0564 26.0536 65.6338 26.177C65.2113 26.2828 64.7712 26.3357 64.331 26.3357C63.3803 26.3357 62.4824 26.177 61.6374 25.8597C60.7923 25.5424 60.0705 25.0665 59.4367 24.4671C58.8029 23.8501 58.3099 23.1097 57.9402 22.2107C57.5705 21.3293 57.3944 20.3068 57.3944 19.1786C57.3944 18.1209 57.5705 17.1514 57.9402 16.27C58.3099 15.3886 58.8029 14.6306 59.4367 13.9959C60.0705 13.3613 60.7923 12.8677 61.6374 12.5152C62.4824 12.1626 63.3803 11.9863 64.331 11.9863C64.7712 11.9863 65.2113 12.0392 65.6338 12.145C66.0564 12.2508 66.4789 12.4094 66.8838 12.6033C67.2888 12.7972 67.6761 13.0264 68.0458 13.2908C68.4155 13.5552 68.75 13.8373 69.0845 14.137L70.4226 12.5328H71.25V26.0889ZM67.7641 19.1786C67.7641 18.7027 67.6761 18.2443 67.5 17.8036C67.324 17.3629 67.0775 16.9751 66.7606 16.6225C66.4437 16.2876 66.0916 16.0056 65.6691 15.794C65.2465 15.5825 64.8064 15.4767 64.331 15.4767C63.8557 15.4767 63.4155 15.5649 62.993 15.7235C62.5705 15.8822 62.2183 16.129 61.9014 16.4286C61.5845 16.7459 61.3557 17.1338 61.1796 17.5921C61.0036 18.0504 60.9155 18.5793 60.9155 19.1786C60.9155 19.778 61.0036 20.2892 61.1796 20.7652C61.3557 21.2235 61.6022 21.6113 61.9014 21.9286C62.2007 22.2459 62.5705 22.4751 62.993 22.6338C63.4155 22.7924 63.8557 22.8806 64.331 22.8806C64.8064 22.8806 65.2465 22.7748 65.6691 22.5632C66.0916 22.3517 66.4437 22.0873 66.7606 21.7347C67.0775 21.3998 67.324 20.9943 67.5 20.5536C67.6761 20.1129 67.7641 19.6546 67.7641 19.1786Z" fill="#34495E"/>
<path d="M77.1479 31.272V27.7817L79.0669 27.7993C79.4015 27.7993 79.736 27.7464 80.0353 27.6406C80.3522 27.5349 80.6339 27.3762 80.8979 27.1823C81.162 26.9884 81.3909 26.7592 81.6022 26.4948C81.7958 26.2304 81.9719 25.9307 82.0951 25.631C81.7078 25.7897 81.3205 25.9483 80.9331 26.107C80.5458 26.2656 80.1409 26.3538 79.7536 26.3538C78.9261 26.3538 78.1338 26.2127 77.3944 25.9131C76.655 25.6134 76.0212 25.1903 75.4578 24.6438C74.912 24.0974 74.4719 23.4275 74.155 22.6518C73.8381 21.8762 73.6796 20.9948 73.6796 20.0252V12.5156H77.1303V20.0252C77.1303 20.5012 77.2008 20.9243 77.3416 21.2945C77.4824 21.647 77.6761 21.9467 77.905 22.1935C78.1339 22.4403 78.4155 22.6166 78.7324 22.74C79.0493 22.8634 79.3839 22.9163 79.7536 22.9163C80.1057 22.9163 80.4402 22.8281 80.7571 22.6695C81.074 22.5108 81.3557 22.2816 81.5845 22.0172C81.8134 21.7528 82.0071 21.4355 82.1479 21.1006C82.2888 20.7656 82.3592 20.4131 82.3592 20.0429V12.5333H85.8451V24.397C85.8451 25.349 85.6515 26.248 85.2817 27.0765C84.912 27.905 84.4191 28.6454 83.8029 29.2624C83.1691 29.8794 82.4472 30.3906 81.6022 30.7432C80.7747 31.1134 79.8768 31.2897 78.9261 31.2897L77.1479 31.272Z" fill="#34495E"/>
<path d="M50.0881 19.1788C50.0881 20.2365 49.912 21.2237 49.5423 22.0874C49.1726 22.9689 48.6796 23.7269 48.0634 24.3439C47.4472 24.9785 46.7078 25.4544 45.8627 25.807C45.0176 26.1596 44.1197 26.3182 43.1514 26.3182C42.2007 26.3182 41.3028 26.1419 40.4578 25.7894C39.6127 25.4368 38.8909 24.9432 38.2571 24.3086C37.6233 23.674 37.1303 22.916 36.7782 22.0522C36.4085 21.1708 36.2324 20.2188 36.2324 19.1612V7.12109H39.7007V13.4672C39.8944 13.2381 40.1057 13.0265 40.3697 12.8326C40.6338 12.6387 40.9155 12.4977 41.2324 12.3743C41.5317 12.2509 41.8662 12.1628 42.1831 12.1099C42.5176 12.0394 42.8345 12.0217 43.1514 12.0217C44.1197 12.0217 45.0176 12.198 45.8627 12.5682C46.7078 12.9208 47.4296 13.432 48.0634 14.0666C48.6796 14.7012 49.1902 15.4592 49.5423 16.3406C49.912 17.1868 50.0881 18.1387 50.0881 19.1788ZM46.6197 19.1788C46.6197 18.6499 46.5317 18.174 46.3557 17.7156C46.1796 17.2573 45.9331 16.8695 45.6162 16.5346C45.2993 16.1996 44.9472 15.9528 44.5247 15.7589C44.1021 15.565 43.662 15.4769 43.1866 15.4769C42.7113 15.4769 42.2712 15.5826 41.8486 15.7942C41.4261 16.0057 41.074 16.2701 40.7571 16.6227C40.4402 16.9576 40.1937 17.3631 40.0176 17.8038C39.8416 18.2445 39.7535 18.7028 39.7535 19.1788C39.7535 19.7076 39.8416 20.1836 40.0176 20.6419C40.1937 21.0826 40.4402 21.4705 40.7571 21.8054C41.074 22.1403 41.4261 22.3871 41.8486 22.581C42.2712 22.7749 42.7113 22.8631 43.1866 22.8631C43.662 22.8631 44.1021 22.7749 44.5247 22.581C44.9472 22.3871 45.2993 22.1227 45.6162 21.8054C45.9331 21.4705 46.1796 21.0826 46.3557 20.6419C46.5317 20.2012 46.6197 19.7076 46.6197 19.1788Z" fill="#34495E"/>
<path d="M50.0353 27.7637H36.3029V31.3246H50.0353V27.7637Z" fill="#F62D2D"/>
</g>
<defs>
<clipPath id="clip0_607_8191">
<rect width="90" height="33" fill="white"/>
</clipPath>
</defs>
</svg>
