<svg width="12" height="14" viewBox="0 0 12 14" fill="none" xmlns="http://www.w3.org/2000/svg">
<path d="M8 6C8 6.53043 7.78929 7.03914 7.41421 7.41421C7.03914 7.78929 6.53043 8 6 8C5.46957 8 4.96086 7.78929 4.58579 7.41421C4.21071 7.03914 4 6.53043 4 6C4 5.46957 4.21071 4.96086 4.58579 4.58579C4.96086 4.21071 5.46957 4 6 4C6.53043 4 7.03914 4.21071 7.41421 4.58579C7.78929 4.96086 8 5.46957 8 6Z" fill="#6F70FA" fill-opacity="0.08"/>
<path d="M11 6C11 10.7613 6 13.5 6 13.5C6 13.5 1 10.7613 1 6C1 4.67392 1.52678 3.40215 2.46447 2.46447C3.40215 1.52678 4.67392 1 6 1C7.32608 1 8.59785 1.52678 9.53553 2.46447C10.4732 3.40215 11 4.67392 11 6Z" fill="#6F70FA" fill-opacity="0.08"/>
<path d="M8 6C8 6.53043 7.78929 7.03914 7.41421 7.41421C7.03914 7.78929 6.53043 8 6 8C5.46957 8 4.96086 7.78929 4.58579 7.41421C4.21071 7.03914 4 6.53043 4 6C4 5.46957 4.21071 4.96086 4.58579 4.58579C4.96086 4.21071 5.46957 4 6 4C6.53043 4 7.03914 4.21071 7.41421 4.58579C7.78929 4.96086 8 5.46957 8 6Z" stroke="#6F70FA" stroke-linecap="round" stroke-linejoin="round"/>
<path d="M11 6C11 10.7613 6 13.5 6 13.5C6 13.5 1 10.7613 1 6C1 4.67392 1.52678 3.40215 2.46447 2.46447C3.40215 1.52678 4.67392 1 6 1C7.32608 1 8.59785 1.52678 9.53553 2.46447C10.4732 3.40215 11 4.67392 11 6Z" stroke="#6F70FA" stroke-linecap="round" stroke-linejoin="round"/>
</svg>
