<svg width="29" height="28" viewBox="0 0 29 28" fill="none" xmlns="http://www.w3.org/2000/svg">
<path d="M14.5 6.61767H17.2242C22.1536 4.45751 21.2054 2.29352 20.6298 1.76962C20.0422 1.23477 18.8862 0.924695 17.3967 1.8429C15.4848 3.02141 14.5 6.61767 14.5 6.61767Z" fill="#ED6500"/>
<path d="M15.3008 6.07086C15.7226 4.88633 16.5872 3.00289 17.7342 2.29578C18.2629 1.96984 18.7623 1.80469 19.2195 1.80469C19.741 1.80469 20.0613 2.02508 20.2055 2.15633C20.3437 2.28211 20.5792 2.65891 20.4813 3.18336C20.301 4.1475 19.0975 5.17016 17.0865 6.07031H15.3008V6.07086Z" fill="#D65600"/>
<path d="M14.4997 6.61767H11.7755C6.84614 4.45751 7.79427 2.29352 8.36988 1.76962C8.95751 1.23477 10.1135 0.924695 11.603 1.8429C13.5149 3.02141 14.4997 6.61767 14.4997 6.61767Z" fill="#ED6500"/>
<path d="M13.6998 6.07086C13.278 4.88633 12.4134 3.00289 11.2663 2.29578C10.7376 1.96984 10.2383 1.80469 9.78105 1.80469C9.25951 1.80469 8.93926 2.02508 8.79506 2.15633C8.65687 2.28211 8.42133 2.65891 8.51927 3.18336C8.69953 4.1475 9.90302 5.17016 11.914 6.07031H13.6998V6.07086Z" fill="#D65600"/>
<path d="M14.4997 5.86182C12.2189 5.86182 0.5 8.19369 0.5 22.3353C0.5 27.6258 5.07304 27.9999 14.4997 27.9999C23.9264 27.9999 28.4994 27.6263 28.4994 22.3353C28.4994 8.19369 16.7805 5.86182 14.4997 5.86182Z" fill="#D15900"/>
<path d="M28.4994 22.3353C28.4994 27.6263 23.9264 27.9999 14.4997 27.9999C5.97192 27.9999 1.41631 27.6942 0.625 23.7184C3.65146 26.03 10.9854 26.03 14.4997 26.03C18.0141 26.03 25.7638 24.2133 24.2965 16.1381C23.5292 11.9135 20.2306 9.62377 17.2011 8.6465C14.5622 7.79502 10.0751 7.73869 7.42357 8.2626C10.4062 6.3551 13.4513 5.86182 14.4997 5.86182C16.7811 5.86182 28.4994 8.19369 28.4994 22.3353Z" fill="#C64709"/>
<path d="M17.0105 0.119621C16.0864 0.43845 15.235 0.594309 14.5007 0.594309C13.7665 0.594309 12.9151 0.43845 11.991 0.119621C11.0669 -0.199207 10.1037 0.1147 10.2023 1.11657C10.3417 2.52532 11.6035 4.86759 13.2726 6.61759H15.7289C17.398 4.86759 18.6604 2.52532 18.7992 1.11657C18.8983 0.1147 17.9346 -0.199207 17.0105 0.119621Z" fill="#FF7900"/>
<path d="M18.7985 1.11645C18.6591 2.5252 17.3973 4.86747 15.7281 6.61747H13.2719C12.5707 5.88192 11.9416 5.04247 11.4375 4.21122C11.4934 4.25879 12.757 5.02059 13.9839 5.02059C15.2108 5.02059 15.9066 4.71817 16.4305 4.24457C17.0248 3.707 17.8167 2.37317 18.0029 1.42215C18.1886 0.471684 17.5817 0.163793 17.0218 0.115668C17.9423 -0.196598 18.897 0.118949 18.7985 1.11645Z" fill="#F26D00"/>
<path d="M14.2791 10.8241C13.784 10.8498 13.3586 10.5063 13.3285 10.0552C13.1381 7.2311 15.6868 5.78407 15.7956 5.72391C16.221 5.48821 16.775 5.61071 17.0339 5.99735C17.2923 6.3829 17.1589 6.88548 16.7371 7.12227C16.6578 7.16766 15.0049 8.13782 15.1275 9.95454C15.1581 10.4068 14.7802 10.7956 14.2833 10.8235H14.2791V10.8241Z" fill="#FFAA00"/>
<path d="M17.0381 6.00385C16.8692 5.99892 16.6974 6.0372 16.5424 6.12306C16.4342 6.18322 13.8854 7.6308 14.0753 10.4549C14.0843 10.5905 14.1294 10.7163 14.2015 10.8251C13.7406 10.8136 13.3573 10.4828 13.3285 10.0551C13.1386 7.23158 15.6874 5.784 15.7955 5.7233C16.2209 5.48759 16.7755 5.61064 17.0345 5.99674C17.0357 5.99892 17.0369 6.00111 17.0387 6.0033L17.0381 6.00385Z" fill="#FC8300"/>
<path d="M19.4494 11.2659C19.3082 11.273 19.1628 11.2506 19.0253 11.1931C15.6966 9.81337 15.452 6.60485 15.443 6.46923C15.4136 6.01696 15.7933 5.62868 16.2902 5.60243H16.292C16.7871 5.57673 17.2119 5.91962 17.2425 6.3697C17.251 6.47634 17.454 8.73931 19.7721 9.70017C20.2251 9.88774 20.4252 10.3745 20.2191 10.7868C20.0755 11.0739 19.7727 11.2495 19.4494 11.2659Z" fill="#FFAA00"/>
<path d="M20.2744 10.639C20.2612 10.6888 20.2426 10.738 20.2185 10.7867C20.0749 11.0733 19.7721 11.2494 19.4488 11.2658C19.3076 11.2729 19.1628 11.2499 19.0246 11.193C15.6954 9.81326 15.452 6.60475 15.443 6.46857C15.419 6.09834 15.6689 5.77186 16.0324 5.6499C16.0114 5.72701 16.003 5.80795 16.0084 5.89162C16.0174 6.02779 16.2614 9.23631 19.59 10.6161C19.7276 10.6729 19.873 10.6959 20.0142 10.6888C20.1038 10.6844 20.1909 10.6675 20.2744 10.639Z" fill="#FC8300"/>
<path d="M19.6069 5.45508H9.39248C8.89472 5.45508 8.49121 5.82234 8.49121 6.27539C8.49121 6.72844 8.89472 7.0957 9.39248 7.0957H19.6069C20.1046 7.0957 20.5081 6.72844 20.5081 6.27539C20.5081 5.82234 20.1046 5.45508 19.6069 5.45508Z" fill="#FFB806"/>
<path d="M20.5091 6.27539C20.5091 6.50234 20.4082 6.70688 20.2447 6.85563C20.0813 7.00437 19.8566 7.0957 19.6078 7.0957H9.39346C8.89535 7.0957 8.49219 6.72875 8.49219 6.27539C8.49219 6.17969 8.51021 6.08781 8.54386 6.00195C8.66703 6.32078 9.0005 6.54883 9.39346 6.54883H19.6078C19.8566 6.54883 20.0819 6.45695 20.2447 6.30875C20.3391 6.22289 20.4124 6.11844 20.4574 6.00195C20.4911 6.08781 20.5091 6.17969 20.5091 6.27539Z" fill="#FF9700"/>
<path d="M18.6595 13.5788H16.7746C17.0468 13.9763 17.2235 14.4242 17.304 14.9224H19.1612L18.6505 16.7058H17.2854C17.143 17.4889 16.8131 18.1282 16.2964 18.6242C15.7796 19.1203 15.0442 19.5003 14.0913 19.765L17.861 23.9738V24.1001H14.3701L10.1083 19.4692L10.0993 17.8384H12.2905C13.1756 17.8214 13.7482 17.4441 14.0084 16.7058H9.83008L10.3408 14.9224H13.9339C13.6617 14.3871 13.1293 14.1081 12.3368 14.0857H9.83909L10.4333 11.7954H19.1702L18.6595 13.5788Z" fill="#FFB806"/>
<path d="M17.3042 14.922H19.1614L18.6507 16.7053H17.2856C17.163 17.3796 16.9017 17.9478 16.5003 18.4088C14.3991 18.9913 12.289 19.3823 10.2623 19.636L10.1085 19.4687L10.0989 17.8373H12.2902C13.1752 17.8209 13.7478 17.443 14.0074 16.7053H9.8291L10.3398 14.922H13.9323C13.6595 14.3871 13.1277 14.1082 12.3358 14.0852H9.83751L10.4317 11.7949H19.1686L18.6579 13.5783H16.7737C17.0459 13.9759 17.2219 14.4237 17.303 14.922H17.3042Z" fill="#FFDB08"/>
</svg>
