<svg width="40" height="40" viewBox="0 0 40 40" fill="none" xmlns="http://www.w3.org/2000/svg">
<g clip-path="url(#clip0_3340_41222)">
<path opacity="0.15" d="M26.6233 8.20667C25.7121 8.20578 24.8385 7.84343 24.1941 7.19912C23.5498 6.5548 23.1875 5.68118 23.1866 4.77V0H7.82997C6.64047 0 5.4997 0.472523 4.6586 1.31362C3.8175 2.15472 3.34497 3.2955 3.34497 4.485V31.5217C3.34674 32.71 3.82004 33.849 4.66095 34.6887C5.50185 35.5283 6.64162 36 7.82997 36H26.265C27.4536 36 28.5936 35.5282 29.4346 34.6882C30.2755 33.8482 30.7486 32.7087 30.75 31.52V8.20667H26.6233Z" fill="#2563EB"/>
<path d="M30.7499 8.20667H26.6232C25.712 8.20578 24.8384 7.84343 24.194 7.19912C23.5497 6.5548 23.1874 5.68118 23.1865 4.77V0L30.7499 8.20667Z" fill="#2563EB"/>
<path d="M34.0015 28.4336H13.1615C11.6832 28.4336 10.4849 29.6319 10.4849 31.1103V37.3236C10.4849 38.8019 11.6832 40.0003 13.1615 40.0003H34.0015C35.4799 40.0003 36.6782 38.8019 36.6782 37.3236V31.1103C36.6782 29.6319 35.4799 28.4336 34.0015 28.4336Z" fill="#2563EB"/>
<path d="M16.0089 37.4998C15.7709 37.4998 15.6519 37.3808 15.6519 37.1428V32.0938C15.6519 31.8558 15.7709 31.7368 16.0089 31.7368C16.1647 31.7368 16.295 31.8133 16.3999 31.9663L18.4059 34.9838L18.2529 35.0093L20.2758 31.9663C20.3721 31.8133 20.5166 31.7368 20.7093 31.7368C20.902 31.7368 20.9983 31.8558 20.9983 32.0938V37.1428C20.9983 37.3808 20.8793 37.4998 20.6413 37.4998C20.4033 37.4998 20.2843 37.3808 20.2843 37.1428V32.8078L20.5053 32.8843L18.7204 35.5108C18.6155 35.6638 18.471 35.7403 18.2869 35.7403C18.1594 35.7403 18.0432 35.6638 17.9384 35.5108L16.1534 32.8843L16.3659 32.9438V37.1428C16.3659 37.3808 16.2469 37.4998 16.0089 37.4998Z" fill="#EFF6FF"/>
<path d="M23.1226 37.4998C22.8846 37.4998 22.7656 37.3808 22.7656 37.1428V32.0938C22.7656 31.8558 22.8846 31.7368 23.1226 31.7368H25.1116C25.6301 31.7368 26.0268 31.8757 26.3016 32.1533C26.5793 32.4282 26.7181 32.8248 26.7181 33.3433V33.5983C26.7181 34.1168 26.5793 34.5148 26.3016 34.7925C26.0268 35.0673 25.6301 35.2048 25.1116 35.2048H23.4796V37.1428C23.4796 37.3808 23.3606 37.4998 23.1226 37.4998ZM23.4796 34.4908H25.1116C25.4346 34.4908 25.6641 34.4228 25.8001 34.2868C25.9361 34.1508 26.0041 33.9213 26.0041 33.5983V33.3433C26.0041 33.0232 25.9361 32.795 25.8001 32.659C25.6641 32.5202 25.4346 32.4508 25.1116 32.4508H23.4796V34.4908Z" fill="#EFF6FF"/>
<path d="M29.0218 37.4998C28.5259 37.4998 28.1421 37.3963 27.8701 37.1895C27.6009 36.9798 27.4379 36.6583 27.3813 36.2248C27.3699 36.1058 27.3954 36.0137 27.4578 35.9485C27.5201 35.8833 27.6108 35.8508 27.7298 35.8508C27.9479 35.8508 28.0698 35.9698 28.0953 36.2078C28.1349 36.4288 28.2243 36.5803 28.3631 36.6625C28.5019 36.7446 28.7214 36.7858 29.0218 36.7858H29.9908C30.3563 36.7858 30.6043 36.7206 30.7346 36.5903C30.8678 36.4571 30.9343 36.2107 30.9343 35.8508C30.9343 35.4938 30.8678 35.2487 30.7346 35.1155C30.6043 34.9823 30.3563 34.9158 29.9908 34.9158H29.3363C29.0983 34.9158 28.9793 34.7968 28.9793 34.5588C28.9793 34.3208 29.0983 34.2018 29.3363 34.2018H30.3138C30.4923 34.2018 30.6169 34.1225 30.6878 33.9638C30.7614 33.8023 30.7983 33.5841 30.7983 33.3093C30.7983 32.9721 30.7374 32.7455 30.6156 32.6293C30.4966 32.5103 30.2713 32.4508 29.9398 32.4508H29.1153C28.8489 32.4508 28.6521 32.4862 28.5246 32.557C28.3971 32.6278 28.3163 32.7596 28.2823 32.9523C28.2483 33.1846 28.1236 33.3008 27.9083 33.3008C27.7893 33.3008 27.6986 33.2696 27.6363 33.2073C27.5739 33.1421 27.5513 33.0486 27.5683 32.9268C27.6249 32.5273 27.7808 32.2298 28.0358 32.0343C28.2936 31.836 28.6534 31.7368 29.1153 31.7368H29.9398C30.4724 31.7368 30.8678 31.8657 31.1256 32.1235C31.3834 32.3813 31.5123 32.7766 31.5123 33.3093C31.5123 33.8335 31.3649 34.2046 31.0703 34.4228C31.2658 34.5503 31.4103 34.7317 31.5038 34.9668C31.6001 35.202 31.6483 35.4967 31.6483 35.8508C31.6483 36.4118 31.5138 36.8268 31.2446 37.096C30.9754 37.3651 30.5574 37.4998 29.9908 37.4998H29.0218Z" fill="#EFF6FF"/>
<path d="M23.3834 21.9867H21.5584V14.6101C21.5584 14.363 21.4602 14.126 21.2856 13.9513C21.1107 13.7766 20.8739 13.6784 20.6267 13.6784H15.9601C15.8377 13.6784 15.7166 13.7025 15.6035 13.7493C15.4905 13.7962 15.3878 13.8648 15.3013 13.9513C15.2148 14.0378 15.1461 14.1405 15.0993 14.2536C15.0525 14.3666 15.0284 14.4877 15.0284 14.6101V21.9867H13.1951V13.9868C13.1951 13.706 13.2504 13.428 13.3579 13.1687C13.4654 12.9094 13.6229 12.6737 13.8215 12.4753C14.0201 12.2769 14.2558 12.1195 14.5152 12.0123C14.7747 11.905 15.0527 11.8499 15.3334 11.8501H21.2501C21.8167 11.8501 22.3602 12.0752 22.7609 12.4759C23.1616 12.8766 23.3867 13.4201 23.3867 13.9868L23.3834 21.9867Z" fill="#2563EB"/>
<path d="M21.22 24.1499C22.4148 24.1499 23.3833 23.1814 23.3833 21.9866C23.3833 20.7917 22.4148 19.8232 21.22 19.8232C20.0251 19.8232 19.0566 20.7917 19.0566 21.9866C19.0566 23.1814 20.0251 24.1499 21.22 24.1499Z" fill="#2563EB"/>
<path d="M12.875 24.1499C14.0698 24.1499 15.0383 23.1814 15.0383 21.9866C15.0383 20.7917 14.0698 19.8232 12.875 19.8232C11.6802 19.8232 10.7117 20.7917 10.7117 21.9866C10.7117 23.1814 11.6802 24.1499 12.875 24.1499Z" fill="#2563EB"/>
</g>
<defs>
<clipPath id="clip0_3340_41222">
<rect width="40" height="40" fill="white"/>
</clipPath>
</defs>
</svg>
