<svg width="24" height="24" viewBox="0 0 24 24" fill="none" xmlns="http://www.w3.org/2000/svg">
<g clip-path="url(#clip0_2453_2711)">
<path d="M20 2H19.5L0 21.5V22C0 23.103 0.896973 24 2 24H2.65942L22 4.40442V4C22 2.89697 21.103 2 20 2Z" fill="#FDDC49"/>
<path d="M2 2C0.896973 2 0 2.89697 0 4V21.5L19.5 2H2Z" fill="#56A959"/>
<path d="M2.65942 24.0008H19.5L11.0246 15.5254L2.65942 24.0008Z" fill="#5796FF"/>
<path d="M13.5082 13.0081L22 21.4999V4.4043L13.5082 13.0081Z" fill="#CCCCCC"/>
<path d="M11.0247 15.5242L19.5001 23.9996H20.0001C21.1031 23.9996 22.0001 23.1027 22.0001 21.9996V21.4996L13.5082 13.0078L11.0247 15.5242Z" fill="#F2F2F2"/>
<path opacity="0.2" d="M20 2H2C0.896973 2 0 2.89697 0 4V4.25C0 3.14697 0.896973 2.25 2 2.25H20C21.103 2.25 22 3.14697 22 4.25V4C22 2.89697 21.103 2 20 2Z" fill="white"/>
<path opacity="0.1" d="M20 23.75H2C0.896973 23.75 0 22.853 0 21.75V22C0 23.103 0.896973 24 2 24H20C21.103 24 22 23.103 22 22V21.75C22 22.853 21.103 23.75 20 23.75Z" fill="black"/>
<path d="M18 0C14.6914 0 12 2.69141 12 6C12 6.23389 12.0161 6.46338 12.0415 6.68164C12.25 8.81396 13.3901 10.5703 14.5977 12.4292C15.7847 14.2568 17.0117 16.1465 17.5103 18.5996C17.5571 18.8325 17.7622 19 18 19C18.2378 19 18.4429 18.8325 18.4897 18.5996C18.9883 16.1465 20.2153 14.2568 21.4023 12.4292C22.6099 10.5703 23.75 8.81396 23.9575 6.68994C23.9839 6.46338 24 6.23389 24 6C24 2.69141 21.3086 0 18 0Z" fill="#E53935"/>
<path opacity="0.2" d="M18 0.25C20.6693 0.25 22.9413 1.96377 23.7706 4.35434C23.056 1.83944 20.7409 0 18 0C15.2591 0 12.9457 1.83297 12.2312 4.34786C13.0605 1.95729 15.3306 0.25 18 0.25Z" fill="white"/>
<path opacity="0.1" d="M23.9575 6.44043C23.75 8.56445 22.6099 10.3208 21.4023 12.1797C20.2153 14.0073 18.9883 15.897 18.4897 18.3501C18.4429 18.583 18.2378 18.7505 18 18.7505C17.7622 18.7505 17.5571 18.583 17.5103 18.3501C17.0117 15.897 15.7847 14.0073 14.5977 12.1797C13.3901 10.3208 12.25 8.56445 12.0415 6.43213C12.0203 6.25018 12.0112 6.05756 12.0069 5.86395C12.0059 5.90979 12 5.95441 12 6.00049C12 6.23438 12.0161 6.46387 12.0415 6.68213C12.25 8.81445 13.3901 10.5708 14.5977 12.4297C15.7847 14.2573 17.0117 16.147 17.5103 18.6001C17.5571 18.833 17.7622 19.0005 18 19.0005C18.2378 19.0005 18.4429 18.833 18.4897 18.6001C18.9883 16.147 20.2153 14.2573 21.4023 12.4297C22.6099 10.5708 23.75 8.81445 23.9575 6.69043C23.9839 6.46387 24 6.23438 24 6.00049C24 5.95416 23.9941 5.90936 23.993 5.86328C23.9888 6.05774 23.9796 6.25092 23.9575 6.44043Z" fill="black"/>
<path d="M18 8C19.1046 8 20 7.10457 20 6C20 4.89543 19.1046 4 18 4C16.8954 4 16 4.89543 16 6C16 7.10457 16.8954 8 18 8Z" fill="#B71C1C"/>
<path opacity="0.1" d="M18 8C19.1046 8 20 7.10457 20 6C20 4.89543 19.1046 4 18 4C16.8954 4 16 4.89543 16 6C16 7.10457 16.8954 8 18 8Z" fill="black"/>
<path d="M5.5 10.5C3.8457 10.5 2.5 9.1543 2.5 7.5C2.5 5.8457 3.8457 4.5 5.5 4.5C6.15576 4.5 6.77881 4.70801 7.30225 5.10107L6.70166 5.90088C6.35254 5.63867 5.93701 5.5 5.5 5.5C4.39697 5.5 3.5 6.39697 3.5 7.5C3.5 8.60303 4.39697 9.5 5.5 9.5C6.43018 9.5 7.21436 8.86182 7.43652 8H6V7H8.5V7.5C8.5 9.1543 7.1543 10.5 5.5 10.5Z" fill="#F2F2F2"/>
<path d="M24 6C24 2.69141 21.3086 0 18 0C16.2289 0 14.6396 0.775757 13.5405 2H2C0.896973 2 0 2.89697 0 4V22C0 23.103 0.896973 24 2 24H20C21.103 24 22 23.103 22 22V11.497C22.965 9.96869 23.7849 8.45636 23.9575 6.68994C23.9839 6.46338 24 6.23389 24 6Z" fill="url(#paint0_linear_2453_2711)"/>
</g>
<defs>
<linearGradient id="paint0_linear_2453_2711" x1="-1.369" y1="6.492" x2="23.936" y2="18.292" gradientUnits="userSpaceOnUse">
<stop stop-color="white" stop-opacity="0.2"/>
<stop offset="1" stop-color="white" stop-opacity="0"/>
</linearGradient>
<clipPath id="clip0_2453_2711">
<rect width="24" height="24" fill="white"/>
</clipPath>
</defs>
</svg>
