<svg width="42" height="42" viewBox="0 0 42 42" fill="none" xmlns="http://www.w3.org/2000/svg">
<g clip-path="url(#clip0_5028_1785)">
<path fill-rule="evenodd" clip-rule="evenodd" d="M21 41.954C32.5438 41.954 41.959 32.5487 41.959 21.005C41.959 9.4612 32.5438 0.0458984 21 0.0458984C9.45623 0.0458984 0.0410156 9.46112 0.0410156 21.0049C0.0410156 32.5487 9.45623 41.954 21 41.954Z" fill="#F3F4F5"/>
<path d="M14.5799 14.9243C14.5799 11.6577 17.2357 9 20.5 9C23.7636 9 26.4187 11.6577 26.4187 14.9243C26.4187 18.1909 23.7636 20.8485 20.5 20.8485C17.2357 20.8485 14.5799 18.1909 14.5799 14.9243ZM25.2074 23.3771H15.7886C12.5968 23.3771 10 25.9763 10 29.1712V32.2499C10 32.6642 10.3355 33 10.7494 33H30.2506C30.6645 33 31 32.6642 31 32.2499V29.1751C30.9999 25.9781 28.4014 23.3771 25.2074 23.3771Z" fill="#767B85"/>
</g>
<defs>
<clipPath id="clip0_5028_1785">
<rect width="42" height="42" fill="white"/>
</clipPath>
</defs>
</svg>
