<svg width="26" height="26" viewBox="0 0 26 26" fill="none" xmlns="http://www.w3.org/2000/svg">
<path d="M16.2502 14.1049C16.3802 14.1049 16.8569 14.3216 17.6802 14.7549C18.5035 15.1882 18.9369 15.4482 18.9802 15.5349C18.9802 15.5782 18.9802 15.6432 18.9802 15.7299C18.9802 16.0766 18.8935 16.4449 18.7202 16.8349C18.5902 17.2249 18.2435 17.5499 17.6802 17.8099C17.1169 18.0699 16.6402 18.1999 16.2502 18.1999C15.6869 18.1999 14.7552 17.8965 13.4552 17.2899C12.5019 16.8566 11.6785 16.2932 10.9852 15.5999C10.2919 14.9065 9.57686 13.9965 8.8402 12.8699C8.14686 11.8732 7.8002 10.9416 7.8002 10.0749V9.94488C7.84353 9.07822 8.21186 8.31988 8.90519 7.66988C9.12186 7.45322 9.38186 7.34488 9.68519 7.34488C9.72853 7.34488 9.8152 7.34488 9.9452 7.34488C10.0752 7.34488 10.1619 7.36655 10.2052 7.40988C10.3785 7.40988 10.5085 7.43155 10.5952 7.47488C10.6819 7.51822 10.7469 7.64822 10.7902 7.86488C10.8769 8.08155 11.0502 8.51488 11.3102 9.16488C11.5702 9.81488 11.6785 10.1832 11.6352 10.2699C11.6352 10.4866 11.4619 10.7682 11.1152 11.1149C10.7685 11.4616 10.6169 11.6782 10.6602 11.7649C10.6602 11.8516 10.6819 11.9165 10.7252 11.9599C11.0285 12.6966 11.5269 13.3682 12.2202 13.9749C12.7402 14.4949 13.4552 14.9715 14.3652 15.4049C14.4952 15.4916 14.6035 15.5349 14.6902 15.5349C14.8635 15.5349 15.1235 15.2965 15.4702 14.8199C15.8169 14.3432 16.0769 14.1049 16.2502 14.1049ZM13.3252 21.8399C14.5385 21.8399 15.7085 21.6015 16.8352 21.1249C17.9619 20.6482 18.9369 19.9982 19.7602 19.1749C20.5835 18.3515 21.2335 17.3765 21.7102 16.2499C22.1869 15.1232 22.4252 13.9532 22.4252 12.7399C22.4252 11.5265 22.1869 10.3349 21.7102 9.16488C21.2335 7.99488 20.5835 7.01988 19.7602 6.23988C18.9369 5.45988 17.9619 4.83155 16.8352 4.35488C15.7085 3.87822 14.5385 3.61822 13.3252 3.57488C12.1119 3.53155 10.9202 3.79155 9.7502 4.35488C8.58019 4.91822 7.6052 5.54655 6.8252 6.23988C6.0452 6.93322 5.41686 7.90822 4.9402 9.16488C4.46353 10.4216 4.20353 11.6132 4.1602 12.7399C4.1602 14.6899 4.7452 16.4665 5.9152 18.0699L4.8102 21.4499L8.3202 20.2799C9.83686 21.3199 11.5052 21.8399 13.3252 21.8399ZM13.3252 1.75488C14.7985 1.75488 16.2069 2.05822 17.5502 2.66488C18.8935 3.27155 20.0635 4.05155 21.0602 5.00488C22.0569 5.95822 22.8152 7.10655 23.3352 8.44988C23.8552 9.79322 24.1585 11.2232 24.2452 12.7399C24.3319 14.2565 24.0285 15.6649 23.3352 16.9649C22.6419 18.2649 21.8835 19.4132 21.0602 20.4099C20.2369 21.4065 19.0669 22.1866 17.5502 22.7499C16.0335 23.3132 14.6252 23.6166 13.3252 23.6599C11.4185 23.6599 9.64186 23.2049 7.9952 22.2949L1.9502 24.2449L3.9002 18.3299C2.8602 16.6399 2.3402 14.7766 2.3402 12.7399C2.3402 11.2232 2.64353 9.79322 3.2502 8.44988C3.85686 7.10655 4.63686 5.95822 5.5902 5.00488C6.54353 4.05155 7.69186 3.27155 9.03519 2.66488C10.3785 2.05822 11.8085 1.75488 13.3252 1.75488Z" fill="white"/>
</svg>
