<svg width="54" height="54" viewBox="0 0 54 54" fill="none" xmlns="http://www.w3.org/2000/svg">
<rect width="54" height="54" rx="8" fill="#FFC350" fill-opacity="0.2"/>
<g clip-path="url(#clip0_3392_50875)">
<path d="M26.4352 7.1292L8.52352 15.7762C8.29891 15.8847 8.15625 16.112 8.15625 16.3614V37.6386C8.15625 37.888 8.29898 38.1153 8.52352 38.2237L26.4352 46.8708C26.7921 47.0431 27.2082 47.0431 27.5652 46.8708L45.4768 38.2237C45.7014 38.1153 45.8441 37.888 45.8441 37.6386V16.3614C45.8441 16.112 45.7013 15.8847 45.4768 15.7762L27.5652 7.1292C27.2082 6.95693 26.7921 6.95693 26.4352 7.1292Z" fill="#FFE17D"/>
<path d="M8.2643 16.0056C8.19602 16.1096 8.15625 16.232 8.15625 16.3613V37.6385C8.15625 37.8879 8.29898 38.1152 8.52352 38.2237L26.4352 46.8706C26.6136 46.9568 26.8069 46.9998 27.0002 46.9998V25.0505L8.2643 16.0056Z" fill="#FFC350"/>
<path d="M45.7359 16.0056C45.8041 16.1096 45.8439 16.232 45.8439 16.3613V37.6385C45.8439 37.8879 45.7012 38.1152 45.4766 38.2237L27.565 46.8706C27.3866 46.9568 27.1933 46.9999 27 46.9999V25.0505L45.7359 16.0056Z" fill="#FFD164"/>
<path d="M13.5162 36.5044C13.4217 36.5044 13.3252 36.4835 13.2345 36.4397L10.4691 35.1047C10.1455 34.9486 10.0103 34.5602 10.1664 34.2372C10.3219 33.9143 10.7115 33.7797 11.0339 33.9346L13.7993 35.2697C14.1228 35.4258 14.258 35.8142 14.1019 36.1372C13.9903 36.3693 13.758 36.5044 13.5162 36.5044Z" fill="#FFE17D"/>
<path d="M16.0615 34.8477C15.967 34.8477 15.8705 34.8267 15.7798 34.783L10.4729 32.2213C10.1499 32.0652 10.0141 31.6768 10.1702 31.3538C10.3257 31.0315 10.7159 30.8963 11.0377 31.0512L16.3445 33.6129C16.6674 33.769 16.8032 34.1573 16.6471 34.4803C16.5356 34.7124 16.3033 34.8477 16.0615 34.8477Z" fill="#FFF6D8"/>
<path d="M39.3869 19.0603L20.5852 9.97729L15.6289 12.3796L34.4728 21.4767L39.3869 19.0603Z" fill="#FF8087"/>
<path d="M34.4727 21.4769V28.5243C34.4727 28.7638 34.723 28.921 34.9388 28.8169L39.0195 26.847C39.2441 26.7385 39.3867 26.5112 39.3867 26.2618V19.0605L34.4727 21.4769Z" fill="#E6646E"/>
</g>
<defs>
<clipPath id="clip0_3392_50875">
<rect width="40" height="40" fill="white" transform="translate(7 7)"/>
</clipPath>
</defs>
</svg>
