<svg width="46" height="46" viewBox="0 0 46 46" fill="none" xmlns="http://www.w3.org/2000/svg">
<rect width="46" height="46" rx="8" fill="#4285F4"/>
<g clip-path="url(#clip0_55_1577)">
<path d="M23 8C14.7288 8 8 14.7288 8 23C8 31.2712 14.7288 38.0006 23 38.0006C31.2712 38.0006 38 31.2712 38 23C38 14.7288 31.2712 8 23 8ZM34.37 28.8597H28.7743C29.0322 27.3304 29.187 25.7157 29.2355 24.1022H35.7455C35.5995 25.8045 35.1189 27.4114 34.37 28.8597ZM23 35.7957C22.0301 35.7957 20.8056 34.0653 19.958 31.0635H26.042C25.1944 34.0658 23.9699 35.7957 23 35.7957ZM19.4538 28.8597C19.1975 27.45 19.0239 25.8574 18.9716 24.1022H27.0279C26.9755 25.8574 26.8019 27.4495 26.5457 28.8597H19.4538ZM10.255 24.1022H16.7645C16.813 25.7157 16.9678 27.3304 17.2257 28.8597H11.6306C10.8816 27.4114 10.4011 25.8045 10.255 24.1022ZM11.6306 17.1409H17.2263C16.9684 18.6701 16.8135 20.2843 16.765 21.8978H10.255C10.4011 20.1955 10.8816 18.5886 11.6306 17.1409ZM23 10.2043C23.9699 10.2043 25.1944 11.9342 26.042 14.9365H19.958C20.8056 11.9342 22.0301 10.2043 23 10.2043ZM26.5462 17.1409C26.8025 18.5505 26.9761 20.1426 27.0284 21.8978H18.9716C19.0239 20.1426 19.1975 18.5505 19.4538 17.1409H26.5462ZM29.2355 21.8978C29.187 20.2843 29.0322 18.6701 28.7743 17.1409H34.37C35.1189 18.5886 35.5995 20.1955 35.7455 21.8978H29.2355ZM32.9262 14.9365H28.3141C27.9096 13.3362 27.3773 11.9017 26.7215 10.7582C29.1865 11.5088 31.3374 12.9846 32.9262 14.9365ZM19.2785 10.7582C18.6227 11.9022 18.0904 13.3367 17.6859 14.9365H13.0738C14.6626 12.9846 16.8135 11.5088 19.2785 10.7582ZM13.0744 31.064H17.6859C18.0904 32.6644 18.6227 34.0983 19.2785 35.2424C16.8135 34.4912 14.6626 33.0154 13.0744 31.064ZM26.7215 35.2424C27.3773 34.0983 27.9096 32.6638 28.3141 31.064H32.9262C31.3374 33.016 29.1865 34.4918 26.7215 35.2424Z" fill="white"/>
</g>
<defs>
<clipPath id="clip0_55_1577">
<rect width="30" height="30" fill="white" transform="translate(8 8)"/>
</clipPath>
</defs>
</svg>
