<svg width="27" height="26" viewBox="0 0 27 26" fill="none" xmlns="http://www.w3.org/2000/svg">
<path d="M22.875 11.0385H19.7442C17.1767 11.0385 15.0858 8.94768 15.0858 6.38018V3.24935C15.0858 2.65352 14.5983 2.16602 14.0025 2.16602H9.40917C6.0725 2.16602 3.375 4.33268 3.375 8.20018V17.7985C3.375 21.666 6.0725 23.8327 9.40917 23.8327H17.9242C21.2608 23.8327 23.9583 21.666 23.9583 17.7985V12.1218C23.9583 11.526 23.4708 11.0385 22.875 11.0385ZM13.97 17.0943L11.8033 19.261C11.7275 19.3368 11.63 19.4018 11.5325 19.4343C11.435 19.4777 11.3375 19.4993 11.2292 19.4993C11.1208 19.4993 11.0233 19.4777 10.9258 19.4343C10.8392 19.4018 10.7525 19.3368 10.6875 19.2718C10.6767 19.261 10.6658 19.261 10.6658 19.2502L8.49917 17.0835C8.185 16.7693 8.185 16.2493 8.49917 15.9352C8.81333 15.621 9.33333 15.621 9.6475 15.9352L10.4167 16.726V12.1868C10.4167 11.7427 10.785 11.3743 11.2292 11.3743C11.6733 11.3743 12.0417 11.7427 12.0417 12.1868V16.726L12.8217 15.946C13.1358 15.6318 13.6558 15.6318 13.97 15.946C14.2842 16.2602 14.2842 16.7802 13.97 17.0943Z" fill="#F62D2D"/>
<path d="M19.5495 9.54469C20.5786 9.55552 22.0086 9.55552 23.2328 9.55552C23.8503 9.55552 24.1753 8.82969 23.742 8.39635C22.182 6.82552 19.387 3.99802 17.7836 2.39469C17.3395 1.95052 16.5703 2.25385 16.5703 2.87135V6.65219C16.5703 8.23385 17.9136 9.54469 19.5495 9.54469Z" fill="#F62D2D"/>
</svg>
