<svg width="26" height="26" viewBox="0 0 26 26" fill="none" xmlns="http://www.w3.org/2000/svg">
<path d="M13 0C5.82055 0 0 5.82055 0 13C0 20.1795 5.82055 26 13 26C20.1795 26 26 20.1795 26 13C26 5.82055 20.1795 0 13 0ZM11.2541 18.3407C10.8751 18.7339 10.3995 19.0209 9.87492 19.173C8.85473 19.465 7.83352 19.7554 6.81688 20.0596C6.54266 20.1419 6.305 20.1327 6.09375 19.9316C5.8698 19.7184 5.85254 19.4665 5.93785 19.1806C6.25574 18.1142 6.54164 17.0391 6.88695 15.9814C7.00477 15.6218 7.20332 15.2501 7.46535 14.983C9.57125 12.835 13.9369 8.46777 13.9369 8.46777L17.5195 12.0555L17.5266 12.0626C17.5266 12.0626 13.259 16.3257 11.2541 18.3407ZM19.6188 9.97648L18.2305 11.3654L14.6357 7.76953L16.0245 6.38066C16.3388 6.06669 16.7648 5.89032 17.209 5.89032C17.6532 5.89032 18.0792 6.06669 18.3935 6.38066L19.6188 7.60602C19.7745 7.76164 19.898 7.94641 19.9823 8.14977C20.0666 8.35314 20.1099 8.57112 20.1099 8.79125C20.1099 9.01138 20.0666 9.22936 19.9823 9.43273C19.898 9.63609 19.7745 9.82086 19.6188 9.97648Z" fill="black"/>
</svg>
