<svg width="18" height="21" viewBox="0 0 18 21" fill="none" xmlns="http://www.w3.org/2000/svg">
<path fill-rule="evenodd" clip-rule="evenodd" d="M9.39321 0.106751L17.6068 4.78022C17.8569 4.92255 18 5.16685 18 5.45145V14.7984C18 15.0831 17.8568 15.3274 17.6068 15.4697L9.39321 20.1431C9.14311 20.2854 8.85689 20.2854 8.60678 20.1431L0.393264 15.4696C0.143159 15.3273 0 15.083 0 14.7984V5.4514C0 5.1668 0.143159 4.92246 0.393264 4.78018L8.60678 0.106703C8.85689 -0.0355757 9.14316 -0.0355757 9.39321 0.106751Z" fill="#F2D1A5"/>
<path fill-rule="evenodd" clip-rule="evenodd" d="M9.39292 0.106751L17.6065 4.78023C17.7315 4.85137 17.8299 4.94804 17.8969 5.0625L8.9997 10.1249L0.102539 5.06245C0.169598 4.948 0.267889 4.85132 0.392918 4.78018L8.60649 0.106703C8.85659 -0.0355757 9.14286 -0.0355757 9.39292 0.106751Z" fill="#DEA46D"/>
<path fill-rule="evenodd" clip-rule="evenodd" d="M17.8972 5.06262C17.9642 5.17707 18 5.3093 18 5.45158V14.7986C18 15.0832 17.8568 15.3275 17.6068 15.4698L9.39322 20.1433C9.26819 20.2144 9.13407 20.25 9 20.25V10.1251L17.8972 5.06262Z" fill="#956320"/>
<path fill-rule="evenodd" clip-rule="evenodd" d="M3.19238 6.82382L5.80236 8.30894L14.8024 3.18795L12.1924 1.70288L3.19238 6.82382Z" fill="#925D32"/>
<path fill-rule="evenodd" clip-rule="evenodd" d="M5.21256 12.0029L3.58565 11.0773C3.33559 10.935 3.19243 10.6906 3.19238 10.406V6.82043L5.80236 8.3055V11.6674C5.80236 11.8096 5.7308 11.9318 5.60578 12.003C5.48075 12.0741 5.33759 12.0741 5.21256 12.0029Z" fill="#DEA46D"/>
</svg>
