<svg width="58" height="58" viewBox="0 0 58 58" fill="none" xmlns="http://www.w3.org/2000/svg">
<rect width="58" height="58" rx="8" fill="#FFC350" fill-opacity="0.2"/>
<g clip-path="url(#clip0_2173_3542)">
<path d="M28.3783 7.14212L8.67548 16.6539C8.42841 16.7731 8.27148 17.0232 8.27148 17.2975V40.7024C8.27148 40.9767 8.42849 41.2268 8.67548 41.3461L28.3783 50.8578C28.7709 51.0474 29.2286 51.0474 29.6213 50.8578L49.3241 41.3461C49.5712 41.2268 49.7281 40.9767 49.7281 40.7024V17.2975C49.7281 17.0232 49.5711 16.7731 49.3241 16.6539L29.6213 7.14212C29.2286 6.95263 28.7709 6.95263 28.3783 7.14212Z" fill="#FFE17D"/>
<path d="M8.39034 16.9062C8.31523 17.0206 8.27148 17.1553 8.27148 17.2975V40.7024C8.27148 40.9767 8.42849 41.2268 8.67548 41.3461L28.3783 50.8577C28.5746 50.9525 28.7872 50.9999 28.9998 50.9999V26.8557L8.39034 16.9062Z" fill="#FFC350"/>
<path d="M49.6094 16.9062C49.6846 17.0206 49.7283 17.1553 49.7283 17.2975V40.7024C49.7283 40.9767 49.5713 41.2268 49.3243 41.3461L29.6215 50.8577C29.4252 50.9525 29.2126 51 29 51V26.8557L49.6094 16.9062Z" fill="#FFD164"/>
<path d="M14.1682 39.4541C14.0642 39.4541 13.9581 39.4311 13.8583 39.383L10.8164 37.9144C10.4604 37.7427 10.3118 37.3155 10.4835 36.9602C10.6545 36.6049 11.0831 36.457 11.4376 36.6273L14.4796 38.096C14.8355 38.2677 14.9842 38.6949 14.8125 39.0501C14.6897 39.3054 14.4342 39.4541 14.1682 39.4541Z" fill="#FFE17D"/>
<path d="M16.9676 37.6334C16.8637 37.6334 16.7575 37.6104 16.6577 37.5622L10.8202 34.7443C10.4649 34.5726 10.3156 34.1454 10.4873 33.7902C10.6583 33.4356 11.0875 33.2869 11.4414 33.4572L17.2789 36.2751C17.6342 36.4468 17.7835 36.874 17.6118 37.2293C17.4891 37.4846 17.2336 37.6334 16.9676 37.6334Z" fill="#FFF6D8"/>
<path d="M42.626 20.2667L21.9441 10.2754L16.4922 12.918L37.2205 22.9248L42.626 20.2667Z" fill="#FF8087"/>
<path d="M37.2207 22.9236V30.6758C37.2207 30.9392 37.4961 31.1121 37.7335 30.9976L42.2222 28.8307C42.4693 28.7114 42.6262 28.4613 42.6262 28.187V20.2656L37.2207 22.9236Z" fill="#E6646E"/>
</g>
<defs>
<clipPath id="clip0_2173_3542">
<rect width="44" height="44" fill="white" transform="translate(7 7)"/>
</clipPath>
</defs>
</svg>
