<svg width="16" height="18" viewBox="0 0 16 18" fill="none" xmlns="http://www.w3.org/2000/svg">
<path fill-rule="evenodd" clip-rule="evenodd" d="M8.34952 0.0948875L15.6505 4.249C15.8728 4.3755 16 4.59265 16 4.84563V13.1539C16 13.4069 15.8727 13.6241 15.6505 13.7505L8.34952 17.9046C8.12721 18.0311 7.87279 18.0311 7.65048 17.9046L0.349568 13.7505C0.127252 13.624 0 13.4068 0 13.1538V4.84559C0 4.59261 0.127252 4.37542 0.349568 4.24895L7.65048 0.0948452C7.87279 -0.0316221 8.12725 -0.0316221 8.34952 0.0948875Z" fill="#F2D1A5"/>
<path fill-rule="evenodd" clip-rule="evenodd" d="M8.34991 0.0948875L15.6509 4.249C15.762 4.31223 15.8494 4.39816 15.909 4.4999L8.00038 8.99974L0.0917969 4.49986C0.151405 4.39812 0.238775 4.31219 0.349911 4.24895L7.65086 0.0948452C7.87318 -0.0316221 8.12764 -0.0316221 8.34991 0.0948875Z" fill="#DEA46D"/>
<path fill-rule="evenodd" clip-rule="evenodd" d="M15.9086 4.5C15.9682 4.60173 16 4.71926 16 4.84573V13.154C16 13.407 15.8727 13.6242 15.6505 13.7506L8.34953 17.9047C8.23839 17.968 8.11917 17.9996 8 17.9996V8.99988L15.9086 4.5Z" fill="#956320"/>
<path fill-rule="evenodd" clip-rule="evenodd" d="M2.83789 6.06552L5.15787 7.38559L13.1579 2.8337L10.8379 1.51367L2.83789 6.06552Z" fill="#925D32"/>
<path fill-rule="evenodd" clip-rule="evenodd" d="M4.6336 10.6691L3.18746 9.84627C2.96519 9.7198 2.83793 9.50262 2.83789 9.24964V6.0625L5.15787 7.38253V10.3708C5.15787 10.4972 5.09426 10.6058 4.98313 10.6691C4.87199 10.7323 4.74474 10.7323 4.6336 10.6691Z" fill="#DEA46D"/>
</svg>
