<svg width="20" height="20" viewBox="0 0 20 20" fill="none" xmlns="http://www.w3.org/2000/svg">
<g clip-path="url(#clip0_2984_3924)">
<path d="M15.352 12.3592C14.2223 12.3592 13.2055 12.8521 12.5055 13.6341L8.27809 11.1934C8.40191 10.8178 8.46895 10.4166 8.46895 10C8.46895 9.58344 8.40191 9.18223 8.27812 8.8066L12.5055 6.3659C13.2056 7.14789 14.2223 7.64078 15.352 7.64078C17.4586 7.64078 19.1724 5.92695 19.1724 3.82039C19.1724 1.71383 17.4585 0 15.352 0C13.2454 0 11.5316 1.71383 11.5316 3.82039C11.5316 4.23695 11.5986 4.63816 11.7224 5.01383L7.495 7.45453C6.79496 6.67254 5.77824 6.17965 4.64855 6.17965C2.54195 6.17965 0.828125 7.89348 0.828125 10C0.828125 12.1066 2.54195 13.8204 4.64855 13.8204C5.77824 13.8204 6.79496 13.3275 7.495 12.5455L11.7224 14.9862C11.5986 15.3619 11.5316 15.7631 11.5316 16.1796C11.5316 18.2862 13.2454 20 15.352 20C17.4585 20 19.1723 18.2862 19.1723 16.1796C19.1723 14.0731 17.4585 12.3592 15.352 12.3592ZM15.352 1.5625C16.597 1.5625 17.6098 2.57539 17.6098 3.82039C17.6098 5.06539 16.597 6.07828 15.352 6.07828C14.107 6.07828 13.0941 5.06539 13.0941 3.82039C13.0941 2.57539 14.107 1.5625 15.352 1.5625ZM4.64855 12.2579C3.40355 12.2579 2.39062 11.245 2.39062 10C2.39062 8.755 3.40355 7.74211 4.64855 7.74211C5.89352 7.74211 6.90641 8.755 6.90641 10C6.90641 11.245 5.89352 12.2579 4.64855 12.2579ZM15.352 18.4375C14.107 18.4375 13.0941 17.4246 13.0941 16.1796C13.0941 14.9346 14.107 13.9217 15.352 13.9217C16.597 13.9217 17.6098 14.9346 17.6098 16.1796C17.6098 17.4246 16.597 18.4375 15.352 18.4375Z" fill="black"/>
</g>
<defs>
<clipPath id="clip0_2984_3924">
<rect width="20" height="20" fill="white"/>
</clipPath>
</defs>
</svg>
