<svg width="17" height="18" viewBox="0 0 17 18" fill="none" xmlns="http://www.w3.org/2000/svg">
<path d="M13.0714 11.1233C12.0547 11.1233 11.1397 11.5669 10.5096 12.2707L6.70496 10.074C6.81641 9.73597 6.87674 9.37488 6.87674 8.99997C6.87674 8.62506 6.81641 8.26397 6.705 7.92591L10.5097 5.72928C11.1397 6.43307 12.0548 6.87667 13.0715 6.87667C14.9674 6.87667 16.5098 5.33423 16.5098 3.43832C16.5098 1.54241 14.9674 -3.05176e-05 13.0714 -3.05176e-05C11.1755 -3.05176e-05 9.63309 1.54241 9.63309 3.43832C9.63309 3.81323 9.69342 4.17432 9.80487 4.51241L6.00019 6.70905C5.37015 6.00525 4.4551 5.56165 3.43839 5.56165C1.54245 5.56165 0 7.1041 0 9C0 10.8959 1.54245 12.4384 3.43839 12.4384C4.4551 12.4384 5.37015 11.9948 6.00019 11.291L9.80487 13.4876C9.69342 13.8257 9.63309 14.1867 9.63309 14.5617C9.63309 16.4576 11.1755 18 13.0714 18C14.9674 18 16.5098 16.4576 16.5098 14.5617C16.5098 12.6657 14.9674 11.1233 13.0714 11.1233ZM13.0714 1.40622C14.1919 1.40622 15.1035 2.31782 15.1035 3.43832C15.1035 4.55882 14.1919 5.47042 13.0714 5.47042C11.9509 5.47042 11.0393 4.55882 11.0393 3.43832C11.0393 2.31782 11.9509 1.40622 13.0714 1.40622ZM3.43839 11.0321C2.31789 11.0321 1.40625 10.1205 1.40625 8.99997C1.40625 7.87947 2.31789 6.96787 3.43839 6.96787C4.55885 6.96787 5.47045 7.87947 5.47045 8.99997C5.47045 10.1205 4.55885 11.0321 3.43839 11.0321ZM13.0714 16.5937C11.9509 16.5937 11.0393 15.6821 11.0393 14.5616C11.0393 13.4411 11.9509 12.5295 13.0714 12.5295C14.1919 12.5295 15.1035 13.4411 15.1035 14.5616C15.1035 15.6821 14.1919 16.5937 13.0714 16.5937Z" fill="url(#paint0_linear_3392_45791)"/>
<defs>
<linearGradient id="paint0_linear_3392_45791" x1="14.8588" y1="18" x2="-3.27925" y2="13.6391" gradientUnits="userSpaceOnUse">
<stop stop-color="#F62D2D"/>
<stop offset="1" stop-color="#FF6161"/>
</linearGradient>
</defs>
</svg>
