<?xml version="1.0" encoding="utf-8"?>
<!-- Generator: Adobe Illustrator 28.2.0, SVG Export Plug-In . SVG Version: 6.00 Build 0)  -->
<svg version="1.1" id="Layer_1" xmlns="http://www.w3.org/2000/svg" xmlns:xlink="http://www.w3.org/1999/xlink" x="0px" y="0px"
	 viewBox="0 0 350 350" style="enable-background:new 0 0 350 350;" xml:space="preserve">
<style type="text/css">
	.st0{fill:#34495E;}
	.st1{fill:#D92828;}
	.st2{fill:#D8D7DA;}
	.st3{fill:#F62D2D;}
	.st4{fill:#FFFFFF;}
	.st5{fill:#F2F2F2;}
</style>
<path class="st0" d="M315.4,345.6H34.6C18,345.6,4.4,332,4.4,315.4V34.6C4.4,18,18,4.4,34.6,4.4h280.7c16.7,0,30.2,13.5,30.2,30.2
	v280.7C345.6,332,332,345.6,315.4,345.6z"/>
<g>
	<path class="st1" d="M175.4,39v58.2c24.6,0,44.6,20,44.6,44.6c0,24.6-20,44.6-44.6,44.6v123.8l81.7-102.7
		c14.7-18.5,22.4-40.8,22.4-64.5C279.5,85.7,232.8,39,175.4,39z"/>
	<path class="st2" d="M220,141.8c0-24.6-20-44.6-44.6-44.6v89.2C200,186.4,220,166.4,220,141.8z"/>
	<path class="st3" d="M130.8,141.8c0-24.6,20-44.6,44.6-44.6V39C118,39,71.3,85.7,71.3,143c0,23.6,7.8,45.9,22.4,64.5l81.6,102.7
		V186.4C150.8,186.4,130.8,166.4,130.8,141.8z"/>
	<path class="st4" d="M130.8,141.8c0,24.6,20,44.6,44.6,44.6V97.2C150.8,97.2,130.8,117.2,130.8,141.8z"/>
</g>
</svg>
