<svg width="48" height="48" viewBox="0 0 48 48" fill="none" xmlns="http://www.w3.org/2000/svg">
<rect width="48" height="48" rx="8" fill="#F62D2D" fill-opacity="0.1"/>
<g clip-path="url(#clip0_3340_33172)">
<path d="M29.352 26.3592C28.2223 26.3592 27.2055 26.8521 26.5055 27.6341L22.2781 25.1934C22.4019 24.8178 22.4689 24.4166 22.4689 24C22.4689 23.5834 22.4019 23.1822 22.2781 22.8066L26.5055 20.3659C27.2056 21.1479 28.2223 21.6408 29.352 21.6408C31.4586 21.6408 33.1724 19.927 33.1724 17.8204C33.1724 15.7138 31.4585 14 29.352 14C27.2454 14 25.5316 15.7138 25.5316 17.8204C25.5316 18.237 25.5986 18.6382 25.7224 19.0138L21.495 21.4545C20.795 20.6725 19.7782 20.1796 18.6486 20.1796C16.542 20.1796 14.8281 21.8935 14.8281 24C14.8281 26.1066 16.542 27.8204 18.6486 27.8204C19.7782 27.8204 20.795 27.3275 21.495 26.5455L25.7224 28.9862C25.5986 29.3619 25.5316 29.7631 25.5316 30.1796C25.5316 32.2862 27.2454 34 29.352 34C31.4585 34 33.1723 32.2862 33.1723 30.1796C33.1723 28.0731 31.4585 26.3592 29.352 26.3592ZM29.352 15.5625C30.597 15.5625 31.6098 16.5754 31.6098 17.8204C31.6098 19.0654 30.597 20.0783 29.352 20.0783C28.107 20.0783 27.0941 19.0654 27.0941 17.8204C27.0941 16.5754 28.107 15.5625 29.352 15.5625ZM18.6486 26.2579C17.4036 26.2579 16.3906 25.245 16.3906 24C16.3906 22.755 17.4036 21.7421 18.6486 21.7421C19.8935 21.7421 20.9064 22.755 20.9064 24C20.9064 25.245 19.8935 26.2579 18.6486 26.2579ZM29.352 32.4375C28.107 32.4375 27.0941 31.4246 27.0941 30.1796C27.0941 28.9346 28.107 27.9217 29.352 27.9217C30.597 27.9217 31.6098 28.9346 31.6098 30.1796C31.6098 31.4246 30.597 32.4375 29.352 32.4375Z" fill="#F62D2D"/>
</g>
<defs>
<clipPath id="clip0_3340_33172">
<rect width="20" height="20" fill="white" transform="translate(14 14)"/>
</clipPath>
</defs>
</svg>
