<svg width="18" height="18" viewBox="0 0 18 18" fill="none" xmlns="http://www.w3.org/2000/svg">
<path fill-rule="evenodd" clip-rule="evenodd" d="M4.88208 7.01556C4.88208 7.01556 4.11334 7.78618 3.25084 8.64906C2.45209 9.44518 2.00586 10.5252 2.00586 11.6513C2.00586 12.7771 2.45209 13.8571 3.25084 14.6532C3.28084 14.6847 3.31084 14.7162 3.34459 14.7477C4.13959 15.5438 5.21959 15.9912 6.34459 15.9912C7.47334 15.9912 8.55334 15.5438 9.34834 14.7477C10.2108 13.8852 10.9833 13.1142 10.9833 13.1142C11.3471 12.7486 11.3471 12.1542 10.9833 11.7886C10.6158 11.4226 10.0233 11.4226 9.65582 11.7886C9.65582 11.7886 8.88333 12.5592 8.02083 13.4221C7.57833 13.8664 6.97459 14.1162 6.34459 14.1162C5.71834 14.1162 5.1146 13.8664 4.66835 13.4221L4.5746 13.3276C4.1321 12.8828 3.88086 12.2798 3.88086 11.6513C3.88086 11.0224 4.1321 10.4194 4.5746 9.97468C5.4371 9.11219 6.20959 8.34118 6.20959 8.34118C6.57334 7.97556 6.57334 7.38156 6.20959 7.01556C5.84209 6.64956 5.24958 6.64956 4.88208 7.01556ZM10.4621 6.21006L6.20959 10.4626C5.84209 10.8286 5.84209 11.4226 6.20959 11.7886C6.57334 12.1542 7.1696 12.1542 7.53335 11.7886L11.7858 7.53569C12.1533 7.16969 12.1533 6.57569 11.7858 6.21006C11.4221 5.84406 10.8258 5.84406 10.4621 6.21006ZM13.1021 10.9924C13.1021 10.9924 13.8783 10.2166 14.7446 9.34994C15.5433 8.55381 15.9896 7.47381 15.9896 6.34768C15.9896 5.22194 15.5433 4.14194 14.7446 3.34581C14.7146 3.31431 14.6846 3.28281 14.6508 3.25131C13.8558 2.45481 12.7758 2.00781 11.6508 2.00781C10.5221 2.00781 9.44209 2.45481 8.64709 3.25131C7.78459 4.11344 7.01585 4.88406 7.01585 4.88406C6.64835 5.25006 6.64835 5.84406 7.01585 6.21006C7.3796 6.57569 7.97586 6.57569 8.33961 6.21006C8.33961 6.21006 9.11211 5.43944 9.97461 4.57694C10.4171 4.13256 11.0208 3.88281 11.6508 3.88281C12.2771 3.88281 12.8808 4.13256 13.3271 4.57694L13.4208 4.67144C13.8633 5.11619 14.1146 5.71919 14.1146 6.34768C14.1146 6.97656 13.8633 7.57956 13.4208 8.02431C12.5546 8.89093 11.7783 9.66644 11.7783 9.66644C11.4108 10.0324 11.4108 10.6264 11.7783 10.9924C12.1421 11.3581 12.7383 11.3581 13.1021 10.9924Z" fill="#F62D2D" fill-opacity="0.8"/>
</svg>
