<svg width="18" height="18" viewBox="0 0 18 18" fill="none" xmlns="http://www.w3.org/2000/svg">
<g clip-path="url(#clip0_257_727)">
<path d="M13.8165 11.1233C12.7998 11.1233 11.8848 11.5669 11.2547 12.2707L7.45007 10.0741C7.56151 9.736 7.62184 9.37491 7.62184 9C7.62184 8.62509 7.56151 8.264 7.4501 7.92594L11.2548 5.72931C11.8848 6.4331 12.7999 6.8767 13.8166 6.8767C15.7125 6.8767 17.2549 5.33426 17.2549 3.43835C17.2549 1.54245 15.7125 0 13.8165 0C11.9206 0 10.3782 1.54245 10.3782 3.43835C10.3782 3.81326 10.4385 4.17435 10.55 4.51245L6.74529 6.70908C6.11525 6.00529 5.20021 5.56168 4.18349 5.56168C2.28755 5.56168 0.745102 7.10413 0.745102 9.00004C0.745102 10.8959 2.28755 12.4384 4.18349 12.4384C5.20021 12.4384 6.11525 11.9948 6.74529 11.291L10.55 13.4876C10.4385 13.8257 10.3782 14.1868 10.3782 14.5617C10.3782 16.4576 11.9206 18 13.8165 18C15.7125 18 17.2549 16.4576 17.2549 14.5617C17.2549 12.6658 15.7125 11.1233 13.8165 11.1233ZM13.8165 1.40625C14.937 1.40625 15.8486 2.31785 15.8486 3.43835C15.8486 4.55885 14.937 5.47045 13.8165 5.47045C12.696 5.47045 11.7844 4.55885 11.7844 3.43835C11.7844 2.31785 12.696 1.40625 13.8165 1.40625ZM4.18349 11.0321C3.06299 11.0321 2.15135 10.1205 2.15135 9C2.15135 7.8795 3.06299 6.9679 4.18349 6.9679C5.30395 6.9679 6.21555 7.8795 6.21555 9C6.21555 10.1205 5.30395 11.0321 4.18349 11.0321ZM13.8165 16.5938C12.696 16.5938 11.7844 15.6821 11.7844 14.5616C11.7844 13.4411 12.696 12.5295 13.8165 12.5295C14.937 12.5295 15.8486 13.4411 15.8486 14.5616C15.8486 15.6821 14.937 16.5938 13.8165 16.5938Z" fill="#061F35"/>
</g>
<defs>
<clipPath id="clip0_257_727">
<rect width="18" height="18" fill="white"/>
</clipPath>
</defs>
</svg>
