<svg width="54" height="54" viewBox="0 0 54 54" fill="none" xmlns="http://www.w3.org/2000/svg">
<rect x="1" y="1" width="52.0016" height="52" rx="26" fill="black" fill-opacity="0.08"/>
<rect x="1" y="1" width="52.0016" height="52" rx="26" stroke="#34495E" stroke-width="2"/>
<path d="M34.001 24.29C33.5857 24.822 33.0547 25.2523 32.4482 25.5483C31.8418 25.8443 31.1758 25.9981 30.501 25.9981C29.8261 25.9981 29.1602 25.8443 28.5537 25.5483C27.9472 25.2523 27.4162 24.822 27.001 24.29C26.5857 24.822 26.0547 25.2523 25.4482 25.5483C24.8418 25.8443 24.1758 25.9981 23.501 25.9981C22.8261 25.9981 22.1602 25.8443 21.5537 25.5483C20.9472 25.2523 20.4162 24.822 20.001 24.29C19.5849 24.8213 19.0538 25.2512 18.4475 25.5473C17.8413 25.8435 17.1757 25.9983 16.501 26C16.3345 26.0099 16.1675 26.0099 16.001 26V37C16.001 37.2653 16.1063 37.5196 16.2939 37.7071C16.4814 37.8947 16.7358 38 17.001 38H20.001V30C20.001 29.7348 20.1063 29.4805 20.2939 29.2929C20.4814 29.1054 20.7358 29 21.001 29H25.001C25.2662 29 25.5205 29.1054 25.7081 29.2929C25.8956 29.4805 26.001 29.7348 26.001 30V38H37.001C37.2662 38 37.5205 37.8947 37.7081 37.7071C37.8956 37.5196 38.001 37.2653 38.001 37V26C37.8354 26.0266 37.6685 26.0433 37.501 26.05C36.8221 26.0424 36.1539 25.8799 35.5474 25.5749C34.9408 25.2699 34.4119 24.8304 34.001 24.29ZM34.001 33C34.001 33.2653 33.8956 33.5196 33.7081 33.7071C33.5205 33.8947 33.2662 34 33.001 34H30.001C29.7358 34 29.4814 33.8947 29.2939 33.7071C29.1063 33.5196 29.001 33.2653 29.001 33V30C29.001 29.7348 29.1063 29.4805 29.2939 29.2929C29.4814 29.1054 29.7358 29 30.001 29H33.001C33.2662 29 33.5205 29.1054 33.7081 29.2929C33.8956 29.4805 34.001 29.7348 34.001 30V33Z" fill="#34495E"/>
<path d="M21.001 21.5C21.001 22.163 21.2644 22.7989 21.7332 23.2678C22.2021 23.7366 22.8379 24 23.501 24C24.164 24 24.7999 23.7366 25.2687 23.2678C25.7376 22.7989 26.001 22.163 26.001 21.5V14H23.001L21.001 19V21.5Z" fill="#34495E"/>
<path d="M19.0008 21.5V19L21.0008 14H19.0008C18.7012 14.0002 18.4055 14.0677 18.1355 14.1975C17.8655 14.3273 17.6281 14.5161 17.4408 14.75L14.4408 18.45C14.1564 18.8046 14.0012 19.2454 14.0008 19.7V21.36C13.9849 21.9983 14.2044 22.6202 14.6175 23.1071C15.0306 23.594 15.6084 23.9118 16.2408 24C16.5903 24.0365 16.9435 23.999 17.2775 23.8899C17.6115 23.7807 17.9188 23.6023 18.1792 23.3664C18.4396 23.1306 18.6474 22.8424 18.789 22.5208C18.9305 22.1992 19.0027 21.8514 19.0008 21.5Z" fill="#34495E"/>
<path d="M30.501 24C31.164 24 31.7999 23.7366 32.2687 23.2678C32.7376 22.7989 33.001 22.163 33.001 21.5V19L31.001 14H28.001V21.5C28.001 22.163 28.2644 22.7989 28.7332 23.2678C29.2021 23.7366 29.8379 24 30.501 24Z" fill="#34495E"/>
<path d="M39.561 18.45L36.561 14.75C36.3737 14.5161 36.1363 14.3273 35.8663 14.1975C35.5963 14.0677 35.3006 14.0002 35.001 14H33.001L35.001 19V21.5C34.9991 21.8514 35.0713 22.1992 35.2128 22.5208C35.3544 22.8424 35.5622 23.1306 35.8226 23.3664C36.083 23.6023 36.3903 23.7807 36.7243 23.8899C37.0582 23.999 37.4115 24.0365 37.761 24C38.3934 23.9118 38.9712 23.594 39.3843 23.1071C39.7974 22.6202 40.0169 21.9983 40.001 21.36V19.7C40.0006 19.2454 39.8454 18.8046 39.561 18.45Z" fill="#34495E"/>
</svg>
