<svg width="61" height="60" viewBox="0 0 61 60" fill="none" xmlns="http://www.w3.org/2000/svg">
<g clip-path="url(#clip0_5170_16771)">
<path d="M4.87109 27.9492H56.1289V57.1875H4.87109V27.9492Z" fill="#EFF3F5"/>
<path d="M0.734375 57.1875H60.2656V59.7656H0.734375V57.1875Z" fill="#788D9A"/>
<path d="M0.734375 57.1875H60.2656V57.8672H0.734375V57.1875Z" fill="#8DA1AA"/>
<path d="M7.34375 27.9492H0.734375L5.33984 15.1992H10.9297L7.34375 27.9492Z" fill="#F1786B"/>
<path d="M13.9648 27.9492H7.34375L10.9297 15.1992H16.5195L13.9648 27.9492Z" fill="#EFF3F5"/>
<path d="M20.5742 27.9492H13.9648L16.5195 15.1992H22.1094L20.5742 27.9492Z" fill="#F1786B"/>
<path d="M27.1953 27.9492H20.5742L22.1094 15.1992H27.6992L27.1953 27.9492Z" fill="#EFF3F5"/>
<path d="M33.8047 27.9492H27.1953L27.6992 15.1992H33.3008L33.8047 27.9492Z" fill="#F1786B"/>
<path d="M40.4258 27.9492H33.8047L33.3008 15.1992H38.8906L40.4258 27.9492Z" fill="#EFF3F5"/>
<path d="M47.0352 27.9492H40.4258L38.8906 15.1992H44.4805L47.0352 27.9492Z" fill="#F1786B"/>
<path d="M53.6563 27.9492H47.0352L44.4805 15.1992H50.0703L53.6563 27.9492Z" fill="#EFF3F5"/>
<path d="M60.2656 27.9492H53.6563L50.0703 15.1992H55.6602L60.2656 27.9492Z" fill="#F1786B"/>
<path d="M7.34375 30.1523C7.34375 31.9805 8.82031 33.457 10.6484 33.457C12.4766 33.457 13.9531 31.9805 13.9531 30.1523V27.9492H7.34375V30.1523Z" fill="#DBDFE0"/>
<path d="M20.5742 30.1523C20.5742 31.9805 22.0508 33.457 23.8789 33.457C25.707 33.457 27.1836 31.9805 27.1836 30.1523V27.9492H20.5742V30.1523Z" fill="#DBDFE0"/>
<path d="M33.8047 30.1523C33.8047 31.9805 35.2812 33.457 37.1094 33.457C38.9375 33.457 40.4141 31.9805 40.4141 30.1523V27.9492H33.8047V30.1523Z" fill="#DBDFE0"/>
<path d="M47.0352 27.9492V30.1523C47.0352 31.9805 48.5117 33.457 50.3398 33.457C52.168 33.457 53.6445 31.9805 53.6445 30.1523V27.9492H47.0352Z" fill="#DBDFE0"/>
<path d="M0.734375 30.1523C0.734375 31.9805 2.21094 33.457 4.03906 33.457C5.86719 33.457 7.34375 31.9805 7.34375 30.1523V27.9492H0.734375V30.1523Z" fill="#D45947"/>
<path d="M13.9648 30.1523C13.9648 31.9805 15.4414 33.457 17.2695 33.457C19.0977 33.457 20.5742 31.9805 20.5742 30.1523V27.9492H13.9648V30.1523Z" fill="#D45947"/>
<path d="M27.1953 30.1523C27.1953 31.9805 28.6719 33.457 30.5 33.457C32.3281 33.457 33.8047 31.9805 33.8047 30.1523V27.9492H27.1953V30.1523Z" fill="#D45947"/>
<path d="M40.4258 30.1523C40.4258 31.9805 41.9023 33.457 43.7305 33.457C45.5586 33.457 47.0352 31.9805 47.0352 30.1523V27.9492H40.4258V30.1523Z" fill="#D45947"/>
<path d="M53.6562 27.9492V30.1523C53.6562 31.9805 55.1328 33.457 56.9609 33.457C58.7891 33.457 60.2656 31.9805 60.2656 30.1523V27.9492H53.6562Z" fill="#D45947"/>
<path d="M9.86328 37.5352H19.5195V57.1875H9.86328V37.5352Z" fill="#445C6C"/>
<path d="M22.918 37.5352H51.1484V48.1758H22.918V37.5352Z" fill="#788D9A"/>
<path d="M23.7969 38.5898H50.2578V47.1211H23.7969V38.5898Z" fill="#41B3E2"/>
<path d="M10.8945 38.5898H18.4766V47.1211H10.8945V38.5898Z" fill="#41B3E2"/>
<path d="M10.8828 0.234375H50.1055V10.7461H10.8828V0.234375Z" fill="#F1786B"/>
<path d="M10.8828 0.234375H50.1055V0.785156H10.8828V0.234375Z" fill="#FC8A81"/>
<path d="M16.4375 3.23438C16.0859 3.23438 15.793 3.30469 15.5703 3.44531C15.3477 3.58594 15.2305 3.80859 15.2305 4.10156C15.2305 4.39453 15.3477 4.61719 15.5703 4.76953C15.793 4.92188 16.2734 5.08594 17.0234 5.27344C17.7617 5.44922 18.3125 5.70703 18.6875 6.02344C19.0625 6.35156 19.25 6.82031 19.25 7.45312C19.25 8.08594 19.0156 8.58984 18.5352 8.98828C18.0664 9.375 17.4453 9.57422 16.6719 9.57422C15.5469 9.57422 14.5508 9.1875 13.6719 8.41406L14.4336 7.5C15.1602 8.13281 15.9219 8.44922 16.6953 8.44922C17.082 8.44922 17.3984 8.36719 17.6328 8.19141C17.8672 8.02734 17.9727 7.80469 17.9727 7.52344C17.9727 7.24219 17.8672 7.03125 17.6445 6.87891C17.4336 6.72656 17.0586 6.58594 16.5313 6.45703C16.0039 6.32812 15.5937 6.21094 15.3242 6.10547C15.0547 6 14.8086 5.85938 14.5977 5.68359C14.1758 5.35547 13.9648 4.86328 13.9648 4.19531C13.9648 3.52734 14.2109 3.01172 14.6914 2.66016C15.1719 2.29688 15.7695 2.12109 16.4844 2.12109C16.9414 2.12109 17.3984 2.19141 17.8555 2.34375C18.3125 2.49609 18.6992 2.70703 19.0273 2.98828L18.3828 3.90234C18.1719 3.71484 17.8789 3.55078 17.5156 3.42188C17.1523 3.29297 16.7891 3.23438 16.4375 3.23438Z" fill="#D45947"/>
<path d="M23.4687 3.39844V9.49219H22.25V3.39844H20.0703V2.28516H25.6602V3.39844H23.4687Z" fill="#D45947"/>
<path d="M32.7969 8.49609C32.0703 9.21094 31.168 9.5625 30.1016 9.5625C29.0352 9.5625 28.1328 9.21094 27.4063 8.49609C26.6797 7.78125 26.3164 6.90234 26.3164 5.83594C26.3164 4.76953 26.6797 3.89062 27.4063 3.17578C28.1328 2.46094 29.0352 2.10938 30.1016 2.10938C31.168 2.10938 32.0703 2.46094 32.7969 3.17578C33.5234 3.89062 33.8867 4.76953 33.8867 5.83594C33.8867 6.90234 33.5352 7.78125 32.7969 8.49609ZM31.9062 3.98438C31.4141 3.48047 30.8164 3.22266 30.1016 3.22266C29.3867 3.22266 28.7891 3.48047 28.2969 3.98438C27.8047 4.48828 27.5586 5.10938 27.5586 5.83594C27.5586 6.5625 27.8047 7.17188 28.2969 7.6875C28.7891 8.19141 29.3867 8.44922 30.1016 8.44922C30.8164 8.44922 31.4141 8.19141 31.9062 7.6875C32.3984 7.18359 32.6445 6.5625 32.6445 5.83594C32.6445 5.10938 32.3984 4.48828 31.9062 3.98438Z" fill="#D45947"/>
<path d="M41.1758 4.61719C41.1758 5.80078 40.6602 6.55078 39.6172 6.86719L41.5156 9.48047H39.9687L38.2461 7.05469H36.6523V9.48047H35.4336V2.28516H38.1172C39.2187 2.28516 40.0039 2.47266 40.4727 2.83594C40.9414 3.21094 41.1758 3.80859 41.1758 4.61719ZM39.5586 5.64844C39.8047 5.4375 39.9336 5.09766 39.9336 4.61719C39.9336 4.13672 39.8047 3.82031 39.5469 3.64453C39.2891 3.46875 38.8437 3.38672 38.1875 3.38672H36.6406V5.96484H38.1523C38.8437 5.96484 39.3125 5.85938 39.5586 5.64844Z" fill="#D45947"/>
<path d="M47.9961 2.28516V3.43359H44.1523V5.34375H47.6094V6.42188H44.1523V8.34375H48.125V9.49219H42.9453V2.28516H47.9961Z" fill="#D45947"/>
<path d="M16.0391 2.88281C15.6875 2.88281 15.3945 2.95312 15.1719 3.09375C14.9492 3.23437 14.832 3.45703 14.832 3.75C14.832 4.04297 14.9492 4.26562 15.1719 4.41797C15.3945 4.57031 15.875 4.73438 16.625 4.92188C17.3633 5.09766 17.9141 5.35547 18.2891 5.67188C18.6641 6 18.8516 6.46875 18.8516 7.10156C18.8516 7.73438 18.6172 8.23828 18.1367 8.63672C17.668 9.02344 17.0469 9.22266 16.2734 9.22266C15.1484 9.22266 14.1523 8.83594 13.2734 8.0625L14.0352 7.14844C14.7617 7.78125 15.5234 8.09766 16.2969 8.09766C16.6836 8.09766 17 8.01563 17.2344 7.83984C17.4688 7.67578 17.5742 7.45312 17.5742 7.17188C17.5742 6.89062 17.4687 6.67969 17.2461 6.52734C17.0352 6.375 16.6602 6.23438 16.1328 6.10547C15.6055 5.97656 15.1953 5.85938 14.9258 5.75391C14.6562 5.64844 14.4102 5.50781 14.1992 5.33203C13.7773 5.00391 13.5664 4.51172 13.5664 3.84375C13.5664 3.17578 13.8125 2.66016 14.293 2.30859C14.7734 1.94531 15.3711 1.76953 16.0859 1.76953C16.543 1.76953 17 1.83984 17.457 1.99219C17.9141 2.14453 18.3008 2.35547 18.6289 2.63672L17.9844 3.55078C17.7734 3.36328 17.4805 3.19922 17.1172 3.07031C16.7539 2.94141 16.4023 2.88281 16.0391 2.88281Z" fill="#EFF3F5"/>
<path d="M23.0703 3.04688V9.14062H21.8516V3.04688H19.6719V1.93359H25.2617V3.04688H23.0703Z" fill="#EFF3F5"/>
<path d="M32.4102 8.14453C31.6836 8.85938 30.7813 9.21094 29.7148 9.21094C28.6484 9.21094 27.7461 8.85938 27.0195 8.14453C26.293 7.42969 25.9297 6.55078 25.9297 5.48438C25.9297 4.41797 26.293 3.53906 27.0195 2.82422C27.7461 2.10938 28.6484 1.75781 29.7148 1.75781C30.7813 1.75781 31.6836 2.10938 32.4102 2.82422C33.1367 3.53906 33.5 4.41797 33.5 5.48438C33.5 6.55078 33.1367 7.42969 32.4102 8.14453ZM31.5195 3.63281C31.0273 3.12891 30.4297 2.87109 29.7148 2.87109C29 2.87109 28.3906 3.12891 27.8984 3.63281C27.4063 4.13672 27.1602 4.75781 27.1602 5.48438C27.1602 6.21094 27.4063 6.82031 27.8984 7.33594C28.3906 7.83984 28.9883 8.09766 29.7031 8.09766C30.418 8.09766 31.0156 7.83984 31.5078 7.33594C32 6.83203 32.2461 6.21094 32.2461 5.48438C32.2461 4.75781 32.0117 4.14844 31.5195 3.63281Z" fill="#EFF3F5"/>
<path d="M40.7891 4.27734C40.7891 5.46094 40.2734 6.21094 39.2305 6.52734L41.1172 9.14062H39.5703L37.8477 6.71484H36.2539V9.14062H35.0352V1.93359H37.7187C38.8203 1.93359 39.6055 2.12109 40.0742 2.48438C40.5547 2.85938 40.7891 3.45703 40.7891 4.27734ZM39.1719 5.29688C39.418 5.08594 39.5469 4.74609 39.5469 4.26563C39.5469 3.78516 39.418 3.46875 39.1602 3.29297C38.9023 3.11719 38.457 3.03516 37.8008 3.03516H36.2539V5.61328H37.7656C38.457 5.61328 38.9258 5.50781 39.1719 5.29688Z" fill="#EFF3F5"/>
<path d="M47.5977 1.93359V3.08203H43.7539V4.99219H47.2109V6.07031H43.7539V7.99219H47.7266V9.14062H42.5469V1.93359H47.5977Z" fill="#EFF3F5"/>
<path d="M15.3711 10.7461H17.4102V15.1992H15.3711V10.7461Z" fill="#445C6C"/>
<path d="M43.5898 10.7461H45.6289V15.1992H43.5898V10.7461Z" fill="#445C6C"/>
</g>
<defs>
<clipPath id="clip0_5170_16771">
<rect width="60" height="60" fill="white" transform="translate(0.5)"/>
</clipPath>
</defs>
</svg>
