<svg width="401" height="331" viewBox="0 0 401 331" fill="none" xmlns="http://www.w3.org/2000/svg">
<path d="M58.0584 23.6172C58.0584 23.0703 57.9738 22.582 57.8045 22.1523C57.6483 21.7096 57.3553 21.3125 56.9256 20.9609C56.509 20.5964 55.9165 20.2448 55.1483 19.9062C54.3931 19.5547 53.4165 19.1901 52.2186 18.8125C50.8905 18.3958 49.6535 17.9271 48.5077 17.4062C47.3618 16.8854 46.3527 16.2799 45.4803 15.5898C44.6209 14.8997 43.9504 14.1055 43.4686 13.207C42.9868 12.2956 42.7459 11.2409 42.7459 10.043C42.7459 8.87109 42.9933 7.80339 43.4881 6.83984C43.9959 5.8763 44.7121 5.04948 45.6366 4.35938C46.561 3.65625 47.6483 3.11589 48.8983 2.73828C50.1613 2.36068 51.5545 2.17188 53.078 2.17188C55.1873 2.17188 57.0103 2.55599 58.5467 3.32422C60.0962 4.09245 61.2941 5.13411 62.1405 6.44922C62.9868 7.76432 63.41 9.24219 63.41 10.8828H58.0584C58.0584 9.9974 57.8696 9.21615 57.492 8.53906C57.1275 7.86198 56.5676 7.32812 55.8123 6.9375C55.0702 6.54688 54.1327 6.35156 52.9998 6.35156C51.9061 6.35156 50.9946 6.51432 50.2655 6.83984C49.5493 7.16536 49.009 7.60807 48.6444 8.16797C48.2928 8.72786 48.117 9.35286 48.117 10.043C48.117 10.5638 48.2407 11.0326 48.4881 11.4492C48.7355 11.8529 49.1066 12.237 49.6014 12.6016C50.0962 12.9531 50.7082 13.2852 51.4373 13.5977C52.1795 13.8971 53.0389 14.1966 54.0155 14.4961C55.578 14.9648 56.9452 15.4857 58.117 16.0586C59.3019 16.6315 60.285 17.2826 61.0663 18.0117C61.8605 18.7409 62.453 19.5612 62.8436 20.4727C63.2472 21.3841 63.4491 22.4193 63.4491 23.5781C63.4491 24.8021 63.2082 25.8958 62.7264 26.8594C62.2446 27.8229 61.5545 28.6432 60.6561 29.3203C59.7577 29.9974 58.6769 30.5117 57.4139 30.8633C56.1639 31.2148 54.7642 31.3906 53.2147 31.3906C51.8345 31.3906 50.4673 31.2083 49.1131 30.8438C47.772 30.4661 46.5545 29.9062 45.4608 29.1641C44.367 28.4089 43.4946 27.4583 42.8436 26.3125C42.1926 25.1536 41.867 23.7995 41.867 22.25H47.2577C47.2577 23.1484 47.4009 23.9167 47.6873 24.5547C47.9868 25.1797 48.4035 25.694 48.9373 26.0977C49.4842 26.4883 50.1222 26.7747 50.8514 26.957C51.5806 27.1393 52.3683 27.2305 53.2147 27.2305C54.3084 27.2305 55.2069 27.0807 55.91 26.7812C56.6261 26.4688 57.16 26.0391 57.5116 25.4922C57.8761 24.9453 58.0584 24.3203 58.0584 23.6172ZM79.7772 25.9805V9.86719H84.9725V31H80.0897L79.7772 25.9805ZM80.4413 21.6055L82.0428 21.5664C82.0428 22.9857 81.8866 24.2943 81.5741 25.4922C81.2616 26.6901 80.7733 27.7318 80.1092 28.6172C79.4582 29.4896 78.6314 30.1732 77.6288 30.668C76.6261 31.1497 75.4413 31.3906 74.0741 31.3906C73.0324 31.3906 72.0819 31.2474 71.2225 30.9609C70.3631 30.6615 69.6209 30.1992 68.9959 29.5742C68.384 28.9362 67.9087 28.1224 67.5702 27.1328C67.2316 26.1302 67.0623 24.9258 67.0623 23.5195V9.86719H72.2186V23.5586C72.2186 24.2617 72.2967 24.8477 72.453 25.3164C72.6222 25.7852 72.8501 26.1693 73.1366 26.4688C73.436 26.7552 73.7811 26.9635 74.1717 27.0938C74.5754 27.2109 75.0051 27.2695 75.4608 27.2695C76.7108 27.2695 77.6939 27.0221 78.41 26.5273C79.1392 26.0195 79.66 25.3424 79.9725 24.4961C80.285 23.6367 80.4413 22.6732 80.4413 21.6055ZM98.2147 27.3281C98.9439 27.3281 99.5949 27.1849 100.168 26.8984C100.741 26.612 101.196 26.2083 101.535 25.6875C101.887 25.1667 102.075 24.5612 102.101 23.8711H106.965C106.939 25.3034 106.535 26.5859 105.754 27.7188C104.973 28.8516 103.931 29.75 102.629 30.4141C101.34 31.0651 99.8944 31.3906 98.2928 31.3906C96.6652 31.3906 95.2459 31.1172 94.035 30.5703C92.8241 30.0234 91.815 29.2617 91.0077 28.2852C90.2134 27.3086 89.6144 26.1758 89.2108 24.8867C88.8202 23.5977 88.6248 22.2174 88.6248 20.7461V20.1211C88.6248 18.6497 88.8202 17.2695 89.2108 15.9805C89.6144 14.6914 90.2134 13.5586 91.0077 12.582C91.815 11.6055 92.8241 10.8438 94.035 10.2969C95.2459 9.75 96.6587 9.47656 98.2733 9.47656C99.979 9.47656 101.476 9.80859 102.765 10.4727C104.068 11.1367 105.083 12.0742 105.812 13.2852C106.555 14.4961 106.939 15.9219 106.965 17.5625H102.101C102.075 16.8073 101.906 16.1302 101.594 15.5312C101.281 14.9323 100.838 14.4505 100.265 14.0859C99.6926 13.7214 98.9959 13.5391 98.1756 13.5391C97.3032 13.5391 96.5741 13.7214 95.9881 14.0859C95.4152 14.4505 94.966 14.9518 94.6405 15.5898C94.328 16.2148 94.1066 16.918 93.9764 17.6992C93.8592 18.4674 93.8006 19.2747 93.8006 20.1211V20.7461C93.8006 21.6055 93.8592 22.4258 93.9764 23.207C94.1066 23.9883 94.328 24.6914 94.6405 25.3164C94.966 25.9284 95.4152 26.4167 95.9881 26.7812C96.5741 27.1458 97.3163 27.3281 98.2147 27.3281ZM119.074 27.3281C119.803 27.3281 120.454 27.1849 121.027 26.8984C121.6 26.612 122.056 26.2083 122.394 25.6875C122.746 25.1667 122.935 24.5612 122.961 23.8711H127.824C127.798 25.3034 127.394 26.5859 126.613 27.7188C125.832 28.8516 124.79 29.75 123.488 30.4141C122.199 31.0651 120.754 31.3906 119.152 31.3906C117.525 31.3906 116.105 31.1172 114.894 30.5703C113.683 30.0234 112.674 29.2617 111.867 28.2852C111.073 27.3086 110.474 26.1758 110.07 24.8867C109.68 23.5977 109.484 22.2174 109.484 20.7461V20.1211C109.484 18.6497 109.68 17.2695 110.07 15.9805C110.474 14.6914 111.073 13.5586 111.867 12.582C112.674 11.6055 113.683 10.8438 114.894 10.2969C116.105 9.75 117.518 9.47656 119.133 9.47656C120.838 9.47656 122.336 9.80859 123.625 10.4727C124.927 11.1367 125.943 12.0742 126.672 13.2852C127.414 14.4961 127.798 15.9219 127.824 17.5625H122.961C122.935 16.8073 122.765 16.1302 122.453 15.5312C122.14 14.9323 121.698 14.4505 121.125 14.0859C120.552 13.7214 119.855 13.5391 119.035 13.5391C118.163 13.5391 117.433 13.7214 116.848 14.0859C116.275 14.4505 115.825 14.9518 115.5 15.5898C115.187 16.2148 114.966 16.918 114.836 17.6992C114.719 18.4674 114.66 19.2747 114.66 20.1211V20.7461C114.66 21.6055 114.719 22.4258 114.836 23.207C114.966 23.9883 115.187 24.6914 115.5 25.3164C115.825 25.9284 116.275 26.4167 116.848 26.7812C117.433 27.1458 118.176 27.3281 119.074 27.3281ZM140.754 31.3906C139.152 31.3906 137.713 31.1302 136.437 30.6094C135.161 30.0885 134.074 29.3659 133.176 28.4414C132.29 27.5039 131.607 26.4167 131.125 25.1797C130.656 23.9297 130.422 22.5885 130.422 21.1562V20.375C130.422 18.7474 130.656 17.2695 131.125 15.9414C131.594 14.6003 132.258 13.4479 133.117 12.4844C133.976 11.5208 135.005 10.7786 136.203 10.2578C137.401 9.73698 138.723 9.47656 140.168 9.47656C141.665 9.47656 142.987 9.73047 144.133 10.2383C145.278 10.7331 146.236 11.4362 147.004 12.3477C147.772 13.2591 148.351 14.3529 148.742 15.6289C149.133 16.8919 149.328 18.2917 149.328 19.8281V21.9961H132.765V18.4414H144.25V18.0508C144.224 17.2305 144.068 16.4818 143.781 15.8047C143.495 15.1146 143.052 14.5677 142.453 14.1641C141.854 13.7474 141.079 13.5391 140.129 13.5391C139.361 13.5391 138.69 13.7083 138.117 14.0469C137.557 14.3724 137.088 14.8411 136.711 15.4531C136.346 16.0521 136.073 16.7682 135.89 17.6016C135.708 18.4349 135.617 19.3594 135.617 20.375V21.1562C135.617 22.0417 135.734 22.862 135.969 23.6172C136.216 24.3724 136.574 25.0299 137.043 25.5898C137.525 26.1367 138.098 26.5664 138.762 26.8789C139.439 27.1784 140.207 27.3281 141.066 27.3281C142.147 27.3281 143.124 27.1198 143.996 26.7031C144.881 26.2734 145.65 25.6419 146.301 24.8086L148.898 27.5039C148.456 28.1549 147.857 28.7799 147.101 29.3789C146.359 29.9779 145.461 30.4661 144.406 30.8438C143.351 31.2083 142.134 31.3906 140.754 31.3906ZM164.406 25.2188C164.406 24.776 164.289 24.3789 164.055 24.0273C163.82 23.6758 163.377 23.3568 162.726 23.0703C162.088 22.7708 161.151 22.4909 159.914 22.2305C158.82 21.9961 157.811 21.7031 156.887 21.3516C155.962 21 155.168 20.5768 154.504 20.082C153.84 19.5742 153.319 18.9818 152.941 18.3047C152.577 17.6146 152.394 16.8203 152.394 15.9219C152.394 15.0495 152.583 14.2292 152.961 13.4609C153.338 12.6797 153.885 11.9961 154.601 11.4102C155.318 10.8112 156.19 10.3424 157.219 10.0039C158.247 9.65234 159.406 9.47656 160.695 9.47656C162.492 9.47656 164.035 9.76953 165.324 10.3555C166.626 10.9414 167.622 11.7487 168.312 12.7773C169.002 13.793 169.348 14.9388 169.348 16.2148H164.191C164.191 15.6549 164.061 15.1471 163.801 14.6914C163.553 14.2357 163.169 13.8711 162.648 13.5977C162.127 13.3112 161.47 13.168 160.676 13.168C159.959 13.168 159.354 13.2852 158.859 13.5195C158.377 13.7539 158.013 14.0599 157.765 14.4375C157.518 14.8151 157.394 15.2318 157.394 15.6875C157.394 16.026 157.459 16.332 157.59 16.6055C157.733 16.8659 157.961 17.1068 158.273 17.3281C158.586 17.5495 159.009 17.7513 159.543 17.9336C160.09 18.1159 160.76 18.2917 161.555 18.4609C163.13 18.7734 164.504 19.1901 165.676 19.7109C166.861 20.2188 167.785 20.8958 168.449 21.7422C169.113 22.5885 169.445 23.6693 169.445 24.9844C169.445 25.9219 169.243 26.7812 168.84 27.5625C168.436 28.3307 167.85 29.0013 167.082 29.5742C166.314 30.1471 165.396 30.5964 164.328 30.9219C163.26 31.2344 162.056 31.3906 160.715 31.3906C158.775 31.3906 157.134 31.0456 155.793 30.3555C154.452 29.6523 153.436 28.7669 152.746 27.6992C152.056 26.6185 151.711 25.4987 151.711 24.3398H156.652C156.691 25.1602 156.913 25.8177 157.316 26.3125C157.72 26.8073 158.228 27.1654 158.84 27.3867C159.465 27.5951 160.122 27.6992 160.812 27.6992C161.594 27.6992 162.251 27.5951 162.785 27.3867C163.319 27.1654 163.723 26.8724 163.996 26.5078C164.269 26.1302 164.406 25.7005 164.406 25.2188ZM184.992 25.2188C184.992 24.776 184.875 24.3789 184.64 24.0273C184.406 23.6758 183.963 23.3568 183.312 23.0703C182.674 22.7708 181.737 22.4909 180.5 22.2305C179.406 21.9961 178.397 21.7031 177.473 21.3516C176.548 21 175.754 20.5768 175.09 20.082C174.426 19.5742 173.905 18.9818 173.527 18.3047C173.163 17.6146 172.98 16.8203 172.98 15.9219C172.98 15.0495 173.169 14.2292 173.547 13.4609C173.924 12.6797 174.471 11.9961 175.187 11.4102C175.903 10.8112 176.776 10.3424 177.805 10.0039C178.833 9.65234 179.992 9.47656 181.281 9.47656C183.078 9.47656 184.621 9.76953 185.91 10.3555C187.212 10.9414 188.208 11.7487 188.898 12.7773C189.588 13.793 189.933 14.9388 189.933 16.2148H184.777C184.777 15.6549 184.647 15.1471 184.387 14.6914C184.139 14.2357 183.755 13.8711 183.234 13.5977C182.713 13.3112 182.056 13.168 181.262 13.168C180.545 13.168 179.94 13.2852 179.445 13.5195C178.963 13.7539 178.599 14.0599 178.351 14.4375C178.104 14.8151 177.98 15.2318 177.98 15.6875C177.98 16.026 178.045 16.332 178.176 16.6055C178.319 16.8659 178.547 17.1068 178.859 17.3281C179.172 17.5495 179.595 17.7513 180.129 17.9336C180.676 18.1159 181.346 18.2917 182.14 18.4609C183.716 18.7734 185.09 19.1901 186.262 19.7109C187.446 20.2188 188.371 20.8958 189.035 21.7422C189.699 22.5885 190.031 23.6693 190.031 24.9844C190.031 25.9219 189.829 26.7812 189.426 27.5625C189.022 28.3307 188.436 29.0013 187.668 29.5742C186.9 30.1471 185.982 30.5964 184.914 30.9219C183.846 31.2344 182.642 31.3906 181.301 31.3906C179.361 31.3906 177.72 31.0456 176.379 30.3555C175.038 29.6523 174.022 28.7669 173.332 27.6992C172.642 26.6185 172.297 25.4987 172.297 24.3398H177.238C177.277 25.1602 177.499 25.8177 177.902 26.3125C178.306 26.8073 178.814 27.1654 179.426 27.3867C180.051 27.5951 180.708 27.6992 181.398 27.6992C182.18 27.6992 182.837 27.5951 183.371 27.3867C183.905 27.1654 184.308 26.8724 184.582 26.5078C184.855 26.1302 184.992 25.7005 184.992 25.2188ZM200.715 31H195.519V7.91406C195.519 6.32552 195.825 4.99089 196.437 3.91016C197.049 2.81641 197.922 1.98958 199.055 1.42969C200.187 0.869792 201.522 0.589844 203.058 0.589844C203.566 0.589844 204.048 0.622396 204.504 0.6875C204.973 0.752604 205.435 0.84375 205.89 0.960938L205.793 4.88672C205.545 4.82161 205.272 4.77604 204.973 4.75C204.686 4.72396 204.367 4.71094 204.015 4.71094C203.312 4.71094 202.713 4.83464 202.219 5.08203C201.724 5.32943 201.346 5.69401 201.086 6.17578C200.838 6.64453 200.715 7.22396 200.715 7.91406V31ZM204.992 9.86719V13.5781H192.336V9.86719H204.992ZM220.754 25.9805V9.86719H225.949V31H221.066L220.754 25.9805ZM221.418 21.6055L223.019 21.5664C223.019 22.9857 222.863 24.2943 222.551 25.4922C222.238 26.6901 221.75 27.7318 221.086 28.6172C220.435 29.4896 219.608 30.1732 218.605 30.668C217.603 31.1497 216.418 31.3906 215.051 31.3906C214.009 31.3906 213.058 31.2474 212.199 30.9609C211.34 30.6615 210.598 30.1992 209.973 29.5742C209.361 28.9362 208.885 28.1224 208.547 27.1328C208.208 26.1302 208.039 24.9258 208.039 23.5195V9.86719H213.195V23.5586C213.195 24.2617 213.273 24.8477 213.43 25.3164C213.599 25.7852 213.827 26.1693 214.113 26.4688C214.413 26.7552 214.758 26.9635 215.148 27.0938C215.552 27.2109 215.982 27.2695 216.437 27.2695C217.687 27.2695 218.67 27.0221 219.387 26.5273C220.116 26.0195 220.637 25.3424 220.949 24.4961C221.262 23.6367 221.418 22.6732 221.418 21.6055ZM235.988 1V31H230.812V1H235.988ZM246.379 1V31H241.203V1H246.379ZM257.492 28.6562L263.156 9.86719H268.683L260.207 34.2031C260.012 34.724 259.758 35.2904 259.445 35.9023C259.146 36.5143 258.742 37.0938 258.234 37.6406C257.726 38.2005 257.088 38.6562 256.32 39.0078C255.565 39.3594 254.647 39.5352 253.566 39.5352C253.098 39.5352 252.681 39.5026 252.316 39.4375C251.952 39.3724 251.568 39.2878 251.164 39.1836V35.3164C251.294 35.3294 251.444 35.3359 251.613 35.3359C251.795 35.349 251.952 35.3555 252.082 35.3555C252.837 35.3555 253.462 35.2643 253.957 35.082C254.452 34.9128 254.849 34.6328 255.148 34.2422C255.461 33.8646 255.721 33.3698 255.93 32.7578L257.492 28.6562ZM254.699 9.86719L259.484 25.4336L260.324 30.8828L256.769 31.5273L249.133 9.86719H254.699ZM296.418 23.6172C296.418 23.0703 296.333 22.582 296.164 22.1523C296.008 21.7096 295.715 21.3125 295.285 20.9609C294.868 20.5964 294.276 20.2448 293.508 19.9062C292.752 19.5547 291.776 19.1901 290.578 18.8125C289.25 18.3958 288.013 17.9271 286.867 17.4062C285.721 16.8854 284.712 16.2799 283.84 15.5898C282.98 14.8997 282.31 14.1055 281.828 13.207C281.346 12.2956 281.105 11.2409 281.105 10.043C281.105 8.87109 281.353 7.80339 281.848 6.83984C282.355 5.8763 283.071 5.04948 283.996 4.35938C284.92 3.65625 286.008 3.11589 287.258 2.73828C288.521 2.36068 289.914 2.17188 291.437 2.17188C293.547 2.17188 295.37 2.55599 296.906 3.32422C298.456 4.09245 299.653 5.13411 300.5 6.44922C301.346 7.76432 301.769 9.24219 301.769 10.8828H296.418C296.418 9.9974 296.229 9.21615 295.851 8.53906C295.487 7.86198 294.927 7.32812 294.172 6.9375C293.43 6.54688 292.492 6.35156 291.359 6.35156C290.265 6.35156 289.354 6.51432 288.625 6.83984C287.909 7.16536 287.368 7.60807 287.004 8.16797C286.652 8.72786 286.476 9.35286 286.476 10.043C286.476 10.5638 286.6 11.0326 286.848 11.4492C287.095 11.8529 287.466 12.237 287.961 12.6016C288.456 12.9531 289.068 13.2852 289.797 13.5977C290.539 13.8971 291.398 14.1966 292.375 14.4961C293.937 14.9648 295.305 15.4857 296.476 16.0586C297.661 16.6315 298.644 17.2826 299.426 18.0117C300.22 18.7409 300.812 19.5612 301.203 20.4727C301.607 21.3841 301.808 22.4193 301.808 23.5781C301.808 24.8021 301.568 25.8958 301.086 26.8594C300.604 27.8229 299.914 28.6432 299.015 29.3203C298.117 29.9974 297.036 30.5117 295.773 30.8633C294.523 31.2148 293.124 31.3906 291.574 31.3906C290.194 31.3906 288.827 31.2083 287.473 30.8438C286.131 30.4661 284.914 29.9062 283.82 29.1641C282.726 28.4089 281.854 27.4583 281.203 26.3125C280.552 25.1536 280.226 23.7995 280.226 22.25H285.617C285.617 23.1484 285.76 23.9167 286.047 24.5547C286.346 25.1797 286.763 25.694 287.297 26.0977C287.844 26.4883 288.482 26.7747 289.211 26.957C289.94 27.1393 290.728 27.2305 291.574 27.2305C292.668 27.2305 293.566 27.0807 294.269 26.7812C294.986 26.4688 295.519 26.0391 295.871 25.4922C296.236 24.9453 296.418 24.3203 296.418 23.6172ZM315.051 31.3906C313.449 31.3906 312.01 31.1302 310.734 30.6094C309.458 30.0885 308.371 29.3659 307.473 28.4414C306.587 27.5039 305.903 26.4167 305.422 25.1797C304.953 23.9297 304.719 22.5885 304.719 21.1562V20.375C304.719 18.7474 304.953 17.2695 305.422 15.9414C305.89 14.6003 306.555 13.4479 307.414 12.4844C308.273 11.5208 309.302 10.7786 310.5 10.2578C311.698 9.73698 313.019 9.47656 314.465 9.47656C315.962 9.47656 317.284 9.73047 318.43 10.2383C319.575 10.7331 320.532 11.4362 321.301 12.3477C322.069 13.2591 322.648 14.3529 323.039 15.6289C323.43 16.8919 323.625 18.2917 323.625 19.8281V21.9961H307.062V18.4414H318.547V18.0508C318.521 17.2305 318.364 16.4818 318.078 15.8047C317.792 15.1146 317.349 14.5677 316.75 14.1641C316.151 13.7474 315.376 13.5391 314.426 13.5391C313.657 13.5391 312.987 13.7083 312.414 14.0469C311.854 14.3724 311.385 14.8411 311.008 15.4531C310.643 16.0521 310.37 16.7682 310.187 17.6016C310.005 18.4349 309.914 19.3594 309.914 20.375V21.1562C309.914 22.0417 310.031 22.862 310.265 23.6172C310.513 24.3724 310.871 25.0299 311.34 25.5898C311.821 26.1367 312.394 26.5664 313.058 26.8789C313.736 27.1784 314.504 27.3281 315.363 27.3281C316.444 27.3281 317.42 27.1198 318.293 26.7031C319.178 26.2734 319.946 25.6419 320.598 24.8086L323.195 27.5039C322.752 28.1549 322.153 28.7799 321.398 29.3789C320.656 29.9779 319.758 30.4661 318.703 30.8438C317.648 31.2083 316.431 31.3906 315.051 31.3906ZM332.14 14.3789V31H326.984V9.86719H331.828L332.14 14.3789ZM331.32 19.6719H329.797C329.81 18.1354 330.018 16.7422 330.422 15.4922C330.825 14.2422 331.392 13.168 332.121 12.2695C332.863 11.3711 333.742 10.681 334.758 10.1992C335.773 9.71745 336.906 9.47656 338.156 9.47656C339.172 9.47656 340.09 9.61979 340.91 9.90625C341.73 10.1927 342.433 10.6484 343.019 11.2734C343.618 11.8984 344.074 12.7188 344.387 13.7344C344.712 14.737 344.875 15.974 344.875 17.4453V31H339.68V17.4062C339.68 16.4427 339.536 15.681 339.25 15.1211C338.976 14.5612 338.573 14.1641 338.039 13.9297C337.518 13.6953 336.874 13.5781 336.105 13.5781C335.311 13.5781 334.614 13.7409 334.015 14.0664C333.43 14.3789 332.935 14.8151 332.531 15.375C332.14 15.9349 331.841 16.5794 331.633 17.3086C331.424 18.0378 331.32 18.8255 331.32 19.6719ZM359.426 9.86719V13.5781H347.316V9.86719H359.426ZM350.558 4.67188H355.734V24.9062C355.734 25.5312 355.819 26.013 355.988 26.3516C356.157 26.6901 356.411 26.918 356.75 27.0352C357.088 27.1523 357.492 27.2109 357.961 27.2109C358.299 27.2109 358.612 27.1914 358.898 27.1523C359.185 27.1133 359.426 27.0742 359.621 27.0352L359.64 30.9023C359.211 31.0456 358.723 31.1628 358.176 31.2539C357.642 31.3451 357.036 31.3906 356.359 31.3906C355.2 31.3906 354.185 31.1953 353.312 30.8047C352.44 30.401 351.763 29.7565 351.281 28.8711C350.799 27.9727 350.558 26.7878 350.558 25.3164V4.67188Z" fill="url(#paint0_linear_3418_16502)"/>
<path d="M342.005 115.303C342.005 116.163 325.833 142.142 301.575 166.744C277.145 191.175 244.629 214.401 205.403 207.003C164.973 199.261 130.736 202.702 106.65 217.67C82.3924 232.638 68.1129 258.961 62.9516 295.09C63.1236 293.542 63.4677 291.994 63.6397 290.617C57.9623 271.348 51.9408 251.907 45.4032 232.466C44.715 232.466 43.8548 232.466 43.1666 232.294C29.0591 230.229 14.7796 228.337 0.5 226.444C2.56451 216.121 8.06989 185.153 30.7796 163.131C52.9731 140.938 92.543 128.034 150.349 149.54C198.693 167.433 237.059 163.475 269.403 153.153C301.575 142.83 327.554 126.314 342.005 115.303Z" fill="url(#paint1_linear_3418_16502)"/>
<path d="M342.005 115.303C330.478 130.959 309.489 156.078 285.403 176.379C260.973 196.68 233.274 212.164 202.134 206.315C176.328 201.326 153.446 200.981 134.349 205.455C94.2632 214.401 71.3815 243.821 63.8116 290.617C63.6396 292.166 63.2955 293.542 63.1234 295.09C57.1019 274.273 50.3923 253.455 43.3385 232.122C42.9944 230.917 42.4783 229.713 42.1342 228.337C28.3708 227.476 14.4353 226.788 0.671875 226.272C2.90843 211.132 15.6396 153.325 71.5536 140.938C92.5428 136.12 119.209 137.669 150.693 149.368C199.037 167.26 237.403 163.303 269.747 152.981C301.575 142.83 327.553 126.314 342.005 115.303Z" fill="url(#paint2_linear_3418_16502)"/>
<path opacity="0.1" d="M134.349 205.457C94.2632 214.403 71.3815 243.823 63.8116 290.619C63.6396 292.168 63.2955 293.544 63.1234 295.092C57.1019 274.275 50.3923 253.457 43.3385 232.124C42.9944 230.919 42.4783 229.715 42.1342 228.339C28.3708 227.478 14.4353 226.79 0.671875 226.274C2.90843 211.134 15.6396 153.327 71.5536 140.939C86.8654 149.542 104.07 157.456 121.446 161.069C150.177 167.434 143.123 189.112 134.349 205.457Z" fill="white"/>
<path d="M275.94 173.632C275.94 173.46 275.94 173.46 275.94 173.288C277.144 168.643 279.896 163.653 285.23 159.868C285.23 159.868 285.402 159.868 285.402 159.696C285.402 159.696 285.574 159.696 285.574 159.524C289.703 156.599 295.208 154.191 302.262 152.814C310.52 151.266 317.058 148.169 322.047 144.556C322.047 144.556 322.047 144.556 322.219 144.556C322.391 144.384 322.735 144.212 322.907 144.04C326.004 141.803 328.757 139.223 330.993 136.47C335.638 131.137 338.907 125.287 340.972 120.814C341.316 118.749 341.488 117.029 341.66 115.48C339.767 120.126 335.982 127.868 329.961 134.922C327.724 137.502 324.972 140.083 321.875 142.492C321.703 142.664 321.359 142.836 321.187 143.008C321.187 143.008 321.187 143.008 321.015 143.008C315.853 146.621 309.488 149.546 301.23 151.266C294.176 152.642 288.671 155.051 284.542 157.976C284.542 157.976 284.37 157.976 284.37 158.148C284.37 158.148 284.198 158.148 284.198 158.32C279.036 162.277 276.112 167.094 274.907 171.739C274.907 171.911 274.907 171.911 274.907 172.083C274.047 176.041 274.047 179.826 274.563 183.094C275.251 186.879 276.284 189.804 276.8 191.181C276.972 191.181 276.972 191.008 277.144 191.008C276.628 189.46 275.94 187.223 275.423 184.643C275.079 181.374 275.079 177.589 275.94 173.632Z" fill="white"/>
<path d="M197.832 118.239C198.004 118.067 198.176 118.067 198.176 117.895C204.714 113.25 213.316 110.153 223.983 110.841C224.155 110.841 224.155 110.841 224.327 110.841C224.499 110.841 224.499 110.841 224.671 110.841C232.929 111.529 242.391 114.454 252.714 120.132C264.929 127.013 275.94 130.11 286.09 130.971H286.262C286.778 130.971 287.295 130.971 287.811 131.143C294.176 131.487 300.198 131.143 305.875 130.282C317.402 128.39 327.725 124.777 335.122 121.336C337.531 119.099 339.768 117.035 341.66 115.314C334.434 119.271 321.531 124.777 306.391 127.186C300.714 128.046 294.692 128.39 288.327 128.046C287.811 128.046 287.295 128.046 286.778 127.874H286.606C276.456 127.013 265.273 123.917 253.23 117.035C242.907 111.185 233.445 108.433 225.187 107.744C225.015 107.744 225.015 107.744 224.843 107.744C224.671 107.744 224.671 107.744 224.499 107.744C213.832 107.056 205.058 109.981 198.692 114.798C198.52 114.97 198.348 114.97 198.348 115.142C193.015 119.099 189.23 123.917 186.305 128.562C183.209 133.895 181.488 138.713 180.628 141.121C180.8 141.121 180.972 141.293 181.316 141.293C182.348 138.713 183.725 135.272 185.961 131.659C188.714 127.013 192.671 122.196 197.832 118.239Z" fill="white"/>
<path d="M341.834 111.867C342.522 114.792 343.038 117.889 343.554 120.814C346.307 118.405 349.06 115.996 351.985 113.76C348.716 113.072 345.275 112.555 341.834 111.867Z" fill="url(#paint3_linear_3418_16502)"/>
<path d="M378.994 134.582C369.36 124.775 356.973 114.968 341.661 106.538C358.865 98.624 378.478 93.4626 399.64 91.7422C399.984 91.7422 400.328 91.7422 400.5 91.7422C391.726 105.162 384.5 119.442 378.994 134.582Z" fill="url(#paint4_linear_3418_16502)"/>
<path d="M341.661 106.363C339.252 112.557 337.36 118.923 335.812 125.288C340.629 120.643 346.134 116.342 351.984 112.557C348.715 110.492 345.274 108.428 341.661 106.363Z" fill="url(#paint5_linear_3418_16502)"/>
<path d="M335.812 125.462C332.371 116.343 328.586 107.225 324.629 98.1063C348.887 91.3966 374.521 89.16 400.5 91.5686C378.994 93.2891 359.037 98.4504 341.489 106.537C339.253 112.73 337.36 118.924 335.812 125.462Z" fill="url(#paint6_linear_3418_16502)"/>
<path d="M291.77 90.8794C303.468 92.5998 314.479 95.0085 324.63 97.9332C348.888 91.2235 374.522 88.9869 400.501 91.3955C366.264 83.3094 329.103 82.6212 291.77 90.8794Z" fill="url(#paint7_linear_3418_16502)"/>
<path d="M346.135 108.941C345.103 112.898 344.243 116.856 343.555 120.813C346.651 118.232 349.748 115.651 353.189 113.243C350.953 111.866 348.544 110.49 346.135 108.941Z" fill="url(#paint8_linear_3418_16502)"/>
<defs>
<linearGradient id="paint0_linear_3418_16502" x1="0.5" y1="17" x2="400.5" y2="17" gradientUnits="userSpaceOnUse">
<stop stop-color="#12AA8F"/>
<stop offset="1" stop-color="#11648A"/>
</linearGradient>
<linearGradient id="paint1_linear_3418_16502" x1="4.26224" y1="186.887" x2="332.589" y2="217.322" gradientUnits="userSpaceOnUse">
<stop stop-color="#3FA9F5"/>
<stop offset="0.1821" stop-color="#37AAEE"/>
<stop offset="0.3827" stop-color="#29ABE2"/>
<stop offset="0.3861" stop-color="#2AABE2"/>
<stop offset="0.5933" stop-color="#61BFEF"/>
<stop offset="0.772" stop-color="#89CEF7"/>
<stop offset="0.9134" stop-color="#A1D7FD"/>
<stop offset="1" stop-color="#AADAFF"/>
</linearGradient>
<linearGradient id="paint2_linear_3418_16502" x1="4.26137" y1="186.888" x2="332.588" y2="217.322" gradientUnits="userSpaceOnUse">
<stop stop-color="#AADAFF"/>
<stop offset="0.0865543" stop-color="#A1D7FD"/>
<stop offset="0.228" stop-color="#89CEF7"/>
<stop offset="0.4067" stop-color="#61BFEF"/>
<stop offset="0.6139" stop-color="#2AABE2"/>
<stop offset="0.6173" stop-color="#29ABE2"/>
<stop offset="0.8179" stop-color="#37AAEE"/>
<stop offset="1" stop-color="#3FA9F5"/>
</linearGradient>
<linearGradient id="paint3_linear_3418_16502" x1="336.991" y1="120.333" x2="345.62" y2="114.348" gradientUnits="userSpaceOnUse">
<stop stop-color="#DA2128"/>
<stop offset="0.5225" stop-color="#ED6C30"/>
<stop offset="1" stop-color="#F05123"/>
</linearGradient>
<linearGradient id="paint4_linear_3418_16502" x1="341.383" y1="110.787" x2="406.113" y2="113.774" gradientUnits="userSpaceOnUse">
<stop stop-color="#F7931E"/>
<stop offset="1" stop-color="#FBC43B"/>
</linearGradient>
<linearGradient id="paint5_linear_3418_16502" x1="333.426" y1="117.296" x2="355.141" y2="111.667" gradientUnits="userSpaceOnUse">
<stop stop-color="#F7931E"/>
<stop offset="1" stop-color="#FBC43B"/>
</linearGradient>
<linearGradient id="paint6_linear_3418_16502" x1="366.925" y1="114.615" x2="361.995" y2="92.0017" gradientUnits="userSpaceOnUse">
<stop stop-color="#DA2128"/>
<stop offset="1" stop-color="#ED6C30"/>
</linearGradient>
<linearGradient id="paint7_linear_3418_16502" x1="291.755" y1="92.1304" x2="400.549" y2="90.5963" gradientUnits="userSpaceOnUse">
<stop stop-color="#F7931E"/>
<stop offset="1" stop-color="#FBC43B"/>
</linearGradient>
<linearGradient id="paint8_linear_3418_16502" x1="345.939" y1="114.352" x2="358.889" y2="107.366" gradientUnits="userSpaceOnUse">
<stop stop-color="#F7931E"/>
<stop offset="1" stop-color="#FBC43B"/>
</linearGradient>
</defs>
</svg>
