<svg width="24" height="24" viewBox="0 0 24 24" fill="none" xmlns="http://www.w3.org/2000/svg">
<path d="M20.6736 9.92079H20.6142V8.46534C20.6142 3.79007 16.8242 0 12.1489 0C7.47355 0 3.68354 3.79007 3.68354 8.46534V9.92079H3.32712C2.02018 9.92079 1.01029 11.0792 1.01029 12.4159V16.1287C0.977376 17.4242 2.00096 18.5011 3.29648 18.5341C3.30671 18.5343 3.31689 18.5345 3.32712 18.5346H5.52513C5.83646 18.52 6.077 18.2557 6.06234 17.9444C6.06182 17.9332 6.06097 17.922 6.05978 17.9108V10.6336C6.05978 10.2772 5.85186 9.92073 5.52513 9.92073H4.87166V8.46529C4.87166 4.44621 8.12981 1.18806 12.1489 1.18806C16.168 1.18806 19.4261 4.44621 19.4261 8.46529V9.92073H18.7726C18.4459 9.92073 18.238 10.2771 18.238 10.6336V17.9108C18.2048 18.2207 18.4292 18.4989 18.7391 18.532C18.7502 18.5332 18.7614 18.5341 18.7726 18.5346H19.4558L19.3964 18.6237C18.5051 19.8082 17.1065 20.502 15.6241 20.4949C15.2996 18.9037 13.7465 17.8767 12.1552 18.2013C10.7944 18.4788 9.81329 19.6706 9.80232 21.0593C9.81858 22.6882 11.1437 24 12.7726 23.9999C13.579 23.9868 14.3476 23.6559 14.9112 23.0791C15.2915 22.6896 15.5407 22.1912 15.6241 21.6533C17.4805 21.6604 19.2312 20.7905 20.3468 19.3068L20.9112 18.4751C22.1884 18.386 22.9904 17.584 22.9904 16.4256V12.7127C22.9905 11.4356 22.04 9.92079 20.6736 9.92079ZM4.87166 17.3465H3.32712C2.68752 17.3309 2.18164 16.7999 2.19722 16.1603C2.1975 16.1498 2.1979 16.1392 2.19841 16.1287V12.4158C2.19841 11.7326 2.67365 11.1089 3.32712 11.1089H4.87166V17.3465ZM14.0499 22.2475C13.7207 22.6044 13.2582 22.8088 12.7727 22.8119C11.8063 22.7965 11.022 22.0254 10.9905 21.0594C10.9901 20.0915 11.7744 19.3066 12.7423 19.3062C13.7101 19.3058 14.495 20.0901 14.4954 21.058C14.4954 21.0584 14.4954 21.0589 14.4954 21.0594C14.5202 21.5004 14.3585 21.9315 14.0499 22.2475ZM21.8023 16.4257C21.8023 17.2277 21.0301 17.3465 20.6736 17.3465H19.4261V11.1089H20.6736C21.3271 11.1089 21.8023 12.0297 21.8023 12.7129V16.4257Z" fill="#02060C" fill-opacity="0.8"/>
</svg>
