<svg width="76" height="76" viewBox="0 0 76 76" fill="none" xmlns="http://www.w3.org/2000/svg">
<g clip-path="url(#clip0_537_1945)">
<path d="M72.8411 30.4536C71.2627 28.9267 69.6794 27.3883 68.0911 25.8387C68.0486 23.6942 67.9931 21.5488 67.9249 19.4024C67.8343 16.5301 66.5889 13.79 64.4633 11.6614C62.3377 9.53279 59.5931 8.29928 56.7178 8.20873C54.5685 8.14243 52.4191 8.08701 50.2697 8.04248C48.72 6.46608 47.1807 4.89115 45.6518 3.31772C43.5989 1.20545 40.9285 0.0253725 38.0889 0.0268569C35.2493 0.0283412 32.5789 1.21436 30.529 3.31623C28.9991 4.89264 27.4578 6.47152 25.9052 8.05287C23.7568 8.09642 21.6084 8.15183 19.46 8.21912C13.5403 8.421 8.44744 13.508 8.24557 19.4113C8.17729 21.5577 8.12137 23.7031 8.07783 25.8476C6.4945 27.3963 4.91364 28.9341 3.33526 30.461C1.23041 32.508 0.0458803 35.1798 0.0473647 38.0001C0.048849 40.8205 1.22299 43.4923 3.33674 45.5467C4.91414 47.0726 6.4945 48.609 8.07783 50.1557C8.12236 52.3021 8.17828 54.449 8.24557 56.5964C8.33463 59.4731 9.5815 62.2058 11.7042 64.3374C13.8268 66.469 16.5803 67.6995 19.46 67.7886C21.6094 67.8569 23.7588 67.9128 25.9081 67.9563C27.4578 69.5327 28.9966 71.1071 30.5246 72.6796C32.5774 74.7904 35.2508 75.9705 38.0949 75.969C40.9389 75.9675 43.6049 74.7919 45.6652 72.6811C47.1941 71.1057 48.7339 69.5283 50.2846 67.9489C52.4329 67.9044 54.5813 67.8484 56.7297 67.7812C62.6479 67.5808 67.7423 62.4938 67.9456 56.589C68.0129 54.4445 68.0684 52.3001 68.1119 50.1557C69.6952 48.607 71.2761 47.0687 72.8545 45.5408C74.9608 43.4953 76.1438 40.8264 76.1438 37.9957C76.1438 35.165 74.9504 32.508 72.8411 30.4536ZM56.9865 33.1863C50.577 39.8467 44.065 46.6555 37.6614 53.4094C37.1408 53.9609 36.5132 54.4004 35.817 54.7011C35.1207 55.0017 34.3704 55.1572 33.6121 55.158H33.5868C32.8303 55.1521 32.0825 54.9952 31.3874 54.6965C30.6923 54.3978 30.0638 53.9632 29.5389 53.4183C26.116 49.8836 22.6816 46.3606 19.2359 42.8496C18.7147 42.3257 18.3034 41.703 18.0263 41.0179C17.7493 40.3328 17.612 39.5992 17.6225 38.8603C17.633 38.1214 17.7911 37.3921 18.0875 36.7151C18.384 36.0382 18.8128 35.4274 19.3487 34.9186C20.4282 33.8753 21.8761 33.3006 23.3773 33.3195C24.8784 33.3384 26.3114 33.9494 27.3643 35.0195C29.4108 37.1174 31.4607 39.2218 33.5141 41.3326C38.5981 36.0051 43.7073 30.6451 48.7364 25.3696C50.8709 23.1237 54.4319 23.0866 56.7208 25.2538C59.0097 27.421 59.1374 30.9523 56.9865 33.1863Z" fill="url(#paint0_linear_537_1945)"/>
</g>
<defs>
<linearGradient id="paint0_linear_537_1945" x1="0.0473647" y1="38.0001" x2="76.1335" y2="38.0001" gradientUnits="userSpaceOnUse">
<stop stop-color="#FDA003"/>
<stop offset="0.6" stop-color="#FFC21D"/>
<stop offset="1" stop-color="#FFD647"/>
</linearGradient>
<clipPath id="clip0_537_1945">
<rect width="76" height="76" fill="white"/>
</clipPath>
</defs>
</svg>
