<svg width="168" height="19" viewBox="0 0 168 19" fill="none" xmlns="http://www.w3.org/2000/svg">
<g clip-path="url(#clip0_607_8489)">
<path d="M7.94043 7.55642C7.24784 8.2265 6.1899 8.56068 4.76835 8.56068H2.42739V13.646H0.837891V1.4668H4.77008C6.14488 1.4668 7.1907 1.79924 7.9058 2.4624C8.62263 3.12556 8.98105 3.98264 8.98105 5.03019C8.97932 6.04483 8.63302 6.88807 7.94043 7.55642ZM6.72666 6.67509C7.14568 6.2907 7.35519 5.74356 7.35519 5.03192C7.35519 3.52899 6.49291 2.77753 4.76835 2.77753H2.42739V7.24995H4.76835C5.65487 7.25168 6.30591 7.05948 6.72666 6.67509Z" fill="#34495E"/>
<path d="M12.6936 13.1921C11.9647 12.7852 11.395 12.2051 10.9812 11.4537C10.5674 10.7022 10.3613 9.83129 10.3613 8.84089C10.3613 7.8626 10.5743 6.99686 10.9985 6.2454C11.4245 5.49393 12.0028 4.91735 12.7369 4.51564C13.4711 4.11394 14.2918 3.91309 15.2008 3.91309C16.1098 3.91309 16.9306 4.11394 17.6647 4.51564C18.3989 4.91735 18.9772 5.4922 19.4031 6.23674C19.8273 6.98301 20.0403 7.85048 20.0403 8.84089C20.0403 9.83129 19.8221 10.7022 19.3858 11.4537C18.9495 12.2051 18.3573 12.7852 17.6128 13.1921C16.8665 13.6007 16.0406 13.8033 15.1316 13.8033C14.2329 13.8033 13.4209 13.599 12.6936 13.1921ZM16.7384 12.0026C17.2388 11.7342 17.6439 11.3325 17.9521 10.7975C18.2603 10.2624 18.4144 9.60966 18.4144 8.84089C18.4144 8.07211 18.2621 7.41934 17.9608 6.88431C17.6578 6.34929 17.2613 5.94931 16.773 5.68785C16.283 5.4264 15.7532 5.29481 15.1835 5.29481C14.6017 5.29481 14.0684 5.4264 13.5853 5.68785C13.1023 5.94931 12.7144 6.34929 12.4235 6.88431C12.1326 7.42107 11.9872 8.07211 11.9872 8.84089C11.9872 9.62178 12.1292 10.2797 12.4149 10.8148C12.7006 11.3498 13.0815 11.7498 13.5594 12.0112C14.0373 12.2727 14.5602 12.4043 15.1316 12.4043C15.7012 12.406 16.2362 12.271 16.7384 12.0026Z" fill="#34495E"/>
<path d="M34.891 4.07031L31.9024 13.6454H30.2593L27.9529 6.0442L25.6466 13.6454H24.0034L20.9976 4.07031H22.6217L24.8224 12.1079L27.198 4.07031H28.8221L31.1527 12.1252L33.3188 4.07031H34.891Z" fill="#34495E"/>
<path d="M45.1481 9.45134H37.495C37.5539 10.395 37.8759 11.1326 38.4646 11.6624C39.0533 12.1923 39.7667 12.4572 40.6047 12.4572C41.2921 12.4572 41.8653 12.2979 42.3258 11.9776C42.7864 11.6572 43.1085 11.2296 43.2955 10.6928H45.0079C44.7516 11.6122 44.2391 12.3619 43.4703 12.9385C42.7016 13.5151 41.7458 13.8043 40.6047 13.8043C39.6957 13.8043 38.8837 13.6 38.1668 13.1931C37.45 12.7862 36.889 12.2061 36.4804 11.4547C36.0717 10.7032 35.8691 9.83227 35.8691 8.84186C35.8691 7.85145 36.0665 6.98397 36.463 6.23771C36.8596 5.49317 37.4154 4.91832 38.1322 4.51662C38.849 4.11491 39.6732 3.91406 40.6047 3.91406C41.5138 3.91406 42.3172 4.11145 43.0167 4.50796C43.7162 4.90447 44.2547 5.44815 44.6322 6.14248C45.0114 6.83507 45.2001 7.61943 45.2001 8.4921C45.2001 8.79338 45.1828 9.1137 45.1481 9.45134ZM43.1552 6.59439C42.8868 6.15806 42.5232 5.82562 42.0627 5.59879C41.6021 5.37197 41.093 5.25769 40.5338 5.25769C39.7303 5.25769 39.0447 5.51395 38.4802 6.02647C37.9158 6.53899 37.592 7.2489 37.5106 8.15792H43.5569C43.5587 7.55364 43.4236 7.03246 43.1552 6.59439Z" fill="#34495E"/>
<path d="M50.0848 4.35111C50.6025 4.0481 51.2345 3.89746 51.9808 3.89746V5.54064H51.5617C49.78 5.54064 48.8883 6.50681 48.8883 8.44087V13.6474H47.2988V4.07234H48.8883V5.62721C49.1671 5.07833 49.5653 4.65412 50.0848 4.35111Z" fill="#34495E"/>
<path d="M62.4978 9.45134H54.8446C54.9035 10.395 55.2255 11.1326 55.8142 11.6624C56.4029 12.1923 57.1163 12.4572 57.9544 12.4572C58.6418 12.4572 59.2149 12.2979 59.6754 11.9776C60.136 11.6572 60.4581 11.2296 60.6451 10.6928H62.3575C62.1012 11.6122 61.5887 12.3619 60.82 12.9385C60.0512 13.5151 59.0954 13.8043 57.9544 13.8043C57.0453 13.8043 56.2333 13.6 55.5164 13.1931C54.7996 12.7862 54.2386 12.2061 53.83 11.4547C53.4213 10.7032 53.2188 9.83227 53.2188 8.84186C53.2188 7.85145 53.4161 6.98397 53.8126 6.23771C54.2092 5.49317 54.765 4.91832 55.4818 4.51662C56.1986 4.11491 57.0228 3.91406 57.9544 3.91406C58.8634 3.91406 59.6668 4.11145 60.3663 4.50796C61.0658 4.90447 61.6043 5.44815 61.9818 6.14248C62.361 6.83507 62.5497 7.61943 62.5497 8.4921C62.5497 8.79338 62.5324 9.1137 62.4978 9.45134ZM60.5066 6.59439C60.2382 6.15806 59.8746 5.82562 59.414 5.59879C58.9534 5.37197 58.4444 5.25769 57.8851 5.25769C57.0817 5.25769 56.396 5.51395 55.8316 6.02647C55.2671 6.53899 54.9433 7.2489 54.8619 8.15792H60.9083C60.9083 7.55364 60.7732 7.03246 60.5066 6.59439Z" fill="#34495E"/>
<path d="M64.6464 6.24542C65.0429 5.50608 65.5866 4.93296 66.2809 4.52433C66.9735 4.11743 67.7509 3.91311 68.6132 3.91311C69.3577 3.91311 70.0521 4.08453 70.6927 4.42909C71.3334 4.77366 71.8216 5.22384 72.161 5.78311V0.716797H73.7678V13.6458H72.161V11.8468C71.8459 12.4181 71.3801 12.8856 70.7637 13.2527C70.1456 13.6198 69.4235 13.8033 68.5976 13.8033C67.7475 13.8033 66.9752 13.5938 66.2826 13.1748C65.59 12.7558 65.0446 12.1671 64.6481 11.4104C64.2516 10.6538 64.0542 9.79149 64.0542 8.82532C64.0525 7.8453 64.2516 6.9865 64.6464 6.24542ZM71.7229 6.95359C71.4321 6.41856 71.039 6.00647 70.5438 5.72251C70.0486 5.43682 69.5049 5.29483 68.9093 5.29483C68.3137 5.29483 67.7734 5.43509 67.2852 5.71385C66.7951 5.99262 66.4056 6.40125 66.1147 6.93628C65.8238 7.47304 65.6783 8.10156 65.6783 8.82359C65.6783 9.55774 65.8238 10.1949 66.1147 10.7369C66.4056 11.2788 66.7969 11.6927 67.2852 11.9784C67.7752 12.264 68.3154 12.406 68.9093 12.406C69.5032 12.406 70.0486 12.264 70.5438 11.9784C71.039 11.6927 71.4321 11.2788 71.7229 10.7369C72.0138 10.1949 72.1593 9.56294 72.1593 8.84091C72.1593 8.11888 72.0138 7.49035 71.7229 6.95359Z" fill="#34495E"/>
<path d="M84.1462 4.45507C84.7747 4.09492 85.4916 3.91311 86.295 3.91311C87.1573 3.91311 87.9312 4.11743 88.6186 4.52433C89.306 4.93296 89.848 5.50608 90.2428 6.24542C90.6393 6.98476 90.8367 7.84358 90.8367 8.82187C90.8367 9.78803 90.6393 10.6503 90.2428 11.407C89.8463 12.1636 89.3026 12.7523 88.6082 13.1713C87.9139 13.5904 87.1434 13.7999 86.2933 13.7999C85.4656 13.7999 84.7419 13.6198 84.1185 13.2579C83.4952 12.8978 83.026 12.4372 82.7126 11.8779V13.6423H81.123V0.716797H82.7126V5.8541C83.0398 5.28272 83.5177 4.81694 84.1462 4.45507ZM88.7762 6.93628C88.4853 6.40125 88.0923 5.99262 87.5971 5.71386C87.1019 5.43509 86.5564 5.29483 85.9625 5.29483C85.379 5.29483 84.8405 5.43682 84.3471 5.72251C83.8519 6.0082 83.4554 6.42202 83.1593 6.96225C82.8632 7.50247 82.7143 8.131 82.7143 8.84091C82.7143 9.56294 82.8632 10.1949 83.1593 10.7369C83.4571 11.2788 83.8519 11.6927 84.3471 11.9784C84.8423 12.264 85.3808 12.406 85.9625 12.406C86.5564 12.406 87.1001 12.264 87.5971 11.9784C88.0923 11.6927 88.4853 11.2788 88.7762 10.7369C89.0671 10.1949 89.2125 9.55774 89.2125 8.82359C89.2125 8.10156 89.0671 7.47304 88.7762 6.93628Z" fill="#34495E"/>
<path d="M101.183 4.07031L95.4169 18.1524H93.7737L95.661 13.5398L91.7998 4.07031H93.5642L96.57 11.8274L99.5413 4.07031H101.183Z" fill="#34495E"/>
<path d="M107.193 1.67803C106.948 1.67803 106.748 1.60011 106.59 1.44255C106.432 1.28498 106.354 1.08413 106.354 0.839989C106.354 0.595851 106.432 0.395002 106.59 0.237437C106.748 0.0798725 106.948 0.00195312 107.193 0.00195312H116.541C116.785 0.00195312 116.986 0.0798725 117.143 0.237437C117.301 0.395002 117.379 0.595851 117.379 0.839989C117.379 1.08413 117.301 1.28498 117.143 1.44255C116.986 1.60011 116.785 1.67803 116.541 1.67803H107.193ZM111.874 13.646C111.618 13.646 111.403 13.5595 111.229 13.3846C111.054 13.2097 110.967 12.995 110.967 12.7387V0.00195312H112.785V12.7387C112.785 12.995 112.699 13.2097 112.524 13.3846C112.347 13.5595 112.131 13.646 111.874 13.646Z" fill="#34495E"/>
<path d="M120.927 13.7148C119.983 13.7148 119.15 13.5088 118.428 13.095C117.706 12.6812 117.138 12.1115 116.724 11.3825C116.311 10.6553 116.104 9.81902 116.104 8.87536C116.104 7.91959 116.311 7.07808 116.724 6.35086C117.138 5.62364 117.706 5.05225 118.428 4.63842C119.15 4.2246 119.983 4.01855 120.927 4.01855C121.858 4.01855 122.686 4.2246 123.408 4.63842C124.13 5.05225 124.698 5.62364 125.112 6.35086C125.525 7.07981 125.732 7.92132 125.732 8.87536C125.732 9.81902 125.527 10.6553 125.12 11.3825C124.712 12.1115 124.147 12.6812 123.425 13.095C122.701 13.5088 121.87 13.7148 120.927 13.7148ZM120.927 12.1427C121.533 12.1427 122.068 12.0024 122.533 11.7236C122.999 11.4449 123.363 11.0605 123.626 10.5705C123.889 10.0805 124.019 9.51601 124.019 8.87536C124.019 8.23471 123.888 7.66678 123.626 7.17158C123.365 6.67638 122.999 6.28853 122.533 6.00976C122.068 5.73099 121.531 5.59074 120.927 5.59074C120.321 5.59074 119.786 5.73099 119.32 6.00976C118.854 6.28853 118.487 6.67638 118.219 7.17158C117.95 7.66678 117.817 8.23471 117.817 8.87536C117.817 9.51601 117.95 10.0805 118.219 10.5705C118.487 11.0605 118.854 11.4449 119.32 11.7236C119.784 12.0024 120.321 12.1427 120.927 12.1427Z" fill="#34495E"/>
<path d="M129.278 17.7336C129.021 17.7336 128.808 17.6488 128.64 17.4808C128.471 17.3111 128.388 17.0982 128.388 16.8436V8.87536C128.4 7.95595 128.615 7.1283 129.034 6.39415C129.453 5.66 130.024 5.08168 130.746 4.65574C131.468 4.22979 132.284 4.01855 133.193 4.01855C134.112 4.01855 134.934 4.23153 135.656 4.65574C136.378 5.08168 136.952 5.66 137.378 6.39415C137.803 7.1283 138.015 7.95595 138.015 8.87536C138.015 9.79651 137.819 10.6207 137.429 11.3479C137.04 12.0769 136.507 12.6534 135.831 13.0777C135.156 13.5036 134.392 13.7148 133.542 13.7148C132.855 13.7148 132.223 13.5729 131.646 13.2872C131.07 13.0015 130.578 12.6136 130.169 12.1253V16.8436C130.169 17.0999 130.088 17.3129 129.925 17.4808C129.761 17.6488 129.546 17.7336 129.278 17.7336ZM133.191 12.1427C133.785 12.1427 134.315 12.0007 134.78 11.715C135.246 11.4293 135.617 11.0397 135.89 10.5445C136.164 10.0493 136.301 9.4935 136.301 8.87536C136.301 8.24684 136.164 7.68411 135.89 7.1889C135.617 6.6937 135.246 6.30412 134.78 6.01842C134.315 5.73273 133.785 5.59074 133.191 5.59074C132.607 5.59074 132.081 5.73273 131.61 6.01842C131.139 6.30412 130.768 6.6937 130.5 7.1889C130.232 7.68411 130.098 8.2451 130.098 8.87536C130.098 9.4935 130.232 10.0493 130.5 10.5445C130.768 11.0397 131.137 11.4293 131.61 11.715C132.083 12.0007 132.609 12.1427 133.191 12.1427Z" fill="#34495E"/>
<path d="M141.736 2.53388C141.421 2.53388 141.15 2.4196 140.924 2.19277C140.697 1.96595 140.583 1.69411 140.583 1.38071C140.583 1.06731 140.697 0.795465 140.924 0.568641C141.15 0.341817 141.422 0.227539 141.736 0.227539C142.049 0.227539 142.321 0.341817 142.548 0.568641C142.775 0.795465 142.889 1.06731 142.889 1.38071C142.889 1.69411 142.775 1.96595 142.548 2.19277C142.321 2.4196 142.049 2.53388 141.736 2.53388ZM141.736 13.6465C141.479 13.6465 141.266 13.5617 141.098 13.3937C140.929 13.2258 140.846 13.0128 140.846 12.7565V4.98045C140.846 4.71208 140.931 4.49737 141.098 4.33462C141.266 4.17186 141.479 4.09048 141.736 4.09048C142.004 4.09048 142.219 4.17186 142.382 4.33462C142.544 4.49737 142.626 4.71381 142.626 4.98045V12.7565C142.626 13.0128 142.544 13.2258 142.382 13.3937C142.219 13.5617 142.004 13.6465 141.736 13.6465Z" fill="#34495E"/>
<path d="M146.802 13.6458C146.546 13.6458 146.34 13.5679 146.182 13.4103C146.024 13.2528 145.947 13.0467 145.947 12.7905V0.855352C145.947 0.599093 146.024 0.393044 146.182 0.235479C146.34 0.0779141 146.546 0 146.802 0C147.058 0 147.264 0.0779141 147.422 0.235479C147.579 0.393044 147.657 0.599093 147.657 0.855352V12.7887C147.657 13.045 147.579 13.251 147.422 13.4086C147.264 13.5662 147.058 13.6458 146.802 13.6458ZM147.623 10.1517L146.539 8.96388L151.903 4.17633C152.078 4.01357 152.272 3.93739 152.488 3.94951C152.703 3.96163 152.886 4.05513 153.039 4.22827C153.201 4.40315 153.278 4.59535 153.266 4.80486C153.253 5.01437 153.16 5.20137 152.985 5.36413L147.623 10.1517ZM153.04 13.5592C152.853 13.7099 152.647 13.7774 152.421 13.7601C152.194 13.7428 152.003 13.6406 151.853 13.4536L148.305 9.06777L149.527 7.91459L153.162 12.387C153.312 12.574 153.38 12.7749 153.362 12.9896C153.345 13.206 153.238 13.3947 153.04 13.5592Z" fill="#34495E"/>
<path d="M159.348 13.7148C158.404 13.7148 157.572 13.5088 156.85 13.095C156.127 12.6812 155.56 12.1115 155.146 11.3825C154.732 10.6553 154.526 9.81902 154.526 8.87536C154.526 7.91959 154.732 7.07808 155.146 6.35086C155.56 5.62364 156.127 5.05225 156.85 4.63842C157.572 4.2246 158.404 4.01855 159.348 4.01855C160.28 4.01855 161.107 4.2246 161.829 4.63842C162.551 5.05225 163.119 5.62364 163.533 6.35086C163.947 7.07981 164.153 7.92132 164.153 8.87536C164.153 9.81902 163.949 10.6553 163.542 11.3825C163.133 12.1115 162.569 12.6812 161.847 13.095C161.123 13.5088 160.292 13.7148 159.348 13.7148ZM159.348 12.1427C159.954 12.1427 160.489 12.0024 160.955 11.7236C161.421 11.4449 161.784 11.0605 162.047 10.5705C162.311 10.0805 162.44 9.51601 162.44 8.87536C162.44 8.23471 162.309 7.66678 162.047 7.17158C161.786 6.67638 161.421 6.28853 160.955 6.00976C160.489 5.73099 159.952 5.59074 159.348 5.59074C158.742 5.59074 158.207 5.73099 157.741 6.00976C157.275 6.28853 156.908 6.67638 156.64 7.17158C156.372 7.66678 156.238 8.23471 156.238 8.87536C156.238 9.51601 156.372 10.0805 156.64 10.5705C156.908 11.0605 157.275 11.4449 157.741 11.7236C158.205 12.0024 158.742 12.1427 159.348 12.1427Z" fill="#34495E"/>
<path d="M164.572 13.4367C164.362 13.2272 164.257 12.9709 164.257 12.6679C164.257 12.3649 164.362 12.1086 164.572 11.8991C164.781 11.6896 165.038 11.584 165.341 11.584C165.632 11.584 165.879 11.6896 166.084 11.8991C166.288 12.1086 166.39 12.3649 166.39 12.6679C166.39 12.9709 166.288 13.2272 166.084 13.4367C165.879 13.6462 165.632 13.7518 165.341 13.7518C165.038 13.7518 164.781 13.6462 164.572 13.4367Z" fill="#73BD46"/>
<path d="M93.1779 15.7764H0V16.7754H93.1779V15.7764Z" fill="#34495E"/>
<path d="M127.788 15.9424H97.5049V16.9415H127.788V15.9424Z" fill="#34495E"/>
<path d="M167.72 15.9424H131.115V16.9415H167.72V15.9424Z" fill="#34495E"/>
</g>
<defs>
<clipPath id="clip0_607_8489">
<rect width="168" height="19" fill="white"/>
</clipPath>
</defs>
</svg>
