<svg width="32" height="32" viewBox="0 0 32 32" fill="none" xmlns="http://www.w3.org/2000/svg">
<path d="M21.3332 21.0133V8.33334C21.3332 7.62609 21.0522 6.94782 20.5521 6.44772C20.052 5.94762 19.3738 5.66667 18.6665 5.66667H5.33317C4.62593 5.66667 3.94765 5.94762 3.44755 6.44772C2.94746 6.94782 2.6665 7.62609 2.6665 8.33334V20.3333C2.6665 20.687 2.80698 21.0261 3.05703 21.2761C3.30708 21.5262 3.64622 21.6667 3.99984 21.6667H4.9465C5.20641 21.0732 5.63362 20.5684 6.17589 20.2139C6.71816 19.8594 7.35198 19.6706 7.99984 19.6706C8.6477 19.6706 9.28152 19.8594 9.82379 20.2139C10.3661 20.5684 10.7933 21.0732 11.0532 21.6667H20.9465C21.0443 21.4311 21.1732 21.2133 21.3332 21.0133ZM21.3332 21.0133C21.6797 20.5433 22.144 20.173 22.6794 19.9398C23.2147 19.7065 23.8021 19.6186 24.3822 19.6849C24.9624 19.7511 25.5148 19.9693 25.9838 20.3172C26.4527 20.6652 26.8216 21.1306 27.0532 21.6667H29.3332V17.8133C29.3337 16.8458 29.071 15.8963 28.5732 15.0667L26.9332 12.3333L25.7198 10.32C25.6018 10.121 25.4341 9.95607 25.233 9.84152C25.032 9.72697 24.8046 9.66671 24.5732 9.66667H21.3332V21.0133Z" stroke="#262626" stroke-width="1.5" stroke-linecap="round" stroke-linejoin="round"/>
<path d="M14.6665 15H7.99984M14.6665 11H7.99984M11.3332 23C11.3338 23.4959 11.2237 23.9856 11.011 24.4336C10.7983 24.8815 10.4884 25.2764 10.1038 25.5894C9.71918 25.9023 9.26958 26.1256 8.78776 26.2428C8.30594 26.36 7.80404 26.3682 7.31863 26.2669C6.83322 26.1656 6.37654 25.9572 5.98186 25.657C5.58719 25.3568 5.26446 24.9723 5.03719 24.5316C4.80993 24.0909 4.68386 23.605 4.66817 23.1094C4.65248 22.6138 4.74757 22.1209 4.9465 21.6667C5.25344 20.9658 5.79213 20.3919 6.47214 20.0413C7.15215 19.6906 7.9321 19.5846 8.68105 19.7409C9.43 19.8973 10.1024 20.3065 10.5853 20.9C11.0682 21.4934 11.3323 22.2349 11.3332 23ZM27.3332 23C27.3338 23.4959 27.2237 23.9856 27.011 24.4336C26.7983 24.8815 26.4884 25.2764 26.1038 25.5894C25.7192 25.9023 25.2696 26.1256 24.7878 26.2428C24.3059 26.36 23.804 26.3682 23.3186 26.2669C22.8332 26.1656 22.3765 25.9572 21.9819 25.657C21.5872 25.3568 21.2645 24.9723 21.0372 24.5316C20.8099 24.0909 20.6839 23.605 20.6682 23.1094C20.6525 22.6138 20.7476 22.1209 20.9465 21.6667C21.0443 21.4311 21.1732 21.2133 21.3332 21.0133C21.6797 20.5433 22.144 20.173 22.6794 19.9398C23.2147 19.7065 23.8021 19.6186 24.3822 19.6849C24.9624 19.7511 25.5148 19.9692 25.9838 20.3172C26.4527 20.6651 26.8216 21.1306 27.0532 21.6667C27.2398 22.0867 27.3358 22.5413 27.3332 23Z" stroke="#262626" stroke-width="1.5" stroke-linecap="round" stroke-linejoin="round"/>
</svg>
