<svg width="24" height="18" viewBox="0 0 24 18" fill="none" xmlns="http://www.w3.org/2000/svg">
<path d="M21.3913 0.000976562H2.60866C1.16794 0.000976562 0 1.26012 0 2.81336V15.1881C0 16.7413 1.16794 18.0004 2.60866 18.0004H21.3913C22.8321 18.0004 24 16.7413 24 15.1881V2.81336C24 1.26012 22.8321 0.000976562 21.3913 0.000976562Z" fill="#566FF8"/>
<path d="M15.6519 15.1876H13.565C13.4958 15.1887 13.4271 15.175 13.3628 15.1473C13.2986 15.1195 13.2401 15.0783 13.1908 15.0259C13.1415 14.9736 13.1024 14.9112 13.0756 14.8424C13.0489 14.7735 13.0352 14.6997 13.0352 14.6251C13.0352 14.5505 13.0489 14.4766 13.0756 14.4078C13.1024 14.339 13.1415 14.2766 13.1908 14.2242C13.2401 14.1719 13.2986 14.1306 13.3628 14.1029C13.4271 14.0751 13.4958 14.0614 13.565 14.0626H15.6519C15.7889 14.0648 15.9196 14.1251 16.0157 14.2303C16.1119 14.3356 16.1658 14.4774 16.1658 14.6251C16.1658 14.7728 16.1119 14.9146 16.0157 15.0198C15.9196 15.1251 15.7889 15.1853 15.6519 15.1876Z" fill="white"/>
<path d="M20.3469 15.1875H18.2599C18.1229 15.1853 17.9923 15.125 17.8961 15.0198C17.8 14.9145 17.7461 14.7727 17.7461 14.625C17.7461 14.4773 17.8 14.3355 17.8961 14.2303C17.9923 14.125 18.1229 14.0648 18.2599 14.0625H20.3469C20.4839 14.0648 20.6146 14.125 20.7107 14.2303C20.8068 14.3355 20.8607 14.4773 20.8607 14.625C20.8607 14.7727 20.8068 14.9145 20.7107 15.0198C20.6146 15.125 20.4839 15.1853 20.3469 15.1875Z" fill="white"/>
<path d="M24.0007 2.81291V15.1871C24.0007 15.9331 23.7258 16.6486 23.2365 17.1761C22.7472 17.7036 22.0836 18 21.3916 18H17.4948C9.51201 16.4021 3.45474 8.96698 3.33984 0H21.3921C22.084 0.000140082 22.7475 0.296561 23.2367 0.824069C23.7259 1.35158 24.0007 2.06697 24.0007 2.81291Z" fill="#6C95F8"/>
<path d="M24.0008 2.81287V8.75829C23.8286 8.76951 23.6514 8.77519 23.4791 8.77519C20.9827 8.78191 18.5484 7.93659 16.525 6.36035C14.5015 4.78411 12.9928 2.55784 12.2148 0.000488281H21.3922C22.084 0.000628333 22.7474 0.296977 23.2366 0.824371C23.7258 1.35177 24.0007 2.06702 24.0008 2.81287Z" fill="#8FB6F8"/>
<path d="M7.82445 12.3754C7.82403 12.5245 7.76894 12.6673 7.67119 12.7727C7.57345 12.8781 7.44099 12.9375 7.30275 12.938H3.65055C3.51356 12.9358 3.38288 12.8755 3.28674 12.7703C3.19061 12.665 3.13672 12.5232 3.13672 12.3755C3.13672 12.2278 3.19061 12.086 3.28674 11.9808C3.38288 11.8755 3.51356 11.8153 3.65055 11.813H7.30275C7.39476 11.8132 7.48495 11.8406 7.56354 11.8922L7.56868 11.8979C7.66282 11.9561 7.73766 12.0446 7.78268 12.1511C7.77754 12.1566 7.78268 12.1566 7.78268 12.1566C7.81001 12.2258 7.82421 12.3002 7.82445 12.3754Z" fill="#C6E5FF"/>
<path d="M10.4331 14.625C10.4351 14.6554 10.4316 14.686 10.4227 14.715C10.4047 14.8471 10.3431 14.9676 10.2491 15.0545C10.1551 15.1413 10.0352 15.1886 9.91141 15.1875H3.65055C3.51356 15.1853 3.38288 15.125 3.28674 15.0198C3.19061 14.9145 3.13672 14.7727 3.13672 14.625C3.13672 14.4773 3.19061 14.3355 3.28674 14.2303C3.38288 14.125 3.51356 14.0648 3.65055 14.0625H9.91141C10.0496 14.063 10.1821 14.1224 10.2798 14.2277C10.3776 14.3331 10.4327 14.4759 10.4331 14.625Z" fill="#C6E5FF"/>
<path d="M9.38976 4.50055V7.87591C9.38895 8.17402 9.27875 8.45967 9.08322 8.67046C8.88769 8.88126 8.62274 9.00007 8.34622 9.00094H4.17232C3.89582 9.00007 3.63087 8.88126 3.43536 8.67046C3.23986 8.45966 3.12968 8.17401 3.12891 7.87591V4.50055C3.12902 4.29482 3.18165 4.0931 3.28104 3.91749C3.38043 3.74187 3.52275 3.59914 3.69238 3.50493C3.83966 3.4188 4.00477 3.37427 4.17232 3.37551H8.34622C8.62275 3.37635 8.88772 3.49515 9.08326 3.70595C9.27879 3.91676 9.38898 4.20243 9.38976 4.50055Z" fill="#C6E5FF"/>
<path d="M7.78431 12.1501C7.71143 12.0657 7.6383 11.9814 7.57031 11.897C7.66445 11.9552 7.73929 12.0437 7.78431 12.1501Z" fill="#FEEC88"/>
<path d="M9.39269 4.50032V7.87569C9.39188 8.17379 9.28168 8.45945 9.08615 8.67024C8.89062 8.88104 8.62566 8.99985 8.34915 9.00072H5.64642C4.72457 7.29446 4.06564 5.43825 3.69531 3.50445C3.84259 3.41831 4.0077 3.37379 4.17525 3.37503H8.34915C8.62572 3.37586 8.89073 3.4947 9.08627 3.70556C9.28181 3.91642 9.39198 4.20216 9.39269 4.50032Z" fill="#EAF7FF"/>
<path d="M10.4361 14.625C10.4381 14.6554 10.4346 14.686 10.4257 14.715C10.1597 14.5069 9.89894 14.2931 9.64844 14.0625H9.91438C10.0526 14.063 10.1851 14.1224 10.2828 14.2277C10.3806 14.3331 10.4357 14.4759 10.4361 14.625Z" fill="#EAF7FF"/>
</svg>
