<svg width="24" height="24" viewBox="0 0 24 24" fill="none" xmlns="http://www.w3.org/2000/svg">
<path d="M12.6933 5.71862L13.1037 5.16634L12.3737 4.28229C11.5081 1.7915 9.15175 0 6.38748 0C2.88277 0 0 2.88193 0 6.38748C0 9.1517 1.79141 11.508 4.28215 12.3737L5.07241 13.1977L5.71778 12.6932C5.93791 12.7161 6.16133 12.728 6.38748 12.728C9.88363 12.728 12.728 9.88363 12.728 6.38748C12.728 6.16161 12.7161 5.93847 12.6933 5.71862ZM19.7605 11.633L19.0215 10.6614L18.3185 11.3064C18.1018 11.2838 17.882 11.272 17.6595 11.272C14.1548 11.272 11.272 14.1539 11.272 17.6595C11.272 17.8999 11.2861 18.137 11.3124 18.3706L10.9902 19.1155L11.6508 19.8108C12.5403 22.2512 14.8979 24 17.6595 24C21.1556 24 24 21.1556 24 17.6595C24 14.879 22.2271 12.5082 19.7605 11.633Z" fill="url(#paint0_linear_4146_30360)"/>
<path d="M9.20697 5.68275C9.20697 4.1289 7.94281 2.86475 6.38897 2.86475C4.83512 2.86475 3.57096 4.1289 3.57096 5.68275C3.57096 7.2366 4.83512 8.50075 6.38897 8.50075C7.94281 8.50075 9.20697 7.2366 9.20697 5.68275ZM6.38897 11.3188C7.73052 11.3188 8.94842 10.78 9.83839 9.90792C8.94236 9.03105 7.71972 8.50075 6.38897 8.50075C5.05065 8.50075 3.80312 9.03528 2.90234 9.90374C3.80119 10.7784 5.03247 11.3188 6.38897 11.3188ZM18.32 11.3062C18.8201 11.3584 19.303 11.4698 19.7621 11.6327C19.5422 7.65305 16.342 4.46053 12.3753 4.28211C12.5342 4.73956 12.6431 5.2205 12.6948 5.71844C15.6275 6.03002 17.9702 8.36389 18.32 11.3062ZM5.71927 12.693C5.22161 12.6412 4.7409 12.5324 4.28368 12.3734C4.46093 16.3861 7.66698 19.6198 11.6523 19.8105C11.4854 19.3525 11.3704 18.8701 11.3139 18.3703C8.36932 18.0378 6.02812 15.6657 5.71927 12.693ZM20.479 16.9548C20.479 15.4009 19.2148 14.1368 17.661 14.1368C16.1071 14.1368 14.843 15.4009 14.843 16.9548C14.843 18.5086 16.1071 19.7728 17.661 19.7728C19.2148 19.7728 20.479 18.5086 20.479 16.9548ZM17.661 19.7728C16.3227 19.7728 15.0751 20.3073 14.1744 21.1758C15.0732 22.0504 16.3045 22.5908 17.661 22.5908C19.0025 22.5908 20.2204 22.0521 21.1104 21.1799C20.2144 20.3031 18.9917 19.7728 17.661 19.7728Z" fill="url(#paint1_linear_4146_30360)"/>
<defs>
<linearGradient id="paint0_linear_4146_30360" x1="12" y1="24" x2="12" y2="0" gradientUnits="userSpaceOnUse">
<stop stop-color="#A93AFF"/>
<stop offset="1" stop-color="#FF81FF"/>
</linearGradient>
<linearGradient id="paint1_linear_4146_30360" x1="12.0064" y1="22.5908" x2="12.0064" y2="2.86475" gradientUnits="userSpaceOnUse">
<stop stop-color="#FFBEF9"/>
<stop offset="1" stop-color="#FFF1FF"/>
</linearGradient>
</defs>
</svg>
