<svg width="24" height="24" viewBox="0 0 24 24" fill="none" xmlns="http://www.w3.org/2000/svg">
<rect width="24" height="24" rx="12" fill="url(#paint0_linear_4222_14468)"/>
<path d="M16.5 11.8205C16.5 12.508 16.3882 13.1453 16.1478 13.7043C15.9075 14.2745 15.5888 14.7664 15.1863 15.1689C14.7839 15.5826 14.3087 15.89 13.7553 16.1192C13.2075 16.3484 12.6261 16.449 11.9944 16.449C11.3795 16.449 10.7925 16.3372 10.2447 16.108C9.6969 15.8788 9.22733 15.5602 8.81366 15.1466C8.4 14.7329 8.08137 14.241 7.85217 13.682C7.6118 13.1118 7.5 12.4913 7.5 11.8093V3.99997H9.75279V8.11425C9.87578 7.96332 10.0155 7.82916 10.1888 7.70059C10.3621 7.57202 10.541 7.48258 10.7478 7.40432C10.9435 7.32606 11.1615 7.26456 11.3627 7.23102C11.5807 7.1863 11.7876 7.17512 11.9888 7.17512C12.6149 7.17512 13.2019 7.28693 13.7497 7.5273C14.2975 7.75649 14.7671 8.0863 15.1807 8.49997C15.5832 8.91363 15.913 9.40556 16.1422 9.97574C16.3882 10.5292 16.5 11.1441 16.5 11.8205ZM14.2472 11.8205C14.2472 11.4795 14.1913 11.1664 14.0739 10.8702C13.9565 10.5739 13.8 10.3223 13.5932 10.1043C13.3863 9.8863 13.1571 9.72978 12.8832 9.60121C12.6093 9.47823 12.3242 9.41674 12.0168 9.41674C11.7093 9.41674 11.4242 9.48382 11.1503 9.62357C10.8764 9.76332 10.6472 9.93102 10.4404 10.1602C10.2335 10.3782 10.077 10.641 9.95963 10.9261C9.84783 11.2111 9.78634 11.5074 9.78634 11.8205C9.78634 12.1615 9.84224 12.4745 9.95963 12.7708C10.0714 13.0559 10.2335 13.3074 10.4404 13.5254C10.6472 13.7434 10.8764 13.9 11.1503 14.0285C11.4242 14.1515 11.7093 14.213 12.0168 14.213C12.3242 14.213 12.6093 14.1571 12.8832 14.0285C13.1571 13.9056 13.3863 13.7323 13.5932 13.5254C13.8 13.3074 13.9565 13.0559 14.0739 12.7708C14.1913 12.4857 14.2472 12.1615 14.2472 11.8205Z" fill="#F2F2F2"/>
<path d="M16.4161 17.3434H7.5V19.6521H16.4161V17.3434Z" fill="#F62D2D"/>
<defs>
<linearGradient id="paint0_linear_4222_14468" x1="12" y1="0" x2="12" y2="24" gradientUnits="userSpaceOnUse">
<stop stop-color="#354D65"/>
<stop offset="1" stop-color="#203153"/>
</linearGradient>
</defs>
</svg>
