<svg width="42" height="42" viewBox="0 0 42 42" fill="none" xmlns="http://www.w3.org/2000/svg">
<g clip-path="url(#clip0_4212_5824)">
<path fill-rule="evenodd" clip-rule="evenodd" d="M21 41.9541C32.5438 41.9541 41.959 32.5488 41.959 21.005C41.959 9.46123 32.5438 0.045929 21 0.045929C9.45623 0.045929 0.0410156 9.46115 0.0410156 21.0049C0.0410156 32.5487 9.45623 41.9541 21 41.9541Z" fill="#F3F4F5"/>
<path d="M14.6407 14.4793C14.6407 10.9734 17.4936 8.12109 21.0002 8.12109C24.5062 8.12109 27.3584 10.9734 27.3584 14.4793C27.3584 17.9851 24.5062 20.8374 21.0002 20.8374C17.4936 20.8374 14.6407 17.9852 14.6407 14.4793ZM26.0571 23.5512H15.9391C12.5103 23.5512 9.7207 26.3407 9.7207 29.7696V33.0739C9.7207 33.5185 10.0811 33.8789 10.5258 33.8789H31.4748C31.9194 33.8789 32.2799 33.5185 32.2799 33.0739V29.7739C32.2798 26.3427 29.4883 23.5512 26.0571 23.5512Z" fill="#767B85"/>
</g>
<defs>
<clipPath id="clip0_4212_5824">
<rect width="42" height="42" fill="white"/>
</clipPath>
</defs>
</svg>
