<svg width="28" height="28" viewBox="0 0 28 28" fill="none" xmlns="http://www.w3.org/2000/svg">
<path d="M16.1997 24.5H7.52832C6.08081 24.5 4.90332 23.3225 4.90332 21.875V6.125C4.90332 4.67749 6.08081 3.5 7.52832 3.5H19.7783C21.2258 3.5 22.4033 4.67749 22.4033 6.125V18.6373C22.4033 18.8712 22.498 19.0811 22.6472 19.238C22.8066 19.4055 23.0286 19.5123 23.2783 19.5123C23.762 19.5123 24.1533 19.121 24.1533 18.6373V6.125C24.1533 3.71277 22.1906 1.75 19.7783 1.75H7.52832C5.11609 1.75 3.15332 3.71277 3.15332 6.125V21.875C3.15332 24.2872 5.11609 26.25 7.52832 26.25H16.1997C16.6833 26.25 17.0747 25.8586 17.0747 25.375C17.0747 25.141 16.9801 24.931 16.8307 24.7741C16.6714 24.6068 16.4493 24.5 16.1997 24.5Z" fill="#262626"/>
<path d="M18.9033 13.125H8.40332C7.91968 13.125 7.52832 13.5168 7.52832 14C7.52832 14.4832 7.91968 14.875 8.40332 14.875H18.9033C19.387 14.875 19.7783 14.4832 19.7783 14C19.7783 13.5168 19.387 13.125 18.9033 13.125Z" fill="#262626"/>
<path d="M18.9033 8.75H8.40332C7.91968 8.75 7.52832 9.14178 7.52832 9.625C7.52832 10.1082 7.91968 10.5 8.40332 10.5H18.9033C19.387 10.5 19.7783 10.1082 19.7783 9.625C19.7783 9.14178 19.387 8.75 18.9033 8.75Z" fill="#262626"/>
<path d="M18.9033 17.5H8.40332C7.91968 17.5 7.52832 17.8914 7.52832 18.375C7.52832 18.8586 7.91968 19.25 8.40332 19.25H18.9033C19.387 19.25 19.7783 18.8586 19.7783 18.375C19.7783 17.8914 19.387 17.5 18.9033 17.5Z" fill="#262626"/>
<path d="M18.4649 22.792C18.2825 22.9743 18.2049 23.216 18.2171 23.4546C18.2277 23.6633 18.3054 23.8698 18.4649 24.0293L20.2379 25.8015C20.4088 25.9724 20.6327 26.0579 20.8566 26.0579C21.0805 26.0579 21.3043 25.9724 21.4752 25.8015L24.5907 22.686C24.9325 22.3442 24.9325 21.7905 24.5907 21.4487C24.2489 21.1069 23.6952 21.1069 23.3534 21.4487L20.8566 23.9456L19.7022 22.792C19.5526 22.6425 19.361 22.5704 19.1658 22.5517C18.9149 22.5276 18.6571 22.5997 18.4649 22.792Z" fill="#262626"/>
</svg>
