<svg width="32" height="32" viewBox="0 0 32 32" fill="none" xmlns="http://www.w3.org/2000/svg">
<path d="M29 8H3C1.8955 8 1 7.1045 1 6C1 4.8955 1.8955 4 3 4H29C30.1045 4 31 4.8955 31 6C31 7.1045 30.1045 8 29 8Z" fill="#262626"/>
<path d="M29 28H3C1.8955 28 1 27.1045 1 26C1 24.8955 1.8955 24 3 24H29C30.1045 24 31 24.8955 31 26C31 27.1045 30.1045 28 29 28Z" fill="#262626"/>
<path d="M29 18H3C1.8955 18 1 17.1045 1 16C1 14.8955 1.8955 14 3 14H29C30.1045 14 31 14.8955 31 16C31 17.1045 30.1045 18 29 18Z" fill="#262626"/>
</svg>
