<svg width="28" height="28" viewBox="0 0 28 28" fill="none" xmlns="http://www.w3.org/2000/svg">
<g clip-path="url(#clip0_5114_4521)">
<path d="M9.08214 9.16309H13.2393C14.3397 9.16309 15.2768 9.87331 15.6178 10.8593H9.08214V12.4999H15.6178C15.2768 13.4858 14.3397 14.1961 13.2393 14.1961H9.08214V15.9936L15.5347 22.4461L16.6948 21.286L11.2454 15.8367H13.2393C15.2507 15.8367 16.9328 14.4006 17.3147 12.4999H18.9176V10.8593H17.3144C17.1883 10.2316 16.9209 9.65445 16.5461 9.16309H18.9176V7.52246H9.08203V9.16309H9.08214Z" fill="#262626"/>
<path d="M23.8995 4.10047C21.2552 1.45627 17.7395 0 14 0C10.2605 0 6.74477 1.45627 4.10047 4.10047C1.45627 6.74477 0 10.2605 0 14C0 17.7395 1.45627 21.2552 4.10047 23.8995C6.74477 26.5437 10.2605 28 14 28C17.7395 28 21.2552 26.5437 23.8995 23.8995C26.5437 21.2552 28 17.7395 28 14C28 10.2605 26.5437 6.74477 23.8995 4.10047ZM22.7394 22.7394C20.405 25.0738 17.3013 26.3594 14 26.3594C10.6987 26.3594 7.595 25.0738 5.26061 22.7394C2.92622 20.405 1.64062 17.3013 1.64062 14C1.64062 10.6987 2.92622 7.595 5.26061 5.26061C7.595 2.92622 10.6987 1.64062 14 1.64062C17.3013 1.64062 20.405 2.92622 22.7394 5.26061C25.0738 7.595 26.3594 10.6987 26.3594 14C26.3594 17.3013 25.0738 20.405 22.7394 22.7394Z" fill="#262626"/>
</g>
<defs>
<clipPath id="clip0_5114_4521">
<rect width="28" height="28" fill="white"/>
</clipPath>
</defs>
</svg>
