<svg width="119" height="35" viewBox="0 0 119 35" fill="none" xmlns="http://www.w3.org/2000/svg">
<path d="M19.5511 27.0775H18.411L16.5675 24.5294C16.1066 24.9381 15.6458 25.2987 15.1364 25.6593C14.627 26.0198 14.0933 26.3083 13.5354 26.5727C12.9775 26.8371 12.3954 27.0294 11.8132 27.1977C11.231 27.3419 10.6246 27.4141 10.0182 27.4141C8.70836 27.4141 7.47127 27.1737 6.30695 26.6689C5.14263 26.1881 4.14811 25.491 3.27487 24.6256C2.40163 23.7602 1.72244 22.7266 1.23731 21.5246C0.72792 20.3227 0.485352 19.0246 0.485352 17.6304C0.485352 16.2362 0.72792 14.9381 1.23731 13.7362C1.7467 12.5343 2.42588 11.5006 3.27487 10.6352C4.14811 9.76984 5.14263 9.07272 6.30695 8.56791C7.47127 8.0631 8.70836 7.82272 10.0182 7.82272C10.4306 7.82272 10.8672 7.84676 11.3281 7.91887C11.7647 7.99099 12.2013 8.11118 12.6379 8.25541C13.0503 8.39964 13.4627 8.61599 13.8265 8.88041C14.1904 9.14483 14.5057 9.43329 14.7725 9.81791V1.16406H19.5753V27.0775H19.5511ZM14.7483 17.6545C14.7483 17.0054 14.627 16.3804 14.3844 15.7794C14.1418 15.1785 13.8023 14.6496 13.3656 14.1689C12.929 13.7121 12.4439 13.3275 11.8617 13.0391C11.2796 12.7506 10.6731 12.6064 10.0182 12.6064C9.36329 12.6064 8.75687 12.7266 8.17471 12.9429C7.59255 13.1833 7.10742 13.4958 6.6708 13.9285C6.23418 14.3612 5.91884 14.89 5.67628 15.515C5.43371 16.14 5.31243 16.8371 5.31243 17.6304C5.31243 18.3035 5.43371 18.9525 5.67628 19.5775C5.91884 20.1785 6.25843 20.7314 6.6708 21.1881C7.08316 21.6448 7.59255 22.0054 8.17471 22.2698C8.75687 22.5343 9.36329 22.6785 10.0182 22.6785C10.6731 22.6785 11.2796 22.5343 11.8617 22.2458C12.4439 21.9573 12.929 21.5968 13.3656 21.116C13.8023 20.6593 14.1418 20.1064 14.3844 19.5054C14.627 18.9285 14.7483 18.3035 14.7483 17.6545Z" fill="#34495E"/>
<path d="M28.7927 3.54357C28.7927 3.97626 28.72 4.38491 28.5502 4.76953C28.3804 5.15414 28.1621 5.49068 27.871 5.75511C27.5799 6.04357 27.2403 6.25992 26.8522 6.42819C26.4641 6.59646 26.0517 6.66857 25.6151 6.66857C25.1785 6.66857 24.7661 6.59646 24.378 6.42819C23.9899 6.25992 23.6503 6.04357 23.3593 5.75511C23.0682 5.46664 22.8499 5.1301 22.6801 4.76953C22.5103 4.38491 22.4375 3.97626 22.4375 3.54357C22.4375 3.11088 22.5103 2.70222 22.6801 2.31761C22.8499 1.93299 23.0682 1.59645 23.3593 1.30799C23.6503 1.01953 23.9899 0.803185 24.378 0.634916C24.7661 0.466647 25.1785 0.394531 25.6151 0.394531C26.0517 0.394531 26.4641 0.466647 26.8522 0.634916C27.2403 0.803185 27.5799 1.01953 27.871 1.30799C28.1621 1.59645 28.3804 1.93299 28.5502 2.31761C28.72 2.70222 28.7927 3.11088 28.7927 3.54357ZM27.968 27.0772H23.1652V8.56761H27.968V27.0772Z" fill="#34495E"/>
<path d="M41.8668 27.0774H30.9756V22.3658H41.8668C42.1822 22.3658 42.4732 22.2456 42.7158 22.0293C42.9584 21.7889 43.0554 21.5245 43.0554 21.1879C43.0554 20.8514 42.9341 20.6351 42.7158 20.5389C42.4732 20.4428 42.2064 20.3947 41.8668 20.3947H36.9185C36.0937 20.3947 35.3175 20.2505 34.5898 19.938C33.8621 19.6255 33.2315 19.1927 32.6978 18.6639C32.1642 18.1351 31.7518 17.5101 31.4365 16.7889C31.1211 16.0678 30.9756 15.2985 30.9756 14.4812C30.9756 13.6639 31.1211 12.8947 31.4365 12.1735C31.7518 11.4524 32.1642 10.8274 32.6978 10.2985C33.2315 9.76968 33.8621 9.36103 34.5898 9.04853C35.3175 8.73603 36.0937 8.5918 36.9185 8.5918H46.5726V13.3033H36.9185C36.6031 13.3033 36.312 13.4235 36.0695 13.6399C35.8269 13.8803 35.7299 14.1447 35.7299 14.4812C35.7299 14.8178 35.8512 15.1062 36.0695 15.3466C36.312 15.587 36.5789 15.7072 36.9185 15.7072H41.8668C42.6915 15.7072 43.4435 15.8514 44.1712 16.1158C44.8989 16.3803 45.5296 16.7649 46.0632 17.2456C46.5969 17.7264 47.0335 18.3033 47.3246 19.0004C47.6399 19.6735 47.7854 20.4187 47.7854 21.236C47.7854 22.0533 47.6399 22.8226 47.3246 23.5197C47.0092 24.2168 46.5969 24.8418 46.0632 25.3947C45.5296 25.9235 44.8989 26.3562 44.1712 26.6447C43.4435 26.9331 42.6673 27.0774 41.8668 27.0774Z" fill="#34495E"/>
<path d="M76.4571 27.0773H71.6543V1.21191H76.4571V27.0773Z" fill="#34495E"/>
<path d="M98.1671 27.0774H97.0271L95.1836 24.5294C94.7227 24.938 94.2618 25.2986 93.7524 25.6592C93.243 26.0198 92.7094 26.3082 92.1515 26.5726C91.5936 26.8371 91.0114 27.0294 90.4293 27.1976C89.8471 27.3419 89.2407 27.414 88.6343 27.414C87.3244 27.414 86.0873 27.1976 84.923 26.7649C83.7587 26.3323 82.7642 25.6832 81.8909 24.8659C81.0177 24.0246 80.3385 23.0149 79.8291 21.789C79.3197 20.5871 79.0771 19.1928 79.0771 17.6544C79.0771 16.2121 79.3197 14.89 79.8291 13.688C80.3385 12.4861 81.0177 11.4524 81.8909 10.5871C82.7642 9.72168 83.7587 9.0486 84.923 8.56783C86.0873 8.08706 87.3244 7.84668 88.6343 7.84668C89.2407 7.84668 89.8471 7.91879 90.4293 8.06302C91.0114 8.20726 91.5936 8.4236 92.1515 8.68803C92.7094 8.95245 93.243 9.26495 93.7524 9.62552C94.2618 9.9861 94.7227 10.3707 95.1836 10.7794L97.0271 8.59187H98.1671V27.0774ZM93.3643 17.6544C93.3643 17.0053 93.243 16.3803 93.0005 15.7794C92.7579 15.1784 92.4183 14.6496 91.9817 14.1688C91.5451 13.7121 91.0599 13.3274 90.4778 13.039C89.8956 12.7505 89.2892 12.6063 88.6343 12.6063C87.9793 12.6063 87.3729 12.7265 86.7908 12.9428C86.2086 13.1592 85.7235 13.4957 85.2868 13.9044C84.8502 14.3371 84.5349 14.8659 84.2923 15.4909C84.0498 16.1159 83.9285 16.8371 83.9285 17.6544C83.9285 18.4717 84.0498 19.1688 84.2923 19.8178C84.5349 20.4428 84.8745 20.9717 85.2868 21.4044C85.6992 21.8371 86.2086 22.1496 86.7908 22.3659C87.3729 22.5823 87.9793 22.7025 88.6343 22.7025C89.2892 22.7025 89.8956 22.5582 90.4778 22.2697C91.0599 21.9813 91.5451 21.6207 91.9817 21.14C92.4183 20.6832 92.7579 20.1303 93.0005 19.5294C93.243 18.9284 93.3643 18.3034 93.3643 17.6544Z" fill="#34495E"/>
<path d="M106.293 34.1443V29.3847L108.937 29.4087C109.398 29.4087 109.859 29.3366 110.271 29.1924C110.708 29.0482 111.096 28.8318 111.46 28.5674C111.824 28.303 112.139 27.9905 112.43 27.6299C112.697 27.2693 112.94 26.8607 113.109 26.452C112.576 26.6683 112.042 26.8847 111.508 27.101C110.975 27.3174 110.417 27.4376 109.883 27.4376C108.743 27.4376 107.652 27.2453 106.633 26.8366C105.614 26.428 104.741 25.851 103.965 25.1058C103.213 24.3607 102.606 23.4472 102.17 22.3895C101.733 21.3318 101.515 20.1299 101.515 18.8078V8.56738H106.269V18.8078C106.269 19.4568 106.366 20.0337 106.56 20.5385C106.754 21.0193 107.021 21.428 107.336 21.7645C107.652 22.101 108.04 22.3414 108.476 22.5097C108.913 22.678 109.374 22.7501 109.883 22.7501C110.368 22.7501 110.829 22.6299 111.266 22.4135C111.702 22.1972 112.091 21.8847 112.406 21.5241C112.721 21.1635 112.988 20.7308 113.182 20.2741C113.376 19.8174 113.473 19.3366 113.473 18.8318V8.59142H118.276V24.7693C118.276 26.0674 118.009 27.2933 117.5 28.4232C116.99 29.553 116.311 30.5626 115.462 31.4039C114.589 32.2453 113.594 32.9424 112.43 33.4231C111.29 33.928 110.053 34.1683 108.743 34.1683L106.293 34.1443Z" fill="#34495E"/>
<path d="M69.0109 17.6542C69.0109 19.0965 68.7683 20.4427 68.2589 21.6206C67.7495 22.8225 67.0704 23.8561 66.2214 24.6975C65.3724 25.5629 64.3536 26.2119 63.1893 26.6927C62.025 27.1735 60.7879 27.3898 59.4538 27.3898C58.1439 27.3898 56.9068 27.1494 55.7425 26.6687C54.5782 26.1879 53.5837 25.5148 52.7104 24.6494C51.8372 23.784 51.158 22.7504 50.6729 21.5725C50.1635 20.3706 49.9209 19.0725 49.9209 17.6302V1.21191H54.6995V9.86576C54.9663 9.55326 55.2574 9.2648 55.6212 9.00037C55.9851 8.73595 56.3732 8.54364 56.8098 8.37537C57.2221 8.2071 57.683 8.08691 58.1196 8.0148C58.5805 7.91864 59.0171 7.8946 59.4538 7.8946C60.7879 7.8946 62.025 8.13499 63.1893 8.6398C64.3536 9.12057 65.3481 9.81769 66.2214 10.6831C67.0704 11.5485 67.7738 12.5821 68.2589 13.784C68.7683 14.9379 69.0109 16.236 69.0109 17.6542ZM64.2323 17.6542C64.2323 16.9331 64.111 16.284 63.8685 15.659C63.6259 15.034 63.2863 14.5052 62.8497 14.0485C62.4131 13.5917 61.9279 13.2552 61.3458 12.9908C60.7636 12.7263 60.1572 12.6062 59.5023 12.6062C58.8473 12.6062 58.2409 12.7504 57.6588 13.0388C57.0766 13.3273 56.5915 13.6879 56.1549 14.1687C55.7182 14.6254 55.3786 15.1783 55.1361 15.7792C54.8935 16.3802 54.7722 17.0052 54.7722 17.6542C54.7722 18.3754 54.8935 19.0244 55.1361 19.6494C55.3786 20.2504 55.7182 20.7792 56.1549 21.236C56.5915 21.6927 57.0766 22.0292 57.6588 22.2936C58.2409 22.5581 58.8473 22.6783 59.5023 22.6783C60.1572 22.6783 60.7636 22.5581 61.3458 22.2936C61.9279 22.0292 62.4131 21.6686 62.8497 21.236C63.2863 20.7792 63.6259 20.2504 63.8685 19.6494C64.111 19.0485 64.2323 18.3754 64.2323 17.6542Z" fill="#34495E"/>
<path d="M68.9378 29.3613H50.0176V34.2171H68.9378V29.3613Z" fill="#F62D2D"/>
</svg>
