<svg width="28" height="28" viewBox="0 0 28 28" fill="none" xmlns="http://www.w3.org/2000/svg">
<path d="M13.7025 17.0206C13.6999 17.0206 13.6973 17.0206 13.6946 17.0206C13.2116 17.0162 12.8231 16.6212 12.8275 16.1377L12.8314 15.7002C12.8314 15.6753 12.8328 15.6499 12.8354 15.625C12.9566 14.3523 13.8014 13.5722 14.4808 12.9453C14.7109 12.7327 14.9288 12.5319 15.1143 12.3223C15.3405 12.0672 15.6686 11.5449 15.3234 10.9144C14.9258 10.1864 13.9545 9.98036 13.1998 10.1532C12.4114 10.3334 12.1209 11.0067 12.0177 11.3917C11.8926 11.8585 11.4126 12.1355 10.9458 12.0108C10.479 11.8857 10.2021 11.4057 10.3268 10.9389C10.6754 9.63648 11.5802 8.72867 12.8087 8.44736C14.462 8.0698 16.1271 8.73786 16.8582 10.0744C17.4668 11.1874 17.3001 12.4934 16.4229 13.483C16.1792 13.7577 15.9189 13.9984 15.6669 14.2307C15.0391 14.8104 14.6466 15.198 14.5801 15.7575L14.5766 16.1526C14.5731 16.6343 14.182 17.0206 13.7025 17.0206Z" fill="#262626"/>
<path d="M13.7021 19.6439C13.4746 19.6439 13.2471 19.552 13.0853 19.3901C12.919 19.2282 12.8271 19.0007 12.8271 18.7689C12.8271 18.5414 12.919 18.3139 13.0853 18.152C13.409 17.8282 13.9953 17.8282 14.319 18.152C14.4853 18.3139 14.5771 18.5414 14.5771 18.7689C14.5771 19.0007 14.4853 19.2239 14.3234 19.3901C14.1571 19.552 13.934 19.6439 13.7021 19.6439Z" fill="#262626"/>
<path d="M13.9659 25.3736C12.9705 25.3736 11.984 25.2441 11.0333 24.9881C6.93654 23.8861 3.72879 20.4924 2.86123 16.3418C1.97704 12.1134 3.60891 7.66838 7.01923 5.01756C8.9906 3.485 11.4769 2.64062 14.0205 2.64062C15.7815 2.64062 17.5302 3.05013 19.078 3.82406C22.9005 5.73638 25.3702 9.73163 25.3702 14.0029C25.3702 17.4881 23.7256 20.8472 20.9711 22.9883C18.9927 24.5266 16.5047 25.3736 13.9659 25.3736ZM14.021 4.39063C11.8645 4.39063 9.75929 5.10375 8.09373 6.39919C5.20754 8.64269 3.82591 12.4048 4.57448 15.9835C5.3086 19.4944 8.02241 22.3658 11.4883 23.2981C12.2907 23.5138 13.1245 23.6236 13.9659 23.6236C16.1175 23.6236 18.224 22.9074 19.8975 21.6067C22.2289 19.7946 23.6206 16.9521 23.6206 14.0029C23.6206 10.3888 21.5307 7.00775 18.2958 5.38944C16.9894 4.73625 15.5115 4.39063 14.021 4.39063Z" fill="#262626"/>
</svg>
