<svg width="28" height="28" viewBox="0 0 28 28" fill="none" xmlns="http://www.w3.org/2000/svg">
<path d="M18.6663 18.3863V7.29134C18.6663 6.6725 18.4205 6.07901 17.9829 5.64143C17.5453 5.20384 16.9518 4.95801 16.333 4.95801H4.66634C4.0475 4.95801 3.45401 5.20384 3.01643 5.64143C2.57884 6.07901 2.33301 6.6725 2.33301 7.29134V17.7913C2.33301 18.1008 2.45592 18.3975 2.67472 18.6163C2.89351 18.8351 3.19026 18.958 3.49967 18.958H4.32801C4.55543 18.4387 4.92924 17.997 5.40372 17.6868C5.8782 17.3766 6.4328 17.2114 6.99967 17.2114C7.56655 17.2114 8.12115 17.3766 8.59563 17.6868C9.07011 17.997 9.44392 18.4387 9.67134 18.958H18.328C18.4136 18.7519 18.5263 18.5613 18.6663 18.3863ZM18.6663 18.3863C18.9695 17.9751 19.3758 17.6511 19.8442 17.447C20.3127 17.2429 20.8266 17.166 21.3343 17.2239C21.8419 17.2819 22.3253 17.4728 22.7356 17.7772C23.1459 18.0817 23.4687 18.489 23.6713 18.958H25.6663V15.5863C25.6668 14.7397 25.4369 13.909 25.0013 13.183L23.5663 10.7913L22.5047 9.02967C22.4014 8.85552 22.2546 8.71123 22.0787 8.611C21.9028 8.51077 21.7038 8.45804 21.5013 8.45801H18.6663V18.3863Z" stroke="#262626" stroke-width="1.5" stroke-linecap="round" stroke-linejoin="round"/>
<path d="M12.833 13.125H6.99967M12.833 9.625H6.99967M9.91634 20.125C9.91685 20.5589 9.82055 20.9874 9.63446 21.3794C9.44837 21.7713 9.17717 22.1168 8.84063 22.3907C8.50409 22.6646 8.1107 22.8599 7.6891 22.9624C7.26751 23.065 6.82835 23.0722 6.40362 22.9835C5.97889 22.8949 5.57929 22.7126 5.23395 22.4499C4.8886 22.1872 4.60622 21.8508 4.40736 21.4652C4.20851 21.0795 4.0982 20.6544 4.08447 20.2207C4.07074 19.787 4.15394 19.3558 4.32801 18.9583C4.59658 18.3451 5.06793 17.8429 5.66294 17.5361C6.25795 17.2293 6.9404 17.1365 7.59573 17.2733C8.25106 17.4101 8.83938 17.7682 9.26193 18.2875C9.68449 18.8067 9.91555 19.4555 9.91634 20.125ZM23.9163 20.125C23.9168 20.5589 23.8205 20.9874 23.6345 21.3794C23.4484 21.7713 23.1772 22.1168 22.8406 22.3907C22.5041 22.6646 22.1107 22.8599 21.6891 22.9624C21.2675 23.065 20.8283 23.0722 20.4036 22.9835C19.9789 22.8949 19.5793 22.7126 19.2339 22.4499C18.8886 22.1872 18.6062 21.8508 18.4074 21.4652C18.2085 21.0795 18.0982 20.6544 18.0845 20.2207C18.0707 19.787 18.1539 19.3558 18.328 18.9583C18.4136 18.7522 18.5263 18.5617 18.6663 18.3867C18.9695 17.9754 19.3758 17.6514 19.8442 17.4473C20.3127 17.2432 20.8266 17.1663 21.3343 17.2243C21.8419 17.2822 22.3253 17.4731 22.7356 17.7775C23.1459 18.082 23.4687 18.4893 23.6713 18.9583C23.8347 19.3258 23.9187 19.7237 23.9163 20.125Z" stroke="#262626" stroke-width="1.5" stroke-linecap="round" stroke-linejoin="round"/>
</svg>
