<svg width="26" height="34" viewBox="0 0 26 34" fill="none" xmlns="http://www.w3.org/2000/svg">
<path fill-rule="evenodd" clip-rule="evenodd" d="M4.7124 0H16.0797L25.7139 10.042V29.5737C25.7139 32.0205 23.7344 34 21.2961 34H4.7124C2.26564 34 0.286133 32.0205 0.286133 29.5737V4.42627C0.28609 1.9795 2.26559 0 4.7124 0Z" fill="#DD2F2F"/>
<path opacity="0.302" fill-rule="evenodd" clip-rule="evenodd" d="M16.071 0V9.96552H25.7137L16.071 0Z" fill="white"/>
<path d="M5.20508 25.3681V19.1577H7.84727C8.50144 19.1577 9.0197 19.3361 9.4105 19.7014C9.80129 20.0583 9.99671 20.5425 9.99671 21.1457C9.99671 21.7489 9.80129 22.2332 9.4105 22.59C9.0197 22.9553 8.50144 23.1337 7.84727 23.1337H6.79378V25.3681H5.20508ZM6.79378 21.7829H7.66886C7.90672 21.7829 8.09363 21.7319 8.22109 21.613C8.34851 21.5026 8.41651 21.3496 8.41651 21.1458C8.41651 20.9419 8.34855 20.7889 8.22109 20.6785C8.09368 20.5595 7.90676 20.5086 7.66886 20.5086H6.79378V21.7829ZM10.6509 25.3681V19.1577H12.8512C13.2845 19.1577 13.6923 19.2172 14.0746 19.3446C14.4569 19.472 14.8053 19.6505 15.1111 19.8969C15.417 20.1347 15.6633 20.4576 15.8417 20.8654C16.0116 21.2732 16.1051 21.7404 16.1051 22.2672C16.1051 22.7854 16.0117 23.2527 15.8417 23.6605C15.6633 24.0683 15.417 24.3911 15.1111 24.629C14.8052 24.8753 14.4569 25.0537 14.0746 25.1812C13.6923 25.3086 13.2845 25.3681 12.8512 25.3681H10.6509ZM12.2056 24.0173H12.6643C12.9107 24.0173 13.1401 23.9918 13.3525 23.9323C13.5564 23.8729 13.7518 23.7794 13.9387 23.652C14.1171 23.5246 14.2615 23.3461 14.3635 23.1083C14.4654 22.8704 14.5164 22.59 14.5164 22.2672C14.5164 21.9358 14.4654 21.6555 14.3635 21.4176C14.2615 21.1797 14.1171 21.0013 13.9387 20.8739C13.7518 20.7465 13.5564 20.653 13.3525 20.5935C13.1401 20.5341 12.9107 20.5086 12.6643 20.5086H12.2056V24.0173ZM16.9037 25.3681V19.1577H21.3215V20.5086H18.4924V21.5025H20.7523V22.8449H18.4924V25.3681H16.9037Z" fill="white"/>
</svg>
