<svg width="27" height="26" viewBox="0 0 27 26" fill="none" xmlns="http://www.w3.org/2000/svg">
<path d="M16.7502 14.1059C16.8802 14.1059 17.3569 14.3225 18.1802 14.7559C19.0035 15.1892 19.4369 15.4492 19.4802 15.5359C19.4802 15.5792 19.4802 15.6442 19.4802 15.7309C19.4802 16.0775 19.3935 16.4459 19.2202 16.8359C19.0902 17.2259 18.7435 17.5509 18.1802 17.8109C17.6169 18.0709 17.1402 18.2009 16.7502 18.2009C16.1869 18.2009 15.2552 17.8975 13.9552 17.2909C13.0019 16.8575 12.1785 16.2942 11.4852 15.6009C10.7919 14.9075 10.0769 13.9975 9.3402 12.8709C8.64686 11.8742 8.3002 10.9425 8.3002 10.0759V9.94586C8.34353 9.07919 8.71186 8.32086 9.40519 7.67086C9.62186 7.45419 9.88186 7.34586 10.1852 7.34586C10.2285 7.34586 10.3152 7.34586 10.4452 7.34586C10.5752 7.34586 10.6619 7.36753 10.7052 7.41086C10.8785 7.41086 11.0085 7.43253 11.0952 7.47586C11.1819 7.51919 11.2469 7.64919 11.2902 7.86586C11.3769 8.08253 11.5502 8.51586 11.8102 9.16586C12.0702 9.81586 12.1785 10.1842 12.1352 10.2709C12.1352 10.4875 11.9619 10.7692 11.6152 11.1159C11.2685 11.4625 11.1169 11.6792 11.1602 11.7659C11.1602 11.8525 11.1819 11.9175 11.2252 11.9609C11.5285 12.6975 12.0269 13.3692 12.7202 13.9759C13.2402 14.4959 13.9552 14.9725 14.8652 15.4059C14.9952 15.4925 15.1035 15.5359 15.1902 15.5359C15.3635 15.5359 15.6235 15.2975 15.9702 14.8209C16.3169 14.3442 16.5769 14.1059 16.7502 14.1059ZM13.8252 21.8409C15.0385 21.8409 16.2085 21.6025 17.3352 21.1259C18.4619 20.6492 19.4369 19.9992 20.2602 19.1759C21.0835 18.3525 21.7335 17.3775 22.2102 16.2509C22.6869 15.1242 22.9252 13.9542 22.9252 12.7409C22.9252 11.5275 22.6869 10.3359 22.2102 9.16586C21.7335 7.99586 21.0835 7.02086 20.2602 6.24086C19.4369 5.46086 18.4619 4.83253 17.3352 4.35586C16.2085 3.87919 15.0385 3.61919 13.8252 3.57586C12.6119 3.53253 11.4202 3.79253 10.2502 4.35586C9.08019 4.91919 8.1052 5.54753 7.3252 6.24086C6.5452 6.93419 5.91686 7.90919 5.4402 9.16586C4.96353 10.4225 4.70353 11.6142 4.6602 12.7409C4.6602 14.6909 5.2452 16.4675 6.4152 18.0709L5.3102 21.4509L8.8202 20.2809C10.3369 21.3209 12.0052 21.8409 13.8252 21.8409ZM13.8252 1.75586C15.2985 1.75586 16.7069 2.05919 18.0502 2.66586C19.3935 3.27253 20.5635 4.05253 21.5602 5.00586C22.5569 5.95919 23.3152 7.10753 23.8352 8.45086C24.3552 9.79419 24.6585 11.2242 24.7452 12.7409C24.8319 14.2575 24.5285 15.6659 23.8352 16.9659C23.1419 18.2659 22.3835 19.4142 21.5602 20.4109C20.7369 21.4075 19.5669 22.1875 18.0502 22.7509C16.5335 23.3142 15.1252 23.6175 13.8252 23.6609C11.9185 23.6609 10.1419 23.2059 8.4952 22.2959L2.4502 24.2459L4.4002 18.3309C3.3602 16.6409 2.8402 14.7775 2.8402 12.7409C2.8402 11.2242 3.14353 9.79419 3.7502 8.45086C4.35686 7.10753 5.13686 5.95919 6.0902 5.00586C7.04353 4.05253 8.19186 3.27253 9.53519 2.66586C10.8785 2.05919 12.3085 1.75586 13.8252 1.75586Z" fill="white"/>
</svg>
