<svg width="48" height="48" viewBox="0 0 48 48" fill="none" xmlns="http://www.w3.org/2000/svg">
<rect width="48" height="48" rx="10" fill="#25D366"/>
<path fill-rule="evenodd" clip-rule="evenodd" d="M33.6276 13.3291C30.935 10.6322 27.3478 9.14692 23.5305 9.14258C15.6655 9.14258 9.25984 15.5439 9.25984 23.4132C9.25984 25.9277 9.91561 28.3858 11.1663 30.5485L9.14258 37.9444L16.7078 35.9597C18.7924 37.0976 21.1375 37.6969 23.5261 37.6969H23.5305C31.3954 37.6969 37.7967 31.2955 37.8011 23.4262C37.8054 19.6132 36.3245 16.026 33.6276 13.3291ZM23.5348 35.2866H23.5305C21.4025 35.2866 19.3135 34.7133 17.4939 33.632L17.0596 33.3757L12.5691 34.5526L13.7677 30.175L13.4854 29.7277C12.2998 27.8386 11.6701 25.6585 11.6701 23.4132C11.6745 16.8729 16.9945 11.5529 23.5391 11.5529C26.7094 11.5529 29.6843 12.7906 31.9252 15.0315C34.1661 17.2724 35.3995 20.2559 35.3951 23.4219C35.3951 29.9666 30.0708 35.2866 23.5348 35.2866ZM30.0404 26.4011C29.6843 26.223 27.9298 25.3588 27.6041 25.2416C27.2783 25.1243 27.0395 25.0635 26.8006 25.4196C26.5618 25.7757 25.8799 26.5792 25.6715 26.818C25.463 27.0569 25.2546 27.0873 24.8985 26.9092C24.5423 26.7312 23.3915 26.3533 22.0322 25.1373C20.9725 24.1906 20.2559 23.0224 20.0475 22.6662C19.839 22.3101 20.0258 22.1147 20.2038 21.9366C20.3645 21.7759 20.5599 21.5197 20.738 21.3113C20.9161 21.1028 20.9769 20.9552 21.0941 20.7163C21.2114 20.4774 21.1549 20.269 21.0637 20.0909C20.9725 19.9129 20.2603 18.1583 19.965 17.4418C19.674 16.7469 19.383 16.8425 19.1615 16.8294C18.9531 16.8207 18.7142 16.8164 18.4797 16.8164C18.2409 16.8164 17.8543 16.9076 17.5286 17.2637C17.2029 17.6198 16.2822 18.4841 16.2822 20.2386C16.2822 21.9931 17.559 23.6912 17.7371 23.9257C17.9151 24.1645 20.2516 27.7648 23.8301 29.3108C24.6813 29.68 25.3458 29.8971 25.8626 30.0621C26.7181 30.3357 27.4955 30.2966 28.1078 30.2054C28.794 30.1012 30.2185 29.3412 30.5138 28.5117C30.8091 27.6779 30.8091 26.9657 30.7222 26.818C30.6354 26.6704 30.3965 26.5835 30.0404 26.4011Z" fill="white"/>
</svg>
