<svg width="46" height="46" viewBox="0 0 46 46" fill="none" xmlns="http://www.w3.org/2000/svg">
<rect width="46" height="46" rx="8" fill="#25D366"/>
<path d="M26.7502 24.2754C26.9002 24.2754 27.4502 24.5254 28.4002 25.0254C29.3502 25.5254 29.8502 25.8254 29.9002 25.9254C29.9002 25.9754 29.9002 26.0504 29.9002 26.1504C29.9002 26.5504 29.8002 26.9754 29.6002 27.4254C29.4502 27.8754 29.0502 28.2504 28.4002 28.5504C27.7502 28.8504 27.2002 29.0004 26.7502 29.0004C26.1002 29.0004 25.0252 28.6504 23.5252 27.9504C22.4252 27.4504 21.4752 26.8004 20.6752 26.0004C19.8752 25.2004 19.0502 24.1504 18.2002 22.8504C17.4002 21.7004 17.0002 20.6254 17.0002 19.6254V19.4754C17.0502 18.4754 17.4752 17.6004 18.2752 16.8504C18.5252 16.6004 18.8252 16.4754 19.1752 16.4754C19.2252 16.4754 19.3252 16.4754 19.4752 16.4754C19.6252 16.4754 19.7252 16.5004 19.7752 16.5504C19.9752 16.5504 20.1252 16.5754 20.2252 16.6254C20.3252 16.6754 20.4002 16.8254 20.4502 17.0754C20.5502 17.3254 20.7502 17.8254 21.0502 18.5754C21.3502 19.3254 21.4752 19.7504 21.4252 19.8504C21.4252 20.1004 21.2252 20.4254 20.8252 20.8254C20.4252 21.2254 20.2502 21.4754 20.3002 21.5754C20.3002 21.6754 20.3252 21.7504 20.3752 21.8004C20.7252 22.6504 21.3002 23.4254 22.1002 24.1254C22.7002 24.7254 23.5252 25.2754 24.5752 25.7754C24.7252 25.8754 24.8502 25.9254 24.9502 25.9254C25.1502 25.9254 25.4502 25.6504 25.8502 25.1004C26.2502 24.5504 26.5502 24.2754 26.7502 24.2754ZM23.3752 33.2004C24.7752 33.2004 26.1252 32.9254 27.4252 32.3754C28.7252 31.8254 29.8502 31.0754 30.8002 30.1254C31.7502 29.1754 32.5002 28.0504 33.0502 26.7504C33.6002 25.4504 33.8752 24.1004 33.8752 22.7004C33.8752 21.3004 33.6002 19.9254 33.0502 18.5754C32.5002 17.2254 31.7502 16.1004 30.8002 15.2004C29.8502 14.3004 28.7252 13.5754 27.4252 13.0254C26.1252 12.4754 24.7752 12.1754 23.3752 12.1254C21.9752 12.0754 20.6002 12.3754 19.2502 13.0254C17.9002 13.6754 16.7752 14.4004 15.8752 15.2004C14.9752 16.0004 14.2502 17.1254 13.7002 18.5754C13.1502 20.0254 12.8502 21.4004 12.8002 22.7004C12.8002 24.9504 13.4752 27.0004 14.8252 28.8504L13.5502 32.7504L17.6002 31.4004C19.3502 32.6004 21.2752 33.2004 23.3752 33.2004ZM23.3752 10.0254C25.0752 10.0254 26.7002 10.3754 28.2502 11.0754C29.8002 11.7754 31.1502 12.6754 32.3002 13.7754C33.4502 14.8754 34.3252 16.2004 34.9252 17.7504C35.5252 19.3004 35.8752 20.9504 35.9752 22.7004C36.0752 24.4504 35.7252 26.0754 34.9252 27.5754C34.1252 29.0754 33.2502 30.4004 32.3002 31.5504C31.3502 32.7004 30.0002 33.6004 28.2502 34.2504C26.5002 34.9004 24.8752 35.2504 23.3752 35.3004C21.1752 35.3004 19.1252 34.7754 17.2252 33.7254L10.2502 35.9754L12.5002 29.1504C11.3002 27.2004 10.7002 25.0504 10.7002 22.7004C10.7002 20.9504 11.0502 19.3004 11.7502 17.7504C12.4502 16.2004 13.3502 14.8754 14.4502 13.7754C15.5502 12.6754 16.8752 11.7754 18.4252 11.0754C19.9752 10.3754 21.6252 10.0254 23.3752 10.0254Z" fill="white"/>
</svg>
