<svg width="20" height="20" viewBox="0 0 20 20" fill="none" xmlns="http://www.w3.org/2000/svg">
<path d="M9.74626 12.589C9.74401 12.589 9.74176 12.589 9.73951 12.589C9.32551 12.5853 8.99251 12.2466 8.99626 11.8323L8.99963 11.4573C8.99963 11.4359 9.00076 11.4141 9.00301 11.3928C9.10688 10.3019 9.83101 9.63327 10.4134 9.0959C10.6106 8.91365 10.7974 8.74152 10.9564 8.5619C11.1503 8.34327 11.4315 7.89552 11.1356 7.35515C10.7948 6.73115 9.96226 6.55452 9.31538 6.70265C8.63963 6.85715 8.39063 7.43427 8.30213 7.76427C8.19488 8.1644 7.78351 8.40177 7.38338 8.2949C6.98326 8.18765 6.74588 7.77627 6.85276 7.37615C7.15163 6.25977 7.92713 5.48165 8.98013 5.24052C10.3973 4.9169 11.8245 5.48952 12.4511 6.63515C12.9728 7.58915 12.8299 8.70852 12.078 9.55677C11.8691 9.79227 11.646 9.99852 11.43 10.1976C10.8919 10.6945 10.5555 11.0268 10.4985 11.5064L10.4955 11.845C10.4925 12.2579 10.1573 12.589 9.74626 12.589Z" fill="white" fill-opacity="0.8"/>
<path d="M9.74512 14.8375C9.55012 14.8375 9.35512 14.7587 9.21637 14.62C9.07387 14.4812 8.99512 14.2862 8.99512 14.0875C8.99512 13.8925 9.07387 13.6975 9.21637 13.5587C9.49387 13.2812 9.99637 13.2812 10.2739 13.5587C10.4164 13.6975 10.4951 13.8925 10.4951 14.0875C10.4951 14.2862 10.4164 14.4775 10.2776 14.62C10.1351 14.7587 9.94387 14.8375 9.74512 14.8375Z" fill="white" fill-opacity="0.8"/>
<path d="M9.97157 19.749C9.11844 19.749 8.27282 19.638 7.45794 19.4187C3.94644 18.474 1.19694 15.5652 0.453317 12.0075C-0.304558 8.38317 1.09419 4.57317 4.01732 2.30105C5.70707 0.987422 7.83819 0.263672 10.0184 0.263672C11.5278 0.263672 13.0267 0.614672 14.3534 1.27805C17.6298 2.91717 19.7467 6.34167 19.7467 10.0028C19.7467 12.99 18.3371 15.8693 15.9761 17.7045C14.2803 19.023 12.1477 19.749 9.97157 19.749ZM10.0188 1.76367C8.17044 1.76367 6.36594 2.37492 4.93832 3.4853C2.46444 5.4083 1.28019 8.63292 1.92182 11.7004C2.55107 14.7098 4.87719 17.1709 7.84794 17.97C8.53569 18.1549 9.25044 18.249 9.97157 18.249C11.8158 18.249 13.6214 17.6352 15.0558 16.5203C17.0542 14.967 18.2471 12.5307 18.2471 10.0028C18.2471 6.90492 16.4557 4.00692 13.6829 2.6198C12.5632 2.05992 11.2964 1.76367 10.0188 1.76367Z" fill="white" fill-opacity="0.8"/>
</svg>
