<svg width="22" height="24" viewBox="0 0 22 24" fill="none" xmlns="http://www.w3.org/2000/svg">
<path d="M19.6739 9.92079H19.6145V8.46534C19.6145 3.79007 15.8245 0 11.1491 0C6.47379 0 2.68378 3.79007 2.68378 8.46534V9.92079H2.32737C1.02042 9.92079 0.0105379 11.0792 0.0105379 12.4159V16.1287C-0.0223802 17.4242 1.00121 18.5011 2.29672 18.5341C2.30696 18.5343 2.31713 18.5345 2.32737 18.5346H4.52537C4.8367 18.52 5.07725 18.2557 5.06258 17.9444C5.06207 17.9332 5.06122 17.922 5.06002 17.9108V10.6336C5.06002 10.2772 4.85211 9.92073 4.52537 9.92073H3.8719V8.46529C3.8719 4.44621 7.13005 1.18806 11.1491 1.18806C15.1682 1.18806 18.4263 4.44621 18.4263 8.46529V9.92073H17.7729C17.4461 9.92073 17.2382 10.2771 17.2382 10.6336V17.9108C17.2051 18.2207 17.4294 18.4989 17.7393 18.532C17.7505 18.5332 17.7617 18.5341 17.7729 18.5346H18.456L18.3966 18.6237C17.5053 19.8082 16.1067 20.502 14.6243 20.4949C14.2998 18.9037 12.7467 17.8767 11.1554 18.2013C9.79465 18.4788 8.81353 19.6706 8.80256 21.0593C8.81882 22.6882 10.144 24 11.7729 23.9999C12.5792 23.9868 13.3478 23.6559 13.9115 23.0791C14.2917 22.6896 14.5409 22.1912 14.6243 21.6533C16.4807 21.6604 18.2314 20.7905 19.3471 19.3068L19.9115 18.4751C21.1887 18.386 21.9907 17.584 21.9907 16.4256V12.7127C21.9907 11.4356 21.0402 9.92079 19.6739 9.92079ZM3.8719 17.3465H2.32737C1.68777 17.3309 1.18189 16.7999 1.19746 16.1603C1.19775 16.1498 1.19815 16.1392 1.19866 16.1287V12.4158C1.19866 11.7326 1.6739 11.1089 2.32737 11.1089H3.8719V17.3465ZM13.0501 22.2475C12.7209 22.6044 12.2584 22.8088 11.7729 22.8119C10.8065 22.7965 10.0223 22.0254 9.99074 21.0594C9.99034 20.0915 10.7746 19.3066 11.7425 19.3062C12.7104 19.3058 13.4953 20.0901 13.4957 21.058C13.4957 21.0584 13.4957 21.0589 13.4957 21.0594C13.5204 21.5004 13.3587 21.9315 13.0501 22.2475ZM20.8026 16.4257C20.8026 17.2277 20.0303 17.3465 19.6739 17.3465H18.4263V11.1089H19.6739C20.3274 11.1089 20.8026 12.0297 20.8026 12.7129V16.4257Z" fill="white" fill-opacity="0.8"/>
</svg>
