<svg width="46" height="46" viewBox="0 0 46 46" fill="none" xmlns="http://www.w3.org/2000/svg">
<rect width="46" height="46" rx="8" fill="white"/>
<path d="M37.3819 15.7984C37.0361 14.5133 36.0228 13.5003 34.7379 13.1542C32.3902 12.5117 22.9997 12.5117 22.9997 12.5117C22.9997 12.5117 13.6094 12.5117 11.2618 13.1297C10.0016 13.4755 8.96359 14.5135 8.61775 15.7984C8 18.1458 8 23.0141 8 23.0141C8 23.0141 8 27.9069 8.61775 30.2298C8.96382 31.5148 9.97684 32.528 11.262 32.8741C13.6341 33.5166 22.9999 33.5166 22.9999 33.5166C22.9999 33.5166 32.3902 33.5166 34.7379 32.8986C36.023 32.5527 37.0361 31.5395 37.3821 30.2546C37.9999 27.9069 37.9999 23.0389 37.9999 23.0389C37.9999 23.0389 38.0246 18.1458 37.3819 15.7984Z" fill="#FF0000"/>
<path d="M20.0099 27.5126L27.8186 23.0151L20.0099 18.5176V27.5126Z" fill="white"/>
</svg>
